0
SECTION
2
HEADER
9
$INSUNITS
70
4
9
$ACADVER
1
AC1014
9
$HANDSEED
5
FFFF
0
ENDSEC
0
SECTION
2
TABLES
0
TABLE
2
VPORT
5
8
100
AcDbSymbolTable
0
ENDTAB
0
TABLE
2
LTYPE
5
5
100
AcDbSymbolTable
0
LTYPE
5
14
100
AcDbSymbolTableRecord
100
AcDbLinetypeTableRecord
2
BYBLOCK
70
0
0
LTYPE
5
15
100
AcDbSymbolTableRecord
100
AcDbLinetypeTableRecord
2
BYLAYER
70
0
0
ENDTAB
0
TABLE
2
LAYER
5
2
100
AcDbSymbolTable
70
2
0
LAYER
5
50
100
AcDbSymbolTableRecord
100
AcDbLayerTableRecord
2
0
70
0
6
CONTINUOUS
0
ENDTAB
0
TABLE
2
STYLE
5
3
100
AcDbSymbolTable
70
1
0
STYLE
5
11
100
AcDbSymbolTableRecord
100
AcDbTextStyleTableRecord
2
STANDARD
70
0
0
ENDTAB
0
TABLE
2
VIEW
5
6
100
AcDbSymbolTable
70
0
0
ENDTAB
0
TABLE
2
UCS
5
7
100
AcDbSymbolTable
70
0
0
ENDTAB
0
TABLE
2
APPID
5
9
100
AcDbSymbolTable
70
2
0
APPID
5
12
100
AcDbSymbolTableRecord
100
AcDbRegAppTableRecord
2
ACAD
70
0
0
ENDTAB
0
TABLE
2
DIMSTYLE
5
A
100
AcDbSymbolTable
70
1
0
ENDTAB
0
TABLE
2
BLOCK_RECORD
5
1
100
AcDbSymbolTable
70
1
0
BLOCK_RECORD
5
1F
100
AcDbSymbolTableRecord
100
AcDbBlockTableRecord
2
*MODEL_SPACE
0
BLOCK_RECORD
5
1B
100
AcDbSymbolTableRecord
100
AcDbBlockTableRecord
2
*PAPER_SPACE
0
ENDTAB
0
ENDSEC
0
SECTION
2
BLOCKS
0
BLOCK
5
20
100
AcDbEntity
100
AcDbBlockBegin
2
*MODEL_SPACE
0
ENDBLK
5
21
100
AcDbEntity
100
AcDbBlockEnd
0
BLOCK
5
1C
100
AcDbEntity
100
AcDbBlockBegin
2
*PAPER_SPACE
0
ENDBLK
5
1D
100
AcDbEntity
100
AcDbBlockEnd
0
ENDSEC
0
SECTION
2
ENTITIES
0
LINE
5
100
100
AcDbEntity
8
0
100
AcDbLine
10
317.78749999999991
20
-197.734295921799
30
0
11
317.78749999999991
21
-196.73429592179903
31
0
0
ARC
5
101
100
AcDbEntity
8
0
100
AcDbCircle
10
-268.53125000000381
20
-197.73429592179912
30
0
40
0.74999999999992184
210
0
220
-0
230
-1
100
AcDbArc
50
-90.00000000000432
51
0
0
ARC
5
102
100
AcDbEntity
8
0
100
AcDbCircle
10
-35.168749495907853
20
-197.73429592179897
30
0
40
0.74999999999988631
210
0
220
-0
230
-1
100
AcDbArc
50
-90.000000000001066
51
0
0
ARC
5
103
100
AcDbEntity
8
0
100
AcDbCircle
10
-6.1499999999999719
20
-197.23429592179914
30
0
40
1.2499999999999645
210
0
220
-0
230
-1
100
AcDbArc
50
-90.000000000000966
51
0
0
CIRCLE
5
104
100
AcDbEntity
8
0
100
AcDbCircle
10
14.499999999999982
20
-113.0342959217991
30
0
40
2.500000000000004
210
0
220
0
230
1
0
ARC
5
105
100
AcDbEntity
8
0
100
AcDbCircle
10
-351.46300000000008
20
-197.23429592179914
30
0
40
1.2499999999999289
210
0
220
0
230
-1
100
AcDbArc
50
180
51
270.00000000000261
0
LINE
5
106
100
AcDbEntity
8
0
100
AcDbLine
10
261.28125000000387
20
-196.73429592179903
30
0
11
261.28125000000387
21
-197.734295921799
31
0
0
ARC
5
107
100
AcDbEntity
8
0
100
AcDbCircle
10
31.168749495907978
20
-196.734295921799
30
0
40
3.2500000000000062
210
0
220
-0
230
1
100
AcDbArc
50
0
51
180
0
ARC
5
108
100
AcDbEntity
8
0
100
AcDbCircle
10
-79.747564869735328
20
-197.73428515057336
30
0
40
0.75000000000006395
210
0
220
-0
230
-1
100
AcDbArc
50
180
51
269.99999999999454
0
LINE
5
109
100
AcDbEntity
8
0
100
AcDbLine
10
311.28749999999985
20
-196.73429592179903
30
0
11
311.28749999999985
21
-197.734295921799
31
0
0
ARC
5
110
100
AcDbEntity
8
0
100
AcDbCircle
10
264.53125000000387
20
-196.73429592179906
30
0
40
3.2499999999999929
210
0
220
-0
230
1
100
AcDbArc
50
0
51
180
0
ARC
5
111
100
AcDbEntity
8
0
100
AcDbCircle
10
-27.168749495907917
20
-197.73429592179892
30
0
40
0.75000000000007283
210
0
220
-0
230
-1
100
AcDbArc
50
180
51
269.99999999999511
0
LINE
5
112
100
AcDbEntity
8
0
100
AcDbLine
10
80.497564869735385
20
-196.73428515057341
30
0
11
80.497564869735385
21
-197.73428515057338
31
0
0
LINE
5
113
100
AcDbEntity
8
0
100
AcDbLine
10
39.825000000000024
20
-104.5342959217991
30
0
11
39.825000000000024
21
-105.53429592179911
31
0
0
ARC
5
114
100
AcDbEntity
8
0
100
AcDbCircle
10
-6.1499999999999861
20
-105.03429592179907
30
0
40
1.2499999999999878
210
-0
220
0
230
-1
100
AcDbArc
50
0
51
90.000000000000583
0
ARC
5
115
100
AcDbEntity
8
0
100
AcDbCircle
10
-47.075000000000003
20
-104.53429592179909
30
0
40
0.74999999999998401
210
-0
220
0
230
-1
100
AcDbArc
50
0
51
90.000000000011937
0
ARC
5
116
100
AcDbEntity
8
0
100
AcDbCircle
10
138.32500000000002
20
-105.53429592179909
30
0
40
3.2499999999999929
210
0
220
0
230
1
100
AcDbArc
50
180
51
360
0
LINE
5
117
100
AcDbEntity
8
0
100
AcDbLine
10
352.71300000000002
20
-105.0342959217991
30
0
11
352.71300000000002
21
-197.23429592179912
31
0
0
LINE
5
118
100
AcDbEntity
8
0
100
AcDbLine
10
27.918749495907971
20
-196.73429592179903
30
0
11
27.918749495907988
21
-197.73429592179895
31
0
0
LINE
5
119
100
AcDbEntity
8
0
100
AcDbLine
10
46.325000000000017
20
-105.53429592179911
30
0
11
46.325000000000017
21
-104.5342959217991
31
0
0
LINE
5
120
100
AcDbEntity
8
0
100
AcDbLine
10
34.418749495907967
20
-197.73429592179895
30
0
11
34.418749495907981
21
-196.73429592179897
31
0
0
ARC
5
121
100
AcDbEntity
8
0
100
AcDbCircle
10
83.747564869735399
20
-196.73428515057344
30
0
40
3.2499999999999929
210
0
220
-0
230
1
100
AcDbArc
50
0
51
180
0
LINE
5
122
100
AcDbEntity
8
0
100
AcDbLine
10
135.07500000000002
20
-104.53429592179896
30
0
11
135.07500000000002
21
-105.53429592179907
31
0
0
LINE
5
123
100
AcDbEntity
8
0
100
AcDbLine
10
4.9000000000000075
20
-197.23429592179912
30
0
11
4.8999999999999986
21
-105.0342959217991
31
0
0
ARC
5
124
100
AcDbEntity
8
0
100
AcDbCircle
10
314.53749999999991
20
-196.73429592179906
30
0
40
3.2499999999999929
210
0
220
-0
230
1
100
AcDbArc
50
0
51
180
0
LINE
5
125
100
AcDbEntity
8
0
100
AcDbLine
10
7.9999999999999707
20
-106.03429592179909
30
0
11
21
21
-120.0342959217991
31
0
0
ARC
5
126
100
AcDbEntity
8
0
100
AcDbCircle
10
-351.46300000000008
20
-105.03429592179907
30
0
40
1.2499999999999822
210
0
220
0
230
-1
100
AcDbArc
50
89.999999999997399
51
180
0
ARC
5
127
100
AcDbEntity
8
0
100
AcDbCircle
10
-318.5374999999998
20
-197.73429592179912
30
0
40
0.74999999999992184
210
0
220
-0
230
-1
100
AcDbArc
50
-90.00000000000432
51
0
0
LINE
5
128
100
AcDbEntity
8
0
100
AcDbLine
10
267.78125000000387
20
-197.734295921799
30
0
11
267.78125000000387
21
-196.73429592179903
31
0
0
ARC
5
129
100
AcDbEntity
8
0
100
AcDbCircle
10
-39.075000000000017
20
-104.53429592179913
30
0
40
0.75000000000001066
210
0
220
0
230
-1
100
AcDbArc
50
90.00000000000054
51
180
0
LINE
5
130
100
AcDbEntity
8
0
100
AcDbLine
10
141.57500000000002
20
-105.5342959217991
30
0
11
141.57500000000002
21
-104.53429592179896
31
0
0
ARC
5
131
100
AcDbEntity
8
0
100
AcDbCircle
10
-134.32499999999999
20
-104.53429592179899
30
0
40
0.75000000000002842
210
0
220
0
230
-1
100
AcDbArc
50
90.000000000008683
51
180
0
ARC
5
132
100
AcDbEntity
8
0
100
AcDbCircle
10
-142.32500000000002
20
-104.53429592179893
30
0
40
0.74999999999999289
210
-0
220
0
230
-1
100
AcDbArc
50
0
51
90
0
LINE
5
133
100
AcDbEntity
8
0
100
AcDbLine
10
86.997564869735399
20
-197.73428515057338
30
0
11
86.997564869735399
21
-196.73428515057341
31
0
0
ARC
5
134
100
AcDbEntity
8
0
100
AcDbCircle
10
-260.53125000000387
20
-197.73429592179906
30
0
40
0.75000000000002842
210
0
220
0
230
-1
100
AcDbArc
50
180
51
270
0
ARC
5
135
100
AcDbEntity
8
0
100
AcDbCircle
10
-310.53749999999991
20
-197.73429592179909
30
0
40
0.74999999999995737
210
0
220
0
230
-1
100
AcDbArc
50
180
51
270.00000000000432
0
ARC
5
136
100
AcDbEntity
8
0
100
AcDbCircle
10
-87.747564869735371
20
-197.73428515057347
30
0
40
0.74999999999995737
210
0
220
-0
230
-1
100
AcDbArc
50
-90.000000000003254
51
0
0
ARC
5
137
100
AcDbEntity
8
0
100
AcDbCircle
10
43.075000000000031
20
-105.53429592179911
30
0
40
3.2500000000000018
210
0
220
0
230
1
100
AcDbArc
50
-180
51
0
0
ARC
5
138
100
AcDbEntity
8
0
100
AcDbCircle
10
264.53125000000387
20
-196.73429592179906
30
0
40
3.0000000000000071
210
-0
220
0
230
1
100
AcDbArc
50
0
51
180
0
ARC
5
139
100
AcDbEntity
8
0
100
AcDbCircle
10
211.95303066988066
20
-196.73429592179906
30
0
40
3.0000000000000071
210
-0
220
0
230
1
100
AcDbArc
50
0
51
180
0
LINE
5
140
100
AcDbEntity
8
0
100
AcDbLine
10
249.375
20
-104.53429592179909
30
0
11
249.375
21
-105.53429592179918
31
0
0
ARC
5
141
100
AcDbEntity
8
0
100
AcDbCircle
10
252.625
20
-105.53429592179921
30
0
40
3.2499999999999929
210
0
220
0
230
1
100
AcDbArc
50
180
51
360
0
ARC
5
142
100
AcDbEntity
8
0
100
AcDbCircle
10
-248.62499999999997
20
-104.5342959217991
30
0
40
0.75000000000002842
210
0
220
0
230
-1
100
AcDbArc
50
90.000000000008683
51
180
0
ARC
5
143
100
AcDbEntity
8
0
100
AcDbCircle
10
-256.625
20
-104.53429592179904
30
0
40
0.74999999999995737
210
-0
220
0
230
-1
100
AcDbArc
50
0
51
90
0
LINE
5
144
100
AcDbEntity
8
0
100
AcDbLine
10
255.875
20
-105.53429592179923
30
0
11
255.87500000000003
21
-104.53429592179909
31
0
0
ARC
5
145
100
AcDbEntity
8
0
100
AcDbCircle
10
-337.58750000000009
20
-104.53429592179901
30
0
40
0.75000000000002842
210
-0
220
0
230
-1
100
AcDbArc
50
0
51
90
0
ARC
5
146
100
AcDbEntity
8
0
100
AcDbCircle
10
-329.58750000000003
20
-104.53429592179907
30
0
40
0.75000000000002842
210
0
220
0
230
-1
100
AcDbArc
50
90.000000000004349
51
180
0
LINE
5
147
100
AcDbEntity
8
0
100
AcDbLine
10
336.83750000000003
20
-105.53429592179918
30
0
11
336.83750000000003
21
-104.53429592179904
31
0
0
LINE
5
148
100
AcDbEntity
8
0
100
AcDbLine
10
330.33750000000003
20
-104.53429592179904
30
0
11
330.33750000000003
21
-105.53429592179916
31
0
0
ARC
5
149
100
AcDbEntity
8
0
100
AcDbCircle
10
333.58749999999998
20
-105.53429592179917
30
0
40
3.2499999999999574
210
0
220
0
230
1
100
AcDbArc
50
180
51
360
0
ARC
5
150
100
AcDbEntity
8
0
100
AcDbCircle
10
-215.95303066988063
20
-197.73429592179909
30
0
40
0.74999999999995737
210
0
220
-0
230
-1
100
AcDbArc
50
-90.000000000002188
51
0
0
LINE
5
151
100
AcDbEntity
8
0
100
AcDbLine
10
215.20303066988063
20
-197.734295921799
30
0
11
215.20303066988063
21
-196.73429592179903
31
0
0
ARC
5
152
100
AcDbEntity
8
0
100
AcDbCircle
10
211.95303066988066
20
-196.73429592179906
30
0
40
3.2499999999999574
210
0
220
-0
230
1
100
AcDbArc
50
0
51
180
0
LINE
5
153
100
AcDbEntity
8
0
100
AcDbLine
10
208.70303066988066
20
-196.73429592179903
30
0
11
208.70303066988066
21
-197.734295921799
31
0
0
ARC
5
154
100
AcDbEntity
8
0
100
AcDbCircle
10
-207.95303066988058
20
-197.73429592179897
30
0
40
0.75000000000006395
210
0
220
-0
230
-1
100
AcDbArc
50
180
51
269.99999999999346
0
LINE
5
155
100
AcDbEntity
8
0
100
AcDbLine
10
6.1499999999999932
20
-198.48429592179912
30
0
11
27.168749495907981
21
-198.48429592179897
31
0
0
LINE
5
156
100
AcDbEntity
8
0
100
AcDbLine
10
35.168749495907868
20
-198.48429592179886
30
0
11
79.747564869735399
21
-198.48428515057344
31
0
0
LINE
5
157
100
AcDbEntity
8
0
100
AcDbLine
10
87.747564869735413
20
-198.48428515057344
30
0
11
207.95303066988066
21
-198.48429592179906
31
0
0
LINE
5
158
100
AcDbEntity
8
0
100
AcDbLine
10
215.95303066988066
20
-198.48429592179906
30
0
11
260.53125000000387
21
-198.48429592179906
31
0
0
LINE
5
159
100
AcDbEntity
8
0
100
AcDbLine
10
268.53125000000387
20
-198.48429592179906
30
0
11
310.53749999999985
21
-198.48429592179906
31
0
0
LINE
5
160
100
AcDbEntity
8
0
100
AcDbLine
10
351.46300000000002
20
-198.48429592179912
30
0
11
318.53749999999985
21
-198.48429592179906
31
0
0
LINE
5
161
100
AcDbEntity
8
0
100
AcDbLine
10
337.58750000000009
20
-103.78429592179904
30
0
11
351.46300000000002
21
-103.78429592179904
31
0
0
LINE
5
162
100
AcDbEntity
8
0
100
AcDbLine
10
256.625
20
-103.78429592179907
30
0
11
329.58750000000009
21
-103.78429592179904
31
0
0
LINE
5
163
100
AcDbEntity
8
0
100
AcDbLine
10
142.32500000000002
20
-103.78429592179896
30
0
11
248.62500000000009
21
-103.78429592179907
31
0
0
LINE
5
164
100
AcDbEntity
8
0
100
AcDbLine
10
47.075000000000159
20
-103.7842959217991
30
0
11
134.3250000000001
21
-103.78429592179896
31
0
0
LINE
5
165
100
AcDbEntity
8
0
100
AcDbLine
10
6.1499999999999986
20
-103.7842959217991
30
0
11
39.075000000000024
21
-103.78429592179911
31
0
0
ENDSEC
0
SECTION
2
OBJECTS
0
DICTIONARY
5
C
100
AcDbDictionary
3
ACAD_GROUP
350
D
3
ACAD_MLINESTYLE
350
17
0
DICTIONARY
5
D
100
AcDbDictionary
0
DICTIONARY
5
1A
330
C
100
AcDbDictionary
0
DICTIONARY
5
17
100
AcDbDictionary
0
ENDSEC
0
EOF
