%TF.GenerationSoftware,KiCad,Pcbnew,(5.99.0-12118-g897269f33f)*%
%TF.CreationDate,2021-10-27T19:42:23-04:00*%
%TF.ProjectId,latte,6c617474-652e-46b6-9963-61645f706362,rev?*%
%TF.SameCoordinates,Original*%
%TF.FileFunction,Legend,Top*%
%TF.FilePolarity,Positive*%
%FSLAX46Y46*%
G04 Gerber Fmt 4.6, Leading zero omitted, Abs format (unit mm)*
G04 Created by KiCad (PCBNEW (5.99.0-12118-g897269f33f)) date 2021-10-27 19:42:23*
%MOMM*%
%LPD*%
G01*
G04 APERTURE LIST*
%ADD10C,0.150000*%
G04 APERTURE END LIST*
D10*
%TO.C,JP1*%
X289567619Y-93927380D02*
X289234285Y-93451190D01*
X288996190Y-93927380D02*
X288996190Y-92927380D01*
X289377142Y-92927380D01*
X289472380Y-92975000D01*
X289520000Y-93022619D01*
X289567619Y-93117857D01*
X289567619Y-93260714D01*
X289520000Y-93355952D01*
X289472380Y-93403571D01*
X289377142Y-93451190D01*
X288996190Y-93451190D01*
X289996190Y-93403571D02*
X290329523Y-93403571D01*
X290472380Y-93927380D02*
X289996190Y-93927380D01*
X289996190Y-92927380D01*
X290472380Y-92927380D01*
X290853333Y-93879761D02*
X290996190Y-93927380D01*
X291234285Y-93927380D01*
X291329523Y-93879761D01*
X291377142Y-93832142D01*
X291424761Y-93736904D01*
X291424761Y-93641666D01*
X291377142Y-93546428D01*
X291329523Y-93498809D01*
X291234285Y-93451190D01*
X291043809Y-93403571D01*
X290948571Y-93355952D01*
X290900952Y-93308333D01*
X290853333Y-93213095D01*
X290853333Y-93117857D01*
X290900952Y-93022619D01*
X290948571Y-92975000D01*
X291043809Y-92927380D01*
X291281904Y-92927380D01*
X291424761Y-92975000D01*
X291853333Y-93403571D02*
X292186666Y-93403571D01*
X292329523Y-93927380D02*
X291853333Y-93927380D01*
X291853333Y-92927380D01*
X292329523Y-92927380D01*
X292615238Y-92927380D02*
X293186666Y-92927380D01*
X292900952Y-93927380D02*
X292900952Y-92927380D01*
%TO.C,G\u002A\u002A\u002A*%
G36*
X3603885Y-93717205D02*
G01*
X7091180Y-93736410D01*
X7486213Y-93930400D01*
X8024056Y-94270469D01*
X8478863Y-94719943D01*
X8847370Y-95274644D01*
X9126315Y-95930396D01*
X9177722Y-96095973D01*
X9264006Y-96538673D01*
X9298369Y-97061130D01*
X9281436Y-97614633D01*
X9213835Y-98150471D01*
X9147498Y-98449667D01*
X9059337Y-98889599D01*
X9061923Y-99234464D01*
X9160632Y-99498632D01*
X9360841Y-99696476D01*
X9667926Y-99842364D01*
X9668610Y-99842600D01*
X9880203Y-99899159D01*
X10036763Y-99889016D01*
X10157278Y-99795569D01*
X10260732Y-99602218D01*
X10366111Y-99292363D01*
X10390000Y-99211836D01*
X10525863Y-98781227D01*
X10682675Y-98339026D01*
X10846602Y-97920311D01*
X11003808Y-97560161D01*
X11140457Y-97293658D01*
X11158129Y-97264246D01*
X11341303Y-97041480D01*
X17929776Y-97041480D01*
X17999873Y-97220873D01*
X18016259Y-97248523D01*
X18122864Y-97534425D01*
X18159867Y-97906724D01*
X18125935Y-98330970D01*
X18068692Y-98604972D01*
X17977077Y-98958154D01*
X18512733Y-99002826D01*
X19080390Y-99078668D01*
X19634441Y-99205369D01*
X20147424Y-99373121D01*
X20591878Y-99572118D01*
X20940345Y-99792556D01*
X21081985Y-99920284D01*
X21219486Y-100031865D01*
X21300623Y-100023206D01*
X21320427Y-99902998D01*
X21273926Y-99679935D01*
X21254514Y-99618551D01*
X21165480Y-99413447D01*
X21517422Y-99413447D01*
X21561074Y-99519517D01*
X21733207Y-99657448D01*
X21812699Y-99706293D01*
X21990756Y-99830556D01*
X22233770Y-100027198D01*
X22509803Y-100269224D01*
X22786913Y-100529637D01*
X22787369Y-100530082D01*
X23059465Y-100800299D01*
X23244423Y-100998289D01*
X23358036Y-101144934D01*
X23416100Y-101261116D01*
X23434412Y-101367715D01*
X23434708Y-101385858D01*
X23380425Y-101581845D01*
X23212498Y-101727600D01*
X22923055Y-101828315D01*
X22705236Y-101866939D01*
X22462393Y-101917151D01*
X22347546Y-101987294D01*
X22350511Y-102084189D01*
X22358940Y-102098979D01*
X22448798Y-102157454D01*
X22621586Y-102155904D01*
X22895628Y-102093426D01*
X22981923Y-102068235D01*
X23288826Y-101936473D01*
X23529444Y-101756536D01*
X23677563Y-101552326D01*
X23712218Y-101402418D01*
X23655766Y-101186078D01*
X23484665Y-100914877D01*
X23196297Y-100585406D01*
X22788046Y-100194252D01*
X22778938Y-100186044D01*
X22419251Y-99873261D01*
X22107433Y-99623986D01*
X21856672Y-99447682D01*
X21680151Y-99353812D01*
X21604505Y-99343171D01*
X21517422Y-99413447D01*
X21165480Y-99413447D01*
X21035917Y-99114977D01*
X20716823Y-98587414D01*
X20577683Y-98403985D01*
X49493912Y-98403985D01*
X49979705Y-98911722D01*
X50196629Y-99136777D01*
X50386549Y-99330788D01*
X50523258Y-99467136D01*
X50569595Y-99510859D01*
X50761880Y-99648541D01*
X51057789Y-99821242D01*
X51430962Y-100015302D01*
X51855041Y-100217063D01*
X52303666Y-100412868D01*
X52337520Y-100426913D01*
X52645517Y-100555862D01*
X52904758Y-100667523D01*
X53089324Y-100750511D01*
X53173293Y-100793437D01*
X53174864Y-100794776D01*
X53153907Y-100863422D01*
X53077452Y-101041458D01*
X52952379Y-101314280D01*
X52785569Y-101667287D01*
X52583900Y-102085875D01*
X52354252Y-102555442D01*
X52168401Y-102931068D01*
X51830562Y-103614694D01*
X51557618Y-104176350D01*
X51349509Y-104616731D01*
X51206175Y-104936526D01*
X51127557Y-105136428D01*
X51113593Y-105217130D01*
X51164224Y-105179322D01*
X51279390Y-105023698D01*
X51459030Y-104750949D01*
X51703086Y-104361766D01*
X52011496Y-103856843D01*
X52100898Y-103708876D01*
X52451392Y-103135522D01*
X52743897Y-102675537D01*
X52985438Y-102319660D01*
X53183039Y-102058629D01*
X53343726Y-101883184D01*
X53474522Y-101784064D01*
X53582453Y-101752006D01*
X53585210Y-101751984D01*
X53691093Y-101769542D01*
X53752338Y-101845925D01*
X53792741Y-102016692D01*
X53802030Y-102076003D01*
X53816282Y-102323837D01*
X53805690Y-102672356D01*
X53773804Y-103086381D01*
X53724175Y-103530735D01*
X53660353Y-103970239D01*
X53585888Y-104369715D01*
X53558087Y-104493066D01*
X53433159Y-105017426D01*
X53635589Y-105323039D01*
X53828042Y-105572001D01*
X54086272Y-105850078D01*
X54377175Y-106126775D01*
X54667648Y-106371596D01*
X54924586Y-106554046D01*
X55040302Y-106617071D01*
X55238847Y-106704584D01*
X55358071Y-106736752D01*
X55445649Y-106714234D01*
X55539892Y-106644607D01*
X56906887Y-106644607D01*
X56934150Y-106632562D01*
X57034590Y-106537516D01*
X57187824Y-106378996D01*
X57220145Y-106344472D01*
X57438611Y-106070965D01*
X57682465Y-105698679D01*
X57930994Y-105259755D01*
X57980522Y-105164690D01*
X58220172Y-104680970D01*
X58413498Y-104255822D01*
X58555376Y-103902655D01*
X58640683Y-103634879D01*
X58664294Y-103465904D01*
X58647741Y-103418493D01*
X58558180Y-103419244D01*
X58410015Y-103507288D01*
X58365341Y-103543298D01*
X58274688Y-103640274D01*
X58172695Y-103792792D01*
X58051452Y-104016302D01*
X57903053Y-104326257D01*
X57719590Y-104738107D01*
X57541751Y-105152530D01*
X57365111Y-105568588D01*
X57206053Y-105942916D01*
X57072797Y-106256190D01*
X56973567Y-106489087D01*
X56916584Y-106622282D01*
X56906887Y-106644607D01*
X55539892Y-106644607D01*
X55549259Y-106637687D01*
X55565742Y-106624328D01*
X55719342Y-106499950D01*
X55532446Y-105565994D01*
X55339592Y-104626349D01*
X55154334Y-103771339D01*
X54978530Y-103008003D01*
X54814033Y-102343381D01*
X54662701Y-101784513D01*
X54526389Y-101338437D01*
X54406953Y-101012194D01*
X54306250Y-100812823D01*
X54266926Y-100765829D01*
X54144086Y-100698915D01*
X53926615Y-100617272D01*
X53655487Y-100535752D01*
X53573184Y-100514382D01*
X52991085Y-100334512D01*
X52425635Y-100085241D01*
X51852940Y-99753212D01*
X51344468Y-99392679D01*
X58241804Y-99392679D01*
X58266930Y-99483909D01*
X58278844Y-99518514D01*
X58363054Y-99661621D01*
X58523127Y-99858809D01*
X58729137Y-100074305D01*
X58799488Y-100140930D01*
X59036406Y-100372551D01*
X59169364Y-100536796D01*
X59207917Y-100646154D01*
X59203150Y-100668499D01*
X59176372Y-100842525D01*
X59189395Y-101083786D01*
X59233772Y-101358008D01*
X59301054Y-101630914D01*
X59382792Y-101868228D01*
X59470540Y-102035675D01*
X59555734Y-102098979D01*
X59568574Y-102033721D01*
X59579366Y-101854506D01*
X59587197Y-101586170D01*
X59591153Y-101253548D01*
X59591453Y-101127803D01*
X59591453Y-100156627D01*
X58987263Y-99766859D01*
X58669097Y-99562758D01*
X58451347Y-99428856D01*
X58318134Y-99359587D01*
X58253579Y-99349383D01*
X58241804Y-99392679D01*
X51344468Y-99392679D01*
X51249110Y-99325065D01*
X50795429Y-98961287D01*
X50527290Y-98742817D01*
X50329276Y-98599573D01*
X50168721Y-98513515D01*
X50012960Y-98466601D01*
X49858544Y-98443874D01*
X49493912Y-98403985D01*
X20577683Y-98403985D01*
X20323363Y-98068715D01*
X19881664Y-97591733D01*
X19417855Y-97189319D01*
X19200256Y-97035677D01*
X18961744Y-96886186D01*
X18791539Y-96802468D01*
X18644643Y-96770129D01*
X18476059Y-96774773D01*
X18407392Y-96782037D01*
X18123762Y-96833718D01*
X17967814Y-96916313D01*
X17929776Y-97041480D01*
X11341303Y-97041480D01*
X11394227Y-96977116D01*
X11727732Y-96696256D01*
X12118643Y-96447542D01*
X12526962Y-96256852D01*
X12868639Y-96157645D01*
X13094186Y-96115226D01*
X13094186Y-95572526D01*
X57476613Y-95572526D01*
X57485038Y-95632608D01*
X57584283Y-95709012D01*
X57785561Y-95807372D01*
X58100081Y-95933319D01*
X58446371Y-96059716D01*
X59094621Y-96271233D01*
X59633000Y-96405388D01*
X60066325Y-96462993D01*
X60399415Y-96444861D01*
X60523789Y-96409998D01*
X60739396Y-96254222D01*
X60897140Y-95974123D01*
X60995870Y-95572058D01*
X61016592Y-95399545D01*
X61046632Y-95133218D01*
X61083582Y-94971051D01*
X61140433Y-94878535D01*
X61230175Y-94821166D01*
X61235206Y-94818853D01*
X61356393Y-94722889D01*
X61366607Y-94619700D01*
X61277674Y-94552946D01*
X61180947Y-94578027D01*
X61037168Y-94671694D01*
X61004987Y-94698257D01*
X60904989Y-94799228D01*
X60836404Y-94919583D01*
X60786403Y-95095098D01*
X60742155Y-95361547D01*
X60726866Y-95473743D01*
X60677051Y-95776807D01*
X60620387Y-96004356D01*
X60564301Y-96128031D01*
X60552797Y-96138470D01*
X60380283Y-96184619D01*
X60103678Y-96183963D01*
X59747809Y-96141142D01*
X59337497Y-96060792D01*
X58897568Y-95947551D01*
X58452845Y-95806057D01*
X58139461Y-95687602D01*
X57852138Y-95576212D01*
X57664407Y-95520602D01*
X57550796Y-95516348D01*
X57485834Y-95559030D01*
X57476613Y-95572526D01*
X13094186Y-95572526D01*
X13094186Y-93397134D01*
X13094660Y-92691602D01*
X13094359Y-92110902D01*
X13090692Y-91641080D01*
X13081070Y-91268183D01*
X13062906Y-90978255D01*
X13033609Y-90757344D01*
X12990591Y-90591496D01*
X12931263Y-90466756D01*
X12853035Y-90369170D01*
X12753320Y-90284785D01*
X12629528Y-90199647D01*
X12482894Y-90102398D01*
X12246393Y-89959240D01*
X11989774Y-89844942D01*
X11671662Y-89743564D01*
X11324513Y-89656233D01*
X10339331Y-89446205D01*
X9306217Y-89267111D01*
X8479158Y-89148905D01*
X7955889Y-89093457D01*
X7340637Y-89050887D01*
X6653299Y-89020836D01*
X5913770Y-89002941D01*
X5141946Y-88996843D01*
X4357725Y-89002180D01*
X3581001Y-89018591D01*
X2831672Y-89045716D01*
X2129632Y-89083194D01*
X1494779Y-89130663D01*
X947008Y-89187763D01*
X506215Y-89254134D01*
X305724Y-89297157D01*
X190417Y-89318448D01*
X135178Y-89284564D01*
X117913Y-89163846D01*
X116590Y-89026130D01*
X126415Y-88825021D01*
X167788Y-88721511D01*
X258557Y-88675078D01*
X272737Y-88671620D01*
X509208Y-88628974D01*
X860301Y-88581542D01*
X1302019Y-88531649D01*
X1810370Y-88481622D01*
X2361359Y-88433787D01*
X2930992Y-88390470D01*
X3495274Y-88353999D01*
X3624158Y-88346692D01*
X4908446Y-88308531D01*
X6225377Y-88330751D01*
X7547552Y-88410515D01*
X8847572Y-88544988D01*
X10098040Y-88731333D01*
X11271555Y-88966714D01*
X12340718Y-89248294D01*
X12344530Y-89249443D01*
X12673532Y-89344910D01*
X12892219Y-89396758D01*
X13021328Y-89407093D01*
X13081593Y-89378020D01*
X13094186Y-89325548D01*
X13027847Y-89249658D01*
X12838935Y-89159656D01*
X12542601Y-89058633D01*
X12154000Y-88949682D01*
X11688284Y-88835896D01*
X11160606Y-88720367D01*
X10586120Y-88606187D01*
X9979978Y-88496448D01*
X9357334Y-88394242D01*
X8733341Y-88302662D01*
X8123152Y-88224800D01*
X7541921Y-88163749D01*
X7299377Y-88143018D01*
X6825593Y-88115961D01*
X6249749Y-88099450D01*
X5600905Y-88092944D01*
X4908121Y-88095905D01*
X4200455Y-88107795D01*
X3506967Y-88128074D01*
X2856715Y-88156205D01*
X2278760Y-88191649D01*
X1802160Y-88233867D01*
X1689358Y-88247012D01*
X1322597Y-88292783D01*
X965486Y-88337359D01*
X663707Y-88375036D01*
X492227Y-88396454D01*
X116590Y-88443387D01*
X116590Y-82385987D01*
X78576074Y-82385987D01*
X78806377Y-84591253D01*
X78864398Y-85145916D01*
X78919414Y-85670117D01*
X78969343Y-86144148D01*
X79012102Y-86548302D01*
X79045609Y-86862871D01*
X79067782Y-87068149D01*
X79073596Y-87120393D01*
X79110512Y-87444266D01*
X79535272Y-87490762D01*
X80345704Y-87622544D01*
X81066069Y-87833644D01*
X81495535Y-88015073D01*
X82040164Y-88325563D01*
X82460984Y-88683784D01*
X82768747Y-89103434D01*
X82974207Y-89598215D01*
X83065974Y-90016033D01*
X83098650Y-90498690D01*
X83067398Y-91091327D01*
X82975084Y-91782252D01*
X82824570Y-92559775D01*
X82618721Y-93412204D01*
X82360400Y-94327848D01*
X82052471Y-95295017D01*
X81697799Y-96302018D01*
X81299247Y-97337161D01*
X81231559Y-97504711D01*
X81050062Y-97953282D01*
X80917632Y-98303132D01*
X80832559Y-98584712D01*
X80793129Y-98828475D01*
X80797631Y-99064875D01*
X80844353Y-99324364D01*
X80931582Y-99637396D01*
X81057607Y-100034422D01*
X81084624Y-100118227D01*
X81366830Y-100925686D01*
X81716889Y-101816017D01*
X82120849Y-102759963D01*
X82564758Y-103728268D01*
X83034664Y-104691675D01*
X83516615Y-105620929D01*
X83996659Y-106486771D01*
X84460845Y-107259947D01*
X84577544Y-107442694D01*
X84831123Y-107860508D01*
X85030537Y-108258192D01*
X85176951Y-108653471D01*
X85271532Y-109064074D01*
X85315444Y-109507726D01*
X85309852Y-110002154D01*
X85255923Y-110565085D01*
X85154822Y-111214246D01*
X85007714Y-111967361D01*
X84906048Y-112439416D01*
X84797629Y-112945206D01*
X84719561Y-113350864D01*
X84667089Y-113690539D01*
X84635459Y-113998385D01*
X84619918Y-114308552D01*
X84616241Y-114521383D01*
X84616580Y-114882926D01*
X84627491Y-115139305D01*
X84653451Y-115324020D01*
X84698939Y-115470572D01*
X84760026Y-115597066D01*
X84941309Y-115859238D01*
X85203584Y-116146297D01*
X85506776Y-116415260D01*
X85564505Y-116459869D01*
X85734945Y-116560105D01*
X85965731Y-116659307D01*
X86225708Y-116748910D01*
X86483721Y-116820345D01*
X86708615Y-116865047D01*
X86869234Y-116874449D01*
X86934425Y-116839984D01*
X86934623Y-116836606D01*
X86923834Y-116754494D01*
X86894488Y-116564210D01*
X86851118Y-116294448D01*
X86800350Y-115986470D01*
X86780669Y-115847866D01*
X86745656Y-115577406D01*
X86696027Y-115181100D01*
X86632495Y-114664957D01*
X86555777Y-114034988D01*
X86466588Y-113297204D01*
X86365643Y-112457614D01*
X86253657Y-111522230D01*
X86131345Y-110497060D01*
X85999422Y-109388117D01*
X85858604Y-108201409D01*
X85709606Y-106942947D01*
X85553142Y-105618741D01*
X85389929Y-104234802D01*
X85220681Y-102797141D01*
X85046113Y-101311766D01*
X84866941Y-99784689D01*
X84683880Y-98221920D01*
X84532624Y-96928760D01*
X84348206Y-95351732D01*
X84167851Y-93810798D01*
X83992229Y-92311641D01*
X83822014Y-90859946D01*
X83657874Y-89461398D01*
X83500482Y-88121681D01*
X83350508Y-86846480D01*
X83208624Y-85641480D01*
X83075502Y-84512365D01*
X82951811Y-83464819D01*
X82838223Y-82504528D01*
X82735411Y-81637176D01*
X82644043Y-80868446D01*
X82564793Y-80204025D01*
X82498330Y-79649597D01*
X82445327Y-79210846D01*
X82406453Y-78893456D01*
X82382382Y-78703113D01*
X82373921Y-78645119D01*
X82321020Y-78685355D01*
X82181036Y-78813651D01*
X81964701Y-79019597D01*
X81682749Y-79292779D01*
X81345910Y-79622784D01*
X80964918Y-79999202D01*
X80550505Y-80411619D01*
X80462373Y-80499689D01*
X78576074Y-82385987D01*
X116590Y-82385987D01*
X116590Y-75604209D01*
X82461213Y-75604209D01*
X82467304Y-75675316D01*
X82489274Y-75877725D01*
X82526343Y-76204947D01*
X82577731Y-76650490D01*
X82642659Y-77207862D01*
X82720350Y-77870573D01*
X82810022Y-78632130D01*
X82910898Y-79486042D01*
X83022197Y-80425819D01*
X83143142Y-81444969D01*
X83272952Y-82537000D01*
X83410848Y-83695422D01*
X83556053Y-84913742D01*
X83707785Y-86185471D01*
X83865267Y-87504115D01*
X84027718Y-88863185D01*
X84194361Y-90256189D01*
X84364415Y-91676635D01*
X84537102Y-93118032D01*
X84711642Y-94573889D01*
X84887257Y-96037714D01*
X85063167Y-97503017D01*
X85238593Y-98963305D01*
X85412755Y-100412088D01*
X85584876Y-101842875D01*
X85754175Y-103249173D01*
X85919873Y-104624492D01*
X86081192Y-105962341D01*
X86237352Y-107256227D01*
X86387574Y-108499660D01*
X86531079Y-109686149D01*
X86667088Y-110809202D01*
X86794821Y-111862327D01*
X86913500Y-112839035D01*
X87022345Y-113732832D01*
X87120578Y-114537228D01*
X87207418Y-115245732D01*
X87282087Y-115851852D01*
X87343806Y-116349098D01*
X87391796Y-116730976D01*
X87425277Y-116990998D01*
X87443471Y-117122670D01*
X87446487Y-117138348D01*
X87520467Y-117163517D01*
X87716498Y-117219280D01*
X88022035Y-117302334D01*
X88424534Y-117409379D01*
X88911450Y-117537114D01*
X89470238Y-117682236D01*
X90088353Y-117841445D01*
X90753252Y-118011439D01*
X91080709Y-118094723D01*
X94669879Y-119006047D01*
X94726143Y-119290556D01*
X94777968Y-119479008D01*
X94864510Y-119579110D01*
X95030293Y-119640964D01*
X95039799Y-119643510D01*
X95369534Y-119704595D01*
X95706622Y-119705571D01*
X96089503Y-119643362D01*
X96525187Y-119524625D01*
X96909368Y-119413518D01*
X97349965Y-119296893D01*
X97767133Y-119195648D01*
X97869651Y-119172732D01*
X98102761Y-119123790D01*
X98421983Y-119059394D01*
X98805218Y-118983745D01*
X99230370Y-118901045D01*
X99675339Y-118815495D01*
X100118028Y-118731296D01*
X100536338Y-118652651D01*
X100908173Y-118583762D01*
X101211432Y-118528829D01*
X101424020Y-118492054D01*
X101523836Y-118477640D01*
X101525743Y-118477578D01*
X101532648Y-118409588D01*
X101539285Y-118211625D01*
X101545594Y-117892512D01*
X101550008Y-117570898D01*
X110127173Y-117570898D01*
X110144435Y-117603419D01*
X110242134Y-117556520D01*
X110399893Y-117446178D01*
X110597332Y-117288372D01*
X110814072Y-117099080D01*
X111029737Y-116894280D01*
X111156444Y-116763883D01*
X111422708Y-116450912D01*
X111575328Y-116196436D01*
X111619013Y-115986438D01*
X111558470Y-115806901D01*
X111501742Y-115735764D01*
X111336288Y-115597075D01*
X111150117Y-115493598D01*
X110985332Y-115443757D01*
X110884360Y-115465599D01*
X110843611Y-115550373D01*
X110768206Y-115741860D01*
X110667472Y-116015130D01*
X110550737Y-116345249D01*
X110497676Y-116499252D01*
X110377569Y-116849818D01*
X110271391Y-117158239D01*
X110188172Y-117398403D01*
X110136939Y-117544196D01*
X110127173Y-117570898D01*
X101550008Y-117570898D01*
X101551515Y-117461073D01*
X101556989Y-116926134D01*
X101561955Y-116296517D01*
X101566356Y-115581047D01*
X101570129Y-114788548D01*
X101572753Y-114057071D01*
X102976306Y-114057071D01*
X103028105Y-114122759D01*
X103198248Y-114192615D01*
X103476639Y-114264402D01*
X103853187Y-114335887D01*
X104317798Y-114404835D01*
X104860378Y-114469010D01*
X105420666Y-114521995D01*
X105877825Y-114548082D01*
X106419940Y-114559180D01*
X107010212Y-114556287D01*
X107611844Y-114540404D01*
X108188037Y-114512531D01*
X108701995Y-114473667D01*
X109116919Y-114424811D01*
X109142273Y-114420890D01*
X109605182Y-114342034D01*
X109942154Y-114270317D01*
X110165622Y-114202011D01*
X110288021Y-114133386D01*
X110322054Y-114067028D01*
X110301259Y-114003132D01*
X110224243Y-113975705D01*
X110069062Y-113984852D01*
X109813771Y-114030681D01*
X109628065Y-114070387D01*
X109395991Y-114111308D01*
X109063481Y-114156541D01*
X108668613Y-114201523D01*
X108249465Y-114241694D01*
X108083578Y-114255390D01*
X107290818Y-114292099D01*
X106416276Y-114288520D01*
X105510290Y-114246910D01*
X104623193Y-114169528D01*
X103846000Y-114065295D01*
X103544057Y-114022246D01*
X103285959Y-113996257D01*
X103107317Y-113990361D01*
X103052941Y-113997784D01*
X102976306Y-114057071D01*
X101572753Y-114057071D01*
X101573217Y-113927844D01*
X101574944Y-113249463D01*
X104214130Y-113249463D01*
X104925879Y-113218319D01*
X105336381Y-113211404D01*
X105866444Y-113220193D01*
X106497833Y-113243747D01*
X107212313Y-113281124D01*
X107991648Y-113331384D01*
X108817603Y-113393587D01*
X109576016Y-113458130D01*
X110877246Y-113574876D01*
X110877246Y-114210329D01*
X111324811Y-114370844D01*
X111789770Y-114577887D01*
X112170569Y-114829880D01*
X112442381Y-115109750D01*
X112480131Y-115165422D01*
X112589853Y-115463786D01*
X112597514Y-115832558D01*
X112505470Y-116250704D01*
X112316077Y-116697188D01*
X112306505Y-116715348D01*
X112125365Y-117000117D01*
X111858904Y-117345147D01*
X111530605Y-117724521D01*
X111163949Y-118112321D01*
X110782417Y-118482630D01*
X110409492Y-118809530D01*
X110408171Y-118810616D01*
X110207614Y-118985875D01*
X110096816Y-119119225D01*
X110051050Y-119247231D01*
X110044459Y-119348457D01*
X110044459Y-119587503D01*
X111416995Y-119587503D01*
X111906642Y-119589267D01*
X112276499Y-119595455D01*
X112545541Y-119607409D01*
X112732743Y-119626471D01*
X112857078Y-119653985D01*
X112937521Y-119691293D01*
X112943771Y-119695537D01*
X113059117Y-119809633D01*
X113098011Y-119902134D01*
X113091028Y-119950947D01*
X113057888Y-120001283D01*
X112980304Y-120066061D01*
X112839990Y-120158205D01*
X112618657Y-120290633D01*
X112298020Y-120476268D01*
X112230524Y-120515080D01*
X111675333Y-120834176D01*
X115311010Y-120835430D01*
X118946686Y-120836683D01*
X118940637Y-120777719D01*
X127679967Y-120777719D01*
X127693110Y-120799180D01*
X127738976Y-120814300D01*
X127830220Y-120823214D01*
X127979497Y-120826057D01*
X128199465Y-120822964D01*
X128502778Y-120814071D01*
X128902092Y-120799512D01*
X129410063Y-120779422D01*
X130039346Y-120753936D01*
X130308356Y-120743049D01*
X132285642Y-120663186D01*
X131742666Y-120325048D01*
X131444261Y-120120178D01*
X131185621Y-119907550D01*
X131007114Y-119720634D01*
X130996466Y-119706366D01*
X130793839Y-119341063D01*
X130624193Y-118856468D01*
X130492729Y-118269276D01*
X130439987Y-117919644D01*
X130360496Y-117299807D01*
X130088304Y-117515388D01*
X129893826Y-117704278D01*
X129698194Y-117948208D01*
X129607775Y-118086695D01*
X129484966Y-118319754D01*
X129430692Y-118506732D01*
X129428803Y-118711517D01*
X129434526Y-118772066D01*
X129469613Y-119101711D01*
X128935042Y-119103780D01*
X128400470Y-119105849D01*
X128072996Y-119849818D01*
X127939356Y-120155147D01*
X127823860Y-120422206D01*
X127739611Y-120620493D01*
X127701227Y-120715235D01*
X127686891Y-120749783D01*
X127679967Y-120777719D01*
X118940637Y-120777719D01*
X118902187Y-120402940D01*
X118877970Y-120167878D01*
X118843689Y-119836437D01*
X118803662Y-119450291D01*
X118762203Y-119051112D01*
X118756639Y-118997612D01*
X118615521Y-117508234D01*
X118503634Y-116042611D01*
X118499524Y-115971497D01*
X151152841Y-115971497D01*
X151233207Y-116023253D01*
X151313031Y-116018650D01*
X151518857Y-115995902D01*
X151839301Y-115956597D01*
X152262975Y-115902321D01*
X152778495Y-115834662D01*
X153374475Y-115755208D01*
X154039530Y-115665547D01*
X154762273Y-115567266D01*
X155531320Y-115461953D01*
X156335284Y-115351195D01*
X157162780Y-115236579D01*
X158002423Y-115119694D01*
X158842826Y-115002127D01*
X159672605Y-114885466D01*
X160480373Y-114771297D01*
X161254746Y-114661209D01*
X161984337Y-114556789D01*
X162657761Y-114459625D01*
X163263632Y-114371305D01*
X163790565Y-114293415D01*
X164227174Y-114227544D01*
X164562074Y-114175279D01*
X164783878Y-114138207D01*
X164863305Y-114122716D01*
X165030511Y-114084391D01*
X164982817Y-114875428D01*
X164898505Y-115966840D01*
X164771657Y-117171656D01*
X164605315Y-118472179D01*
X164402521Y-119850710D01*
X164166316Y-121289554D01*
X163899742Y-122771011D01*
X163605841Y-124277385D01*
X163287653Y-125790979D01*
X162948221Y-127294094D01*
X162604536Y-128713459D01*
X162543215Y-128967116D01*
X162460526Y-129322772D01*
X162359590Y-129766038D01*
X162243531Y-130282527D01*
X162115469Y-130857849D01*
X161978526Y-131477616D01*
X161835824Y-132127440D01*
X161690484Y-132792931D01*
X161545629Y-133459702D01*
X161404380Y-134113363D01*
X161269859Y-134739527D01*
X161145188Y-135323804D01*
X161033488Y-135851806D01*
X160937881Y-136309144D01*
X160861489Y-136681431D01*
X160807433Y-136954276D01*
X160778836Y-137113293D01*
X160775060Y-137145770D01*
X160830048Y-137201518D01*
X160896508Y-137201855D01*
X160926618Y-137178679D01*
X160961990Y-137113520D01*
X161004970Y-136996776D01*
X161057906Y-136818841D01*
X161123145Y-136570112D01*
X161203036Y-136240983D01*
X161299924Y-135821852D01*
X161416159Y-135303113D01*
X161554086Y-134675163D01*
X161716054Y-133928396D01*
X161860347Y-133258378D01*
X162024082Y-132499970D01*
X162072176Y-132279182D01*
X199638448Y-132279182D01*
X199673085Y-132398771D01*
X199725197Y-132431739D01*
X199804999Y-132434256D01*
X200014413Y-132440149D01*
X200344297Y-132449173D01*
X200785512Y-132461086D01*
X201328918Y-132475645D01*
X201965375Y-132492606D01*
X202685743Y-132511727D01*
X203480881Y-132532765D01*
X204341651Y-132555475D01*
X205258912Y-132579616D01*
X206223523Y-132604945D01*
X207202929Y-132630604D01*
X208203176Y-132656864D01*
X209163781Y-132682245D01*
X210075725Y-132706501D01*
X210929992Y-132729383D01*
X211717562Y-132750645D01*
X212429419Y-132770040D01*
X213056545Y-132787322D01*
X213589923Y-132802242D01*
X214020534Y-132814555D01*
X214339362Y-132824012D01*
X214537388Y-132830368D01*
X214605586Y-132833363D01*
X214670020Y-132820547D01*
X214727034Y-132800570D01*
X214826172Y-132714752D01*
X214811799Y-132611595D01*
X214692490Y-132539791D01*
X214680661Y-132537242D01*
X214590219Y-132531401D01*
X214370787Y-132522910D01*
X214032144Y-132512021D01*
X213584068Y-132498987D01*
X213036337Y-132484059D01*
X212398730Y-132467489D01*
X211681023Y-132449531D01*
X210892997Y-132430436D01*
X210044428Y-132410457D01*
X209145094Y-132389846D01*
X208204775Y-132368855D01*
X207862218Y-132361343D01*
X206893203Y-132339935D01*
X205950170Y-132318599D01*
X205044139Y-132297611D01*
X204186128Y-132277249D01*
X203387154Y-132257790D01*
X202658236Y-132239512D01*
X202010392Y-132222693D01*
X201454639Y-132207608D01*
X201001997Y-132194536D01*
X200663483Y-132183754D01*
X200450116Y-132175540D01*
X200419186Y-132174004D01*
X200081553Y-132156937D01*
X199858673Y-132151164D01*
X199726736Y-132159895D01*
X199661933Y-132186335D01*
X199640455Y-132233693D01*
X199638448Y-132279182D01*
X162072176Y-132279182D01*
X162187525Y-131749640D01*
X162290917Y-131279083D01*
X162665746Y-131279083D01*
X162696094Y-131321543D01*
X162781480Y-131339384D01*
X163004052Y-131360323D01*
X163362236Y-131384284D01*
X163854457Y-131411194D01*
X164479141Y-131440977D01*
X165234712Y-131473558D01*
X166119596Y-131508863D01*
X167132218Y-131546817D01*
X168271003Y-131587345D01*
X168348635Y-131590042D01*
X169220382Y-131620311D01*
X170055065Y-131649350D01*
X170841846Y-131676778D01*
X171569886Y-131702216D01*
X172228348Y-131725282D01*
X172806395Y-131745596D01*
X173293188Y-131762778D01*
X173677889Y-131776447D01*
X173949661Y-131786222D01*
X174097666Y-131791724D01*
X174119178Y-131792614D01*
X174239831Y-131771107D01*
X176667410Y-131771107D01*
X176719473Y-131841770D01*
X176886246Y-131874514D01*
X176962355Y-131877832D01*
X177092212Y-131881131D01*
X177345174Y-131887867D01*
X177705601Y-131897613D01*
X178157853Y-131909941D01*
X178686291Y-131924425D01*
X179275276Y-131940637D01*
X179909167Y-131958150D01*
X180380251Y-131971205D01*
X181255535Y-131995432D01*
X182002269Y-132015878D01*
X182630647Y-132032676D01*
X183150860Y-132045959D01*
X183573101Y-132055862D01*
X183907564Y-132062518D01*
X184164442Y-132066062D01*
X184353926Y-132066627D01*
X184486210Y-132064348D01*
X184571486Y-132059357D01*
X184619948Y-132051789D01*
X184641788Y-132041778D01*
X184647200Y-132029458D01*
X184647221Y-132027257D01*
X184642072Y-131979862D01*
X184621664Y-131939249D01*
X184575427Y-131904546D01*
X184492791Y-131874883D01*
X184363185Y-131849386D01*
X184176039Y-131827186D01*
X183920784Y-131807410D01*
X183586849Y-131789187D01*
X183163664Y-131771645D01*
X182640658Y-131753912D01*
X182007263Y-131735117D01*
X181252906Y-131714388D01*
X180662200Y-131698657D01*
X179941281Y-131680255D01*
X179261810Y-131664230D01*
X178636477Y-131650791D01*
X178077971Y-131640148D01*
X177598983Y-131632511D01*
X177212201Y-131628089D01*
X176930315Y-131627092D01*
X176766015Y-131629730D01*
X176728069Y-131633615D01*
X176672388Y-131728464D01*
X176667410Y-131771107D01*
X174239831Y-131771107D01*
X174285658Y-131762938D01*
X174353298Y-131694619D01*
X174366982Y-131578467D01*
X174351423Y-131544558D01*
X174273902Y-131532630D01*
X174070203Y-131517657D01*
X173752789Y-131500028D01*
X173334125Y-131480132D01*
X172826676Y-131458359D01*
X172242906Y-131435098D01*
X171595279Y-131410738D01*
X170896261Y-131385667D01*
X170158315Y-131360277D01*
X169393906Y-131334955D01*
X168615499Y-131310090D01*
X167835558Y-131286073D01*
X167066547Y-131263291D01*
X166320932Y-131242135D01*
X165611176Y-131222994D01*
X164949745Y-131206256D01*
X164349102Y-131192311D01*
X163821712Y-131181548D01*
X163380040Y-131174357D01*
X163036550Y-131171126D01*
X162803707Y-131172244D01*
X162693975Y-131178101D01*
X162687233Y-131180358D01*
X162665746Y-131279083D01*
X162290917Y-131279083D01*
X162346897Y-131024309D01*
X162498416Y-130340895D01*
X162638302Y-129716319D01*
X162762776Y-129167500D01*
X162868057Y-128711357D01*
X162950365Y-128364809D01*
X162984317Y-128227667D01*
X163374319Y-126616414D01*
X163743260Y-124947192D01*
X164086094Y-123248326D01*
X164397775Y-121548144D01*
X164673254Y-119874971D01*
X164907486Y-118257134D01*
X165095423Y-116722960D01*
X165178303Y-115913707D01*
X165234134Y-115278303D01*
X165269024Y-114771554D01*
X165283036Y-114384916D01*
X165276232Y-114109844D01*
X165248677Y-113937793D01*
X165200434Y-113860219D01*
X165193580Y-113856976D01*
X165109468Y-113860321D01*
X164899668Y-113882718D01*
X164575405Y-113922534D01*
X164147901Y-113978136D01*
X163628381Y-114047889D01*
X163028068Y-114130160D01*
X162358186Y-114223316D01*
X161629958Y-114325722D01*
X160854608Y-114435747D01*
X160043361Y-114551755D01*
X159207438Y-114672113D01*
X158358065Y-114795188D01*
X157506465Y-114919347D01*
X156663861Y-115042954D01*
X155841477Y-115164378D01*
X155050537Y-115281985D01*
X154302264Y-115394140D01*
X153607882Y-115499211D01*
X152978615Y-115595563D01*
X152425686Y-115681563D01*
X151960319Y-115755578D01*
X151593737Y-115815975D01*
X151337165Y-115861118D01*
X151201826Y-115889376D01*
X151183513Y-115896099D01*
X151152841Y-115971497D01*
X118499524Y-115971497D01*
X118420973Y-114612268D01*
X118367529Y-113228733D01*
X118343296Y-111903530D01*
X118348267Y-110648187D01*
X118382434Y-109474229D01*
X118445792Y-108393183D01*
X118538332Y-107416574D01*
X118623900Y-106811529D01*
X120420988Y-106811529D01*
X120470654Y-106866177D01*
X120591669Y-106933330D01*
X120609428Y-106941918D01*
X120779177Y-107059391D01*
X120947406Y-107228603D01*
X120968434Y-107255148D01*
X121167956Y-107569176D01*
X121384689Y-108004252D01*
X121612748Y-108544561D01*
X121846247Y-109174289D01*
X122079299Y-109877622D01*
X122306017Y-110638745D01*
X122507298Y-111389612D01*
X122611863Y-111800908D01*
X122688674Y-112096784D01*
X122744657Y-112296213D01*
X122786738Y-112418172D01*
X122821842Y-112481634D01*
X122856894Y-112505575D01*
X122898820Y-112508969D01*
X122915778Y-112508815D01*
X123009766Y-112495767D01*
X123022054Y-112484410D01*
X123008307Y-112413281D01*
X122969186Y-112221641D01*
X122907874Y-111924810D01*
X122827552Y-111538107D01*
X122731401Y-111076851D01*
X122622604Y-110556360D01*
X122506743Y-110003400D01*
X122383629Y-109415163D01*
X122265818Y-108849771D01*
X122157306Y-108326590D01*
X122062092Y-107864987D01*
X121984171Y-107484331D01*
X121927541Y-107203988D01*
X121899503Y-107061000D01*
X121848183Y-106808535D01*
X121803209Y-106664722D01*
X121748536Y-106601233D01*
X121668115Y-106589742D01*
X121634076Y-106592444D01*
X121159346Y-106641747D01*
X120811849Y-106684495D01*
X120580409Y-106724500D01*
X120453847Y-106765574D01*
X120420988Y-106811529D01*
X118623900Y-106811529D01*
X118660048Y-106555930D01*
X118713385Y-106282335D01*
X122176314Y-106282335D01*
X122188700Y-106414196D01*
X122219871Y-106609043D01*
X122272043Y-106877992D01*
X122347430Y-107232159D01*
X122448249Y-107682661D01*
X122576715Y-108240612D01*
X122735043Y-108917129D01*
X122818486Y-109271092D01*
X123003923Y-110050644D01*
X123161659Y-110700842D01*
X123293380Y-111227979D01*
X123400773Y-111638353D01*
X123485524Y-111938259D01*
X123549319Y-112133992D01*
X123593844Y-112231849D01*
X123615006Y-112245184D01*
X123707810Y-112179562D01*
X123873401Y-112053157D01*
X124076820Y-111892683D01*
X124087381Y-111884224D01*
X124300443Y-111701852D01*
X124414644Y-111569418D01*
X124448569Y-111462887D01*
X124444015Y-111422998D01*
X124396723Y-111145454D01*
X124353935Y-110780284D01*
X124318992Y-110373075D01*
X124295235Y-109969410D01*
X124286006Y-109614876D01*
X124293426Y-109368788D01*
X124321501Y-109134398D01*
X124371866Y-108926558D01*
X124459087Y-108705434D01*
X124597729Y-108431193D01*
X124712147Y-108223706D01*
X124845487Y-107977250D01*
X125005787Y-107667351D01*
X125183090Y-107314808D01*
X125367438Y-106940421D01*
X125548874Y-106564989D01*
X125717443Y-106209311D01*
X125863187Y-105894186D01*
X125976149Y-105640415D01*
X126046372Y-105468795D01*
X126063899Y-105400126D01*
X126063851Y-105400086D01*
X125995296Y-105360292D01*
X125840256Y-105275114D01*
X125668217Y-105182290D01*
X125430626Y-105031966D01*
X125219060Y-104859467D01*
X125139841Y-104774297D01*
X149086675Y-104774297D01*
X149164696Y-105004186D01*
X149332315Y-105326147D01*
X149590911Y-105742603D01*
X149941861Y-106255981D01*
X150297849Y-106748705D01*
X150572559Y-107128875D01*
X150834170Y-107503838D01*
X151065211Y-107847576D01*
X151248213Y-108134070D01*
X151365704Y-108337299D01*
X151369583Y-108344880D01*
X151484862Y-108602027D01*
X151624906Y-108960070D01*
X151778531Y-109385847D01*
X151934553Y-109846191D01*
X152081787Y-110307939D01*
X152209049Y-110737926D01*
X152305155Y-111102988D01*
X152317437Y-111155536D01*
X152412492Y-111571929D01*
X152448154Y-111086137D01*
X152458564Y-110835687D01*
X152462227Y-110487995D01*
X152459204Y-110084453D01*
X152449555Y-109666451D01*
X152445927Y-109559361D01*
X152429473Y-109150448D01*
X152411042Y-108849263D01*
X152385372Y-108624775D01*
X152347196Y-108445953D01*
X152291252Y-108281767D01*
X152212275Y-108101186D01*
X152190714Y-108054957D01*
X151841361Y-107421891D01*
X151377829Y-106759758D01*
X150815917Y-106088174D01*
X150171427Y-105426757D01*
X149796543Y-105082417D01*
X149524588Y-104846024D01*
X149336075Y-104693949D01*
X149213660Y-104615081D01*
X149140001Y-104598304D01*
X149097756Y-104632506D01*
X149096876Y-104634054D01*
X149086675Y-104774297D01*
X125139841Y-104774297D01*
X125122139Y-104755265D01*
X124998632Y-104612737D01*
X124901346Y-104533632D01*
X124882226Y-104527940D01*
X124807063Y-104562724D01*
X124635317Y-104658564D01*
X124387940Y-104802691D01*
X124085884Y-104982335D01*
X123750103Y-105184729D01*
X123401550Y-105397104D01*
X123061176Y-105606690D01*
X122749935Y-105800718D01*
X122488779Y-105966421D01*
X122298662Y-106091029D01*
X122200535Y-106161773D01*
X122199035Y-106163107D01*
X122180498Y-106202344D01*
X122176314Y-106282335D01*
X118713385Y-106282335D01*
X118764524Y-106020017D01*
X118854995Y-105717884D01*
X119007808Y-105324160D01*
X119210712Y-104864299D01*
X119451451Y-104363757D01*
X119717772Y-103847989D01*
X119997421Y-103342452D01*
X120278146Y-102872600D01*
X120284548Y-102862366D01*
X120649069Y-102304945D01*
X129502584Y-102304945D01*
X129506561Y-102355717D01*
X129625401Y-102481965D01*
X129846250Y-102539324D01*
X130150529Y-102527634D01*
X130519659Y-102446734D01*
X130760033Y-102366590D01*
X131037756Y-102258770D01*
X131195618Y-102176376D01*
X131244748Y-102098944D01*
X131196280Y-102006012D01*
X131061343Y-101877119D01*
X131037628Y-101856303D01*
X130814341Y-101672347D01*
X130567713Y-101487172D01*
X130324836Y-101318862D01*
X130112804Y-101185501D01*
X129958709Y-101105175D01*
X129893121Y-101092339D01*
X129845456Y-101176933D01*
X129798868Y-101341165D01*
X129792642Y-101372338D01*
X129735571Y-101590078D01*
X129646637Y-101846610D01*
X129608525Y-101940471D01*
X129535286Y-102144404D01*
X129502584Y-102304945D01*
X120649069Y-102304945D01*
X120678045Y-102260635D01*
X121078845Y-101696861D01*
X121474925Y-101185157D01*
X121854267Y-100739639D01*
X122204849Y-100374421D01*
X122514650Y-100103618D01*
X122675279Y-100002194D01*
X125808178Y-100002194D01*
X125809879Y-100066673D01*
X125828185Y-100334190D01*
X125862251Y-100511449D01*
X125930609Y-100646960D01*
X126051794Y-100789234D01*
X126108285Y-100847728D01*
X126266599Y-101000781D01*
X126388656Y-101102362D01*
X126435363Y-101127394D01*
X126489823Y-101068474D01*
X126535074Y-100945237D01*
X126550002Y-100797133D01*
X126548238Y-100558224D01*
X126532213Y-100248733D01*
X126504357Y-99888880D01*
X126467102Y-99498886D01*
X126422878Y-99098975D01*
X126374116Y-98709366D01*
X126323247Y-98350282D01*
X126272703Y-98041944D01*
X126224913Y-97804574D01*
X126182309Y-97658393D01*
X126147322Y-97623622D01*
X126137773Y-97640285D01*
X126078553Y-97853501D01*
X126015177Y-98168806D01*
X125952565Y-98549785D01*
X125895639Y-98960026D01*
X125849318Y-99363117D01*
X125818525Y-99722644D01*
X125808178Y-100002194D01*
X122675279Y-100002194D01*
X122771650Y-99941344D01*
X122772613Y-99940906D01*
X123095174Y-99843619D01*
X123447087Y-99815006D01*
X123771321Y-99856362D01*
X123927687Y-99914695D01*
X124071331Y-99976326D01*
X124128124Y-99960104D01*
X124132460Y-99932045D01*
X124140398Y-99825597D01*
X124162487Y-99603555D01*
X124196171Y-99288115D01*
X124238898Y-98901471D01*
X124288111Y-98465819D01*
X124341258Y-98003354D01*
X124395783Y-97536270D01*
X124449132Y-97086764D01*
X124498750Y-96677030D01*
X124542084Y-96329263D01*
X124576578Y-96065658D01*
X124581803Y-96027769D01*
X124620942Y-95736100D01*
X124649425Y-95501948D01*
X124663802Y-95355091D01*
X124663752Y-95320275D01*
X124595277Y-95336875D01*
X124405672Y-95392952D01*
X124105799Y-95485060D01*
X123706520Y-95609749D01*
X123218699Y-95763572D01*
X122653199Y-95943080D01*
X122020881Y-96144827D01*
X121332609Y-96365363D01*
X120599245Y-96601240D01*
X119831651Y-96849011D01*
X119049662Y-97102316D01*
X118577955Y-97253986D01*
X118150778Y-97388663D01*
X117785462Y-97501099D01*
X117499337Y-97586048D01*
X117309732Y-97638261D01*
X117233978Y-97652492D01*
X117233582Y-97652218D01*
X117196070Y-97569404D01*
X117159307Y-97445078D01*
X117148578Y-97409377D01*
X117141657Y-97377675D01*
X117147264Y-97346808D01*
X117174118Y-97313612D01*
X117230937Y-97274923D01*
X117326442Y-97227575D01*
X117469351Y-97168405D01*
X117668382Y-97094249D01*
X117932257Y-97001941D01*
X118269692Y-96888318D01*
X118689409Y-96750215D01*
X119200124Y-96584468D01*
X119810559Y-96387913D01*
X120529432Y-96157385D01*
X121365462Y-95889720D01*
X122039892Y-95673815D01*
X122619836Y-95487687D01*
X123157504Y-95314297D01*
X123638756Y-95158266D01*
X124049453Y-95024215D01*
X124375457Y-94916767D01*
X124602628Y-94840543D01*
X124716827Y-94800165D01*
X124727579Y-94795275D01*
X124747936Y-94721212D01*
X124786501Y-94534665D01*
X124838568Y-94260045D01*
X124899432Y-93921762D01*
X124931630Y-93736740D01*
X125138197Y-92600066D01*
X125344802Y-91594332D01*
X125553859Y-90711701D01*
X125750716Y-90005568D01*
X138362642Y-90005568D01*
X138394250Y-90159043D01*
X138518080Y-90413513D01*
X138602145Y-90557935D01*
X138774170Y-90871362D01*
X138983416Y-91300173D01*
X139222893Y-91828182D01*
X139485615Y-92439205D01*
X139764594Y-93117055D01*
X140052844Y-93845547D01*
X140294725Y-94478655D01*
X140480382Y-94964240D01*
X140674251Y-95456863D01*
X140863269Y-95924345D01*
X141034377Y-96334507D01*
X141174513Y-96655168D01*
X141205423Y-96722393D01*
X141540575Y-97399497D01*
X141906387Y-98066744D01*
X142286615Y-98697987D01*
X142665018Y-99267081D01*
X143025353Y-99747879D01*
X143241267Y-99999662D01*
X143416051Y-100181788D01*
X143528309Y-100271886D01*
X143603309Y-100285428D01*
X143653148Y-100251855D01*
X143632238Y-100182468D01*
X143539647Y-100034114D01*
X143393080Y-99834012D01*
X143325828Y-99748713D01*
X142729229Y-98932656D01*
X142153066Y-97998637D01*
X141608639Y-96967193D01*
X141107249Y-95858859D01*
X140895214Y-95331551D01*
X140589410Y-94542714D01*
X140326759Y-93869596D01*
X140101457Y-93298037D01*
X139907703Y-92813878D01*
X139739694Y-92402961D01*
X139591628Y-92051125D01*
X139457703Y-91744212D01*
X139332116Y-91468062D01*
X139209064Y-91208517D01*
X139186921Y-91162848D01*
X138946827Y-90684980D01*
X138909802Y-90618031D01*
X140177762Y-90618031D01*
X140191198Y-90686043D01*
X140245387Y-90865532D01*
X140333722Y-91137507D01*
X140449598Y-91482978D01*
X140586407Y-91882953D01*
X140737544Y-92318442D01*
X140896401Y-92770454D01*
X141056372Y-93219999D01*
X141210852Y-93648084D01*
X141353232Y-94035720D01*
X141476908Y-94363916D01*
X141516064Y-94465099D01*
X141946697Y-95524451D01*
X142358284Y-96448413D01*
X142751854Y-97238931D01*
X143128436Y-97897952D01*
X143489058Y-98427425D01*
X143807027Y-98801186D01*
X144040930Y-99031472D01*
X144287520Y-99251433D01*
X144560210Y-99469843D01*
X144872411Y-99695478D01*
X145237535Y-99937112D01*
X145668994Y-100203520D01*
X146180199Y-100503475D01*
X146784562Y-100845753D01*
X147495495Y-101239128D01*
X147728065Y-101366505D01*
X148787078Y-101963187D01*
X149722046Y-102530169D01*
X150542222Y-103076436D01*
X151256860Y-103610972D01*
X151875212Y-104142761D01*
X152406531Y-104680788D01*
X152860072Y-105234035D01*
X153245087Y-105811487D01*
X153570829Y-106422128D01*
X153846552Y-107074943D01*
X153971227Y-107428017D01*
X154151269Y-108011586D01*
X154277269Y-108534302D01*
X154357302Y-109046678D01*
X154399438Y-109599227D01*
X154411667Y-110183951D01*
X154394496Y-110924621D01*
X154334346Y-111574069D01*
X154224980Y-112174919D01*
X154060159Y-112769797D01*
X154011904Y-112915688D01*
X153841466Y-113416796D01*
X154792553Y-113376889D01*
X155204049Y-113361754D01*
X155734773Y-113345575D01*
X156365163Y-113328718D01*
X157075657Y-113311550D01*
X157846692Y-113294435D01*
X158658706Y-113277739D01*
X159492136Y-113261829D01*
X160327420Y-113247069D01*
X161144995Y-113233826D01*
X161925300Y-113222466D01*
X162648772Y-113213353D01*
X163295848Y-113206855D01*
X163846966Y-113203336D01*
X164103504Y-113202804D01*
X165910579Y-113202804D01*
X165910565Y-113671246D01*
X165903756Y-113940088D01*
X165884669Y-114321100D01*
X165855294Y-114788391D01*
X165817623Y-115316069D01*
X165773646Y-115878242D01*
X165725355Y-116449019D01*
X165674740Y-117002508D01*
X165623791Y-117512816D01*
X165594385Y-117783132D01*
X165384341Y-119443823D01*
X165126198Y-121148272D01*
X164825747Y-122867719D01*
X164488781Y-124573403D01*
X164121091Y-126236564D01*
X163728467Y-127828443D01*
X163316702Y-129320278D01*
X163177142Y-129787249D01*
X163084324Y-130095662D01*
X163010180Y-130350139D01*
X162962121Y-130524647D01*
X162947558Y-130593154D01*
X162947666Y-130593269D01*
X163016478Y-130596601D01*
X163211354Y-130604040D01*
X163519636Y-130615161D01*
X163928665Y-130629542D01*
X164425781Y-130646760D01*
X164998326Y-130666392D01*
X165633640Y-130688015D01*
X166319065Y-130711205D01*
X167041941Y-130735540D01*
X167789609Y-130760596D01*
X168549410Y-130785951D01*
X169308685Y-130811181D01*
X170054775Y-130835863D01*
X170775021Y-130859574D01*
X171456764Y-130881892D01*
X172087345Y-130902392D01*
X172654104Y-130920653D01*
X173144383Y-130936250D01*
X173545522Y-130948761D01*
X173844862Y-130957762D01*
X173908803Y-130959599D01*
X174238448Y-130968924D01*
X174238448Y-81639328D01*
X173388311Y-81865312D01*
X173243996Y-81903502D01*
X172971656Y-81975389D01*
X172577493Y-82079340D01*
X172067707Y-82213722D01*
X171448502Y-82376901D01*
X170726076Y-82567244D01*
X169906633Y-82783119D01*
X168996373Y-83022891D01*
X168001497Y-83284927D01*
X166928207Y-83567594D01*
X165782705Y-83869260D01*
X164571190Y-84188289D01*
X163299866Y-84523050D01*
X161974932Y-84871909D01*
X160602591Y-85233233D01*
X159189043Y-85605388D01*
X157740491Y-85986742D01*
X156368229Y-86347994D01*
X154904444Y-86733364D01*
X153476124Y-87109461D01*
X152089067Y-87474756D01*
X150749073Y-87827720D01*
X149461940Y-88166822D01*
X148233466Y-88490534D01*
X147069450Y-88797326D01*
X145975691Y-89085670D01*
X144957986Y-89354036D01*
X144022136Y-89600894D01*
X143173938Y-89824715D01*
X142419190Y-90023970D01*
X141763692Y-90197130D01*
X141213242Y-90342665D01*
X140773639Y-90459046D01*
X140450680Y-90544744D01*
X140250166Y-90598230D01*
X140177893Y-90617973D01*
X140177762Y-90618031D01*
X138909802Y-90618031D01*
X138751375Y-90331563D01*
X138596967Y-90096900D01*
X138480006Y-89975296D01*
X138423575Y-89954170D01*
X138362642Y-90005568D01*
X125750716Y-90005568D01*
X125767786Y-89944336D01*
X125989000Y-89284400D01*
X126219915Y-88724054D01*
X126462950Y-88255463D01*
X126720520Y-87870789D01*
X126753134Y-87829124D01*
X127182434Y-87396228D01*
X127717954Y-87030884D01*
X128341291Y-86739536D01*
X129034046Y-86528625D01*
X129777817Y-86404594D01*
X130554203Y-86373883D01*
X130866887Y-86388959D01*
X131175473Y-86406561D01*
X131389800Y-86401671D01*
X131553285Y-86369403D01*
X131709344Y-86304871D01*
X131736830Y-86291071D01*
X132034380Y-86157717D01*
X132425786Y-86008374D01*
X132869339Y-85856828D01*
X133323329Y-85716863D01*
X133746046Y-85602266D01*
X133987162Y-85547323D01*
X134503529Y-85471382D01*
X135014576Y-85449596D01*
X135485666Y-85480499D01*
X135882163Y-85562624D01*
X136069022Y-85635465D01*
X136247064Y-85719546D01*
X136363279Y-85766825D01*
X136386735Y-85770889D01*
X136389419Y-85700900D01*
X136393193Y-85503491D01*
X136397944Y-85190034D01*
X136403561Y-84771903D01*
X136409930Y-84260469D01*
X136416940Y-83667106D01*
X136424477Y-83003185D01*
X136432430Y-82280080D01*
X136440685Y-81509164D01*
X136449130Y-80701808D01*
X136457654Y-79869385D01*
X136466142Y-79023269D01*
X136474484Y-78174830D01*
X136482565Y-77335443D01*
X136490275Y-76516480D01*
X136497500Y-75729313D01*
X136504127Y-74985315D01*
X136510046Y-74295859D01*
X136515142Y-73672316D01*
X136519303Y-73126060D01*
X136522417Y-72668464D01*
X136524372Y-72310899D01*
X136525055Y-72064739D01*
X136524353Y-71941356D01*
X136523644Y-71928904D01*
X136454173Y-71931916D01*
X136253669Y-71944353D01*
X135929542Y-71965688D01*
X135489198Y-71995394D01*
X134940046Y-72032944D01*
X134289494Y-72077811D01*
X133544951Y-72129469D01*
X132713824Y-72187390D01*
X131803522Y-72251048D01*
X130821452Y-72319917D01*
X129775024Y-72393468D01*
X128671645Y-72471175D01*
X127518723Y-72552512D01*
X126323666Y-72636952D01*
X125093883Y-72723967D01*
X123836782Y-72813031D01*
X122559771Y-72903617D01*
X121270258Y-72995198D01*
X119975651Y-73087248D01*
X118683359Y-73179239D01*
X117400789Y-73270644D01*
X116135350Y-73360938D01*
X114894449Y-73449592D01*
X113685496Y-73536080D01*
X112515898Y-73619876D01*
X111393064Y-73700451D01*
X110324400Y-73777281D01*
X109317317Y-73849837D01*
X108379221Y-73917593D01*
X107517522Y-73980021D01*
X106739626Y-74036596D01*
X106052943Y-74086790D01*
X105464880Y-74130077D01*
X104982846Y-74165929D01*
X104614249Y-74193820D01*
X104366496Y-74213223D01*
X104246997Y-74223610D01*
X104236770Y-74225064D01*
X104234644Y-74295599D01*
X104232747Y-74498306D01*
X104231083Y-74826558D01*
X104229652Y-75273731D01*
X104228458Y-75833199D01*
X104227503Y-76498335D01*
X104226788Y-77262514D01*
X104226317Y-78119111D01*
X104226091Y-79061499D01*
X104226112Y-80083052D01*
X104226384Y-81177146D01*
X104226907Y-82337154D01*
X104227685Y-83556450D01*
X104228719Y-84828408D01*
X104230012Y-86146404D01*
X104231566Y-87503810D01*
X104232128Y-87952649D01*
X104249650Y-101658070D01*
X105151836Y-101327857D01*
X105565793Y-101177966D01*
X105867115Y-101075489D01*
X106072926Y-101018569D01*
X106200350Y-101005351D01*
X106266511Y-101033979D01*
X106288533Y-101102596D01*
X106283965Y-101205155D01*
X106271186Y-101289082D01*
X106238931Y-101356699D01*
X106167482Y-101418991D01*
X106037121Y-101486939D01*
X105828129Y-101571526D01*
X105520788Y-101683735D01*
X105255934Y-101777748D01*
X104249650Y-102133781D01*
X104214130Y-113249463D01*
X101574944Y-113249463D01*
X101575559Y-113007760D01*
X101577095Y-112037118D01*
X101577766Y-111024744D01*
X101577792Y-110781868D01*
X101577792Y-103086616D01*
X100844482Y-103356185D01*
X100545275Y-103464209D01*
X100293021Y-103551606D01*
X100116692Y-103608573D01*
X100047717Y-103625754D01*
X99975386Y-103567915D01*
X99936386Y-103436208D01*
X99939362Y-103293353D01*
X99989574Y-103204044D01*
X100091172Y-103157886D01*
X100293304Y-103078378D01*
X100565236Y-102977273D01*
X100831754Y-102881921D01*
X101577792Y-102619615D01*
X101577792Y-88514215D01*
X101577750Y-86866533D01*
X101577592Y-85352053D01*
X101577271Y-83965182D01*
X101576737Y-82700325D01*
X101575942Y-81551886D01*
X101574839Y-80514271D01*
X101573379Y-79581885D01*
X101571515Y-78749134D01*
X101569197Y-78010423D01*
X101566378Y-77360156D01*
X101563009Y-76792740D01*
X101559043Y-76302579D01*
X101554431Y-75884079D01*
X101549125Y-75531645D01*
X101543077Y-75239682D01*
X101536239Y-75002596D01*
X101528563Y-74814791D01*
X101519999Y-74670673D01*
X101510501Y-74564647D01*
X101500020Y-74491119D01*
X101488508Y-74444493D01*
X101475916Y-74419175D01*
X101462197Y-74409570D01*
X101456344Y-74408874D01*
X101361053Y-74413148D01*
X101138824Y-74425535D01*
X100799324Y-74445427D01*
X100352221Y-74472216D01*
X99807182Y-74505294D01*
X99173876Y-74544051D01*
X98461968Y-74587881D01*
X97681128Y-74636173D01*
X96841022Y-74688321D01*
X95951317Y-74743715D01*
X95021682Y-74801747D01*
X94061783Y-74861810D01*
X93081289Y-74923294D01*
X92089867Y-74985591D01*
X91097183Y-75048093D01*
X90112907Y-75110191D01*
X89146704Y-75171278D01*
X88208243Y-75230744D01*
X87307191Y-75287982D01*
X86453216Y-75342382D01*
X85655984Y-75393338D01*
X84925164Y-75440239D01*
X84270423Y-75482479D01*
X83701429Y-75519448D01*
X83227849Y-75550539D01*
X82859349Y-75575142D01*
X82605599Y-75592650D01*
X82476265Y-75602454D01*
X82461213Y-75604209D01*
X116590Y-75604209D01*
X116590Y-71649165D01*
X139330798Y-71649165D01*
X139330798Y-88904796D01*
X139652184Y-89533581D01*
X139794920Y-89796936D01*
X139923733Y-90006065D01*
X140021428Y-90134546D01*
X140061448Y-90162366D01*
X140146873Y-90143833D01*
X140349579Y-90091186D01*
X140653509Y-90008858D01*
X141042606Y-89901279D01*
X141500812Y-89772881D01*
X142012070Y-89628094D01*
X142429269Y-89508950D01*
X144833246Y-88826231D01*
X147346135Y-88124433D01*
X149945901Y-87409340D01*
X152610510Y-86686732D01*
X155317929Y-85962393D01*
X158046124Y-85242104D01*
X160773059Y-84531648D01*
X163476701Y-83836807D01*
X166135017Y-83163362D01*
X168725971Y-82517097D01*
X171227531Y-81903793D01*
X173423011Y-81375555D01*
X174238448Y-81181313D01*
X174238448Y-81028735D01*
X176806207Y-81028735D01*
X176806207Y-130947739D01*
X178280934Y-130992711D01*
X178749115Y-131005972D01*
X179320715Y-131020536D01*
X179960369Y-131035599D01*
X180632714Y-131050359D01*
X181302386Y-131064012D01*
X181934022Y-131075754D01*
X181941727Y-131075889D01*
X182487148Y-131086195D01*
X182994510Y-131097255D01*
X183445369Y-131108552D01*
X183821278Y-131119569D01*
X184103793Y-131129791D01*
X184274468Y-131138700D01*
X184310376Y-131142220D01*
X184492959Y-131170345D01*
X184457772Y-130731984D01*
X184457378Y-130235824D01*
X184526210Y-129732253D01*
X184654784Y-129272183D01*
X184782038Y-128991055D01*
X184960058Y-128628240D01*
X185034753Y-128338855D01*
X185002567Y-128099832D01*
X184859940Y-127888102D01*
X184603315Y-127680599D01*
X184577199Y-127663123D01*
X184405646Y-127523166D01*
X184310361Y-127391580D01*
X184301289Y-127350959D01*
X184310668Y-127299339D01*
X184353018Y-127263563D01*
X184449659Y-127240755D01*
X184621910Y-127228039D01*
X184891091Y-127222541D01*
X185262010Y-127221383D01*
X185683926Y-127217679D01*
X186000579Y-127204233D01*
X186245363Y-127177540D01*
X186451671Y-127134097D01*
X186632638Y-127077575D01*
X186939393Y-126982278D01*
X187287462Y-126891812D01*
X187493639Y-126847141D01*
X187944732Y-126760514D01*
X187944732Y-126442019D01*
X187953374Y-126242388D01*
X187975213Y-126106598D01*
X187987758Y-126080019D01*
X188077010Y-126076984D01*
X188253484Y-126128140D01*
X188483521Y-126219471D01*
X188733462Y-126336958D01*
X188969648Y-126466584D01*
X189072155Y-126531630D01*
X189373677Y-126735124D01*
X190220680Y-126565028D01*
X191364231Y-126366323D01*
X192453998Y-126244721D01*
X193548077Y-126195175D01*
X194398830Y-126202052D01*
X195128024Y-126232936D01*
X195741445Y-126285183D01*
X196261333Y-126365414D01*
X196709927Y-126480253D01*
X197109467Y-126636321D01*
X197482193Y-126840241D01*
X197850344Y-127098635D01*
X198106018Y-127305953D01*
X198546449Y-127721399D01*
X198880855Y-128128845D01*
X199098397Y-128514202D01*
X199152332Y-128666156D01*
X199179806Y-128802583D01*
X199217750Y-129043865D01*
X199261947Y-129356835D01*
X199308185Y-129708329D01*
X199352249Y-130065182D01*
X199389925Y-130394229D01*
X199416999Y-130662304D01*
X199429255Y-130836242D01*
X199429508Y-130847476D01*
X199489508Y-130895033D01*
X199668389Y-130879269D01*
X199967861Y-130799924D01*
X200168195Y-130734682D01*
X200767307Y-130495268D01*
X201243802Y-130227663D01*
X201594286Y-129935108D01*
X201815370Y-129620842D01*
X201903663Y-129288104D01*
X201892603Y-129087402D01*
X201794695Y-128815231D01*
X201588746Y-128483055D01*
X201285632Y-128102449D01*
X200896228Y-127684989D01*
X200431408Y-127242251D01*
X199902050Y-126785809D01*
X199319027Y-126327239D01*
X199252897Y-126277768D01*
X198966198Y-126061843D01*
X198716531Y-125869114D01*
X198526902Y-125717682D01*
X198420314Y-125625650D01*
X198409199Y-125613877D01*
X198332073Y-125437546D01*
X198301870Y-125191002D01*
X198317072Y-124929917D01*
X198376162Y-124709966D01*
X198436395Y-124616410D01*
X198617423Y-124530446D01*
X198873996Y-124550657D01*
X199198307Y-124672232D01*
X199582549Y-124890361D01*
X200018916Y-125200235D01*
X200499601Y-125597044D01*
X201016797Y-126075978D01*
X201354669Y-126414417D01*
X201854630Y-126940268D01*
X202256741Y-127390412D01*
X202569414Y-127778438D01*
X202801062Y-128117931D01*
X202960096Y-128422479D01*
X203054929Y-128705669D01*
X203093974Y-128981087D01*
X203089776Y-129216830D01*
X202994369Y-129729045D01*
X202790718Y-130181045D01*
X202471277Y-130582773D01*
X202028503Y-130944170D01*
X201574158Y-131214221D01*
X201328010Y-131346099D01*
X201140972Y-131451370D01*
X201037833Y-131515791D01*
X201026426Y-131528886D01*
X201101104Y-131532394D01*
X201302745Y-131539023D01*
X201619559Y-131548469D01*
X202039752Y-131560428D01*
X202551534Y-131574597D01*
X203143113Y-131590673D01*
X203802696Y-131608352D01*
X204518492Y-131627331D01*
X205278710Y-131647307D01*
X206071556Y-131667976D01*
X206885241Y-131689034D01*
X207707970Y-131710179D01*
X208527954Y-131731107D01*
X209333400Y-131751515D01*
X210112516Y-131771099D01*
X210853511Y-131789555D01*
X211544592Y-131806582D01*
X212173968Y-131821874D01*
X212729847Y-131835129D01*
X213200437Y-131846043D01*
X213573947Y-131854314D01*
X213838584Y-131859636D01*
X213951972Y-131861437D01*
X214767410Y-131871110D01*
X214767410Y-66705536D01*
X214473089Y-66705536D01*
X214378821Y-66709837D01*
X214153028Y-66722448D01*
X213802705Y-66742931D01*
X213334848Y-66770849D01*
X212756455Y-66805765D01*
X212074520Y-66847240D01*
X211296041Y-66894837D01*
X210428013Y-66948118D01*
X209477432Y-67006646D01*
X208451295Y-67069983D01*
X207356598Y-67137692D01*
X206200336Y-67209334D01*
X204989507Y-67284473D01*
X203731106Y-67362671D01*
X202432130Y-67443489D01*
X201099574Y-67526491D01*
X199740435Y-67611239D01*
X198361710Y-67697295D01*
X196970393Y-67784222D01*
X195573482Y-67871582D01*
X194177972Y-67958937D01*
X192790859Y-68045849D01*
X191419141Y-68131882D01*
X190069813Y-68216598D01*
X188749870Y-68299558D01*
X187466311Y-68380326D01*
X186226129Y-68458463D01*
X185036322Y-68533532D01*
X183903887Y-68605096D01*
X182835818Y-68672717D01*
X181839112Y-68735957D01*
X180920766Y-68794378D01*
X180087775Y-68847544D01*
X179347136Y-68895015D01*
X178705845Y-68936356D01*
X178170898Y-68971128D01*
X177749291Y-68998893D01*
X177448020Y-69019214D01*
X177274082Y-69031653D01*
X177239951Y-69034492D01*
X176806207Y-69076146D01*
X176806207Y-74835408D01*
X176806325Y-75863987D01*
X176806801Y-76762457D01*
X176807820Y-77539507D01*
X176809567Y-78203826D01*
X176812225Y-78764103D01*
X176815979Y-79229027D01*
X176821014Y-79607286D01*
X176827514Y-79907571D01*
X176835663Y-80138569D01*
X176845646Y-80308969D01*
X176857648Y-80427461D01*
X176871853Y-80502733D01*
X176888445Y-80543475D01*
X176907608Y-80558375D01*
X176927656Y-80556732D01*
X177037026Y-80528328D01*
X177268558Y-80472545D01*
X177608988Y-80392415D01*
X178045052Y-80290969D01*
X178563486Y-80171240D01*
X179151027Y-80036260D01*
X179794410Y-79889061D01*
X180480372Y-79732675D01*
X181195650Y-79570134D01*
X181926979Y-79404470D01*
X182661096Y-79238715D01*
X183384737Y-79075900D01*
X184084638Y-78919059D01*
X184392838Y-78850229D01*
X184994187Y-78717520D01*
X185555262Y-78596458D01*
X186061201Y-78490043D01*
X186497140Y-78401280D01*
X186848218Y-78333170D01*
X187099574Y-78288715D01*
X187236344Y-78270918D01*
X187255542Y-78271899D01*
X187345237Y-78365668D01*
X187351851Y-78504616D01*
X187283719Y-78629478D01*
X187198694Y-78676157D01*
X187101001Y-78698356D01*
X186881851Y-78747699D01*
X186555239Y-78821047D01*
X186135164Y-78915262D01*
X185635620Y-79027208D01*
X185070606Y-79153745D01*
X184454117Y-79291737D01*
X183815497Y-79434613D01*
X183079509Y-79599540D01*
X182312545Y-79771965D01*
X181540297Y-79946075D01*
X180788455Y-80116058D01*
X180082711Y-80276102D01*
X179448757Y-80420394D01*
X178912284Y-80543121D01*
X178697328Y-80592575D01*
X176806207Y-81028735D01*
X174238448Y-81028735D01*
X174238448Y-75262004D01*
X174237859Y-74368920D01*
X174236151Y-73516740D01*
X174233410Y-72715525D01*
X174229725Y-71975335D01*
X174225183Y-71306229D01*
X174219872Y-70718269D01*
X174213878Y-70221515D01*
X174207290Y-69826027D01*
X174200195Y-69541865D01*
X174192680Y-69379090D01*
X174186974Y-69342694D01*
X174107734Y-69347195D01*
X173897222Y-69360379D01*
X173562666Y-69381771D01*
X173111289Y-69410895D01*
X172550316Y-69447276D01*
X171886972Y-69490436D01*
X171128483Y-69539902D01*
X170282072Y-69595196D01*
X169354965Y-69655844D01*
X168354387Y-69721368D01*
X167287562Y-69791295D01*
X166161716Y-69865146D01*
X164984074Y-69942448D01*
X163761859Y-70022723D01*
X162502298Y-70105497D01*
X161212615Y-70190293D01*
X159900035Y-70276635D01*
X158571782Y-70364049D01*
X157235082Y-70452057D01*
X155897160Y-70540185D01*
X154565241Y-70627955D01*
X153246548Y-70714894D01*
X151948308Y-70800524D01*
X150677745Y-70884370D01*
X149442084Y-70965956D01*
X148248550Y-71044806D01*
X147104368Y-71120445D01*
X146016763Y-71192396D01*
X144992959Y-71260184D01*
X144040181Y-71323334D01*
X143165655Y-71381368D01*
X142376605Y-71433812D01*
X141680256Y-71480190D01*
X141083833Y-71520025D01*
X140594561Y-71552843D01*
X140219665Y-71578167D01*
X139966370Y-71595521D01*
X139841900Y-71604429D01*
X139833940Y-71605081D01*
X139330798Y-71649165D01*
X116590Y-71649165D01*
X116590Y-61656539D01*
X80896037Y-61656539D01*
X80903636Y-61743926D01*
X80925788Y-61954655D01*
X80960883Y-62274825D01*
X81007310Y-62690533D01*
X81063460Y-63187878D01*
X81127722Y-63752957D01*
X81198487Y-64371869D01*
X81274145Y-65030710D01*
X81353085Y-65715578D01*
X81433698Y-66412573D01*
X81514373Y-67107790D01*
X81593501Y-67787329D01*
X81669471Y-68437286D01*
X81740674Y-69043761D01*
X81805499Y-69592850D01*
X81862336Y-70070651D01*
X81909576Y-70463263D01*
X81945609Y-70756782D01*
X81968824Y-70937308D01*
X81977051Y-70990918D01*
X82058354Y-71071786D01*
X82092406Y-71077667D01*
X82171219Y-71072630D01*
X82380368Y-71057914D01*
X82711773Y-71034111D01*
X83157352Y-71001815D01*
X83709024Y-70961618D01*
X84358708Y-70914113D01*
X85098323Y-70859892D01*
X85919788Y-70799548D01*
X86815023Y-70733675D01*
X87775946Y-70662864D01*
X88794475Y-70587709D01*
X89862531Y-70508802D01*
X90972032Y-70426736D01*
X91515485Y-70386503D01*
X92649109Y-70302477D01*
X93749677Y-70220744D01*
X94808708Y-70141942D01*
X95817721Y-70066708D01*
X96768234Y-69995680D01*
X97651766Y-69929495D01*
X98459835Y-69868792D01*
X99183959Y-69814207D01*
X99815657Y-69766378D01*
X100346447Y-69725943D01*
X100767847Y-69693540D01*
X101071377Y-69669806D01*
X101248554Y-69655378D01*
X101283408Y-69652231D01*
X101717713Y-69609122D01*
X101717150Y-69483316D01*
X104213804Y-69483316D01*
X104474623Y-69447391D01*
X104567326Y-69438924D01*
X104792179Y-69420600D01*
X105142918Y-69392895D01*
X105613281Y-69356283D01*
X106197004Y-69311241D01*
X106887825Y-69258243D01*
X107679481Y-69197766D01*
X108565708Y-69130283D01*
X109278544Y-69076146D01*
X109540243Y-69056271D01*
X110596824Y-68976205D01*
X111729187Y-68890560D01*
X112931070Y-68799812D01*
X114196208Y-68704437D01*
X115518340Y-68604908D01*
X116891203Y-68501702D01*
X118308532Y-68395294D01*
X119764066Y-68286160D01*
X120558393Y-68226661D01*
X122029319Y-68116430D01*
X123464042Y-68008733D01*
X124856390Y-67904043D01*
X126200190Y-67802829D01*
X127489268Y-67705562D01*
X128717452Y-67612711D01*
X129878568Y-67524748D01*
X130966444Y-67442142D01*
X131974906Y-67365364D01*
X132897782Y-67294885D01*
X133728899Y-67231174D01*
X134462084Y-67174703D01*
X135091163Y-67125940D01*
X135609964Y-67085358D01*
X136012314Y-67053425D01*
X136292039Y-67030613D01*
X136442967Y-67017392D01*
X136468909Y-67014358D01*
X136491860Y-66979479D01*
X136510206Y-66883523D01*
X136518271Y-66786936D01*
X139329096Y-66786936D01*
X139833089Y-66743176D01*
X139947384Y-66734550D01*
X140193970Y-66716958D01*
X140566657Y-66690824D01*
X141059255Y-66656572D01*
X141665577Y-66614625D01*
X142379431Y-66565408D01*
X143194630Y-66509344D01*
X144104984Y-66446857D01*
X145104302Y-66378371D01*
X146186397Y-66304310D01*
X147345079Y-66225098D01*
X148574158Y-66141159D01*
X149867445Y-66052916D01*
X151218751Y-65960793D01*
X152621887Y-65865215D01*
X154070663Y-65766605D01*
X155558890Y-65665386D01*
X157080378Y-65561984D01*
X157147944Y-65557394D01*
X158665619Y-65454331D01*
X160147604Y-65353768D01*
X161587882Y-65256111D01*
X162980439Y-65161763D01*
X164319259Y-65071130D01*
X165598328Y-64984619D01*
X166811629Y-64902633D01*
X167953148Y-64825578D01*
X169016870Y-64753860D01*
X169996779Y-64687884D01*
X170886860Y-64628055D01*
X171681098Y-64574778D01*
X172373478Y-64528458D01*
X172957985Y-64489502D01*
X173428603Y-64458313D01*
X173779318Y-64435298D01*
X174004113Y-64420861D01*
X174096974Y-64415408D01*
X174098627Y-64415372D01*
X174145607Y-64410206D01*
X174180685Y-64382926D01*
X174205596Y-64315863D01*
X174222077Y-64191343D01*
X174224703Y-64137776D01*
X174231864Y-63991697D01*
X174236695Y-63699253D01*
X174238305Y-63296339D01*
X174238448Y-62992558D01*
X174238448Y-61570017D01*
X176806207Y-61570017D01*
X176806207Y-64137776D01*
X176997054Y-64133919D01*
X177083333Y-64128615D01*
X177301762Y-64113734D01*
X177646056Y-64089726D01*
X178109930Y-64057043D01*
X178687101Y-64016134D01*
X179371281Y-63967450D01*
X180156188Y-63911441D01*
X181035535Y-63848557D01*
X182003039Y-63779249D01*
X183052413Y-63703967D01*
X184177374Y-63623162D01*
X185371636Y-63537284D01*
X186628914Y-63446783D01*
X187942924Y-63352110D01*
X189307381Y-63253714D01*
X190715999Y-63152047D01*
X192162494Y-63047559D01*
X192734898Y-63006187D01*
X194464709Y-62881112D01*
X196061479Y-62765566D01*
X197530607Y-62659111D01*
X198877492Y-62561307D01*
X200107533Y-62471719D01*
X201226129Y-62389907D01*
X202238678Y-62315434D01*
X203150581Y-62247862D01*
X203967234Y-62186754D01*
X204694038Y-62131670D01*
X205336391Y-62082173D01*
X205899692Y-62037825D01*
X206389340Y-61998189D01*
X206810734Y-61962827D01*
X207169273Y-61931299D01*
X207470355Y-61903169D01*
X207719379Y-61877999D01*
X207921745Y-61855351D01*
X208082851Y-61834786D01*
X208208096Y-61815868D01*
X208302879Y-61798157D01*
X208372598Y-61781216D01*
X208422654Y-61764607D01*
X208458443Y-61747893D01*
X208485367Y-61730634D01*
X208488450Y-61728363D01*
X208695005Y-61574414D01*
X192750606Y-61572215D01*
X176806207Y-61570017D01*
X174238448Y-61570017D01*
X174238448Y-61569745D01*
X156801972Y-61587230D01*
X139365497Y-61604716D01*
X139347297Y-64195826D01*
X139329096Y-66786936D01*
X136518271Y-66786936D01*
X136524224Y-66715636D01*
X136534193Y-66464964D01*
X136540389Y-66120653D01*
X136543088Y-65671850D01*
X136542569Y-65107699D01*
X136539108Y-64417347D01*
X136538308Y-64295789D01*
X136520142Y-61604716D01*
X104249650Y-61604716D01*
X104213804Y-69483316D01*
X101717150Y-69483316D01*
X101699802Y-65606919D01*
X101681890Y-61604716D01*
X91289404Y-61587140D01*
X89837258Y-61584890D01*
X88518304Y-61583305D01*
X87326935Y-61582425D01*
X86257548Y-61582286D01*
X85304536Y-61582926D01*
X84462295Y-61584382D01*
X83725219Y-61586692D01*
X83087704Y-61589892D01*
X82544144Y-61594022D01*
X82088934Y-61599117D01*
X81716469Y-61605216D01*
X81421143Y-61612355D01*
X81197352Y-61620573D01*
X81039491Y-61629906D01*
X80941953Y-61640392D01*
X80899135Y-61652069D01*
X80896037Y-61656539D01*
X116590Y-61656539D01*
X116590Y-61361820D01*
X227536809Y-61361820D01*
X227536809Y-140060181D01*
X143477382Y-140058070D01*
X138922934Y-140057911D01*
X134506360Y-140057664D01*
X130226737Y-140057330D01*
X126083142Y-140056906D01*
X122074651Y-140056393D01*
X118200341Y-140055790D01*
X114459289Y-140055095D01*
X110850571Y-140054308D01*
X107373264Y-140053428D01*
X104026444Y-140052454D01*
X100809189Y-140051386D01*
X97720575Y-140050222D01*
X94759678Y-140048962D01*
X91925575Y-140047605D01*
X89217344Y-140046150D01*
X86634059Y-140044596D01*
X84174799Y-140042943D01*
X81838639Y-140041189D01*
X79624657Y-140039334D01*
X77531929Y-140037377D01*
X75559531Y-140035317D01*
X73706541Y-140033153D01*
X71972034Y-140030885D01*
X70355089Y-140028511D01*
X68854780Y-140026031D01*
X67470185Y-140023444D01*
X66200381Y-140020749D01*
X65044444Y-140017946D01*
X64001451Y-140015033D01*
X63070478Y-140012010D01*
X62250603Y-140008875D01*
X61540901Y-140005629D01*
X60940449Y-140002270D01*
X60448325Y-139998797D01*
X60063604Y-139995209D01*
X59785363Y-139991507D01*
X59612680Y-139987688D01*
X59544630Y-139983752D01*
X59543619Y-139982864D01*
X59689505Y-139938501D01*
X59764682Y-139946376D01*
X59861909Y-139949085D01*
X59881915Y-139928598D01*
X59951111Y-139912666D01*
X60152153Y-139873662D01*
X60480169Y-139812450D01*
X60930288Y-139729896D01*
X61497639Y-139626865D01*
X62177349Y-139504223D01*
X62964547Y-139362836D01*
X63854361Y-139203568D01*
X64841920Y-139027286D01*
X65922352Y-138834853D01*
X67090785Y-138627137D01*
X68342347Y-138405003D01*
X69672167Y-138169315D01*
X71075373Y-137920940D01*
X72547094Y-137660742D01*
X74082458Y-137389588D01*
X75676593Y-137108342D01*
X77324627Y-136817870D01*
X79021689Y-136519038D01*
X80762907Y-136212710D01*
X82543410Y-135899753D01*
X84086879Y-135628683D01*
X85897486Y-135310665D01*
X87673184Y-134998479D01*
X89409087Y-134692993D01*
X91100312Y-134395076D01*
X92741977Y-134105595D01*
X94329196Y-133825419D01*
X95857088Y-133555416D01*
X97320767Y-133296455D01*
X98715351Y-133049404D01*
X100035956Y-132815131D01*
X101277698Y-132594505D01*
X102435693Y-132388394D01*
X103505059Y-132197666D01*
X104480911Y-132023189D01*
X105358366Y-131865832D01*
X106132541Y-131726464D01*
X106798551Y-131605952D01*
X107351513Y-131505165D01*
X107786544Y-131424970D01*
X108098760Y-131366238D01*
X108283277Y-131329835D01*
X108336052Y-131317112D01*
X108346240Y-131243287D01*
X108288769Y-131207583D01*
X108212766Y-131216240D01*
X108004911Y-131248150D01*
X107670044Y-131302475D01*
X107213004Y-131378376D01*
X106638632Y-131475017D01*
X105951767Y-131591558D01*
X105157247Y-131727163D01*
X104259914Y-131880994D01*
X103264607Y-132052213D01*
X102176165Y-132239981D01*
X100999427Y-132443462D01*
X99739234Y-132661816D01*
X98400426Y-132894208D01*
X96987840Y-133139798D01*
X95506318Y-133397749D01*
X93960699Y-133667223D01*
X92355822Y-133947382D01*
X90696528Y-134237389D01*
X88987655Y-134536405D01*
X87234043Y-134843593D01*
X85440532Y-135158115D01*
X83611962Y-135479133D01*
X83444096Y-135508620D01*
X58712748Y-139853144D01*
X43173003Y-139845645D01*
X41408030Y-139844683D01*
X39777130Y-139843548D01*
X38275575Y-139842210D01*
X36898642Y-139840637D01*
X35641602Y-139838800D01*
X34499732Y-139836669D01*
X33468305Y-139834213D01*
X32542595Y-139831402D01*
X31717877Y-139828205D01*
X30989424Y-139824592D01*
X30352512Y-139820534D01*
X29802414Y-139815999D01*
X29334404Y-139810958D01*
X28943757Y-139805380D01*
X28625746Y-139799235D01*
X28375647Y-139792492D01*
X28188734Y-139785121D01*
X28060279Y-139777093D01*
X27985559Y-139768376D01*
X27959847Y-139758941D01*
X27978417Y-139748757D01*
X27980251Y-139748272D01*
X28069596Y-139732010D01*
X28291999Y-139694773D01*
X28643416Y-139637203D01*
X29119802Y-139559943D01*
X29717111Y-139463635D01*
X30431298Y-139348923D01*
X31258318Y-139216448D01*
X32194125Y-139066853D01*
X33234675Y-138900781D01*
X34375923Y-138718875D01*
X35613822Y-138521776D01*
X36944329Y-138310128D01*
X38363397Y-138084573D01*
X39866983Y-137845754D01*
X41451039Y-137594312D01*
X43111522Y-137330892D01*
X44844386Y-137056135D01*
X46645586Y-136770684D01*
X48511077Y-136475182D01*
X50436813Y-136170271D01*
X52418750Y-135856594D01*
X54452842Y-135534792D01*
X56535044Y-135205510D01*
X58661311Y-134869390D01*
X60827597Y-134527073D01*
X63029858Y-134179203D01*
X64525450Y-133943033D01*
X100723654Y-128227667D01*
X98739111Y-128191460D01*
X98053883Y-128174373D01*
X97342017Y-128147067D01*
X96582675Y-128108321D01*
X95755018Y-128056914D01*
X94838206Y-127991623D01*
X93811400Y-127911226D01*
X93440770Y-127880833D01*
X92674889Y-127817066D01*
X92036016Y-127762850D01*
X91512790Y-127716820D01*
X91093852Y-127677615D01*
X90767840Y-127643872D01*
X90523396Y-127614228D01*
X90349157Y-127587319D01*
X90233765Y-127561784D01*
X90165859Y-127536259D01*
X90134078Y-127509381D01*
X90126972Y-127483297D01*
X90169091Y-127379515D01*
X90217807Y-127360181D01*
X90342709Y-127321769D01*
X90440812Y-127263535D01*
X90509624Y-127202414D01*
X90516517Y-127137516D01*
X90450294Y-127035861D01*
X90308702Y-126874362D01*
X90153631Y-126687383D01*
X90079744Y-126541199D01*
X90065000Y-126383820D01*
X90070181Y-126311718D01*
X90077271Y-126136056D01*
X90042528Y-126059490D01*
X89955309Y-126044602D01*
X89865455Y-126041980D01*
X89647637Y-126033474D01*
X89312545Y-126019553D01*
X88870869Y-126000683D01*
X88333296Y-125977335D01*
X87710517Y-125949975D01*
X87013219Y-125919072D01*
X86252094Y-125885094D01*
X85437829Y-125848509D01*
X84581113Y-125809785D01*
X84228065Y-125793762D01*
X78641453Y-125539922D01*
X71821973Y-126270380D01*
X65002492Y-127000838D01*
X64118694Y-127516931D01*
X63632070Y-127800284D01*
X63245985Y-128022270D01*
X62941600Y-128192333D01*
X62700079Y-128319919D01*
X62502584Y-128414471D01*
X62330279Y-128485435D01*
X62164324Y-128542255D01*
X61985884Y-128594375D01*
X61950056Y-128604241D01*
X61394804Y-128734554D01*
X60701970Y-128859263D01*
X59872659Y-128978291D01*
X58907977Y-129091565D01*
X57809029Y-129199008D01*
X56576920Y-129300546D01*
X55212757Y-129396103D01*
X53717644Y-129485604D01*
X52092688Y-129568973D01*
X50338992Y-129646136D01*
X48457664Y-129717016D01*
X46449808Y-129781539D01*
X44316530Y-129839630D01*
X43525606Y-129858777D01*
X42887685Y-129873543D01*
X42280457Y-129887234D01*
X41720739Y-129899495D01*
X41225350Y-129909974D01*
X40811107Y-129918319D01*
X40494827Y-129924178D01*
X40293328Y-129927196D01*
X40246508Y-129927533D01*
X39882164Y-129927940D01*
X39882164Y-131071700D01*
X39882736Y-131493817D01*
X39886252Y-131797501D01*
X39895405Y-132003117D01*
X39912893Y-132131027D01*
X39941411Y-132201598D01*
X39983654Y-132235193D01*
X40038311Y-132251261D01*
X40136532Y-132270489D01*
X40357275Y-132311667D01*
X40686449Y-132372228D01*
X41109963Y-132449602D01*
X41613724Y-132541222D01*
X42183639Y-132644519D01*
X42805618Y-132756924D01*
X43456207Y-132874186D01*
X44119562Y-132994384D01*
X44747796Y-133109741D01*
X45326320Y-133217470D01*
X45840548Y-133314784D01*
X46275890Y-133398897D01*
X46617759Y-133467024D01*
X46851566Y-133516378D01*
X46960852Y-133543523D01*
X47238630Y-133672029D01*
X47401590Y-133823911D01*
X47442480Y-133986618D01*
X47354052Y-134147597D01*
X47325197Y-134174266D01*
X47244202Y-134196756D01*
X47033262Y-134240082D01*
X46699470Y-134303081D01*
X46249925Y-134384588D01*
X45691721Y-134483437D01*
X45031955Y-134598464D01*
X44277723Y-134728505D01*
X43436122Y-134872394D01*
X42514248Y-135028966D01*
X41519196Y-135197057D01*
X40458063Y-135375502D01*
X39337945Y-135563136D01*
X38165939Y-135758794D01*
X36949140Y-135961312D01*
X35694645Y-136169524D01*
X34409549Y-136382266D01*
X33100950Y-136598374D01*
X31775943Y-136816681D01*
X30441624Y-137036025D01*
X29105090Y-137255238D01*
X27773437Y-137473158D01*
X26453760Y-137688619D01*
X25153157Y-137900456D01*
X23878723Y-138107504D01*
X22637554Y-138308599D01*
X21436747Y-138502576D01*
X20283398Y-138688270D01*
X19184603Y-138864517D01*
X18147458Y-139030150D01*
X17179060Y-139184006D01*
X16286504Y-139324920D01*
X15476886Y-139451728D01*
X14757304Y-139563263D01*
X14134853Y-139658361D01*
X13616629Y-139735859D01*
X13209729Y-139794590D01*
X12921248Y-139833390D01*
X12758283Y-139851094D01*
X12734798Y-139852117D01*
X12412995Y-139862791D01*
X12206825Y-139897362D01*
X12097816Y-139956082D01*
X12066077Y-139974616D01*
X12004649Y-139990855D01*
X11905021Y-140004948D01*
X11758687Y-140017040D01*
X11557137Y-140027278D01*
X11291865Y-140035808D01*
X10954361Y-140042778D01*
X10536118Y-140048333D01*
X10028628Y-140052621D01*
X9423382Y-140055788D01*
X8711872Y-140057980D01*
X7885590Y-140059344D01*
X6936028Y-140060027D01*
X6055154Y-140060181D01*
X116590Y-140060181D01*
X116590Y-138157963D01*
X11428612Y-138157963D01*
X11485663Y-138168402D01*
X11584759Y-138151987D01*
X11674986Y-138135674D01*
X11892277Y-138098917D01*
X12226664Y-138043343D01*
X12668178Y-137970582D01*
X13206853Y-137882262D01*
X13832721Y-137780012D01*
X14535813Y-137665459D01*
X15306161Y-137540232D01*
X16133799Y-137405960D01*
X17008759Y-137264272D01*
X17921071Y-137116794D01*
X17942707Y-137113300D01*
X18851965Y-136966248D01*
X19721391Y-136825245D01*
X20541314Y-136691881D01*
X21302064Y-136567747D01*
X21993969Y-136454434D01*
X22607359Y-136353534D01*
X23132563Y-136266636D01*
X23559910Y-136195334D01*
X23879729Y-136141216D01*
X24082350Y-136105875D01*
X24158101Y-136090901D01*
X24158388Y-136090712D01*
X24188328Y-136022255D01*
X24260336Y-135849956D01*
X24364164Y-135598533D01*
X24489562Y-135292705D01*
X24512339Y-135236957D01*
X24968385Y-134189537D01*
X25462792Y-133181398D01*
X25984602Y-132231080D01*
X26522857Y-131357128D01*
X27066599Y-130578085D01*
X27604871Y-129912492D01*
X27759280Y-129742378D01*
X28162701Y-129362689D01*
X28668508Y-128967709D01*
X29244799Y-128577247D01*
X29859671Y-128211107D01*
X30481223Y-127889094D01*
X31077552Y-127631015D01*
X31276699Y-127558671D01*
X31563040Y-127464059D01*
X31795233Y-127400392D01*
X32015000Y-127361697D01*
X32264062Y-127341999D01*
X32584142Y-127335326D01*
X32838175Y-127335113D01*
X33353926Y-127346338D01*
X33782767Y-127380545D01*
X34175413Y-127442716D01*
X34374788Y-127486026D01*
X34680868Y-127554881D01*
X34894245Y-127590898D01*
X35056615Y-127595895D01*
X35209678Y-127571690D01*
X35364701Y-127529189D01*
X35700180Y-127391228D01*
X36015067Y-127175529D01*
X36327121Y-126866038D01*
X36654103Y-126446702D01*
X36803891Y-126228357D01*
X36936202Y-126008512D01*
X37090023Y-125720472D01*
X37252151Y-125393127D01*
X37409382Y-125055369D01*
X37548513Y-124736089D01*
X37656341Y-124464176D01*
X37719661Y-124268523D01*
X37730798Y-124200166D01*
X37763992Y-124092459D01*
X37782847Y-124074398D01*
X37793864Y-124133927D01*
X37802906Y-124317445D01*
X37809810Y-124610156D01*
X37814412Y-124997263D01*
X37816548Y-125463970D01*
X37816054Y-125995480D01*
X37812765Y-126576996D01*
X37811827Y-126690111D01*
X37807897Y-127799668D01*
X37817195Y-128782323D01*
X37840595Y-129649422D01*
X37878970Y-130412310D01*
X37933196Y-131082332D01*
X38004145Y-131670834D01*
X38092691Y-132189160D01*
X38199709Y-132648658D01*
X38295616Y-132970631D01*
X38402047Y-133230717D01*
X38540423Y-133483615D01*
X38689136Y-133697613D01*
X38826578Y-133841000D01*
X38917768Y-133883678D01*
X38925511Y-133815266D01*
X38932884Y-133613980D01*
X38939854Y-133285740D01*
X38946386Y-132836470D01*
X38952444Y-132272091D01*
X38957995Y-131598527D01*
X38963003Y-130821699D01*
X38967435Y-129947530D01*
X38971254Y-128981941D01*
X38974427Y-127930856D01*
X38976919Y-126800197D01*
X38978695Y-125595885D01*
X38979721Y-124323843D01*
X38979913Y-123529862D01*
X72239597Y-123529862D01*
X72256754Y-123536445D01*
X72384641Y-123538956D01*
X72642699Y-123544377D01*
X73022338Y-123552519D01*
X73514964Y-123563194D01*
X74111987Y-123576213D01*
X74804815Y-123591387D01*
X75584856Y-123608527D01*
X76443519Y-123627443D01*
X77372212Y-123647948D01*
X78362343Y-123669852D01*
X79405320Y-123692967D01*
X80492552Y-123717103D01*
X81615448Y-123742072D01*
X82042000Y-123751567D01*
X83177822Y-123776768D01*
X84282346Y-123801098D01*
X85346878Y-123824373D01*
X86362723Y-123846411D01*
X87321186Y-123867029D01*
X88213570Y-123886045D01*
X89031182Y-123903275D01*
X89765326Y-123918536D01*
X90407307Y-123931646D01*
X90948430Y-123942422D01*
X91380000Y-123950681D01*
X91693321Y-123956240D01*
X91879699Y-123958916D01*
X91913994Y-123959139D01*
X92242187Y-123972204D01*
X92436349Y-124009628D01*
X92495636Y-124069776D01*
X92419205Y-124151016D01*
X92206213Y-124251712D01*
X92087492Y-124295367D01*
X91688448Y-124434469D01*
X94707300Y-124434572D01*
X97726153Y-124434676D01*
X97073538Y-124258605D01*
X102244043Y-124258605D01*
X102414059Y-124323110D01*
X102535409Y-124346614D01*
X102770352Y-124373079D01*
X103093777Y-124400384D01*
X103480574Y-124426407D01*
X103902656Y-124448888D01*
X104831061Y-124516028D01*
X105631681Y-124625794D01*
X106309159Y-124779255D01*
X106868138Y-124977477D01*
X107313262Y-125221529D01*
X107337901Y-125238677D01*
X107505906Y-125346059D01*
X107633473Y-125407961D01*
X107658696Y-125413608D01*
X107740911Y-125400851D01*
X107945026Y-125362984D01*
X108256973Y-125302786D01*
X108662686Y-125223035D01*
X109148097Y-125126510D01*
X109699138Y-125015990D01*
X110301742Y-124894254D01*
X110781646Y-124796737D01*
X112158950Y-124515048D01*
X113071748Y-124326669D01*
X124834481Y-124326669D01*
X124871230Y-124367805D01*
X125007979Y-124359424D01*
X125109859Y-124342214D01*
X125336779Y-124305177D01*
X125676698Y-124250242D01*
X126117573Y-124179340D01*
X126647364Y-124094399D01*
X127254027Y-123997351D01*
X127925522Y-123890124D01*
X128649807Y-123774649D01*
X129414840Y-123652855D01*
X129684350Y-123609990D01*
X130455534Y-123486853D01*
X131186149Y-123369202D01*
X131864668Y-123258959D01*
X132479568Y-123158041D01*
X133019324Y-123068369D01*
X133472413Y-122991863D01*
X133827310Y-122930442D01*
X134072491Y-122886025D01*
X134196431Y-122860533D01*
X134209319Y-122856228D01*
X134197606Y-122782430D01*
X134129356Y-122613097D01*
X134015889Y-122373776D01*
X133875553Y-122103053D01*
X133493046Y-121391875D01*
X127219727Y-121391875D01*
X126040426Y-122824059D01*
X125725984Y-123207303D01*
X125441138Y-123557104D01*
X125197721Y-123858717D01*
X125007564Y-124097400D01*
X124882500Y-124258411D01*
X124834481Y-124326669D01*
X113071748Y-124326669D01*
X113421548Y-124254479D01*
X114567328Y-124015494D01*
X115594179Y-123798557D01*
X116499988Y-123604132D01*
X117282644Y-123432683D01*
X117940035Y-123284675D01*
X118470048Y-123160571D01*
X118870573Y-123060835D01*
X119139497Y-122985932D01*
X119274707Y-122936325D01*
X119287545Y-122927770D01*
X119292553Y-122843824D01*
X119256356Y-122671625D01*
X119204559Y-122502257D01*
X119118829Y-122207991D01*
X119049160Y-121892998D01*
X119027384Y-121756219D01*
X118980925Y-121391875D01*
X111485037Y-121391875D01*
X108201715Y-123447791D01*
X105739890Y-123639078D01*
X105001575Y-123698190D01*
X104387875Y-123751811D01*
X103884820Y-123802085D01*
X103478438Y-123851155D01*
X103154756Y-123901165D01*
X102899804Y-123954258D01*
X102699609Y-124012576D01*
X102540200Y-124078265D01*
X102414059Y-124149289D01*
X102244043Y-124258605D01*
X97073538Y-124258605D01*
X96095278Y-123994677D01*
X94464404Y-123554679D01*
X81625606Y-122577331D01*
X76698284Y-123052865D01*
X75901904Y-123130458D01*
X75158464Y-123204330D01*
X74477523Y-123273442D01*
X73868638Y-123336752D01*
X73341368Y-123393221D01*
X72905270Y-123441807D01*
X72569904Y-123481469D01*
X72344827Y-123511168D01*
X72239597Y-123529862D01*
X38979913Y-123529862D01*
X38979978Y-123262199D01*
X38979965Y-123092148D01*
X53553748Y-123092148D01*
X53588448Y-123126847D01*
X53623147Y-123092148D01*
X53588448Y-123057448D01*
X53553748Y-123092148D01*
X38979965Y-123092148D01*
X38979955Y-122969897D01*
X53761945Y-122969897D01*
X53774224Y-122976536D01*
X53880633Y-122926370D01*
X54086421Y-122816541D01*
X54396835Y-122644187D01*
X54817125Y-122406450D01*
X55254022Y-122156937D01*
X55881776Y-121787265D01*
X56126992Y-121631386D01*
X92776284Y-121631386D01*
X92813256Y-121747040D01*
X92912868Y-121836248D01*
X93024269Y-121897612D01*
X93149897Y-121917592D01*
X93320142Y-121892690D01*
X93565393Y-121819408D01*
X93810429Y-121732923D01*
X94001540Y-121650429D01*
X94187504Y-121536761D01*
X94287495Y-121457123D01*
X96663420Y-121457123D01*
X96703329Y-121508140D01*
X96846264Y-121529868D01*
X97060311Y-121525503D01*
X97313553Y-121498245D01*
X97574074Y-121451293D01*
X97809961Y-121387843D01*
X97959757Y-121327216D01*
X98216302Y-121223111D01*
X98491331Y-121149125D01*
X98548465Y-121139654D01*
X98753134Y-121124333D01*
X98887059Y-121162797D01*
X99013920Y-121274256D01*
X99021441Y-121282328D01*
X99192153Y-121466432D01*
X99488766Y-121114666D01*
X99785380Y-120762900D01*
X100673972Y-120771609D01*
X101079113Y-120771969D01*
X101373176Y-120759693D01*
X101583732Y-120728563D01*
X101716274Y-120680385D01*
X105910514Y-120680385D01*
X105926379Y-120715935D01*
X106016660Y-120744855D01*
X106236986Y-120758606D01*
X106579473Y-120757523D01*
X107036238Y-120741939D01*
X107599397Y-120712189D01*
X108261065Y-120668608D01*
X109013359Y-120611529D01*
X109662765Y-120557442D01*
X110278967Y-120501400D01*
X110762736Y-120450779D01*
X111120293Y-120404748D01*
X111357862Y-120362475D01*
X111481666Y-120323129D01*
X111496807Y-120312508D01*
X111543526Y-120251542D01*
X111531429Y-120207560D01*
X111448946Y-120180345D01*
X111284505Y-120169680D01*
X111026537Y-120175347D01*
X110663471Y-120197129D01*
X110183737Y-120234809D01*
X109683715Y-120278445D01*
X109143111Y-120324791D01*
X108582112Y-120369107D01*
X108037197Y-120408776D01*
X107544842Y-120441184D01*
X107141527Y-120463717D01*
X107029254Y-120468741D01*
X106578096Y-120492203D01*
X106253164Y-120522292D01*
X106041936Y-120561815D01*
X105931892Y-120613577D01*
X105910514Y-120680385D01*
X101716274Y-120680385D01*
X101738351Y-120672360D01*
X101864605Y-120584865D01*
X101972585Y-120478712D01*
X102124482Y-120316192D01*
X100654006Y-120318506D01*
X100124417Y-120320981D01*
X99706349Y-120329028D01*
X99372540Y-120346392D01*
X99095724Y-120376817D01*
X98848638Y-120424045D01*
X98604017Y-120491821D01*
X98334598Y-120583888D01*
X98107847Y-120668114D01*
X97801684Y-120794282D01*
X97485062Y-120942481D01*
X97185490Y-121097683D01*
X96930479Y-121244863D01*
X96747538Y-121368992D01*
X96664176Y-121455045D01*
X96663420Y-121457123D01*
X94287495Y-121457123D01*
X94394818Y-121371645D01*
X94649982Y-121134805D01*
X94847194Y-120939682D01*
X95137392Y-120639412D01*
X95323035Y-120426128D01*
X95405901Y-120297608D01*
X95397070Y-120253424D01*
X95292904Y-120222972D01*
X95085522Y-120165814D01*
X94805975Y-120090412D01*
X94516829Y-120013546D01*
X93736467Y-119807457D01*
X93501175Y-120082343D01*
X93275675Y-120385466D01*
X93068360Y-120734695D01*
X92903203Y-121084015D01*
X92804177Y-121387410D01*
X92794336Y-121439042D01*
X92776284Y-121631386D01*
X56126992Y-121631386D01*
X56406594Y-121453649D01*
X56853223Y-121137722D01*
X57246413Y-120821118D01*
X57610909Y-120485469D01*
X57887674Y-120202398D01*
X58614975Y-119347977D01*
X59170665Y-118553143D01*
X81755277Y-118553143D01*
X81788189Y-118653622D01*
X81924138Y-118767694D01*
X82143544Y-118892211D01*
X82354859Y-118984573D01*
X82625706Y-119083174D01*
X82793356Y-119135898D01*
X82917422Y-119169554D01*
X83039274Y-119194027D01*
X83177236Y-119209068D01*
X83349631Y-119214429D01*
X83574784Y-119209861D01*
X83871018Y-119195117D01*
X84256657Y-119169946D01*
X84750024Y-119134102D01*
X85150830Y-119103926D01*
X85745870Y-119061074D01*
X86375279Y-119019662D01*
X87002389Y-118981832D01*
X87590534Y-118949724D01*
X88103046Y-118925478D01*
X88400755Y-118914214D01*
X88897842Y-118899528D01*
X89285172Y-118897664D01*
X89591744Y-118917952D01*
X89846555Y-118969719D01*
X90078603Y-119062293D01*
X90316884Y-119205001D01*
X90590397Y-119407171D01*
X90928139Y-119678132D01*
X91027999Y-119759332D01*
X91301872Y-119977086D01*
X91541905Y-120158739D01*
X91725640Y-120287962D01*
X91830620Y-120348425D01*
X91841507Y-120350891D01*
X91914314Y-120292172D01*
X92010566Y-120141011D01*
X92077884Y-120001282D01*
X92251749Y-119702053D01*
X92490582Y-119422843D01*
X92539433Y-119377786D01*
X92717781Y-119203999D01*
X92777964Y-119100309D01*
X92755309Y-119070302D01*
X92529821Y-118998586D01*
X92191196Y-118901108D01*
X91761508Y-118783460D01*
X91262831Y-118651232D01*
X90717238Y-118510014D01*
X90146802Y-118365397D01*
X89573599Y-118222971D01*
X89019701Y-118088327D01*
X88507182Y-117967054D01*
X88058116Y-117864745D01*
X87694577Y-117786988D01*
X87663311Y-117780685D01*
X87157143Y-117688754D01*
X86737942Y-117638891D01*
X86360478Y-117630867D01*
X85979523Y-117664453D01*
X85549846Y-117739420D01*
X85407847Y-117769262D01*
X85095192Y-117831598D01*
X84684192Y-117906016D01*
X84214023Y-117985829D01*
X83723862Y-118064345D01*
X83343101Y-118121812D01*
X82772186Y-118211254D01*
X82333856Y-118295314D01*
X82022201Y-118377785D01*
X81831311Y-118462463D01*
X81755277Y-118553143D01*
X59170665Y-118553143D01*
X59284333Y-118390558D01*
X59799672Y-117497018D01*
X74789814Y-117497018D01*
X74851702Y-117547312D01*
X75010847Y-117604177D01*
X75154158Y-117638674D01*
X75389345Y-117687022D01*
X75586036Y-117728793D01*
X75657300Y-117744687D01*
X75837755Y-117763064D01*
X76126210Y-117765165D01*
X76493062Y-117752891D01*
X76908711Y-117728141D01*
X77343554Y-117692814D01*
X77767988Y-117648812D01*
X78152411Y-117598034D01*
X78292325Y-117575571D01*
X78646402Y-117512284D01*
X78977875Y-117448345D01*
X79247180Y-117391660D01*
X79402707Y-117353665D01*
X79682437Y-117274037D01*
X79196645Y-117181252D01*
X78731184Y-117113459D01*
X78181450Y-117066875D01*
X77590445Y-117042344D01*
X77001169Y-117040708D01*
X76456623Y-117062811D01*
X75999807Y-117109495D01*
X75948153Y-117117570D01*
X75507319Y-117200994D01*
X75160503Y-117289423D01*
X74920753Y-117378582D01*
X74801117Y-117464197D01*
X74789814Y-117497018D01*
X59799672Y-117497018D01*
X59900664Y-117321910D01*
X60438025Y-116198328D01*
X77010579Y-116198328D01*
X77067961Y-116210628D01*
X77211409Y-116178487D01*
X77270825Y-116159050D01*
X77803153Y-116029233D01*
X78290786Y-116029082D01*
X78502656Y-116072879D01*
X79677485Y-116396133D01*
X80722274Y-116677145D01*
X81639051Y-116916369D01*
X82429842Y-117114257D01*
X83096676Y-117271263D01*
X83641579Y-117387842D01*
X84066580Y-117464446D01*
X84373706Y-117501529D01*
X84564984Y-117499544D01*
X84642442Y-117458946D01*
X84644459Y-117446893D01*
X84582662Y-117336313D01*
X84414242Y-117202185D01*
X84164653Y-117063629D01*
X84086732Y-117027976D01*
X83874248Y-116953161D01*
X83535518Y-116858237D01*
X83081251Y-116745641D01*
X82522156Y-116617809D01*
X81868940Y-116477179D01*
X81132313Y-116326189D01*
X80322983Y-116167275D01*
X80208481Y-116145298D01*
X79745973Y-116055948D01*
X79399476Y-115985519D01*
X79148530Y-115927623D01*
X78972677Y-115875869D01*
X78851456Y-115823866D01*
X78764409Y-115765224D01*
X78691076Y-115693554D01*
X78663607Y-115662779D01*
X78430418Y-115460132D01*
X78188006Y-115388522D01*
X77909879Y-115441264D01*
X77861300Y-115460378D01*
X77701082Y-115550482D01*
X77505550Y-115692367D01*
X77307144Y-115857894D01*
X77138300Y-116018926D01*
X77031458Y-116147324D01*
X77010579Y-116198328D01*
X60438025Y-116198328D01*
X60468885Y-116133802D01*
X60804680Y-115319470D01*
X60971592Y-114886118D01*
X61090384Y-114559481D01*
X61165783Y-114317929D01*
X61202514Y-114139832D01*
X61205303Y-114003560D01*
X61178875Y-113887484D01*
X61138469Y-113791681D01*
X61105772Y-113718266D01*
X61086673Y-113645759D01*
X61085957Y-113557323D01*
X61108407Y-113436122D01*
X61158808Y-113265319D01*
X61241945Y-113028078D01*
X61362602Y-112707564D01*
X61525563Y-112286939D01*
X61674180Y-111906498D01*
X61919282Y-111275859D01*
X62117159Y-110753724D01*
X62272871Y-110320023D01*
X62391475Y-109954688D01*
X62478031Y-109637647D01*
X62537596Y-109348831D01*
X62575229Y-109068171D01*
X62595988Y-108775596D01*
X62604933Y-108451036D01*
X62606832Y-108206082D01*
X62598606Y-107627783D01*
X62567874Y-107154656D01*
X62512199Y-106754534D01*
X62487566Y-106631306D01*
X62359685Y-106111132D01*
X62203367Y-105590083D01*
X62067800Y-105204229D01*
X65069075Y-105204229D01*
X65108988Y-105268170D01*
X65232153Y-105412745D01*
X65373554Y-105570895D01*
X65813168Y-106083276D01*
X66194461Y-106576334D01*
X66505799Y-107032892D01*
X66735549Y-107435774D01*
X66872079Y-107767802D01*
X66879757Y-107794956D01*
X66978354Y-108057644D01*
X67135950Y-108309928D01*
X67364310Y-108561658D01*
X67675200Y-108822686D01*
X68080385Y-109102861D01*
X68591631Y-109412033D01*
X69220701Y-109760053D01*
X69237901Y-109769263D01*
X69864248Y-110115716D01*
X70495992Y-110486113D01*
X71117470Y-110869714D01*
X71713020Y-111255780D01*
X72266981Y-111633572D01*
X72763690Y-111992351D01*
X73187486Y-112321376D01*
X73522707Y-112609910D01*
X73753690Y-112847211D01*
X73786478Y-112888206D01*
X73946254Y-113180391D01*
X74035184Y-113501267D01*
X74072661Y-113685314D01*
X74135793Y-113939249D01*
X74215865Y-114233682D01*
X74304157Y-114539220D01*
X74391951Y-114826472D01*
X74470529Y-115066045D01*
X74531173Y-115228549D01*
X74564200Y-115284771D01*
X74638103Y-115272869D01*
X74827509Y-115239668D01*
X75111406Y-115188930D01*
X75468780Y-115124413D01*
X75878618Y-115049878D01*
X75957904Y-115035402D01*
X76375362Y-114957995D01*
X76744266Y-114887418D01*
X77043548Y-114827880D01*
X77252141Y-114783590D01*
X77348981Y-114758757D01*
X77352926Y-114756670D01*
X77349360Y-114676401D01*
X77256415Y-114554817D01*
X77104788Y-114420222D01*
X76925173Y-114300922D01*
X76791292Y-114238773D01*
X76579965Y-114144953D01*
X76308172Y-113991625D01*
X75969921Y-113774468D01*
X75559217Y-113489160D01*
X75070069Y-113131382D01*
X74496481Y-112696811D01*
X73832462Y-112181127D01*
X73072017Y-111580009D01*
X72777246Y-111344856D01*
X72408802Y-111045985D01*
X72093172Y-110777802D01*
X71806392Y-110516851D01*
X71524502Y-110239678D01*
X71223538Y-109922828D01*
X70879539Y-109542847D01*
X70521781Y-109137145D01*
X69342000Y-107789347D01*
X67398830Y-106602369D01*
X66918902Y-106309265D01*
X66467059Y-106033426D01*
X66059544Y-105784757D01*
X65712600Y-105573167D01*
X65442468Y-105408562D01*
X65265390Y-105300850D01*
X65212765Y-105268976D01*
X65105854Y-105208604D01*
X65069075Y-105204229D01*
X62067800Y-105204229D01*
X62027688Y-105090062D01*
X61841722Y-104632973D01*
X61654547Y-104240719D01*
X61475238Y-103935204D01*
X61312870Y-103738332D01*
X61276821Y-103709248D01*
X61068546Y-103560943D01*
X61331687Y-104096491D01*
X61487358Y-104434234D01*
X61652236Y-104824924D01*
X61793037Y-105189375D01*
X61804725Y-105221929D01*
X61927462Y-105563876D01*
X62059580Y-105927275D01*
X62175439Y-106241672D01*
X62191016Y-106283420D01*
X62294896Y-106627585D01*
X62353525Y-106964991D01*
X62363501Y-107258558D01*
X62321419Y-107471205D01*
X62303246Y-107505999D01*
X62194302Y-107571683D01*
X61984843Y-107616099D01*
X61877923Y-107625734D01*
X61567052Y-107676777D01*
X61359087Y-107797905D01*
X61228051Y-108007689D01*
X61192735Y-108115563D01*
X61163330Y-108388351D01*
X61224128Y-108615853D01*
X61362823Y-108765871D01*
X61454809Y-108801194D01*
X61712949Y-108866550D01*
X61862278Y-108945180D01*
X61931860Y-109066368D01*
X61950754Y-109259399D01*
X61951016Y-109301192D01*
X61919836Y-109612291D01*
X61831844Y-110016114D01*
X61695359Y-110482819D01*
X61518702Y-110982564D01*
X61399195Y-111280365D01*
X61192233Y-111706398D01*
X60934966Y-112134692D01*
X60652346Y-112529657D01*
X60369327Y-112855699D01*
X60167976Y-113036519D01*
X60001987Y-113167636D01*
X59932577Y-113248711D01*
X59944557Y-113311994D01*
X60007895Y-113376345D01*
X60139574Y-113569771D01*
X60192794Y-113806279D01*
X60153800Y-114021769D01*
X60148599Y-114031938D01*
X60061455Y-114125948D01*
X59883341Y-114272025D01*
X59641316Y-114449203D01*
X59397941Y-114613557D01*
X59120374Y-114798705D01*
X58880213Y-114967451D01*
X58705268Y-115099717D01*
X58627559Y-115169730D01*
X58588198Y-115256004D01*
X58559286Y-115415976D01*
X58539376Y-115666642D01*
X58527019Y-116024998D01*
X58521480Y-116413903D01*
X58516497Y-116841239D01*
X58507099Y-117162417D01*
X58488960Y-117410079D01*
X58457754Y-117616865D01*
X58409155Y-117815415D01*
X58338836Y-118038369D01*
X58285496Y-118194325D01*
X58062217Y-118734488D01*
X57765764Y-119265676D01*
X57387564Y-119797432D01*
X56919044Y-120339299D01*
X56351633Y-120900818D01*
X55676758Y-121491534D01*
X54885847Y-122120988D01*
X54490634Y-122418802D01*
X54223089Y-122618220D01*
X53997604Y-122787729D01*
X53836801Y-122910222D01*
X53763301Y-122968589D01*
X53761945Y-122969897D01*
X38979955Y-122969897D01*
X38979866Y-121825250D01*
X38979683Y-120520564D01*
X38979659Y-119341606D01*
X38980023Y-118281840D01*
X38981005Y-117334731D01*
X38982835Y-116493745D01*
X38985741Y-115752347D01*
X38989954Y-115104002D01*
X38995703Y-114542174D01*
X39003217Y-114060329D01*
X39012727Y-113651931D01*
X39024461Y-113310447D01*
X39038649Y-113029340D01*
X39055521Y-112802076D01*
X39075306Y-112622119D01*
X39098234Y-112482936D01*
X39124535Y-112377990D01*
X39154437Y-112300747D01*
X39188171Y-112244672D01*
X39225966Y-112203231D01*
X39268052Y-112169887D01*
X39314658Y-112138106D01*
X39366013Y-112101353D01*
X39372183Y-112096552D01*
X39561211Y-111985410D01*
X39800078Y-111890902D01*
X39864326Y-111872739D01*
X40169688Y-111795848D01*
X40154479Y-111120300D01*
X48677106Y-111120300D01*
X48733274Y-111255761D01*
X48862040Y-111390412D01*
X49072114Y-111557440D01*
X49190679Y-111648301D01*
X49889099Y-112108074D01*
X50695949Y-112500394D01*
X51595438Y-112819728D01*
X52571774Y-113060543D01*
X53609167Y-113217305D01*
X53692546Y-113225873D01*
X53929746Y-113242506D01*
X54230358Y-113253632D01*
X54565226Y-113259409D01*
X54905192Y-113259992D01*
X55221096Y-113255539D01*
X55483782Y-113246206D01*
X55664091Y-113232149D01*
X55732325Y-113214921D01*
X55681658Y-113186492D01*
X55517717Y-113150459D01*
X55265501Y-113111276D01*
X54950009Y-113073400D01*
X54921393Y-113070416D01*
X54298677Y-112996481D01*
X53639956Y-112901118D01*
X52982410Y-112790857D01*
X52363215Y-112672230D01*
X51819551Y-112551766D01*
X51506481Y-112470591D01*
X50893487Y-112273490D01*
X50373938Y-112047267D01*
X49902654Y-111769802D01*
X49552874Y-111514129D01*
X49056644Y-111123725D01*
X49216374Y-110619139D01*
X49302178Y-110322786D01*
X49398476Y-109950787D01*
X49489899Y-109563863D01*
X49528544Y-109385864D01*
X49612458Y-109008521D01*
X49684400Y-108749069D01*
X49752548Y-108588071D01*
X49825077Y-108506090D01*
X49908047Y-108483678D01*
X50052617Y-108415776D01*
X50177432Y-108216052D01*
X50279380Y-107890482D01*
X50318560Y-107695409D01*
X50410779Y-107165099D01*
X50216687Y-107165099D01*
X50058694Y-107140573D01*
X49975913Y-107089565D01*
X49953722Y-106990211D01*
X49933606Y-106787811D01*
X49918661Y-106518112D01*
X49914303Y-106378226D01*
X49888444Y-105962149D01*
X49834353Y-105660361D01*
X49754113Y-105480783D01*
X49664968Y-105430126D01*
X49637720Y-105496258D01*
X49616513Y-105681735D01*
X49602795Y-105967181D01*
X49598011Y-106326798D01*
X49598011Y-107223469D01*
X49809753Y-107269976D01*
X49937895Y-107307484D01*
X49996491Y-107373546D01*
X50007457Y-107510632D01*
X50000600Y-107639834D01*
X49976162Y-107846290D01*
X49917782Y-107965135D01*
X49796043Y-108047483D01*
X49754585Y-108067285D01*
X49588558Y-108193208D01*
X49444630Y-108414492D01*
X49316020Y-108745191D01*
X49195946Y-109199356D01*
X49185260Y-109247066D01*
X49127523Y-109475518D01*
X49038918Y-109788259D01*
X48933141Y-110138129D01*
X48857094Y-110377171D01*
X48747726Y-110714193D01*
X48684826Y-110950840D01*
X48677106Y-111120300D01*
X40154479Y-111120300D01*
X40147374Y-110804730D01*
X40137591Y-110413961D01*
X40125440Y-110134254D01*
X40105953Y-109937900D01*
X40074162Y-109797187D01*
X40025098Y-109684406D01*
X39953791Y-109571845D01*
X39916863Y-109519170D01*
X39733342Y-109310697D01*
X39515155Y-109130799D01*
X39431071Y-109079749D01*
X39386348Y-109057239D01*
X39338017Y-109037171D01*
X39278213Y-109019388D01*
X39199073Y-109003731D01*
X39092735Y-108990043D01*
X38951336Y-108978167D01*
X38767011Y-108967944D01*
X38531899Y-108959218D01*
X38238135Y-108951831D01*
X37877857Y-108945624D01*
X37443202Y-108940441D01*
X36926307Y-108936124D01*
X36319308Y-108932515D01*
X35614342Y-108929456D01*
X34803546Y-108926791D01*
X33879058Y-108924361D01*
X32833013Y-108922009D01*
X31657550Y-108919577D01*
X31415497Y-108919086D01*
X30209882Y-108916763D01*
X29135747Y-108915016D01*
X28185774Y-108913938D01*
X27352645Y-108913618D01*
X26629044Y-108914147D01*
X26007652Y-108915616D01*
X25481152Y-108918116D01*
X25042227Y-108921737D01*
X24683558Y-108926570D01*
X24397830Y-108932706D01*
X24177724Y-108940234D01*
X24015922Y-108949247D01*
X23905108Y-108959834D01*
X23837963Y-108972086D01*
X23807171Y-108986094D01*
X23805413Y-109001949D01*
X23816317Y-109013242D01*
X24038050Y-109153014D01*
X24330564Y-109269559D01*
X24720788Y-109372439D01*
X24974134Y-109424256D01*
X25129147Y-109448952D01*
X25326037Y-109470927D01*
X25575602Y-109490574D01*
X25888639Y-109508286D01*
X26275946Y-109524456D01*
X26748321Y-109539477D01*
X27316562Y-109553742D01*
X27991467Y-109567644D01*
X28783834Y-109581576D01*
X29680524Y-109595576D01*
X30454780Y-109608186D01*
X31210963Y-109622542D01*
X31933510Y-109638215D01*
X32606857Y-109654776D01*
X33215440Y-109671798D01*
X33743695Y-109688851D01*
X34176059Y-109705508D01*
X34496967Y-109721339D01*
X34656136Y-109732503D01*
X35300001Y-109804158D01*
X35816748Y-109895169D01*
X36217214Y-110009617D01*
X36512236Y-110151578D01*
X36712650Y-110325133D01*
X36829293Y-110534359D01*
X36835308Y-110552689D01*
X36863571Y-110714708D01*
X36888345Y-110998109D01*
X36909441Y-111385516D01*
X36926670Y-111859551D01*
X36939842Y-112402840D01*
X36948769Y-112998004D01*
X36953262Y-113627669D01*
X36953131Y-114274456D01*
X36948187Y-114920991D01*
X36938241Y-115549896D01*
X36923105Y-116143795D01*
X36902588Y-116685311D01*
X36902159Y-116694677D01*
X36860207Y-117602896D01*
X36823566Y-118384011D01*
X36791459Y-119049581D01*
X36763110Y-119611165D01*
X36737743Y-120080324D01*
X36714581Y-120468615D01*
X36692850Y-120787600D01*
X36671771Y-121048838D01*
X36650569Y-121263888D01*
X36628468Y-121444309D01*
X36604691Y-121601662D01*
X36578463Y-121747507D01*
X36555001Y-121864594D01*
X36372538Y-122548485D01*
X36131178Y-123131378D01*
X35836004Y-123604226D01*
X35492094Y-123957983D01*
X35308326Y-124084521D01*
X35192810Y-124149299D01*
X35082436Y-124198003D01*
X34954547Y-124233770D01*
X34786482Y-124259741D01*
X34555583Y-124279054D01*
X34239191Y-124294847D01*
X33814646Y-124310260D01*
X33636262Y-124316147D01*
X33117406Y-124335910D01*
X32710816Y-124358887D01*
X32389964Y-124387840D01*
X32128318Y-124425532D01*
X31899349Y-124474725D01*
X31767160Y-124510751D01*
X31015699Y-124775824D01*
X30288357Y-125128929D01*
X29576326Y-125577272D01*
X28870795Y-126128061D01*
X28162956Y-126788503D01*
X27443999Y-127565805D01*
X26705115Y-128467172D01*
X26333089Y-128956356D01*
X25775403Y-129680475D01*
X25197089Y-130377572D01*
X24573795Y-131075044D01*
X23881165Y-131800289D01*
X23217725Y-132461000D01*
X22156944Y-133458438D01*
X21146495Y-134328382D01*
X20184776Y-135072056D01*
X19270183Y-135690682D01*
X18401113Y-136185482D01*
X18200866Y-136285107D01*
X17690475Y-136515582D01*
X17258099Y-136669344D01*
X16870320Y-136752432D01*
X16493723Y-136770889D01*
X16094892Y-136730752D01*
X15914914Y-136698313D01*
X15573786Y-136638504D01*
X15304887Y-136615289D01*
X15047227Y-136626307D01*
X14822040Y-136656023D01*
X14226938Y-136782279D01*
X13605996Y-136984482D01*
X12956194Y-137258915D01*
X12716748Y-137376641D01*
X12440696Y-137523540D01*
X12154257Y-137684183D01*
X11883651Y-137843139D01*
X11655095Y-137984977D01*
X11494808Y-138094267D01*
X11429009Y-138155576D01*
X11428612Y-138157963D01*
X116590Y-138157963D01*
X116590Y-120975481D01*
X9971235Y-120975481D01*
X9971235Y-125783150D01*
X10474377Y-125739531D01*
X10782827Y-125714268D01*
X11161795Y-125685346D01*
X11543283Y-125657906D01*
X11652700Y-125650419D01*
X11970032Y-125628320D01*
X12176621Y-125599946D01*
X12299817Y-125545006D01*
X12366964Y-125443209D01*
X12405409Y-125274262D01*
X12434896Y-125070017D01*
X12470758Y-124845921D01*
X12506555Y-124660906D01*
X12516613Y-124618924D01*
X12490872Y-124595193D01*
X12380337Y-124667381D01*
X12193908Y-124829004D01*
X12077800Y-124938640D01*
X11769777Y-125227914D01*
X11535561Y-125427578D01*
X11356098Y-125551177D01*
X11212330Y-125612255D01*
X11111890Y-125625208D01*
X11062083Y-125620463D01*
X11024241Y-125594376D01*
X10995927Y-125529168D01*
X10974704Y-125407060D01*
X10958138Y-125210274D01*
X10943791Y-124921032D01*
X10929227Y-124521553D01*
X10925769Y-124416277D01*
X12792477Y-124416277D01*
X12807041Y-124756998D01*
X12875230Y-124957760D01*
X13056434Y-125247865D01*
X13305621Y-125434272D01*
X13638476Y-125524976D01*
X14002993Y-125532569D01*
X14367737Y-125486047D01*
X14674399Y-125380448D01*
X14807193Y-125311709D01*
X15153678Y-125116940D01*
X15303713Y-125266976D01*
X15519002Y-125390065D01*
X15790266Y-125408318D01*
X16039160Y-125337026D01*
X16155178Y-125272732D01*
X16154536Y-125218715D01*
X16101843Y-125174511D01*
X16057133Y-125119546D01*
X16022772Y-125015516D01*
X15996134Y-124842370D01*
X15974598Y-124580058D01*
X15955539Y-124208531D01*
X15946595Y-123987966D01*
X15929182Y-123568036D01*
X15911276Y-123260257D01*
X15888540Y-123038036D01*
X15856634Y-122874781D01*
X15811218Y-122743898D01*
X15747954Y-122618795D01*
X15713413Y-122558841D01*
X15444754Y-122205588D01*
X15128382Y-121974678D01*
X14979417Y-121914926D01*
X14817381Y-121864576D01*
X14944718Y-122058676D01*
X14988925Y-122141126D01*
X15022551Y-122249078D01*
X15047477Y-122402654D01*
X15065584Y-122621976D01*
X15078753Y-122927165D01*
X15088865Y-123338342D01*
X15094517Y-123661171D01*
X15116979Y-125069564D01*
X14933851Y-125139189D01*
X14751220Y-125181870D01*
X14509751Y-125206455D01*
X14417710Y-125208815D01*
X14108086Y-125156092D01*
X13874703Y-125009233D01*
X13738144Y-124785195D01*
X13711422Y-124626810D01*
X13712331Y-124303081D01*
X13749853Y-124039567D01*
X13838716Y-123796974D01*
X13993649Y-123536008D01*
X14229379Y-123217375D01*
X14249262Y-123191927D01*
X14434496Y-122916767D01*
X14537398Y-122677985D01*
X14551657Y-122496411D01*
X14488636Y-122402159D01*
X14453177Y-122424372D01*
X14462045Y-122502217D01*
X14431255Y-122646853D01*
X14283828Y-122843742D01*
X14027926Y-123084401D01*
X13671716Y-123360347D01*
X13560347Y-123439142D01*
X13167615Y-123760709D01*
X12912163Y-124085301D01*
X12792477Y-124416277D01*
X10925769Y-124416277D01*
X10919317Y-124219880D01*
X10904495Y-123712450D01*
X10891669Y-123178081D01*
X10881689Y-122659961D01*
X10877229Y-122334450D01*
X13591499Y-122334450D01*
X13591625Y-122364104D01*
X13684076Y-122341279D01*
X13864775Y-122292228D01*
X13996371Y-122259432D01*
X13996503Y-122259361D01*
X14273967Y-122259361D01*
X14308666Y-122294060D01*
X14343366Y-122259361D01*
X14308666Y-122224662D01*
X14273967Y-122259361D01*
X13996503Y-122259361D01*
X14108300Y-122199241D01*
X14214034Y-122094073D01*
X14287395Y-121981269D01*
X14302210Y-121898168D01*
X14263991Y-121877667D01*
X14118179Y-121920486D01*
X13927609Y-122026932D01*
X13747147Y-122163983D01*
X13683912Y-122226780D01*
X13591499Y-122334450D01*
X10877229Y-122334450D01*
X10875405Y-122201279D01*
X10873603Y-121895017D01*
X10873596Y-121861075D01*
X14512263Y-121861075D01*
X14580479Y-121872188D01*
X14670490Y-121859429D01*
X14671565Y-121835739D01*
X14642086Y-121830481D01*
X16390634Y-121830481D01*
X16616180Y-121858471D01*
X16841727Y-121886461D01*
X16845863Y-123079195D01*
X16851240Y-123645898D01*
X16864712Y-124091421D01*
X16888882Y-124433275D01*
X16926354Y-124688968D01*
X16979729Y-124876011D01*
X17051610Y-125011913D01*
X17144599Y-125114185D01*
X17148891Y-125117907D01*
X17387158Y-125239908D01*
X17695434Y-125279508D01*
X18030251Y-125234232D01*
X18197234Y-125177656D01*
X18374000Y-125092269D01*
X18430041Y-125038788D01*
X18362573Y-125025164D01*
X18244461Y-125042776D01*
X18020419Y-125026867D01*
X17922826Y-124965918D01*
X18507300Y-124965918D01*
X18542000Y-125000618D01*
X18576699Y-124965918D01*
X18542000Y-124931219D01*
X18507300Y-124965918D01*
X17922826Y-124965918D01*
X17904210Y-124954292D01*
X17855708Y-124904942D01*
X17818295Y-124839353D01*
X17789770Y-124738865D01*
X17767934Y-124584818D01*
X17750588Y-124358552D01*
X17735532Y-124041406D01*
X17720568Y-123614722D01*
X17711307Y-123317694D01*
X17665216Y-121808268D01*
X17907436Y-121808268D01*
X18193824Y-121876463D01*
X18363178Y-121987935D01*
X18576699Y-122167601D01*
X18576699Y-121658423D01*
X18134665Y-121705761D01*
X17692630Y-121753099D01*
X17667823Y-121620868D01*
X19027792Y-121620868D01*
X19210734Y-121649016D01*
X19296311Y-121672244D01*
X19361594Y-121723389D01*
X19409290Y-121819246D01*
X19442106Y-121976609D01*
X19462750Y-122212274D01*
X19473928Y-122543036D01*
X19478350Y-122985688D01*
X19478885Y-123312466D01*
X19482766Y-123821780D01*
X19497635Y-124211492D01*
X19528334Y-124500659D01*
X19579702Y-124708340D01*
X19656582Y-124853595D01*
X19763813Y-124955481D01*
X19906237Y-125033058D01*
X19917119Y-125037839D01*
X20112294Y-125110395D01*
X20279340Y-125129393D01*
X20474187Y-125094175D01*
X20680922Y-125028821D01*
X20913739Y-124940278D01*
X21018758Y-124878381D01*
X20994003Y-124846100D01*
X20837500Y-124846403D01*
X20800101Y-124849674D01*
X20652625Y-124856636D01*
X20538175Y-124835904D01*
X20452587Y-124772362D01*
X20391698Y-124650895D01*
X20351344Y-124456389D01*
X20327360Y-124173730D01*
X20315583Y-123787801D01*
X20312557Y-123379144D01*
X21646594Y-123379144D01*
X21702232Y-123788961D01*
X21840863Y-124165771D01*
X22062678Y-124487779D01*
X22367871Y-124733194D01*
X22577906Y-124829990D01*
X22919314Y-124914632D01*
X23233624Y-124899928D01*
X23576675Y-124782524D01*
X23608120Y-124768088D01*
X23823887Y-124653698D01*
X23997116Y-124537634D01*
X24059213Y-124480446D01*
X24119129Y-124402052D01*
X24098411Y-124392654D01*
X23977938Y-124450461D01*
X23941211Y-124469402D01*
X23641357Y-124566778D01*
X23332021Y-124571840D01*
X23050678Y-124492317D01*
X22834805Y-124335941D01*
X22760364Y-124225801D01*
X22590369Y-123762623D01*
X22540282Y-123430405D01*
X22763241Y-123430405D01*
X22794109Y-123443855D01*
X22935923Y-123408132D01*
X22951663Y-123403631D01*
X23182470Y-123354983D01*
X23399465Y-123334657D01*
X23789686Y-123284025D01*
X24135665Y-123144961D01*
X24409566Y-122934476D01*
X24583551Y-122669577D01*
X24608411Y-122595989D01*
X24628223Y-122284487D01*
X24521044Y-121992066D01*
X24298631Y-121734120D01*
X23972742Y-121526044D01*
X23714819Y-121426008D01*
X23612995Y-121398630D01*
X23606138Y-121419588D01*
X23699187Y-121506529D01*
X23749519Y-121550005D01*
X23871218Y-121672107D01*
X23932699Y-121801687D01*
X23953656Y-121992340D01*
X23955115Y-122109465D01*
X23920800Y-122435215D01*
X23804706Y-122688382D01*
X23587108Y-122897761D01*
X23299112Y-123067095D01*
X23079289Y-123186750D01*
X22899055Y-123301075D01*
X22823505Y-123361228D01*
X22763241Y-123430405D01*
X22540282Y-123430405D01*
X22511266Y-123237947D01*
X22503322Y-122988050D01*
X22533863Y-122481673D01*
X22624863Y-122058268D01*
X22771350Y-121737222D01*
X22850276Y-121635347D01*
X22946237Y-121512210D01*
X22931300Y-121468630D01*
X22804351Y-121504436D01*
X22606528Y-121597678D01*
X22250101Y-121845646D01*
X21975701Y-122169569D01*
X21783522Y-122547655D01*
X21673755Y-122958111D01*
X21646594Y-123379144D01*
X20312557Y-123379144D01*
X20311849Y-123283488D01*
X20311672Y-123076706D01*
X20311672Y-121600071D01*
X20495968Y-121600071D01*
X20670322Y-121641834D01*
X20867910Y-121745101D01*
X20907731Y-121773569D01*
X21084330Y-121900006D01*
X21177190Y-121932648D01*
X21208027Y-121867948D01*
X21200905Y-121725687D01*
X21179158Y-121504308D01*
X20745125Y-121522411D01*
X20501085Y-121526627D01*
X20361665Y-121508520D01*
X20293464Y-121460433D01*
X20278404Y-121426574D01*
X23087628Y-121426574D01*
X23122328Y-121461274D01*
X23157027Y-121426574D01*
X23122328Y-121391875D01*
X23087628Y-121426574D01*
X20278404Y-121426574D01*
X20272876Y-121414145D01*
X20119330Y-121072914D01*
X19883796Y-120823688D01*
X19831182Y-120786196D01*
X19716867Y-120716341D01*
X22815503Y-120716341D01*
X22825513Y-120768101D01*
X22837502Y-120758966D01*
X22918686Y-120666453D01*
X23065702Y-120497847D01*
X23253467Y-120281936D01*
X23359301Y-120160044D01*
X23795911Y-119656902D01*
X23528518Y-119657965D01*
X23327434Y-119674452D01*
X23177286Y-119713668D01*
X23160978Y-119722391D01*
X23095421Y-119815811D01*
X23011568Y-120006571D01*
X22925247Y-120257473D01*
X22906572Y-120320250D01*
X22843618Y-120560098D01*
X22815503Y-120716341D01*
X19716867Y-120716341D01*
X19633354Y-120665308D01*
X19508855Y-120634709D01*
X19441137Y-120707273D01*
X19413653Y-120895875D01*
X19409486Y-121114279D01*
X19407238Y-121368110D01*
X19392560Y-121514085D01*
X19353551Y-121583147D01*
X19278311Y-121606236D01*
X19218639Y-121610470D01*
X19027792Y-121620868D01*
X17667823Y-121620868D01*
X17646722Y-121508389D01*
X17562249Y-121304502D01*
X17405929Y-121100035D01*
X17216036Y-120933441D01*
X17030845Y-120843171D01*
X16978110Y-120836683D01*
X16906370Y-120850407D01*
X16865268Y-120911302D01*
X16846496Y-121048951D01*
X16841750Y-121292938D01*
X16841727Y-121322476D01*
X16841727Y-121808268D01*
X16616180Y-121819375D01*
X16390634Y-121830481D01*
X14642086Y-121830481D01*
X14578682Y-121819172D01*
X14538550Y-121830260D01*
X14512263Y-121861075D01*
X10873596Y-121861075D01*
X10873421Y-120975481D01*
X9971235Y-120975481D01*
X116590Y-120975481D01*
X116590Y-108707450D01*
X16773514Y-108707450D01*
X16781649Y-108748982D01*
X16843894Y-108760803D01*
X16877702Y-108761274D01*
X16988025Y-108755891D01*
X17220244Y-108740556D01*
X17557906Y-108716488D01*
X17984558Y-108684909D01*
X18483748Y-108647036D01*
X19039025Y-108604092D01*
X19633935Y-108557294D01*
X19709020Y-108551333D01*
X20299715Y-108503725D01*
X20845879Y-108458419D01*
X21332303Y-108416775D01*
X21743777Y-108380152D01*
X22065091Y-108349909D01*
X22281037Y-108327405D01*
X22376403Y-108314000D01*
X22379535Y-108312718D01*
X22377345Y-108239169D01*
X22355079Y-108052480D01*
X22316536Y-107776239D01*
X22265520Y-107434035D01*
X22205831Y-107049455D01*
X22141272Y-106646089D01*
X22075643Y-106247524D01*
X22012748Y-105877349D01*
X21956387Y-105559152D01*
X21910362Y-105316521D01*
X21878475Y-105173045D01*
X21869176Y-105146104D01*
X21785231Y-105084548D01*
X21772099Y-105083132D01*
X21696958Y-105117529D01*
X21523185Y-105213168D01*
X21270463Y-105358716D01*
X20958472Y-105542841D01*
X20613763Y-105750048D01*
X20217167Y-105987245D01*
X19816599Y-106221166D01*
X19444755Y-106433109D01*
X19134333Y-106604372D01*
X18965125Y-106693046D01*
X18651400Y-106867868D01*
X18350306Y-107075229D01*
X18040034Y-107333758D01*
X17698776Y-107662081D01*
X17304722Y-108078826D01*
X17173351Y-108223432D01*
X16959407Y-108462791D01*
X16829447Y-108618092D01*
X16773514Y-108707450D01*
X116590Y-108707450D01*
X116590Y-104961831D01*
X22454953Y-104961831D01*
X22578957Y-105066711D01*
X22826959Y-105209176D01*
X22976871Y-105284144D01*
X23413249Y-105525229D01*
X23724791Y-105767493D01*
X23809427Y-105857280D01*
X23986589Y-106108387D01*
X24147157Y-106412680D01*
X24269679Y-106721565D01*
X24332705Y-106986448D01*
X24336809Y-107052037D01*
X24368730Y-107228526D01*
X24459124Y-107289495D01*
X24505968Y-107280528D01*
X24549397Y-107201454D01*
X24568086Y-107035943D01*
X24567144Y-106972612D01*
X24498042Y-106624208D01*
X24332893Y-106241417D01*
X24092431Y-105864868D01*
X23869076Y-105604819D01*
X23647795Y-105412969D01*
X23374560Y-105222898D01*
X23086786Y-105055927D01*
X22821884Y-104933383D01*
X22617268Y-104876588D01*
X22588582Y-104874990D01*
X22457358Y-104897077D01*
X22454953Y-104961831D01*
X116590Y-104961831D01*
X116590Y-102935142D01*
X18085767Y-102935142D01*
X18153352Y-102948288D01*
X18344773Y-102926842D01*
X18416551Y-102915547D01*
X19012538Y-102875602D01*
X19665190Y-102932956D01*
X20339298Y-103080868D01*
X20999655Y-103312598D01*
X21352656Y-103477667D01*
X21555404Y-103582174D01*
X21701500Y-103657416D01*
X21754844Y-103684815D01*
X21757078Y-103631560D01*
X21737258Y-103486305D01*
X21728347Y-103434907D01*
X21639761Y-103089373D01*
X21497721Y-102689376D01*
X21326331Y-102295557D01*
X21149697Y-101968561D01*
X21138400Y-101950739D01*
X20929628Y-101625396D01*
X20048109Y-102042683D01*
X19671475Y-102217917D01*
X19285609Y-102392245D01*
X18934210Y-102546227D01*
X18660978Y-102660425D01*
X18646098Y-102666351D01*
X18330131Y-102796354D01*
X18144024Y-102885224D01*
X18085767Y-102935142D01*
X116590Y-102935142D01*
X116590Y-101830758D01*
X15703649Y-101830758D01*
X15778080Y-102093700D01*
X15832195Y-102188720D01*
X15989632Y-102366809D01*
X16181774Y-102499938D01*
X16373385Y-102572981D01*
X16529226Y-102570813D01*
X16597646Y-102517289D01*
X16567744Y-102449781D01*
X16443093Y-102360333D01*
X16377065Y-102326305D01*
X16124571Y-102142525D01*
X15988246Y-101885494D01*
X15968123Y-101557976D01*
X16064240Y-101162735D01*
X16276632Y-100702534D01*
X16354369Y-100566741D01*
X16583316Y-100197548D01*
X16769416Y-99938972D01*
X16927433Y-99775357D01*
X17072132Y-99691046D01*
X17199979Y-99670017D01*
X17349520Y-99633924D01*
X17393615Y-99551809D01*
X17336338Y-99462914D01*
X17181760Y-99406484D01*
X17172507Y-99405328D01*
X16982312Y-99449430D01*
X16761326Y-99612437D01*
X16521329Y-99881148D01*
X16274102Y-100242361D01*
X16031424Y-100682874D01*
X16030004Y-100685733D01*
X15827353Y-101143931D01*
X15719320Y-101519887D01*
X15703649Y-101830758D01*
X116590Y-101830758D01*
X116590Y-93697999D01*
X3603885Y-93717205D01*
G37*
G36*
X98111149Y-104010194D02*
G01*
X98128326Y-104145477D01*
X98125906Y-104238813D01*
X98086152Y-104311893D01*
X97984929Y-104382343D01*
X97798099Y-104467792D01*
X97552656Y-104565890D01*
X97214458Y-104694065D01*
X96981426Y-104768112D01*
X96831597Y-104789609D01*
X96743011Y-104760137D01*
X96693705Y-104681276D01*
X96678157Y-104628807D01*
X96653719Y-104489837D01*
X96659485Y-104429836D01*
X96742657Y-104388952D01*
X96918644Y-104318731D01*
X97154596Y-104230765D01*
X97417660Y-104136640D01*
X97674986Y-104047948D01*
X97893720Y-103976276D01*
X98041013Y-103933215D01*
X98085135Y-103926904D01*
X98111149Y-104010194D01*
G37*
G36*
X89993949Y-127448702D02*
G01*
X90023723Y-127497545D01*
X90022874Y-127498979D01*
X89929253Y-127548586D01*
X89771786Y-127568377D01*
X89635405Y-127549255D01*
X89605632Y-127500412D01*
X89606481Y-127498979D01*
X89700101Y-127449371D01*
X89857568Y-127429580D01*
X89993949Y-127448702D01*
G37*
G36*
X94821184Y-105181382D02*
G01*
X94893832Y-105270984D01*
X94915497Y-105387100D01*
X94906768Y-105445940D01*
X94870079Y-105502247D01*
X94789682Y-105564081D01*
X94649825Y-105639502D01*
X94434760Y-105736570D01*
X94128735Y-105863343D01*
X93716001Y-106027882D01*
X93487259Y-106117966D01*
X93066269Y-106281700D01*
X92685238Y-106426619D01*
X92364259Y-106545347D01*
X92123427Y-106630506D01*
X91982833Y-106674720D01*
X91958305Y-106679306D01*
X91847523Y-106623255D01*
X91817643Y-106575208D01*
X91803250Y-106423093D01*
X91815076Y-106373700D01*
X91888824Y-106319792D01*
X92070419Y-106227893D01*
X92337114Y-106107025D01*
X92666160Y-105966209D01*
X93034812Y-105814469D01*
X93420323Y-105660827D01*
X93799946Y-105514304D01*
X94150933Y-105383922D01*
X94450538Y-105278705D01*
X94676015Y-105207673D01*
X94804615Y-105179850D01*
X94821184Y-105181382D01*
G37*
G36*
X-139802Y-88767105D02*
G01*
X-136204Y-88973507D01*
X-132775Y-89309045D01*
X-129521Y-89768888D01*
X-126449Y-90348208D01*
X-123566Y-91042172D01*
X-120878Y-91845950D01*
X-118392Y-92754713D01*
X-116113Y-93763628D01*
X-114049Y-94867866D01*
X-112206Y-96062596D01*
X-110591Y-97342988D01*
X-109209Y-98704210D01*
X-108068Y-100141433D01*
X-107174Y-101649825D01*
X-106533Y-103224557D01*
X-106152Y-104860797D01*
X-106037Y-106553716D01*
X-106195Y-108298482D01*
X-106632Y-110090264D01*
X-107355Y-111924234D01*
X-108371Y-113795559D01*
X-108864Y-114559645D01*
X-126307Y-140372476D01*
X-161006Y-114507502D01*
X-163398Y-112621676D01*
X-165472Y-110771760D01*
X-167232Y-108962553D01*
X-168680Y-107198855D01*
X-169820Y-105485466D01*
X-170655Y-103827186D01*
X-171189Y-102228815D01*
X-171425Y-100695151D01*
X-171365Y-99230996D01*
X-171013Y-97841149D01*
X-170373Y-96530409D01*
X-169448Y-95303577D01*
X-168240Y-94165452D01*
X-166754Y-93120835D01*
X-164992Y-92174524D01*
X-162957Y-91331319D01*
X-160653Y-90596022D01*
X-158084Y-89973430D01*
X-155252Y-89468345D01*
X-152160Y-89085565D01*
X-148812Y-88829891D01*
X-145211Y-88706122D01*
X-143563Y-88694671D01*
X-139802Y-88767105D01*
G37*
G36*
X115309758Y-97957380D02*
G01*
X115330860Y-98105767D01*
X115323869Y-98263471D01*
X115234845Y-98346110D01*
X115179978Y-98366840D01*
X115081829Y-98399782D01*
X114865446Y-98472990D01*
X114543987Y-98581995D01*
X114130610Y-98722328D01*
X113638471Y-98889519D01*
X113080728Y-99079101D01*
X112470540Y-99286605D01*
X111821063Y-99507560D01*
X111645618Y-99567263D01*
X110991497Y-99789273D01*
X110375866Y-99997072D01*
X109811463Y-100186442D01*
X109311024Y-100353162D01*
X108887286Y-100493012D01*
X108552988Y-100601775D01*
X108320866Y-100675230D01*
X108203657Y-100709157D01*
X108193023Y-100711000D01*
X108123849Y-100649297D01*
X108101289Y-100509175D01*
X108113876Y-100392328D01*
X108172243Y-100311428D01*
X108307299Y-100240142D01*
X108500333Y-100169221D01*
X108951483Y-100013655D01*
X109463721Y-99838056D01*
X110022986Y-99647156D01*
X110615219Y-99445690D01*
X111226359Y-99238392D01*
X111842346Y-99029997D01*
X112449120Y-98825238D01*
X113032621Y-98628850D01*
X113578788Y-98445567D01*
X114073563Y-98280123D01*
X114502884Y-98137253D01*
X114852691Y-98021690D01*
X115108924Y-97938168D01*
X115257524Y-97891423D01*
X115289947Y-97883083D01*
X115309758Y-97957380D01*
G37*
G36*
X188837207Y-74720049D02*
G01*
X189094630Y-74789941D01*
X189439105Y-74899878D01*
X189879048Y-75052359D01*
X190422878Y-75249886D01*
X191079011Y-75494959D01*
X191796371Y-75767354D01*
X192058634Y-75845294D01*
X192292900Y-75850982D01*
X192565294Y-75783922D01*
X192632004Y-75761089D01*
X192897683Y-75690411D01*
X193068915Y-75708534D01*
X193163844Y-75823096D01*
X193197878Y-75999268D01*
X193219049Y-76264214D01*
X194954022Y-75747774D01*
X195498735Y-75586978D01*
X195929373Y-75463674D01*
X196264250Y-75373676D01*
X196521684Y-75312797D01*
X196719990Y-75276850D01*
X196877485Y-75261650D01*
X197012485Y-75263009D01*
X197058714Y-75266708D01*
X197401007Y-75331755D01*
X197635359Y-75443367D01*
X197755142Y-75589357D01*
X197753731Y-75757537D01*
X197624499Y-75935719D01*
X197481078Y-76043479D01*
X197326245Y-76134660D01*
X197151868Y-76221677D01*
X196938098Y-76311989D01*
X196665090Y-76413057D01*
X196312997Y-76532337D01*
X195861972Y-76677291D01*
X195457164Y-76804128D01*
X195066526Y-76927270D01*
X194789684Y-77020203D01*
X194607314Y-77092024D01*
X194500096Y-77151830D01*
X194448707Y-77208716D01*
X194433826Y-77271779D01*
X194433530Y-77286028D01*
X194458555Y-77405012D01*
X194551900Y-77418187D01*
X194565233Y-77414931D01*
X194761079Y-77421852D01*
X194917303Y-77525907D01*
X194988102Y-77694829D01*
X194988721Y-77713287D01*
X194960688Y-77841012D01*
X194854063Y-77934248D01*
X194711125Y-77998968D01*
X194538204Y-78076763D01*
X194457819Y-78163912D01*
X194434675Y-78313233D01*
X194433530Y-78414341D01*
X194408864Y-78729212D01*
X194333938Y-78916442D01*
X194207355Y-78976236D01*
X194027722Y-78908801D01*
X193793643Y-78714343D01*
X193623793Y-78533740D01*
X193340555Y-78226832D01*
X193108969Y-78017513D01*
X192899989Y-77890447D01*
X192684566Y-77830298D01*
X192433652Y-77821730D01*
X192293363Y-77831322D01*
X192065566Y-77861031D01*
X191737895Y-77916412D01*
X191345486Y-77990922D01*
X190923475Y-78078019D01*
X190674440Y-78132749D01*
X190253714Y-78228292D01*
X189948927Y-78301278D01*
X189740498Y-78359148D01*
X189608851Y-78409346D01*
X189534405Y-78459313D01*
X189497583Y-78516490D01*
X189479044Y-78587120D01*
X189397153Y-78738364D01*
X189246228Y-78782867D01*
X189045553Y-78720958D01*
X188840214Y-78576172D01*
X188632634Y-78434140D01*
X188408222Y-78336966D01*
X188357275Y-78324552D01*
X188193712Y-78281348D01*
X188136303Y-78216503D01*
X188146306Y-78123336D01*
X188151778Y-78044784D01*
X188109136Y-77974980D01*
X187996407Y-77897302D01*
X187791614Y-77795129D01*
X187594017Y-77705611D01*
X187340085Y-77583703D01*
X187146516Y-77473937D01*
X187040020Y-77392364D01*
X187028159Y-77365563D01*
X187114377Y-77303932D01*
X187295734Y-77272953D01*
X187531850Y-77273281D01*
X187782345Y-77305570D01*
X187953589Y-77350550D01*
X188261736Y-77455546D01*
X188120584Y-77276100D01*
X188023125Y-77135493D01*
X187979588Y-77039645D01*
X187979431Y-77036614D01*
X188040602Y-76987610D01*
X188202639Y-76974659D01*
X188433329Y-76994383D01*
X188700457Y-77043407D01*
X188971810Y-77118352D01*
X189061793Y-77150071D01*
X189306342Y-77236796D01*
X189508747Y-77299005D01*
X189626128Y-77323551D01*
X189627668Y-77323569D01*
X189750181Y-77304339D01*
X189961064Y-77252744D01*
X190230829Y-77177924D01*
X190529986Y-77089019D01*
X190829048Y-76995170D01*
X191098527Y-76905517D01*
X191308935Y-76829200D01*
X191430783Y-76775360D01*
X191449377Y-76758899D01*
X191393336Y-76705072D01*
X191349649Y-76698979D01*
X191244612Y-76652506D01*
X191093536Y-76534905D01*
X191020004Y-76464659D01*
X190886435Y-76353795D01*
X190656694Y-76189797D01*
X190354901Y-75988776D01*
X190005178Y-75766844D01*
X189669931Y-75562869D01*
X189314717Y-75347077D01*
X189001576Y-75149001D01*
X188750014Y-74981620D01*
X188579540Y-74857912D01*
X188509678Y-74790904D01*
X188503070Y-74725628D01*
X188549844Y-74690393D01*
X188658417Y-74687700D01*
X188837207Y-74720049D01*
G37*
G36*
X113844390Y-61032154D02*
G01*
X227849104Y-61049483D01*
X113878748Y-61066875D01*
X-91607Y-61084267D01*
X-91607Y-74786434D01*
X-91866Y-76155226D01*
X-92628Y-77486850D01*
X-93867Y-78774675D01*
X-95559Y-80012066D01*
X-97677Y-81192392D01*
X-100197Y-82309018D01*
X-103094Y-83355313D01*
X-106342Y-84324642D01*
X-109917Y-85210373D01*
X-113793Y-86005872D01*
X-117945Y-86704508D01*
X-122348Y-87299646D01*
X-126977Y-87784655D01*
X-131807Y-88152900D01*
X-136812Y-88397748D01*
X-141968Y-88512568D01*
X-143656Y-88520771D01*
X-148752Y-88455711D01*
X-153537Y-88258429D01*
X-157994Y-87935500D01*
X-162107Y-87493502D01*
X-165859Y-86939008D01*
X-169235Y-86278595D01*
X-172217Y-85518839D01*
X-174789Y-84666315D01*
X-176935Y-83727599D01*
X-178638Y-82709266D01*
X-179881Y-81617892D01*
X-180649Y-80460054D01*
X-180925Y-79242326D01*
X-180693Y-77971284D01*
X-179935Y-76653504D01*
X-178636Y-75295561D01*
X-178014Y-74783883D01*
X-160323Y-61014826D01*
X113844390Y-61032154D01*
G37*
G36*
X311171272Y-104803426D02*
G01*
X311185149Y-105055947D01*
X311177132Y-105162587D01*
X311121334Y-105383452D01*
X311022993Y-105481518D01*
X310911875Y-105439986D01*
X310858321Y-105291375D01*
X310859738Y-105067549D01*
X310908254Y-104850533D01*
X310979664Y-104733498D01*
X311101138Y-104692382D01*
X311171272Y-104803426D01*
G37*
G36*
X310345666Y-103516051D02*
G01*
X310614578Y-103595631D01*
X310724392Y-103697942D01*
X310726666Y-103716667D01*
X310686048Y-103792074D01*
X310542893Y-103831593D01*
X310265252Y-103843635D01*
X310244098Y-103843667D01*
X309950498Y-103861766D01*
X309730537Y-103909078D01*
X309655665Y-103949500D01*
X309492256Y-104048237D01*
X309369479Y-104012255D01*
X309329666Y-103881680D01*
X309406496Y-103712091D01*
X309609085Y-103581656D01*
X309895579Y-103505436D01*
X310224128Y-103498493D01*
X310345666Y-103516051D01*
G37*
G36*
X323744166Y-101070271D02*
G01*
X323795898Y-100828127D01*
X323803613Y-100806326D01*
X323978064Y-100567574D01*
X324264974Y-100403132D01*
X324623344Y-100315733D01*
X325012171Y-100308108D01*
X325390456Y-100382987D01*
X325717199Y-100543100D01*
X325860833Y-100669307D01*
X326051520Y-100998439D01*
X326108174Y-101395239D01*
X326031104Y-101824295D01*
X325847379Y-102209203D01*
X325699617Y-102477395D01*
X325666198Y-102640449D01*
X325689288Y-102685755D01*
X325742590Y-102832244D01*
X325674461Y-102973529D01*
X325519768Y-103039264D01*
X325514024Y-103039334D01*
X325342356Y-103077815D01*
X325230593Y-103208177D01*
X325170302Y-103452800D01*
X325153054Y-103834061D01*
X325155320Y-103991528D01*
X325176898Y-104397006D01*
X325225078Y-104684326D01*
X325309835Y-104903845D01*
X325349868Y-104973785D01*
X325455480Y-105171270D01*
X325484977Y-105343255D01*
X325447620Y-105571410D01*
X325427028Y-105654193D01*
X325389579Y-106119484D01*
X325507093Y-106562878D01*
X325765302Y-106956653D01*
X326149935Y-107273082D01*
X326303031Y-107356219D01*
X326557640Y-107512200D01*
X326677095Y-107659591D01*
X326651583Y-107780715D01*
X326566997Y-107831775D01*
X326492893Y-107906781D01*
X326504932Y-108071344D01*
X326524664Y-108146058D01*
X326578383Y-108424087D01*
X326601640Y-108724274D01*
X326601666Y-108732608D01*
X326560447Y-108970520D01*
X326443694Y-109057952D01*
X326261762Y-108990356D01*
X326174477Y-108920177D01*
X326068578Y-108847728D01*
X325962550Y-108864771D01*
X325799497Y-108984061D01*
X325766492Y-109011656D01*
X325502696Y-109233625D01*
X325275607Y-109054997D01*
X325048517Y-108876368D01*
X324783894Y-109132851D01*
X324547727Y-109328060D01*
X324392592Y-109378525D01*
X324320731Y-109283838D01*
X324315666Y-109217826D01*
X324304724Y-109108764D01*
X324241514Y-109094252D01*
X324080459Y-109167984D01*
X324054024Y-109181619D01*
X323831748Y-109259433D01*
X323656743Y-109258114D01*
X323651858Y-109256132D01*
X323488809Y-109223134D01*
X323197177Y-109198084D01*
X322817538Y-109181289D01*
X322390470Y-109173061D01*
X321956550Y-109173707D01*
X321556355Y-109183538D01*
X321230462Y-109202862D01*
X321019449Y-109231990D01*
X321004491Y-109235950D01*
X320762446Y-109281327D01*
X320575932Y-109236480D01*
X320475324Y-109177738D01*
X320320949Y-109084267D01*
X320261468Y-109092465D01*
X320251666Y-109208908D01*
X320251666Y-109210263D01*
X320208510Y-109359364D01*
X320083179Y-109365057D01*
X319881878Y-109228372D01*
X319779168Y-109131758D01*
X319521593Y-108874183D01*
X319301775Y-109047092D01*
X319114982Y-109178924D01*
X318981329Y-109200648D01*
X318834526Y-109107242D01*
X318722311Y-109003203D01*
X318565045Y-108867454D01*
X318464743Y-108843532D01*
X318364446Y-108917983D01*
X318363892Y-108918536D01*
X318193419Y-109026891D01*
X318087122Y-109050667D01*
X318011082Y-109030589D01*
X317974004Y-108946357D01*
X317969562Y-108761977D01*
X317983138Y-108556696D01*
X318229761Y-108556696D01*
X318302442Y-108568711D01*
X318388044Y-108523614D01*
X318526961Y-108468132D01*
X318654257Y-108523511D01*
X318745526Y-108607564D01*
X318962625Y-108769909D01*
X319128430Y-108772477D01*
X319202476Y-108697206D01*
X319232578Y-108563149D01*
X319246458Y-108320119D01*
X319243683Y-108101259D01*
X319243922Y-108083303D01*
X319516727Y-108083303D01*
X319518134Y-108098120D01*
X319567141Y-108358565D01*
X319645445Y-108562760D01*
X319669761Y-108598837D01*
X319738175Y-108660389D01*
X319782095Y-108621004D01*
X319815175Y-108454560D01*
X319835655Y-108281384D01*
X319843658Y-108211784D01*
X320089124Y-108211784D01*
X320120794Y-108456125D01*
X320265054Y-108649122D01*
X320398320Y-108751281D01*
X320684826Y-108915369D01*
X320901520Y-108958547D01*
X321077349Y-108896094D01*
X321109150Y-108818100D01*
X321000752Y-108696268D01*
X320932858Y-108643574D01*
X320741858Y-108459382D01*
X320538690Y-108199924D01*
X320448770Y-108059788D01*
X320314090Y-107837309D01*
X320236879Y-107745567D01*
X320191471Y-107767776D01*
X320157199Y-107869105D01*
X320089124Y-108211784D01*
X319843658Y-108211784D01*
X319878600Y-107907884D01*
X319928659Y-107503565D01*
X319947829Y-107357334D01*
X320010346Y-106891667D01*
X319746546Y-107315000D01*
X319587421Y-107601809D01*
X319517907Y-107833593D01*
X319516727Y-108083303D01*
X319243922Y-108083303D01*
X319248180Y-107763266D01*
X319308850Y-107500780D01*
X319446782Y-107223648D01*
X319450417Y-107217433D01*
X319581362Y-106972971D01*
X319626703Y-106807325D01*
X319598963Y-106661307D01*
X319578365Y-106612705D01*
X319479316Y-106395317D01*
X319228464Y-106834542D01*
X319036205Y-107114623D01*
X318813874Y-107358853D01*
X318683773Y-107463717D01*
X318509511Y-107604407D01*
X318427604Y-107727547D01*
X318428346Y-107757425D01*
X318423077Y-107898348D01*
X318360818Y-108112647D01*
X318343213Y-108156873D01*
X318243889Y-108423817D01*
X318229761Y-108556696D01*
X317983138Y-108556696D01*
X317987832Y-108485710D01*
X318003363Y-108138993D01*
X317979420Y-107922223D01*
X317914757Y-107802329D01*
X317809481Y-107656754D01*
X317850131Y-107550469D01*
X318047854Y-107455561D01*
X318054077Y-107453382D01*
X318522210Y-107208809D01*
X318878065Y-106847812D01*
X318993030Y-106657724D01*
X319090191Y-106433868D01*
X319133002Y-106216025D01*
X319130362Y-105936194D01*
X319113402Y-105737733D01*
X319093039Y-105414324D01*
X319376072Y-105414324D01*
X319431821Y-105619347D01*
X319450149Y-105671982D01*
X319561247Y-105962561D01*
X319636999Y-106088324D01*
X319685478Y-106048127D01*
X319714757Y-105840827D01*
X319726596Y-105632819D01*
X319731976Y-105334111D01*
X319722853Y-105127339D01*
X320017871Y-105127339D01*
X320020660Y-105479261D01*
X320085769Y-105936701D01*
X320200373Y-106453429D01*
X320351643Y-106983218D01*
X320526754Y-107479840D01*
X320712878Y-107897066D01*
X320850410Y-108127869D01*
X321025873Y-108311599D01*
X321284373Y-108513700D01*
X321465828Y-108629202D01*
X321961654Y-108834373D01*
X322440047Y-108871608D01*
X322608329Y-108823721D01*
X323481492Y-108823721D01*
X323502930Y-108914033D01*
X323640713Y-108954385D01*
X323696993Y-108959316D01*
X323829943Y-108923330D01*
X324033867Y-108825666D01*
X324090070Y-108793667D01*
X324343831Y-108582356D01*
X324447325Y-108319065D01*
X324427096Y-108020316D01*
X324368516Y-107833915D01*
X324298549Y-107730631D01*
X324244585Y-107738016D01*
X324231000Y-107823072D01*
X324175765Y-107948646D01*
X324030265Y-108151360D01*
X323824806Y-108389456D01*
X323803402Y-108412258D01*
X323580337Y-108663209D01*
X323481492Y-108823721D01*
X322608329Y-108823721D01*
X322899633Y-108740826D01*
X322943206Y-108719174D01*
X323362087Y-108441534D01*
X323696276Y-108073362D01*
X323967122Y-107586474D01*
X324135201Y-107145667D01*
X324214225Y-106891667D01*
X324565311Y-106891667D01*
X324609043Y-107315000D01*
X324665904Y-107855867D01*
X324709596Y-108246986D01*
X324742552Y-108507222D01*
X324767209Y-108655440D01*
X324785999Y-108710505D01*
X324789335Y-108712000D01*
X324844143Y-108645341D01*
X324937745Y-108482790D01*
X324948492Y-108462205D01*
X325066231Y-108096854D01*
X325021294Y-107756115D01*
X324951789Y-107611334D01*
X324820383Y-107376945D01*
X324696860Y-107145667D01*
X324565311Y-106891667D01*
X324214225Y-106891667D01*
X324250945Y-106773639D01*
X324921943Y-106773639D01*
X324990597Y-106989891D01*
X325131332Y-107278929D01*
X325263064Y-107564017D01*
X325319247Y-107809127D01*
X325317272Y-108104816D01*
X325309080Y-108204453D01*
X325292227Y-108502079D01*
X325317805Y-108673697D01*
X325398228Y-108759951D01*
X325487929Y-108789983D01*
X325568858Y-108750444D01*
X325730568Y-108644453D01*
X325766101Y-108619428D01*
X325967903Y-108513934D01*
X326134107Y-108489427D01*
X326149892Y-108493949D01*
X326235730Y-108503853D01*
X326249608Y-108413485D01*
X326222035Y-108269021D01*
X326173949Y-108021738D01*
X326147647Y-107823000D01*
X326072046Y-107661055D01*
X325906499Y-107508790D01*
X325905727Y-107508302D01*
X325718114Y-107351704D01*
X325513096Y-107124734D01*
X325327783Y-106876233D01*
X325199286Y-106655044D01*
X325162333Y-106529930D01*
X325139011Y-106450539D01*
X325043580Y-106503876D01*
X325035333Y-106510667D01*
X324938418Y-106626410D01*
X324921943Y-106773639D01*
X324250945Y-106773639D01*
X324263352Y-106733761D01*
X324382095Y-106308802D01*
X324470861Y-105945656D01*
X324488823Y-105858645D01*
X324529228Y-105559006D01*
X324827129Y-105559006D01*
X324827215Y-105600500D01*
X324830764Y-106214334D01*
X324993000Y-105918000D01*
X325101229Y-105667597D01*
X325156961Y-105436212D01*
X325158784Y-105405767D01*
X325113774Y-105185199D01*
X324997522Y-105027058D01*
X324891400Y-104986667D01*
X324858982Y-105064283D01*
X324836092Y-105269086D01*
X324827129Y-105559006D01*
X324529228Y-105559006D01*
X324532614Y-105533892D01*
X324542443Y-105225913D01*
X324521533Y-104971970D01*
X324473107Y-104809325D01*
X324400387Y-104775240D01*
X324395359Y-104778074D01*
X324279921Y-104803385D01*
X324037106Y-104829901D01*
X323708791Y-104853567D01*
X323510637Y-104863737D01*
X323137462Y-104877899D01*
X322901917Y-104876984D01*
X322772596Y-104855933D01*
X322718093Y-104809687D01*
X322707000Y-104734289D01*
X322775166Y-104564050D01*
X322870767Y-104481646D01*
X323110565Y-104415158D01*
X323440531Y-104396971D01*
X323789306Y-104424563D01*
X324085529Y-104495414D01*
X324158189Y-104527131D01*
X324329457Y-104610113D01*
X324386474Y-104602901D01*
X324364910Y-104494029D01*
X324355704Y-104463631D01*
X324291965Y-104292486D01*
X324179141Y-104022547D01*
X324040109Y-103708304D01*
X324020999Y-103666377D01*
X323746225Y-103065754D01*
X323188045Y-102925544D01*
X322673487Y-102821314D01*
X322213739Y-102793595D01*
X321731575Y-102842036D01*
X321356348Y-102917194D01*
X320776603Y-103049054D01*
X320417506Y-103912027D01*
X320264056Y-104304155D01*
X320134892Y-104677599D01*
X320046566Y-104982030D01*
X320017871Y-105127339D01*
X319722853Y-105127339D01*
X319721931Y-105106430D01*
X319698638Y-104998339D01*
X319698141Y-104997819D01*
X319614254Y-105016838D01*
X319487765Y-105137562D01*
X319487299Y-105138136D01*
X319392872Y-105278239D01*
X319376072Y-105414324D01*
X319093039Y-105414324D01*
X319090913Y-105380555D01*
X319111304Y-105141537D01*
X319178708Y-104973998D01*
X319181420Y-104969712D01*
X319245106Y-104797688D01*
X319306129Y-104509365D01*
X319322055Y-104392565D01*
X319660243Y-104392565D01*
X319681703Y-104583884D01*
X319724100Y-104648000D01*
X319782845Y-104574704D01*
X319879945Y-104380450D01*
X319996639Y-104103691D01*
X320023606Y-104034167D01*
X320166153Y-103682239D01*
X320316602Y-103344324D01*
X320442911Y-103092306D01*
X320445339Y-103087982D01*
X320568577Y-102896585D01*
X320704667Y-102779921D01*
X320910105Y-102702317D01*
X321140666Y-102648918D01*
X321604293Y-102580989D01*
X322123124Y-102552772D01*
X322654812Y-102561735D01*
X323157012Y-102605346D01*
X323587379Y-102681075D01*
X323903566Y-102786389D01*
X323960529Y-102817488D01*
X324023784Y-102912113D01*
X324133212Y-103130440D01*
X324272747Y-103438691D01*
X324407905Y-103758050D01*
X324559679Y-104111498D01*
X324695508Y-104398468D01*
X324799657Y-104587531D01*
X324853410Y-104648000D01*
X324892177Y-104571729D01*
X324902846Y-104370355D01*
X324889423Y-104085037D01*
X324855913Y-103756936D01*
X324806322Y-103427210D01*
X324744655Y-103137019D01*
X324689223Y-102960754D01*
X324539744Y-102693944D01*
X324298899Y-102451908D01*
X324071943Y-102285010D01*
X323651727Y-102009221D01*
X323478609Y-101910933D01*
X324202289Y-101910933D01*
X324237379Y-101978749D01*
X324362938Y-102102491D01*
X324530011Y-102241984D01*
X324689643Y-102357059D01*
X324792879Y-102407543D01*
X324804492Y-102405091D01*
X324798507Y-102322477D01*
X324773066Y-102243987D01*
X324674162Y-102118432D01*
X324506744Y-101996107D01*
X324332070Y-101912759D01*
X324211399Y-101904131D01*
X324202289Y-101910933D01*
X323478609Y-101910933D01*
X323321309Y-101821626D01*
X323036727Y-101706583D01*
X322754020Y-101648449D01*
X322429224Y-101631584D01*
X322241333Y-101633646D01*
X321862146Y-101651874D01*
X321579157Y-101698047D01*
X321319524Y-101790061D01*
X321043603Y-101927945D01*
X320546423Y-102226405D01*
X320189731Y-102521955D01*
X319947317Y-102841425D01*
X319794481Y-103206517D01*
X319732098Y-103480377D01*
X319687535Y-103797927D01*
X319662885Y-104116285D01*
X319660243Y-104392565D01*
X319322055Y-104392565D01*
X319354093Y-104157603D01*
X319365511Y-104033780D01*
X319387744Y-103598671D01*
X319366895Y-103305571D01*
X319295580Y-103130963D01*
X319166415Y-103051327D01*
X319053309Y-103039334D01*
X318896605Y-102977073D01*
X318825147Y-102837187D01*
X318873893Y-102690014D01*
X318877733Y-102686067D01*
X318894087Y-102569951D01*
X318792487Y-102359919D01*
X318701499Y-102223474D01*
X318535246Y-101952144D01*
X318456896Y-101699938D01*
X318437380Y-101376440D01*
X318440715Y-101283493D01*
X318738052Y-101283493D01*
X318750273Y-101487952D01*
X318846625Y-101842590D01*
X319013538Y-102144144D01*
X319150762Y-102343477D01*
X319228837Y-102494537D01*
X319235666Y-102525684D01*
X319284645Y-102635330D01*
X319394267Y-102791911D01*
X319508558Y-102919584D01*
X319547049Y-102947611D01*
X319547563Y-102875738D01*
X319532901Y-102683283D01*
X319515698Y-102505096D01*
X319502705Y-102328362D01*
X319770947Y-102328362D01*
X319772807Y-102390954D01*
X319875570Y-102341798D01*
X320024945Y-102229454D01*
X320209043Y-102069769D01*
X320320790Y-101948169D01*
X320336330Y-101915326D01*
X320271727Y-101905090D01*
X320113138Y-101965554D01*
X320082333Y-101981000D01*
X319911113Y-102078281D01*
X319829464Y-102141860D01*
X319828333Y-102145583D01*
X319801895Y-102242429D01*
X319770947Y-102328362D01*
X319502705Y-102328362D01*
X319495935Y-102236265D01*
X319521646Y-102069582D01*
X319614524Y-101939538D01*
X319739978Y-101827762D01*
X319982690Y-101673996D01*
X320220231Y-101601358D01*
X320249104Y-101600000D01*
X320456753Y-101556007D01*
X320545526Y-101410619D01*
X320530377Y-101155200D01*
X320422740Y-100885348D01*
X320210768Y-100716300D01*
X319874990Y-100636453D01*
X319642780Y-100626334D01*
X319346606Y-100635350D01*
X319159251Y-100676230D01*
X319020568Y-100769717D01*
X318922737Y-100874659D01*
X318782975Y-101075606D01*
X318738052Y-101283493D01*
X318440715Y-101283493D01*
X318447586Y-101092008D01*
X318497821Y-100905240D01*
X318617509Y-100744799D01*
X318750613Y-100617057D01*
X318967159Y-100446622D01*
X319189946Y-100349291D01*
X319470306Y-100312218D01*
X319859565Y-100322559D01*
X319913000Y-100326163D01*
X320321261Y-100422135D01*
X320615147Y-100641936D01*
X320790709Y-100981021D01*
X320844333Y-101398112D01*
X320844333Y-101678956D01*
X321153111Y-101496773D01*
X321501108Y-101363549D01*
X321947896Y-101293545D01*
X322434989Y-101287231D01*
X322903898Y-101345076D01*
X323296137Y-101467551D01*
X323320833Y-101479355D01*
X323723000Y-101677679D01*
X323723000Y-101352641D01*
X323977000Y-101352641D01*
X323991568Y-101463558D01*
X324062470Y-101534901D01*
X324230502Y-101592502D01*
X324428791Y-101638705D01*
X324657419Y-101736732D01*
X324877757Y-101900460D01*
X324883577Y-101906214D01*
X325021190Y-102075961D01*
X325069176Y-102258177D01*
X325056719Y-102489222D01*
X325037421Y-102712524D01*
X325056346Y-102800823D01*
X325126731Y-102786599D01*
X325167957Y-102762172D01*
X325277655Y-102666749D01*
X325290511Y-102617907D01*
X325316547Y-102526816D01*
X325414224Y-102336973D01*
X325549988Y-102109609D01*
X325761133Y-101678701D01*
X325825791Y-101301640D01*
X325748369Y-100991811D01*
X325533275Y-100762597D01*
X325184919Y-100627382D01*
X325055109Y-100607151D01*
X324622697Y-100615625D01*
X324288674Y-100741225D01*
X324068691Y-100973129D01*
X323978400Y-101300513D01*
X323977000Y-101352641D01*
X323723000Y-101352641D01*
X323723000Y-101348018D01*
X323744166Y-101070271D01*
G37*
G36*
X323800920Y-105255049D02*
G01*
X324046511Y-105357122D01*
X324197550Y-105486225D01*
X324218443Y-105536733D01*
X324214495Y-105634383D01*
X324121208Y-105660854D01*
X323948520Y-105640316D01*
X323682043Y-105635989D01*
X323548542Y-105712507D01*
X323387234Y-105821444D01*
X323233007Y-105799959D01*
X323161137Y-105706820D01*
X323089588Y-105615408D01*
X323053919Y-105616567D01*
X322940376Y-105610223D01*
X322877735Y-105580200D01*
X322813511Y-105476457D01*
X322886339Y-105358924D01*
X323069083Y-105255238D01*
X323244860Y-105206260D01*
X323515471Y-105198574D01*
X323800920Y-105255049D01*
G37*
G36*
X321612727Y-104468265D02*
G01*
X321799353Y-104571791D01*
X321843897Y-104711747D01*
X321809571Y-104781928D01*
X321718389Y-104825971D01*
X321538368Y-104849657D01*
X321237521Y-104858769D01*
X321025681Y-104859667D01*
X320677110Y-104852461D01*
X320396905Y-104833131D01*
X320225024Y-104805109D01*
X320191594Y-104788042D01*
X320194948Y-104664917D01*
X320337174Y-104550689D01*
X320587954Y-104461273D01*
X320905269Y-104413369D01*
X321306808Y-104412949D01*
X321612727Y-104468265D01*
G37*
G36*
X311906536Y-105828750D02*
G01*
X311953010Y-105996501D01*
X311954333Y-106047823D01*
X311879243Y-106249119D01*
X311682661Y-106397574D01*
X311407621Y-106480416D01*
X311097156Y-106484870D01*
X310794300Y-106398161D01*
X310786633Y-106394438D01*
X310625000Y-106256381D01*
X310537718Y-106071933D01*
X310544367Y-105901945D01*
X310605020Y-105830025D01*
X310749322Y-105835904D01*
X310908770Y-105966112D01*
X311147865Y-106139173D01*
X311384901Y-106143208D01*
X311615657Y-105978233D01*
X311628984Y-105963221D01*
X311796994Y-105817258D01*
X311906536Y-105828750D01*
G37*
G36*
X291887989Y-106898360D02*
G01*
X292179749Y-106940527D01*
X292333505Y-106991346D01*
X292380544Y-107063279D01*
X292378023Y-107093557D01*
X292343940Y-107153165D01*
X292250342Y-107193091D01*
X292069343Y-107217184D01*
X291773058Y-107229294D01*
X291366561Y-107233184D01*
X290969356Y-107231764D01*
X290631771Y-107225760D01*
X290391357Y-107216155D01*
X290288219Y-107204962D01*
X290200953Y-107105106D01*
X290195000Y-107064884D01*
X290273349Y-106996772D01*
X290483473Y-106939944D01*
X290787982Y-106898079D01*
X291149487Y-106874855D01*
X291530600Y-106873949D01*
X291887989Y-106898360D01*
G37*
G36*
X306850906Y-108436169D02*
G01*
X306895520Y-108062377D01*
X306867949Y-107796053D01*
X306850072Y-107573427D01*
X306901090Y-107316756D01*
X307031420Y-106995849D01*
X307251478Y-106580513D01*
X307340635Y-106426000D01*
X307449187Y-106083070D01*
X307436949Y-105652388D01*
X307332196Y-105241550D01*
X307239096Y-104739622D01*
X307255760Y-104479550D01*
X307347098Y-104128875D01*
X307516538Y-103705191D01*
X307736512Y-103267805D01*
X307979455Y-102876024D01*
X308039362Y-102793723D01*
X308202677Y-102497132D01*
X308292704Y-102113824D01*
X308306554Y-101992814D01*
X308356000Y-101479848D01*
X309218804Y-100952626D01*
X309762724Y-100636705D01*
X310197780Y-100424899D01*
X310544291Y-100311844D01*
X310822573Y-100292177D01*
X311052947Y-100360535D01*
X311171166Y-100437262D01*
X311324045Y-100469609D01*
X311382833Y-100436708D01*
X311663367Y-100315561D01*
X312014013Y-100312924D01*
X312222626Y-100365726D01*
X312454086Y-100465676D01*
X312758202Y-100622716D01*
X313100523Y-100815830D01*
X313446599Y-101024003D01*
X313761982Y-101226218D01*
X314012221Y-101401462D01*
X314162867Y-101528719D01*
X314189266Y-101565438D01*
X314221400Y-101730939D01*
X314239122Y-101981097D01*
X314240333Y-102063091D01*
X314270644Y-102334959D01*
X314378082Y-102602653D01*
X314547877Y-102874757D01*
X314954086Y-103559751D01*
X315197966Y-104198098D01*
X315279712Y-104790682D01*
X315199521Y-105338387D01*
X315134552Y-105516546D01*
X315054554Y-105775872D01*
X315056098Y-106027017D01*
X315148090Y-106312194D01*
X315339442Y-106673616D01*
X315400068Y-106774633D01*
X315564334Y-107066841D01*
X315649960Y-107305289D01*
X315679500Y-107571989D01*
X315679481Y-107790633D01*
X315682773Y-108142857D01*
X315702215Y-108483767D01*
X315723749Y-108671561D01*
X315743034Y-108859974D01*
X315716942Y-109016957D01*
X315625841Y-109191986D01*
X315450104Y-109434541D01*
X315390388Y-109511860D01*
X315199898Y-109783038D01*
X315061471Y-110029419D01*
X315002762Y-110201169D01*
X315002333Y-110211123D01*
X314948041Y-110400660D01*
X314807902Y-110462085D01*
X314616023Y-110386807D01*
X314543179Y-110326785D01*
X314398300Y-110212565D01*
X314321643Y-110222099D01*
X314301262Y-110260404D01*
X314200340Y-110370147D01*
X314006236Y-110495372D01*
X313946872Y-110525296D01*
X313671017Y-110606983D01*
X313483516Y-110555977D01*
X313397686Y-110377452D01*
X313393666Y-110310300D01*
X313356835Y-110171887D01*
X313248240Y-110185324D01*
X313091234Y-110327406D01*
X312914713Y-110453548D01*
X312686806Y-110454411D01*
X312676193Y-110452339D01*
X312342064Y-110469131D01*
X312145836Y-110549113D01*
X311921785Y-110642901D01*
X311728732Y-110637010D01*
X311612047Y-110599218D01*
X311370434Y-110542637D01*
X311166793Y-110545540D01*
X310924992Y-110602888D01*
X310801032Y-110632297D01*
X310604222Y-110623862D01*
X310371266Y-110545389D01*
X310357262Y-110538330D01*
X310085695Y-110450595D01*
X309883654Y-110454315D01*
X309641598Y-110441745D01*
X309444643Y-110326336D01*
X309215106Y-110145782D01*
X309107140Y-110402558D01*
X309017396Y-110583197D01*
X308917005Y-110641859D01*
X308745298Y-110600275D01*
X308654074Y-110564842D01*
X308429743Y-110445800D01*
X308294241Y-110345420D01*
X308167672Y-110255930D01*
X308060596Y-110289533D01*
X307989499Y-110349878D01*
X307784074Y-110479361D01*
X307631125Y-110467112D01*
X307555566Y-110318493D01*
X307551666Y-110255615D01*
X307484913Y-110019239D01*
X307295072Y-109715437D01*
X307211993Y-109610178D01*
X306959404Y-109267615D01*
X306828126Y-108978033D01*
X306806113Y-108724368D01*
X307073834Y-108724368D01*
X307113079Y-108927601D01*
X307262129Y-109177794D01*
X307473428Y-109439094D01*
X307652281Y-109660549D01*
X307775036Y-109840747D01*
X307811033Y-109923650D01*
X307839763Y-109935988D01*
X307892971Y-109833834D01*
X308011430Y-109672413D01*
X308162298Y-109672491D01*
X308331351Y-109832782D01*
X308361067Y-109876167D01*
X308560175Y-110130135D01*
X308726360Y-110242769D01*
X308845174Y-110211578D01*
X308902167Y-110034073D01*
X308905036Y-109969892D01*
X308964102Y-109820770D01*
X309122036Y-109790660D01*
X309355767Y-109881084D01*
X309441055Y-109934539D01*
X309754150Y-110082187D01*
X309953944Y-110089439D01*
X310198402Y-110101001D01*
X310366676Y-110166072D01*
X310556933Y-110225981D01*
X310861815Y-110261864D01*
X311228365Y-110273995D01*
X311603627Y-110262646D01*
X311934646Y-110228092D01*
X312168463Y-110170605D01*
X312198464Y-110156615D01*
X312426734Y-110093916D01*
X312592739Y-110102290D01*
X312833073Y-110083403D01*
X313105040Y-109939903D01*
X313364343Y-109810794D01*
X313545539Y-109821757D01*
X313637917Y-109970086D01*
X313647666Y-110077034D01*
X313692298Y-110220980D01*
X313808377Y-110237026D01*
X313969180Y-110135240D01*
X314147980Y-109925694D01*
X314180740Y-109876167D01*
X314350523Y-109689679D01*
X314510312Y-109659500D01*
X314639845Y-109787414D01*
X314661028Y-109833834D01*
X314719169Y-109943304D01*
X314742966Y-109929560D01*
X314795325Y-109818391D01*
X314926705Y-109621594D01*
X315092059Y-109403085D01*
X315268920Y-109157021D01*
X315389256Y-108943477D01*
X315425503Y-108820525D01*
X315418704Y-108667103D01*
X315409990Y-108397133D01*
X315401028Y-108063364D01*
X315399278Y-107990425D01*
X315383726Y-107629255D01*
X315346177Y-107374023D01*
X315269638Y-107161408D01*
X315137116Y-106928088D01*
X315097431Y-106865616D01*
X314845277Y-106352037D01*
X314760908Y-105857924D01*
X314844084Y-105381706D01*
X314864721Y-105327165D01*
X314982263Y-104916354D01*
X314984083Y-104521800D01*
X314865406Y-104097142D01*
X314701697Y-103744863D01*
X314531117Y-103437031D01*
X314363928Y-103167425D01*
X314234214Y-102990734D01*
X314226225Y-102981983D01*
X314086447Y-102733189D01*
X314013886Y-102388439D01*
X313974653Y-102028312D01*
X313921575Y-101792146D01*
X313830879Y-101634862D01*
X313678792Y-101511379D01*
X313495793Y-101406008D01*
X313193512Y-101236855D01*
X312837871Y-101031319D01*
X312588564Y-100883440D01*
X312207238Y-100681820D01*
X311913095Y-100598833D01*
X311675660Y-100631330D01*
X311472956Y-100768092D01*
X311277000Y-100952184D01*
X311081043Y-100768092D01*
X310940620Y-100654077D01*
X310797664Y-100592704D01*
X310628587Y-100590633D01*
X310409799Y-100654522D01*
X310117712Y-100791029D01*
X309728739Y-101006813D01*
X309266166Y-101280397D01*
X308567666Y-101699307D01*
X308567304Y-102136487D01*
X308539772Y-102466587D01*
X308437260Y-102744826D01*
X308308660Y-102954667D01*
X307936329Y-103553758D01*
X307692792Y-104071591D01*
X307572463Y-104529941D01*
X307569757Y-104950583D01*
X307679089Y-105355294D01*
X307687612Y-105376019D01*
X307775717Y-105758400D01*
X307758752Y-106173047D01*
X307643584Y-106547446D01*
X307564120Y-106680000D01*
X307322092Y-107049202D01*
X307192451Y-107366380D01*
X307157288Y-107687664D01*
X307173809Y-107903503D01*
X307190488Y-108265087D01*
X307141679Y-108515971D01*
X307132115Y-108535599D01*
X307073834Y-108724368D01*
X306806113Y-108724368D01*
X306803440Y-108693572D01*
X306850906Y-108436169D01*
G37*
G36*
X320868664Y-105843851D02*
G01*
X320874839Y-105955031D01*
X320786920Y-106053480D01*
X320730811Y-106072696D01*
X320612783Y-106055219D01*
X320604970Y-105946856D01*
X320687195Y-105816468D01*
X320760826Y-105791000D01*
X320868664Y-105843851D01*
G37*
G36*
X290803071Y-106057878D02*
G01*
X291027510Y-106117648D01*
X291182802Y-106188680D01*
X291186124Y-106191203D01*
X291332825Y-106228989D01*
X291386610Y-106210454D01*
X291573637Y-106131646D01*
X291800632Y-106080940D01*
X292001381Y-106068124D01*
X292109666Y-106102986D01*
X292110007Y-106103525D01*
X292103357Y-106232163D01*
X291931685Y-106365880D01*
X291658219Y-106481272D01*
X291422722Y-106556669D01*
X291254135Y-106575702D01*
X291070720Y-106537071D01*
X290872333Y-106468783D01*
X290633060Y-106332659D01*
X290549071Y-106183516D01*
X290549759Y-106066075D01*
X290631514Y-106033718D01*
X290803071Y-106057878D01*
G37*
G36*
X311548801Y-104802538D02*
G01*
X311573007Y-104991581D01*
X311563577Y-105211673D01*
X311522805Y-105395854D01*
X311462504Y-105475165D01*
X311395966Y-105454382D01*
X311371403Y-105314695D01*
X311377838Y-105101221D01*
X311408394Y-104868778D01*
X311457433Y-104730124D01*
X311488666Y-104711500D01*
X311548801Y-104802538D01*
G37*
G36*
X297272979Y-104951991D02*
G01*
X297406204Y-104698401D01*
X297610929Y-104496745D01*
X297832985Y-104397229D01*
X297875008Y-104394000D01*
X297993960Y-104381014D01*
X298045548Y-104312773D01*
X298046935Y-104145356D01*
X298032173Y-103991834D01*
X297979498Y-103428274D01*
X297945217Y-102917274D01*
X297934453Y-102612714D01*
X298243068Y-102612714D01*
X298243312Y-102707334D01*
X298249891Y-103021404D01*
X298266719Y-103188297D01*
X298298821Y-103230089D01*
X298349145Y-103172245D01*
X298468120Y-103007143D01*
X298643621Y-102792003D01*
X298705310Y-102721146D01*
X298960620Y-102433470D01*
X299968653Y-102527277D01*
X300663055Y-102573255D01*
X301321824Y-102572391D01*
X302040728Y-102524897D01*
X303104770Y-102428711D01*
X303383601Y-102751270D01*
X303561837Y-102986318D01*
X303692042Y-103209966D01*
X303723058Y-103289415D01*
X303764369Y-103417695D01*
X303788440Y-103404607D01*
X303809674Y-103237140D01*
X303812461Y-103208667D01*
X303819104Y-102972077D01*
X303808567Y-102640390D01*
X303784107Y-102297202D01*
X303727302Y-101885801D01*
X303638897Y-101623022D01*
X303504737Y-101489054D01*
X303310663Y-101464086D01*
X303202025Y-101482668D01*
X302894419Y-101541413D01*
X302707794Y-101535002D01*
X302602688Y-101452421D01*
X302543878Y-101299002D01*
X302431697Y-101056960D01*
X302257205Y-100835296D01*
X302255127Y-100833335D01*
X302147554Y-100742678D01*
X302031069Y-100683190D01*
X301868967Y-100648353D01*
X301624543Y-100631653D01*
X301261091Y-100626573D01*
X301089105Y-100626334D01*
X300446962Y-100647965D01*
X299917184Y-100721462D01*
X299447349Y-100859727D01*
X298985033Y-101075661D01*
X298775083Y-101195851D01*
X298534213Y-101348970D01*
X298418594Y-101455460D01*
X298402801Y-101545963D01*
X298432659Y-101608557D01*
X298478113Y-101759152D01*
X298388422Y-101913104D01*
X298382741Y-101919431D01*
X298301325Y-102058493D01*
X298257139Y-102276180D01*
X298243068Y-102612714D01*
X297934453Y-102612714D01*
X297929894Y-102483714D01*
X297934092Y-102152475D01*
X297958374Y-101948437D01*
X297984754Y-101896073D01*
X298039304Y-101773562D01*
X298025377Y-101594130D01*
X298009066Y-101460485D01*
X298047665Y-101352065D01*
X298168605Y-101234757D01*
X298399318Y-101074447D01*
X298491433Y-101014553D01*
X299250386Y-100623342D01*
X300078920Y-100386025D01*
X300977794Y-100302435D01*
X301607743Y-100331183D01*
X301955971Y-100374512D01*
X302189948Y-100435884D01*
X302364751Y-100534391D01*
X302478687Y-100633060D01*
X302652468Y-100831876D01*
X302765038Y-101019828D01*
X302777027Y-101055490D01*
X302825464Y-101164005D01*
X302930294Y-101208822D01*
X303140488Y-101205896D01*
X303218416Y-101199286D01*
X303485218Y-101193991D01*
X303691472Y-101244416D01*
X303844669Y-101368255D01*
X303952303Y-101583199D01*
X304021865Y-101906942D01*
X304060849Y-102357176D01*
X304076746Y-102951595D01*
X304078313Y-103229834D01*
X304080565Y-103694482D01*
X304087907Y-104015979D01*
X304104053Y-104220503D01*
X304132719Y-104334230D01*
X304177618Y-104383336D01*
X304242467Y-104393999D01*
X304243521Y-104394000D01*
X304404095Y-104456673D01*
X304576224Y-104609314D01*
X304590515Y-104626834D01*
X304711862Y-104832248D01*
X304747497Y-105070682D01*
X304737741Y-105244633D01*
X304656037Y-105652414D01*
X304501684Y-106063228D01*
X304299818Y-106426451D01*
X304075577Y-106691460D01*
X303986275Y-106758000D01*
X303805698Y-106903175D01*
X303673107Y-107111422D01*
X303555802Y-107432239D01*
X303438764Y-107750220D01*
X303288894Y-107991422D01*
X303058122Y-108226650D01*
X302957061Y-108314151D01*
X302703536Y-108520307D01*
X302477184Y-108690100D01*
X302336938Y-108780922D01*
X301699266Y-109026549D01*
X301042445Y-109119650D01*
X300398368Y-109056888D01*
X300202703Y-109004142D01*
X299845048Y-108845122D01*
X299441602Y-108592896D01*
X299051186Y-108287410D01*
X298816878Y-108062987D01*
X298665747Y-107843982D01*
X298521803Y-107541261D01*
X298452253Y-107340352D01*
X298325097Y-106997794D01*
X298189324Y-106824134D01*
X298152593Y-106806660D01*
X297993726Y-106710056D01*
X297809772Y-106537967D01*
X297778590Y-106502266D01*
X297634905Y-106275958D01*
X297494310Y-105963637D01*
X297373909Y-105617745D01*
X297290805Y-105290727D01*
X297272025Y-105123415D01*
X297580754Y-105123415D01*
X297609564Y-105303113D01*
X297690890Y-105588880D01*
X297691927Y-105592305D01*
X297800939Y-105895064D01*
X297929165Y-106168375D01*
X298056043Y-106376820D01*
X298161012Y-106484979D01*
X298209202Y-106483354D01*
X298215294Y-106387629D01*
X298195676Y-106173091D01*
X298157856Y-105907395D01*
X298110368Y-105565982D01*
X298078301Y-105242288D01*
X298069639Y-105059225D01*
X298048958Y-104927989D01*
X298387130Y-104927989D01*
X298413653Y-105512379D01*
X298504614Y-106163698D01*
X298663597Y-106922863D01*
X298758965Y-107301786D01*
X298846511Y-107560706D01*
X298948489Y-107746260D01*
X299087154Y-107905084D01*
X299168708Y-107981396D01*
X299529621Y-108284755D01*
X299854404Y-108496602D01*
X300211520Y-108658596D01*
X300382800Y-108720147D01*
X300713707Y-108823747D01*
X300963257Y-108865178D01*
X301206881Y-108846236D01*
X301520008Y-108768718D01*
X301588896Y-108748880D01*
X301950979Y-108604295D01*
X302333291Y-108387712D01*
X302693064Y-108130357D01*
X302987528Y-107863460D01*
X303173912Y-107618249D01*
X303193255Y-107577458D01*
X303259766Y-107376296D01*
X303345058Y-107059085D01*
X303436177Y-106676111D01*
X303462766Y-106553000D01*
X303820826Y-106553000D01*
X303986493Y-106361049D01*
X304099017Y-106181330D01*
X304228587Y-105902510D01*
X304335771Y-105617346D01*
X304430334Y-105320059D01*
X304470574Y-105132017D01*
X304459330Y-105003073D01*
X304399442Y-104883081D01*
X304379128Y-104851541D01*
X304256807Y-104699471D01*
X304156779Y-104662558D01*
X304074256Y-104751356D01*
X304004451Y-104976413D01*
X303942575Y-105348283D01*
X303883842Y-105877516D01*
X303876010Y-105960334D01*
X303820826Y-106553000D01*
X303462766Y-106553000D01*
X303492002Y-106417632D01*
X303607361Y-105669373D01*
X303646468Y-104938121D01*
X303610462Y-104261795D01*
X303500483Y-103678310D01*
X303401064Y-103392267D01*
X303277549Y-103123345D01*
X303157326Y-102941510D01*
X303006754Y-102833129D01*
X302792194Y-102784570D01*
X302480004Y-102782198D01*
X302036545Y-102812382D01*
X301981236Y-102816866D01*
X301350640Y-102847199D01*
X300660102Y-102846079D01*
X300062058Y-102817155D01*
X299638100Y-102786419D01*
X299349365Y-102773355D01*
X299162399Y-102780748D01*
X299043748Y-102811387D01*
X298959956Y-102868058D01*
X298915341Y-102912679D01*
X298692206Y-103250229D01*
X298528929Y-103728396D01*
X298422102Y-104357214D01*
X298420956Y-104367449D01*
X298387130Y-104927989D01*
X298048958Y-104927989D01*
X298030316Y-104809687D01*
X297929194Y-104698211D01*
X297789584Y-104736226D01*
X297675922Y-104866217D01*
X297603270Y-104995783D01*
X297580754Y-105123415D01*
X297272025Y-105123415D01*
X297262103Y-105035025D01*
X297272979Y-104951991D01*
G37*
G36*
X292807491Y-103975674D02*
G01*
X292981734Y-103996604D01*
X293053817Y-104042321D01*
X293057810Y-104118834D01*
X293012765Y-104199962D01*
X292892159Y-104250186D01*
X292660627Y-104279295D01*
X292434069Y-104291523D01*
X292130670Y-104295854D01*
X291896957Y-104284020D01*
X291781358Y-104258576D01*
X291779535Y-104256980D01*
X291774295Y-104152328D01*
X291814768Y-104084290D01*
X291972292Y-104011318D01*
X292290773Y-103974923D01*
X292497575Y-103970667D01*
X292807491Y-103975674D01*
G37*
G36*
X311662101Y-106980157D02*
G01*
X311954299Y-107007781D01*
X312112990Y-107057777D01*
X312140053Y-107080745D01*
X312203104Y-107192350D01*
X312199231Y-107225220D01*
X312094293Y-107252739D01*
X311867617Y-107277530D01*
X311566798Y-107297293D01*
X311239431Y-107309729D01*
X310933112Y-107312538D01*
X310695436Y-107303420D01*
X310658002Y-107299693D01*
X310441878Y-107255089D01*
X310361891Y-107177204D01*
X310362824Y-107119081D01*
X310398079Y-107052356D01*
X310493372Y-107009585D01*
X310679475Y-106985513D01*
X310987159Y-106974884D01*
X311218977Y-106972866D01*
X311662101Y-106980157D01*
G37*
G36*
X311537965Y-107535331D02*
G01*
X311660804Y-107570411D01*
X311688657Y-107645540D01*
X311684613Y-107674834D01*
X311618357Y-107774326D01*
X311443527Y-107829642D01*
X311255071Y-107848806D01*
X311011331Y-107856173D01*
X310892463Y-107826446D01*
X310855334Y-107743702D01*
X310853666Y-107700639D01*
X310874329Y-107597082D01*
X310964124Y-107545067D01*
X311164766Y-107527698D01*
X311283208Y-107526667D01*
X311537965Y-107535331D01*
G37*
G36*
X322866091Y-107489705D02*
G01*
X322998058Y-107566507D01*
X323043426Y-107695802D01*
X323044370Y-107717167D01*
X322966585Y-107745023D01*
X322757032Y-107766663D01*
X322453248Y-107778978D01*
X322277458Y-107780667D01*
X321913308Y-107777446D01*
X321688218Y-107763748D01*
X321571971Y-107733523D01*
X321534352Y-107680720D01*
X321537543Y-107632500D01*
X321578684Y-107555614D01*
X321688920Y-107506627D01*
X321902110Y-107477132D01*
X322234899Y-107459357D01*
X322620660Y-107456840D01*
X322866091Y-107489705D01*
G37*
G36*
X322471990Y-107968967D02*
G01*
X322565154Y-108005710D01*
X322572659Y-108105823D01*
X322475908Y-108216407D01*
X322327630Y-108284454D01*
X322283666Y-108288667D01*
X322102017Y-108228040D01*
X322040768Y-108175043D01*
X321988372Y-108043292D01*
X322094007Y-107968054D01*
X322283666Y-107950000D01*
X322471990Y-107968967D01*
G37*
G36*
X312569217Y-104243469D02*
G01*
X312826997Y-104326160D01*
X313003948Y-104455928D01*
X313055000Y-104586102D01*
X313022979Y-104701961D01*
X312896437Y-104710094D01*
X312848522Y-104699201D01*
X312673485Y-104689652D01*
X312589525Y-104732356D01*
X312454092Y-104802417D01*
X312224898Y-104769582D01*
X312060166Y-104702194D01*
X311909033Y-104568410D01*
X311878155Y-104411726D01*
X311975080Y-104288993D01*
X312003591Y-104276059D01*
X312278714Y-104222040D01*
X312569217Y-104243469D01*
G37*
G36*
X312685274Y-103535425D02*
G01*
X312947386Y-103611196D01*
X313127762Y-103721558D01*
X313182000Y-103836980D01*
X313139755Y-103989405D01*
X313004885Y-104014338D01*
X312772995Y-103918456D01*
X312451123Y-103828169D01*
X312204602Y-103844297D01*
X311905998Y-103867428D01*
X311756227Y-103810588D01*
X311752061Y-103680381D01*
X311874820Y-103566722D01*
X312102361Y-103508081D01*
X312388056Y-103499351D01*
X312685274Y-103535425D01*
G37*
G36*
X309875848Y-104861450D02*
G01*
X309949774Y-104936056D01*
X309950981Y-105085882D01*
X309847655Y-105154052D01*
X309692062Y-105122855D01*
X309600600Y-105054400D01*
X309505384Y-104911931D01*
X309566935Y-104833372D01*
X309701608Y-104817334D01*
X309875848Y-104861450D01*
G37*
G36*
X321250325Y-105198134D02*
G01*
X321394666Y-105240667D01*
X321620250Y-105352472D01*
X321677654Y-105483734D01*
X321566954Y-105634853D01*
X321482312Y-105696596D01*
X321226263Y-105818247D01*
X321051061Y-105797339D01*
X320981497Y-105702290D01*
X320897147Y-105616381D01*
X320714732Y-105613301D01*
X320645595Y-105624828D01*
X320432748Y-105642209D01*
X320326821Y-105580357D01*
X320307250Y-105541000D01*
X320311440Y-105409109D01*
X320358927Y-105370893D01*
X320711649Y-105262896D01*
X320948034Y-105201845D01*
X321112715Y-105182129D01*
X321250325Y-105198134D01*
G37*
G36*
X291535155Y-107390579D02*
G01*
X291591050Y-107485339D01*
X291538565Y-107582377D01*
X291382450Y-107677824D01*
X291199992Y-107685203D01*
X291084000Y-107611334D01*
X291070002Y-107471997D01*
X291191518Y-107377845D01*
X291328885Y-107357334D01*
X291535155Y-107390579D01*
G37*
G36*
X298804299Y-106029693D02*
G01*
X298696230Y-105756253D01*
X298634058Y-105531069D01*
X299030695Y-105531069D01*
X299040367Y-105741949D01*
X299114833Y-105968853D01*
X299224966Y-106130538D01*
X299433780Y-106235992D01*
X299717968Y-106260172D01*
X300006873Y-106207534D01*
X300229841Y-106082533D01*
X300245843Y-106066167D01*
X300435110Y-105802060D01*
X300485233Y-105584859D01*
X300392956Y-105432413D01*
X300364634Y-105415157D01*
X300195700Y-105337910D01*
X300119625Y-105367553D01*
X300085721Y-105515834D01*
X300012502Y-105666912D01*
X299847000Y-105706334D01*
X299672518Y-105659747D01*
X299608278Y-105515834D01*
X299517602Y-105368214D01*
X299336099Y-105321894D01*
X299116778Y-105388812D01*
X299097116Y-105400720D01*
X299030695Y-105531069D01*
X298634058Y-105531069D01*
X298625061Y-105498481D01*
X298608687Y-105306232D01*
X298617997Y-105283000D01*
X299677666Y-105283000D01*
X299720000Y-105325334D01*
X299762333Y-105283000D01*
X302048333Y-105283000D01*
X302090666Y-105325334D01*
X302133000Y-105283000D01*
X302302333Y-105283000D01*
X302344666Y-105325334D01*
X302387000Y-105283000D01*
X302344666Y-105240667D01*
X302302333Y-105283000D01*
X302133000Y-105283000D01*
X302090666Y-105240667D01*
X302048333Y-105283000D01*
X299762333Y-105283000D01*
X299720000Y-105240667D01*
X299677666Y-105283000D01*
X298617997Y-105283000D01*
X298634853Y-105240935D01*
X298842726Y-105132067D01*
X299159738Y-105050733D01*
X299532737Y-105001156D01*
X299908573Y-104987555D01*
X300234094Y-105014152D01*
X300456148Y-105085167D01*
X300470962Y-105095126D01*
X300620911Y-105154520D01*
X300861918Y-105162054D01*
X301143311Y-105132750D01*
X301841172Y-105050940D01*
X302392239Y-105016111D01*
X302812673Y-105029211D01*
X303118635Y-105091184D01*
X303326285Y-105202977D01*
X303387320Y-105264108D01*
X303414431Y-105406656D01*
X303379350Y-105644137D01*
X303298513Y-105921510D01*
X303188355Y-106183735D01*
X303065314Y-106375773D01*
X303050743Y-106391209D01*
X302850808Y-106500212D01*
X302551534Y-106565760D01*
X302219060Y-106580317D01*
X301919528Y-106536345D01*
X301881979Y-106524392D01*
X301698198Y-106474922D01*
X301632781Y-106504322D01*
X301632096Y-106535215D01*
X301627211Y-106742397D01*
X301524871Y-106895694D01*
X301349833Y-107019595D01*
X301123278Y-107143905D01*
X300960472Y-107172656D01*
X300786733Y-107107815D01*
X300666977Y-107037581D01*
X300480640Y-106862069D01*
X300381712Y-106661259D01*
X300329350Y-106504279D01*
X300240887Y-106485883D01*
X300181134Y-106513092D01*
X299906212Y-106588953D01*
X299567602Y-106589288D01*
X299245708Y-106520472D01*
X299059557Y-106424160D01*
X299054564Y-106418114D01*
X300726333Y-106418114D01*
X300728483Y-106590558D01*
X300776920Y-106692636D01*
X300832657Y-106741571D01*
X300996393Y-106836585D01*
X301114444Y-106806154D01*
X301214754Y-106701167D01*
X301281554Y-106578843D01*
X301300627Y-106399359D01*
X301275365Y-106114889D01*
X301262818Y-106023834D01*
X301215534Y-105734587D01*
X301173721Y-105602199D01*
X301570216Y-105602199D01*
X301609242Y-105818848D01*
X301783733Y-106058138D01*
X301816912Y-106090198D01*
X302043019Y-106212566D01*
X302331819Y-106258898D01*
X302614155Y-106227945D01*
X302820869Y-106118457D01*
X302830121Y-106108500D01*
X302942738Y-105917695D01*
X303016887Y-105696169D01*
X303038221Y-105506268D01*
X302974434Y-105414585D01*
X302878144Y-105379825D01*
X302638520Y-105332692D01*
X302512827Y-105366444D01*
X302459719Y-105494414D01*
X302456388Y-105515834D01*
X302383168Y-105666912D01*
X302217666Y-105706334D01*
X302043185Y-105659747D01*
X301978944Y-105515834D01*
X301930213Y-105359111D01*
X301828087Y-105343834D01*
X301673139Y-105437618D01*
X301570216Y-105602199D01*
X301173721Y-105602199D01*
X301165284Y-105575487D01*
X301091446Y-105508270D01*
X300977611Y-105494667D01*
X300834676Y-105515875D01*
X300806773Y-105558167D01*
X300814891Y-105669749D01*
X300796903Y-105894832D01*
X300765245Y-106127738D01*
X300726333Y-106418114D01*
X299054564Y-106418114D01*
X298931373Y-106268947D01*
X298804299Y-106029693D01*
G37*
G36*
X300100346Y-104415311D02*
G01*
X300308946Y-104481903D01*
X300356698Y-104523046D01*
X300430055Y-104640808D01*
X300430565Y-104681196D01*
X300336747Y-104698934D01*
X300114384Y-104721520D01*
X299804041Y-104745117D01*
X299656500Y-104754448D01*
X299288306Y-104771118D01*
X299060615Y-104766013D01*
X298945682Y-104736491D01*
X298915666Y-104683943D01*
X298995580Y-104537487D01*
X299229291Y-104440614D01*
X299607748Y-104396483D01*
X299746400Y-104394000D01*
X300100346Y-104415311D01*
G37*
G36*
X288223966Y-105020471D02*
G01*
X288258819Y-104887983D01*
X288322601Y-104814778D01*
X288396995Y-104775590D01*
X288531364Y-104668382D01*
X288543743Y-104574467D01*
X288485160Y-104359643D01*
X288420733Y-104026407D01*
X288399549Y-103891680D01*
X288932485Y-103891680D01*
X288948284Y-104330249D01*
X288984025Y-104835257D01*
X289036248Y-105373316D01*
X289101497Y-105911041D01*
X289176312Y-106415045D01*
X289257235Y-106851941D01*
X289340807Y-107188344D01*
X289385642Y-107316035D01*
X289674534Y-107824533D01*
X290060444Y-108195532D01*
X290546680Y-108431148D01*
X291136545Y-108533497D01*
X291295666Y-108538478D01*
X291631748Y-108523099D01*
X291957214Y-108480375D01*
X292084825Y-108451894D01*
X292454523Y-108277263D01*
X292814113Y-107982201D01*
X293115152Y-107611211D01*
X293237143Y-107393213D01*
X293326954Y-107131207D01*
X293419657Y-106739690D01*
X293509690Y-106258273D01*
X293530358Y-106123936D01*
X293855068Y-106123936D01*
X293883116Y-106310333D01*
X293961204Y-106336288D01*
X294089941Y-106202649D01*
X294134739Y-106137368D01*
X294203785Y-105951064D01*
X294239071Y-105691913D01*
X294241259Y-105415135D01*
X294211008Y-105175946D01*
X294148980Y-105029566D01*
X294121264Y-105010910D01*
X294044171Y-105015183D01*
X293985716Y-105103707D01*
X293937728Y-105302029D01*
X293892036Y-105635693D01*
X293876455Y-105776246D01*
X293855068Y-106123936D01*
X293530358Y-106123936D01*
X293591492Y-105726568D01*
X293659502Y-105184185D01*
X293708159Y-104670735D01*
X293731901Y-104225831D01*
X293726626Y-103906712D01*
X293609541Y-103270703D01*
X293367395Y-102741996D01*
X293004701Y-102327074D01*
X292525977Y-102032425D01*
X292382529Y-101976130D01*
X291987646Y-101866534D01*
X291692644Y-101864623D01*
X291461437Y-101977150D01*
X291277272Y-102182979D01*
X291103606Y-102470178D01*
X290940728Y-102805003D01*
X290893621Y-102922004D01*
X290785654Y-103173583D01*
X290682807Y-103298591D01*
X290551710Y-103335363D01*
X290533516Y-103335667D01*
X290320273Y-103259035D01*
X290234082Y-103149290D01*
X290171332Y-103039844D01*
X290106124Y-103023920D01*
X289994306Y-103111387D01*
X289874360Y-103229717D01*
X289703588Y-103391308D01*
X289583541Y-103448507D01*
X289445560Y-103417008D01*
X289315824Y-103357403D01*
X289121596Y-103274286D01*
X289024666Y-103271739D01*
X288974546Y-103347401D01*
X288940086Y-103552935D01*
X288932485Y-103891680D01*
X288399549Y-103891680D01*
X288357644Y-103625178D01*
X288303074Y-103206374D01*
X288264203Y-102820416D01*
X288248214Y-102517722D01*
X288248138Y-102499076D01*
X288248505Y-102492331D01*
X288534744Y-102492331D01*
X288552160Y-102952765D01*
X288612005Y-103505000D01*
X288712497Y-103208667D01*
X288812613Y-103006715D01*
X288929263Y-102892266D01*
X288948641Y-102885926D01*
X289112369Y-102910840D01*
X289305542Y-103004486D01*
X289440454Y-103083182D01*
X289544309Y-103088760D01*
X289669220Y-103005318D01*
X289843299Y-102840394D01*
X290112130Y-102615105D01*
X290304825Y-102539763D01*
X290423436Y-102614118D01*
X290464583Y-102764167D01*
X290485702Y-102877370D01*
X290523629Y-102884189D01*
X290595841Y-102768110D01*
X290710996Y-102531334D01*
X290881849Y-102218513D01*
X291081429Y-101922121D01*
X291196569Y-101782852D01*
X291377407Y-101608964D01*
X291529955Y-101538565D01*
X291732398Y-101543472D01*
X291823613Y-101556836D01*
X292432903Y-101685828D01*
X292905861Y-101868929D01*
X293271702Y-102124638D01*
X293559643Y-102471453D01*
X293720590Y-102758002D01*
X293850866Y-103019000D01*
X293925554Y-103142873D01*
X293963313Y-103144687D01*
X293982800Y-103039504D01*
X293989265Y-102974927D01*
X293940447Y-102643909D01*
X293841098Y-102476676D01*
X293716295Y-102246996D01*
X293666333Y-102019111D01*
X293590464Y-101791870D01*
X293384027Y-101537555D01*
X293078775Y-101277315D01*
X292706461Y-101032297D01*
X292298839Y-100823652D01*
X291887663Y-100672527D01*
X291540293Y-100603122D01*
X291092586Y-100601359D01*
X290588017Y-100667237D01*
X290069960Y-100788050D01*
X289581791Y-100951089D01*
X289166885Y-101143646D01*
X288868619Y-101353013D01*
X288823962Y-101398938D01*
X288678049Y-101661133D01*
X288578904Y-102041251D01*
X288534744Y-102492331D01*
X288248505Y-102492331D01*
X288275749Y-101991344D01*
X288367399Y-101603503D01*
X288537901Y-101293428D01*
X288753648Y-101061563D01*
X289223680Y-100746581D01*
X289829085Y-100525961D01*
X290563435Y-100401502D01*
X291211000Y-100372334D01*
X291627249Y-100376510D01*
X291925264Y-100395078D01*
X292156060Y-100437094D01*
X292370653Y-100511614D01*
X292603458Y-100619528D01*
X292971218Y-100832817D01*
X293323908Y-101094698D01*
X293631409Y-101376210D01*
X293863604Y-101648390D01*
X293990373Y-101882275D01*
X294005000Y-101967283D01*
X294046838Y-102154166D01*
X294132000Y-102246716D01*
X294193116Y-102304524D01*
X294231288Y-102440674D01*
X294250685Y-102684420D01*
X294255477Y-103065013D01*
X294255312Y-103111892D01*
X294246124Y-103516355D01*
X294224711Y-103901527D01*
X294194974Y-104205508D01*
X294180815Y-104294726D01*
X294146572Y-104532466D01*
X294169133Y-104656404D01*
X294248002Y-104711884D01*
X294379098Y-104783675D01*
X294458531Y-104905590D01*
X294498537Y-105115126D01*
X294511352Y-105449782D01*
X294511703Y-105520038D01*
X294478352Y-106010030D01*
X294372836Y-106354745D01*
X294190784Y-106564077D01*
X294019263Y-106634534D01*
X293874103Y-106687276D01*
X293774879Y-106796189D01*
X293691017Y-107004796D01*
X293642131Y-107171433D01*
X293413120Y-107726871D01*
X293071265Y-108188677D01*
X292638666Y-108532891D01*
X292218950Y-108714309D01*
X291954244Y-108759040D01*
X291587023Y-108782820D01*
X291179916Y-108785718D01*
X290795548Y-108767801D01*
X290496546Y-108729137D01*
X290429022Y-108712363D01*
X289946036Y-108481797D01*
X289530220Y-108114147D01*
X289205054Y-107635927D01*
X289000354Y-107098924D01*
X288907376Y-106821532D01*
X288804510Y-106693861D01*
X288749040Y-106680000D01*
X288581151Y-106629130D01*
X288407666Y-106520134D01*
X288312145Y-106427639D01*
X288253273Y-106312296D01*
X288222142Y-106133544D01*
X288209845Y-105850822D01*
X288207786Y-105609967D01*
X288209273Y-105333421D01*
X288433558Y-105333421D01*
X288441457Y-105590573D01*
X288481181Y-105869171D01*
X288547305Y-106122243D01*
X288634403Y-106302819D01*
X288682683Y-106350346D01*
X288778416Y-106403738D01*
X288828920Y-106391235D01*
X288841888Y-106283638D01*
X288825011Y-106051746D01*
X288807443Y-105876731D01*
X288761314Y-105492911D01*
X288711547Y-105249948D01*
X288648540Y-105119471D01*
X288562696Y-105073111D01*
X288534941Y-105071334D01*
X288462911Y-105144684D01*
X288433558Y-105333421D01*
X288209273Y-105333421D01*
X288209727Y-105248910D01*
X288223966Y-105020471D01*
G37*
G36*
X292572457Y-104663596D02*
G01*
X292807483Y-104711087D01*
X292940416Y-104795133D01*
X292953009Y-104888110D01*
X292827018Y-104962394D01*
X292777333Y-104973778D01*
X292604242Y-105054250D01*
X292540292Y-105123105D01*
X292399427Y-105227266D01*
X292216819Y-105217091D01*
X292070790Y-105097654D01*
X292067829Y-105092500D01*
X291970687Y-104982427D01*
X291915455Y-104969972D01*
X291840803Y-104925923D01*
X291819207Y-104867164D01*
X291869087Y-104748434D01*
X292066075Y-104676352D01*
X292393261Y-104655490D01*
X292572457Y-104663596D01*
G37*
G36*
X302571129Y-104406050D02*
G01*
X302842571Y-104439165D01*
X302985232Y-104481646D01*
X303114332Y-104599404D01*
X303142054Y-104723621D01*
X303065639Y-104797890D01*
X303000833Y-104800510D01*
X302845405Y-104788255D01*
X302577489Y-104772004D01*
X302253770Y-104755182D01*
X302238833Y-104754468D01*
X301893134Y-104727665D01*
X301695689Y-104684656D01*
X301625798Y-104620604D01*
X301625000Y-104611016D01*
X301693504Y-104485149D01*
X301758924Y-104445392D01*
X301961677Y-104407164D01*
X302254955Y-104394717D01*
X302571129Y-104406050D01*
G37*
G36*
X323884956Y-105786441D02*
G01*
X323968872Y-105902626D01*
X323954821Y-106029800D01*
X323854996Y-106087334D01*
X323707697Y-106030923D01*
X323676107Y-105995290D01*
X323672285Y-105868490D01*
X323767528Y-105778509D01*
X323884956Y-105786441D01*
G37*
G36*
X300342231Y-107354040D02*
G01*
X300528036Y-107408904D01*
X300822552Y-107491632D01*
X301044408Y-107508470D01*
X301275059Y-107463678D01*
X301320540Y-107450381D01*
X301671302Y-107358028D01*
X301891461Y-107335164D01*
X302004313Y-107380644D01*
X302023997Y-107415867D01*
X301990852Y-107541260D01*
X301826329Y-107652507D01*
X301568285Y-107741180D01*
X301254580Y-107798847D01*
X300923072Y-107817078D01*
X300611618Y-107787442D01*
X300491132Y-107757207D01*
X300251254Y-107649356D01*
X300078318Y-107513000D01*
X300006879Y-107381414D01*
X300031157Y-107314287D01*
X300133181Y-107310327D01*
X300342231Y-107354040D01*
G37*
G36*
X322684899Y-106667937D02*
G01*
X322707000Y-106758459D01*
X322651217Y-106903209D01*
X322531458Y-106934000D01*
X322396521Y-106888380D01*
X322384264Y-106786806D01*
X322462969Y-106649771D01*
X322585004Y-106608231D01*
X322684899Y-106667937D01*
G37*
G36*
X290544205Y-104000416D02*
G01*
X290786219Y-104088740D01*
X290872192Y-104234251D01*
X290872333Y-104241600D01*
X290796795Y-104286276D01*
X290603397Y-104309189D01*
X290341963Y-104312156D01*
X290062316Y-104296994D01*
X289814280Y-104265518D01*
X289647679Y-104219545D01*
X289613434Y-104195710D01*
X289556533Y-104086215D01*
X289616506Y-104017026D01*
X289810576Y-103980920D01*
X290149844Y-103970667D01*
X290544205Y-104000416D01*
G37*
G36*
X310409990Y-104237515D02*
G01*
X310550408Y-104276059D01*
X310666363Y-104383275D01*
X310677877Y-104525887D01*
X310591836Y-104631587D01*
X310515000Y-104648000D01*
X310377419Y-104683456D01*
X310345666Y-104732667D01*
X310276740Y-104795263D01*
X310122863Y-104815518D01*
X309963386Y-104792064D01*
X309884912Y-104740615D01*
X309774950Y-104695494D01*
X309677804Y-104705658D01*
X309512110Y-104702299D01*
X309461781Y-104602373D01*
X309538598Y-104443265D01*
X309580578Y-104397088D01*
X309795490Y-104278307D01*
X310096760Y-104222021D01*
X310409990Y-104237515D01*
G37*
G36*
X290517924Y-104653857D02*
G01*
X290730796Y-104696558D01*
X290738408Y-104699392D01*
X290860548Y-104801039D01*
X290831629Y-104935636D01*
X290659753Y-105078331D01*
X290605325Y-105107466D01*
X290384207Y-105208980D01*
X290254196Y-105228999D01*
X290158360Y-105168236D01*
X290110333Y-105113667D01*
X289950954Y-105005342D01*
X289860077Y-104986667D01*
X289679976Y-104943283D01*
X289645289Y-104813262D01*
X289659558Y-104766723D01*
X289762461Y-104702991D01*
X289977396Y-104660591D01*
X290248004Y-104643040D01*
X290517924Y-104653857D01*
G37*
G36*
X322144562Y-106689970D02*
G01*
X322186102Y-106812005D01*
X322126396Y-106911900D01*
X322035874Y-106934000D01*
X321891124Y-106878218D01*
X321860333Y-106758459D01*
X321905953Y-106623522D01*
X322007527Y-106611264D01*
X322144562Y-106689970D01*
G37*
G36*
X312933748Y-104839126D02*
G01*
X312958859Y-104940935D01*
X312955833Y-104958624D01*
X312857418Y-105091418D01*
X312729102Y-105141709D01*
X312583584Y-105134208D01*
X312558473Y-105032398D01*
X312561499Y-105014709D01*
X312659914Y-104881916D01*
X312788230Y-104831624D01*
X312933748Y-104839126D01*
G37*
G36*
X308001382Y-104355744D02*
G01*
X308119503Y-104235891D01*
X308952276Y-104235891D01*
X308952486Y-104351667D01*
X308976950Y-104821677D01*
X309040125Y-105353493D01*
X309133063Y-105901153D01*
X309246815Y-106418691D01*
X309372432Y-106860145D01*
X309500965Y-107179551D01*
X309504296Y-107185870D01*
X309632741Y-107378221D01*
X309845348Y-107646005D01*
X310106228Y-107945231D01*
X310248587Y-108098167D01*
X310519639Y-108378093D01*
X310711834Y-108556706D01*
X310861602Y-108656717D01*
X311005374Y-108700840D01*
X311179580Y-108711786D01*
X311233181Y-108712000D01*
X311428925Y-108704334D01*
X311585817Y-108666130D01*
X311743955Y-108574583D01*
X311943440Y-108406885D01*
X312204141Y-108159770D01*
X312581415Y-107767634D01*
X312863282Y-107396392D01*
X313073439Y-107000083D01*
X313235580Y-106532741D01*
X313288849Y-106306890D01*
X313657583Y-106306890D01*
X313717506Y-106320512D01*
X313864504Y-106191902D01*
X313894194Y-106160516D01*
X314000989Y-105979269D01*
X314108652Y-105691305D01*
X314202839Y-105353194D01*
X314269203Y-105021505D01*
X314293401Y-104752806D01*
X314279932Y-104639387D01*
X314174190Y-104506553D01*
X314084012Y-104478667D01*
X314008350Y-104508667D01*
X313948922Y-104618113D01*
X313895954Y-104836175D01*
X313839674Y-105192023D01*
X313835824Y-105219500D01*
X313782897Y-105578669D01*
X313731591Y-105892107D01*
X313690585Y-106107863D01*
X313680232Y-106150834D01*
X313657583Y-106306890D01*
X313288849Y-106306890D01*
X313373402Y-105948403D01*
X313391868Y-105855852D01*
X313522937Y-105069828D01*
X313577549Y-104406254D01*
X313552660Y-103834988D01*
X313445228Y-103325888D01*
X313252209Y-102848812D01*
X313052979Y-102499449D01*
X312852991Y-102230422D01*
X312636212Y-102061497D01*
X312357047Y-101971683D01*
X311969902Y-101939986D01*
X311834943Y-101938667D01*
X311509489Y-101951299D01*
X311303703Y-101996975D01*
X311169274Y-102087362D01*
X311154530Y-102102994D01*
X311022425Y-102205299D01*
X310840945Y-102237822D01*
X310612241Y-102222194D01*
X310209551Y-102227508D01*
X309832488Y-102344338D01*
X309612940Y-102455053D01*
X309457650Y-102588774D01*
X309323328Y-102793650D01*
X309197488Y-103050638D01*
X309072732Y-103342785D01*
X308998333Y-103594935D01*
X308962209Y-103871250D01*
X308952276Y-104235891D01*
X308119503Y-104235891D01*
X308173489Y-104181113D01*
X308354798Y-104140000D01*
X308475351Y-104118975D01*
X308554486Y-104029497D01*
X308617604Y-103831959D01*
X308651796Y-103676918D01*
X308746236Y-103339371D01*
X308888628Y-102956096D01*
X309000308Y-102708786D01*
X309156083Y-102421859D01*
X309298102Y-102243856D01*
X309474513Y-102126088D01*
X309651008Y-102050818D01*
X309993629Y-101955032D01*
X310366354Y-101901280D01*
X310472666Y-101897116D01*
X310781444Y-101872591D01*
X310963671Y-101793574D01*
X311006634Y-101748167D01*
X311105682Y-101666388D01*
X311276457Y-101620368D01*
X311558741Y-101601943D01*
X311726300Y-101600472D01*
X312211598Y-101615173D01*
X312568464Y-101668926D01*
X312836192Y-101777518D01*
X313054077Y-101956737D01*
X313256515Y-102215232D01*
X313489994Y-102608737D01*
X313689189Y-103044650D01*
X313832777Y-103467823D01*
X313899437Y-103823105D01*
X313901666Y-103883885D01*
X313924375Y-104066763D01*
X314019599Y-104133961D01*
X314107285Y-104140000D01*
X314339587Y-104182221D01*
X314486634Y-104322456D01*
X314558992Y-104581067D01*
X314567225Y-104978413D01*
X314565144Y-105022400D01*
X314491848Y-105559549D01*
X314339198Y-106019622D01*
X314120521Y-106373594D01*
X313849141Y-106592436D01*
X313843058Y-106595334D01*
X313605826Y-106775861D01*
X313434707Y-107080256D01*
X313430233Y-107091738D01*
X313310368Y-107310210D01*
X313101089Y-107606263D01*
X312834201Y-107942744D01*
X312541506Y-108282501D01*
X312254807Y-108588380D01*
X312005907Y-108823228D01*
X311849611Y-108938260D01*
X311617714Y-109008958D01*
X311299863Y-109038975D01*
X310975015Y-109026080D01*
X310726666Y-108969954D01*
X310507947Y-108831542D01*
X310238240Y-108590305D01*
X309943339Y-108278336D01*
X309649040Y-107927731D01*
X309381138Y-107570585D01*
X309165426Y-107238992D01*
X309027701Y-106965047D01*
X308991000Y-106810373D01*
X308921647Y-106699229D01*
X308842833Y-106678118D01*
X308579848Y-106591975D01*
X308343065Y-106346176D01*
X308138736Y-105949216D01*
X308006121Y-105540906D01*
X307913497Y-105052515D01*
X307913404Y-104844687D01*
X308239782Y-104844687D01*
X308276109Y-105218439D01*
X308306643Y-105369189D01*
X308396722Y-105674671D01*
X308518474Y-105965077D01*
X308649555Y-106197083D01*
X308767618Y-106327368D01*
X308808077Y-106341334D01*
X308829601Y-106265246D01*
X308819082Y-106064168D01*
X308779053Y-105778873D01*
X308769964Y-105727500D01*
X308706100Y-105369863D01*
X308647497Y-105030444D01*
X308608149Y-104790888D01*
X308553821Y-104573580D01*
X308469393Y-104494180D01*
X308414673Y-104495420D01*
X308286371Y-104600435D01*
X308239782Y-104844687D01*
X307913404Y-104844687D01*
X307913318Y-104651836D01*
X308001382Y-104355744D01*
G37*
%TD*%
M02*
