%TF.GenerationSoftware,KiCad,Pcbnew,(5.99.0-12118-g897269f33f)*%
%TF.CreationDate,2021-10-27T19:42:23-04:00*%
%TF.ProjectId,latte,6c617474-652e-46b6-9963-61645f706362,rev?*%
%TF.SameCoordinates,Original*%
%TF.FileFunction,Legend,Bot*%
%TF.FilePolarity,Positive*%
%FSLAX46Y46*%
G04 Gerber Fmt 4.6, Leading zero omitted, Abs format (unit mm)*
G04 Created by KiCad (PCBNEW (5.99.0-12118-g897269f33f)) date 2021-10-27 19:42:23*
%MOMM*%
%LPD*%
G01*
G04 APERTURE LIST*
%ADD10C,0.150000*%
%ADD11C,0.120000*%
G04 APERTURE END LIST*
D10*
%TO.C,U1*%
X267962396Y-107360107D02*
X268534816Y-106787687D01*
X268635831Y-106754015D01*
X268703175Y-106754015D01*
X268804190Y-106787687D01*
X268938877Y-106922374D01*
X268972549Y-107023389D01*
X268972549Y-107090733D01*
X268938877Y-107191748D01*
X268366457Y-107764168D01*
X269780671Y-107764168D02*
X269376610Y-107360107D01*
X269578640Y-107562137D02*
X268871534Y-108269244D01*
X268905205Y-108100885D01*
X268905205Y-107966198D01*
X268871534Y-107865183D01*
%TO.C,JP1*%
X292482380Y-93937380D02*
X292815714Y-93461190D01*
X293053809Y-93937380D02*
X293053809Y-92937380D01*
X292672857Y-92937380D01*
X292577619Y-92985000D01*
X292530000Y-93032619D01*
X292482380Y-93127857D01*
X292482380Y-93270714D01*
X292530000Y-93365952D01*
X292577619Y-93413571D01*
X292672857Y-93461190D01*
X293053809Y-93461190D01*
X292053809Y-93413571D02*
X291720476Y-93413571D01*
X291577619Y-93937380D02*
X292053809Y-93937380D01*
X292053809Y-92937380D01*
X291577619Y-92937380D01*
X291196666Y-93889761D02*
X291053809Y-93937380D01*
X290815714Y-93937380D01*
X290720476Y-93889761D01*
X290672857Y-93842142D01*
X290625238Y-93746904D01*
X290625238Y-93651666D01*
X290672857Y-93556428D01*
X290720476Y-93508809D01*
X290815714Y-93461190D01*
X291006190Y-93413571D01*
X291101428Y-93365952D01*
X291149047Y-93318333D01*
X291196666Y-93223095D01*
X291196666Y-93127857D01*
X291149047Y-93032619D01*
X291101428Y-92985000D01*
X291006190Y-92937380D01*
X290768095Y-92937380D01*
X290625238Y-92985000D01*
X290196666Y-93413571D02*
X289863333Y-93413571D01*
X289720476Y-93937380D02*
X290196666Y-93937380D01*
X290196666Y-92937380D01*
X289720476Y-92937380D01*
X289434761Y-92937380D02*
X288863333Y-92937380D01*
X289149047Y-93937380D02*
X289149047Y-92937380D01*
D11*
%TO.C,D47*%
X222350000Y-103350000D02*
X222350000Y-99450000D01*
X220350000Y-103350000D02*
X220350000Y-99450000D01*
X222350000Y-103350000D02*
X220350000Y-103350000D01*
%TO.C,D16*%
X288000000Y-70225000D02*
X288000000Y-66325000D01*
X286000000Y-70225000D02*
X286000000Y-66325000D01*
X288000000Y-70225000D02*
X286000000Y-70225000D01*
%TO.C,C1*%
X266909888Y-94430796D02*
X266544204Y-94065112D01*
X265905796Y-95434888D02*
X265540112Y-95069204D01*
%TO.C,R4*%
X262340000Y-84591422D02*
X262340000Y-85108578D01*
X263760000Y-84591422D02*
X263760000Y-85108578D01*
%TO.C,D2*%
X16550000Y-70275000D02*
X16550000Y-66375000D01*
X14550000Y-70275000D02*
X14550000Y-66375000D01*
X16550000Y-70275000D02*
X14550000Y-70275000D01*
%TO.C,C5*%
X262915000Y-101991422D02*
X262915000Y-102508578D01*
X264335000Y-101991422D02*
X264335000Y-102508578D01*
%TO.C,D56*%
X154625000Y-127425000D02*
X154625000Y-123525000D01*
X152625000Y-127425000D02*
X152625000Y-123525000D01*
X154625000Y-127425000D02*
X152625000Y-127425000D01*
%TO.C,D23*%
X83225000Y-89325000D02*
X83225000Y-85425000D01*
X81225000Y-89325000D02*
X81225000Y-85425000D01*
X83225000Y-89325000D02*
X81225000Y-89325000D01*
%TO.C,C3*%
X285385000Y-102508578D02*
X285385000Y-101991422D01*
X283965000Y-102508578D02*
X283965000Y-101991422D01*
%TO.C,D31*%
X235625000Y-89300000D02*
X235625000Y-85400000D01*
X233625000Y-89300000D02*
X233625000Y-85400000D01*
X235625000Y-89300000D02*
X233625000Y-89300000D01*
%TO.C,D20*%
X26075000Y-89325000D02*
X26075000Y-85425000D01*
X24075000Y-89325000D02*
X24075000Y-85425000D01*
X26075000Y-89325000D02*
X24075000Y-89325000D01*
%TO.C,D25*%
X121325000Y-89325000D02*
X121325000Y-85425000D01*
X119325000Y-89325000D02*
X119325000Y-85425000D01*
X121325000Y-89325000D02*
X119325000Y-89325000D01*
%TO.C,D67*%
X259412125Y-146450000D02*
X259412125Y-142550000D01*
X257412125Y-146450000D02*
X257412125Y-142550000D01*
X259412125Y-146450000D02*
X257412125Y-146450000D01*
%TO.C,D51*%
X59375000Y-127425000D02*
X59375000Y-123525000D01*
X57375000Y-127425000D02*
X57375000Y-123525000D01*
X59375000Y-127425000D02*
X57375000Y-127425000D01*
%TO.C,D27*%
X159425000Y-89325000D02*
X159425000Y-85425000D01*
X157425000Y-89325000D02*
X157425000Y-85425000D01*
X159425000Y-89325000D02*
X157425000Y-89325000D01*
%TO.C,D15*%
X265975000Y-70225000D02*
X265975000Y-66325000D01*
X263975000Y-70225000D02*
X263975000Y-66325000D01*
X265975000Y-70225000D02*
X263975000Y-70225000D01*
%TO.C,D19*%
X2250000Y-89325000D02*
X2250000Y-85425000D01*
X250000Y-89325000D02*
X250000Y-85425000D01*
X2250000Y-89325000D02*
X250000Y-89325000D01*
D10*
%TO.C,J1*%
X268875000Y-59625000D02*
X268875000Y-60625000D01*
X268875000Y-60625000D02*
X271275000Y-60625000D01*
X273075000Y-59625000D02*
X273075000Y-55625000D01*
X271275000Y-54625000D02*
X268875000Y-54625000D01*
X268875000Y-54625000D02*
X268875000Y-55625000D01*
D11*
%TO.C,D9*%
X149900000Y-70275000D02*
X149900000Y-66375000D01*
X147900000Y-70275000D02*
X147900000Y-66375000D01*
X149900000Y-70275000D02*
X147900000Y-70275000D01*
%TO.C,D36*%
X4625000Y-108375000D02*
X4625000Y-104475000D01*
X2625000Y-108375000D02*
X2625000Y-104475000D01*
X4625000Y-108375000D02*
X2625000Y-108375000D01*
%TO.C,D8*%
X130850000Y-70275000D02*
X130850000Y-66375000D01*
X128850000Y-70275000D02*
X128850000Y-66375000D01*
X130850000Y-70275000D02*
X128850000Y-70275000D01*
%TO.C,Y1*%
X278894421Y-93251402D02*
X282076402Y-90069421D01*
X282076402Y-90069421D02*
X285894779Y-93887798D01*
%TO.C,D38*%
X49875000Y-108375000D02*
X49875000Y-104475000D01*
X47875000Y-108375000D02*
X47875000Y-104475000D01*
X49875000Y-108375000D02*
X47875000Y-108375000D01*
%TO.C,C4*%
X274408578Y-112040000D02*
X273891422Y-112040000D01*
X274408578Y-113460000D02*
X273891422Y-113460000D01*
%TO.C,D28*%
X178475000Y-89325000D02*
X178475000Y-85425000D01*
X176475000Y-89325000D02*
X176475000Y-85425000D01*
X178475000Y-89325000D02*
X176475000Y-89325000D01*
%TO.C,D21*%
X45125000Y-89325000D02*
X45125000Y-85425000D01*
X43125000Y-89325000D02*
X43125000Y-85425000D01*
X45125000Y-89325000D02*
X43125000Y-89325000D01*
%TO.C,D37*%
X30825000Y-108375000D02*
X30825000Y-104475000D01*
X28825000Y-108375000D02*
X28825000Y-104475000D01*
X30825000Y-108375000D02*
X28825000Y-108375000D01*
%TO.C,D33*%
X288000000Y-89275000D02*
X288000000Y-85375000D01*
X286000000Y-89275000D02*
X286000000Y-85375000D01*
X288000000Y-89275000D02*
X286000000Y-89275000D01*
%TO.C,D55*%
X135575000Y-127425000D02*
X135575000Y-123525000D01*
X133575000Y-127425000D02*
X133575000Y-123525000D01*
X135575000Y-127425000D02*
X133575000Y-127425000D01*
%TO.C,D13*%
X226100000Y-70250000D02*
X226100000Y-66350000D01*
X224100000Y-70250000D02*
X224100000Y-66350000D01*
X226100000Y-70250000D02*
X224100000Y-70250000D01*
%TO.C,D35*%
X326100000Y-89275000D02*
X326100000Y-85375000D01*
X324100000Y-89275000D02*
X324100000Y-85375000D01*
X326100000Y-89275000D02*
X324100000Y-89275000D01*
%TO.C,D6*%
X92750000Y-70275000D02*
X92750000Y-66375000D01*
X90750000Y-70275000D02*
X90750000Y-66375000D01*
X92750000Y-70275000D02*
X90750000Y-70275000D01*
%TO.C,D44*%
X164200000Y-108375000D02*
X164200000Y-104475000D01*
X162200000Y-108375000D02*
X162200000Y-104475000D01*
X164200000Y-108375000D02*
X162200000Y-108375000D01*
%TO.C,D26*%
X140375000Y-89325000D02*
X140375000Y-85425000D01*
X138375000Y-89325000D02*
X138375000Y-85425000D01*
X140375000Y-89325000D02*
X138375000Y-89325000D01*
%TO.C,D12*%
X207050000Y-70250000D02*
X207050000Y-66350000D01*
X205050000Y-70250000D02*
X205050000Y-66350000D01*
X207050000Y-70250000D02*
X205050000Y-70250000D01*
%TO.C,D49*%
X9375000Y-127425000D02*
X9375000Y-123525000D01*
X7375000Y-127425000D02*
X7375000Y-123525000D01*
X9375000Y-127425000D02*
X7375000Y-127425000D01*
%TO.C,D10*%
X168950000Y-70275000D02*
X168950000Y-66375000D01*
X166950000Y-70275000D02*
X166950000Y-66375000D01*
X168950000Y-70275000D02*
X166950000Y-70275000D01*
%TO.C,U1*%
X269563657Y-102756337D02*
X269051005Y-102243684D01*
X279261627Y-102243684D02*
X278748974Y-102756337D01*
X278748974Y-101731032D02*
X279261627Y-102243684D01*
X274156316Y-97138373D02*
X273643663Y-97651026D01*
X274668968Y-97651026D02*
X274156316Y-97138373D01*
X274156316Y-107348995D02*
X274668968Y-106836343D01*
X273643663Y-106836343D02*
X274156316Y-107348995D01*
D10*
X267244347Y-101837098D02*
X266342786Y-100935537D01*
X274156316Y-109562239D02*
X273679019Y-109084942D01*
X281474871Y-102243684D02*
X280997574Y-101766387D01*
X274156316Y-94925129D02*
X274633613Y-95402426D01*
X266837761Y-102243684D02*
X267315058Y-102720981D01*
X274156316Y-94925129D02*
X273679019Y-95402426D01*
X281474871Y-102243684D02*
X280997574Y-102720981D01*
X274156316Y-109562239D02*
X274633613Y-109084942D01*
X266837761Y-102243684D02*
X267244347Y-101837098D01*
D11*
%TO.C,D69*%
X307050000Y-146425000D02*
X307050000Y-142525000D01*
X305050000Y-146425000D02*
X305050000Y-142525000D01*
X307050000Y-146425000D02*
X305050000Y-146425000D01*
%TO.C,D61*%
X264175000Y-127400000D02*
X264175000Y-123500000D01*
X262175000Y-127400000D02*
X262175000Y-123500000D01*
X264175000Y-127400000D02*
X262175000Y-127400000D01*
%TO.C,D4*%
X54650000Y-70275000D02*
X54650000Y-66375000D01*
X52650000Y-70275000D02*
X52650000Y-66375000D01*
X54650000Y-70275000D02*
X52650000Y-70275000D01*
%TO.C,D66*%
X211787125Y-146450000D02*
X211787125Y-142550000D01*
X209787125Y-146450000D02*
X209787125Y-142550000D01*
X211787125Y-146450000D02*
X209787125Y-146450000D01*
%TO.C,D18*%
X326100000Y-70225000D02*
X326100000Y-66325000D01*
X324100000Y-70225000D02*
X324100000Y-66325000D01*
X326100000Y-70225000D02*
X324100000Y-70225000D01*
%TO.C,R3*%
X264315000Y-84591422D02*
X264315000Y-85108578D01*
X265735000Y-84591422D02*
X265735000Y-85108578D01*
%TO.C,D34*%
X307050000Y-89275000D02*
X307050000Y-85375000D01*
X305050000Y-89275000D02*
X305050000Y-85375000D01*
X307050000Y-89275000D02*
X305050000Y-89275000D01*
%TO.C,D24*%
X102275000Y-89325000D02*
X102275000Y-85425000D01*
X100275000Y-89325000D02*
X100275000Y-85425000D01*
X102275000Y-89325000D02*
X100275000Y-89325000D01*
%TO.C,D5*%
X73700000Y-70275000D02*
X73700000Y-66375000D01*
X71700000Y-70275000D02*
X71700000Y-66375000D01*
X73700000Y-70275000D02*
X71700000Y-70275000D01*
%TO.C,G\u002A\u002A\u002A*%
G36*
X214715361Y-96157645D02*
G01*
X215057038Y-96256852D01*
X215465357Y-96447542D01*
X215856268Y-96696256D01*
X216189773Y-96977116D01*
X216242697Y-97041480D01*
X216425871Y-97264246D01*
X216443543Y-97293658D01*
X216580192Y-97560161D01*
X216737398Y-97920311D01*
X216901325Y-98339026D01*
X217058137Y-98781227D01*
X217194000Y-99211836D01*
X217217889Y-99292363D01*
X217323268Y-99602218D01*
X217426722Y-99795569D01*
X217547237Y-99889016D01*
X217703797Y-99899159D01*
X217915390Y-99842600D01*
X217916074Y-99842364D01*
X218223159Y-99696476D01*
X218423368Y-99498632D01*
X218522077Y-99234464D01*
X218524663Y-98889599D01*
X218436502Y-98449667D01*
X218370165Y-98150471D01*
X218302564Y-97614633D01*
X218285631Y-97061130D01*
X218319994Y-96538673D01*
X218406278Y-96095973D01*
X218457685Y-95930396D01*
X218736630Y-95274644D01*
X219105137Y-94719943D01*
X219559944Y-94270469D01*
X220097787Y-93930400D01*
X220492820Y-93736410D01*
X223980115Y-93717205D01*
X227467410Y-93697999D01*
X227467410Y-140060181D01*
X221528846Y-140060181D01*
X220647972Y-140060027D01*
X219698410Y-140059344D01*
X218872128Y-140057980D01*
X218160618Y-140055788D01*
X217555372Y-140052621D01*
X217047882Y-140048333D01*
X216629639Y-140042778D01*
X216292135Y-140035808D01*
X216026863Y-140027278D01*
X215825313Y-140017040D01*
X215678979Y-140004948D01*
X215579351Y-139990855D01*
X215517923Y-139974616D01*
X215486184Y-139956082D01*
X215377175Y-139897362D01*
X215171005Y-139862791D01*
X214849202Y-139852117D01*
X214825717Y-139851094D01*
X214662752Y-139833390D01*
X214374271Y-139794590D01*
X213967371Y-139735859D01*
X213449147Y-139658361D01*
X212826696Y-139563263D01*
X212107114Y-139451728D01*
X211297496Y-139324920D01*
X210404940Y-139184006D01*
X209436542Y-139030150D01*
X208399397Y-138864517D01*
X207300602Y-138688270D01*
X206147253Y-138502576D01*
X204946446Y-138308599D01*
X203705277Y-138107504D01*
X202430843Y-137900456D01*
X201130240Y-137688619D01*
X199810563Y-137473158D01*
X198478910Y-137255238D01*
X197142376Y-137036025D01*
X195808057Y-136816681D01*
X194483050Y-136598374D01*
X193174451Y-136382266D01*
X191889355Y-136169524D01*
X190634860Y-135961312D01*
X189418061Y-135758794D01*
X188246055Y-135563136D01*
X187125937Y-135375502D01*
X186064804Y-135197057D01*
X185069752Y-135028966D01*
X184147878Y-134872394D01*
X183306277Y-134728505D01*
X182552045Y-134598464D01*
X181892279Y-134483437D01*
X181334075Y-134384588D01*
X180884530Y-134303081D01*
X180550738Y-134240082D01*
X180339798Y-134196756D01*
X180258803Y-134174266D01*
X180229948Y-134147597D01*
X180141520Y-133986618D01*
X180182410Y-133823911D01*
X180345370Y-133672029D01*
X180623148Y-133543523D01*
X180732434Y-133516378D01*
X180966241Y-133467024D01*
X181308110Y-133398897D01*
X181743452Y-133314784D01*
X182257680Y-133217470D01*
X182836204Y-133109741D01*
X183464438Y-132994384D01*
X184127793Y-132874186D01*
X184778382Y-132756924D01*
X185400361Y-132644519D01*
X185970276Y-132541222D01*
X186474037Y-132449602D01*
X186897551Y-132372228D01*
X187226725Y-132311667D01*
X187447468Y-132270489D01*
X187545689Y-132251261D01*
X187600346Y-132235193D01*
X187642589Y-132201598D01*
X187671107Y-132131027D01*
X187688595Y-132003117D01*
X187697748Y-131797501D01*
X187701264Y-131493817D01*
X187701836Y-131071700D01*
X187701836Y-129927940D01*
X187337492Y-129927533D01*
X187290672Y-129927196D01*
X187089173Y-129924178D01*
X186772893Y-129918319D01*
X186358650Y-129909974D01*
X185863261Y-129899495D01*
X185303543Y-129887234D01*
X184696315Y-129873543D01*
X184058394Y-129858777D01*
X183267470Y-129839630D01*
X181134192Y-129781539D01*
X179126336Y-129717016D01*
X177245008Y-129646136D01*
X175491312Y-129568973D01*
X173866356Y-129485604D01*
X172371243Y-129396103D01*
X171007080Y-129300546D01*
X169774971Y-129199008D01*
X168676023Y-129091565D01*
X167711341Y-128978291D01*
X166882030Y-128859263D01*
X166189196Y-128734554D01*
X165633944Y-128604241D01*
X165598116Y-128594375D01*
X165419676Y-128542255D01*
X165253721Y-128485435D01*
X165081416Y-128414471D01*
X164883921Y-128319919D01*
X164642400Y-128192333D01*
X164338015Y-128022270D01*
X163951930Y-127800284D01*
X163465306Y-127516931D01*
X162581508Y-127000838D01*
X155762027Y-126270380D01*
X148942547Y-125539922D01*
X143355935Y-125793762D01*
X143002887Y-125809785D01*
X142146171Y-125848509D01*
X141331906Y-125885094D01*
X140570781Y-125919072D01*
X139873483Y-125949975D01*
X139250704Y-125977335D01*
X138713131Y-126000683D01*
X138271455Y-126019553D01*
X137936363Y-126033474D01*
X137718545Y-126041980D01*
X137628691Y-126044602D01*
X137541472Y-126059490D01*
X137506729Y-126136056D01*
X137513819Y-126311718D01*
X137519000Y-126383820D01*
X137504256Y-126541199D01*
X137430369Y-126687383D01*
X137275298Y-126874362D01*
X137133706Y-127035861D01*
X137067483Y-127137516D01*
X137074376Y-127202414D01*
X137143188Y-127263535D01*
X137241291Y-127321769D01*
X137366193Y-127360181D01*
X137414909Y-127379515D01*
X137457028Y-127483297D01*
X137449922Y-127509381D01*
X137418141Y-127536259D01*
X137350235Y-127561784D01*
X137234843Y-127587319D01*
X137060604Y-127614228D01*
X136816160Y-127643872D01*
X136490148Y-127677615D01*
X136071210Y-127716820D01*
X135547984Y-127762850D01*
X134909111Y-127817066D01*
X134143230Y-127880833D01*
X133772600Y-127911226D01*
X132745794Y-127991623D01*
X131828982Y-128056914D01*
X131001325Y-128108321D01*
X130241983Y-128147067D01*
X129530117Y-128174373D01*
X128844889Y-128191460D01*
X126860346Y-128227667D01*
X163058550Y-133943033D01*
X164554142Y-134179203D01*
X166756403Y-134527073D01*
X168922689Y-134869390D01*
X171048956Y-135205510D01*
X173131158Y-135534792D01*
X175165250Y-135856594D01*
X177147187Y-136170271D01*
X179072923Y-136475182D01*
X180938414Y-136770684D01*
X182739614Y-137056135D01*
X184472478Y-137330892D01*
X186132961Y-137594312D01*
X187717017Y-137845754D01*
X189220603Y-138084573D01*
X190639671Y-138310128D01*
X191970178Y-138521776D01*
X193208077Y-138718875D01*
X194349325Y-138900781D01*
X195389875Y-139066853D01*
X196325682Y-139216448D01*
X197152702Y-139348923D01*
X197866889Y-139463635D01*
X198464198Y-139559943D01*
X198940584Y-139637203D01*
X199292001Y-139694773D01*
X199514404Y-139732010D01*
X199603749Y-139748272D01*
X199605583Y-139748757D01*
X199624153Y-139758941D01*
X199598441Y-139768376D01*
X199523721Y-139777093D01*
X199395266Y-139785121D01*
X199208353Y-139792492D01*
X198958254Y-139799235D01*
X198640243Y-139805380D01*
X198249596Y-139810958D01*
X197781586Y-139815999D01*
X197231488Y-139820534D01*
X196594576Y-139824592D01*
X195866123Y-139828205D01*
X195041405Y-139831402D01*
X194115695Y-139834213D01*
X193084268Y-139836669D01*
X191942398Y-139838800D01*
X190685358Y-139840637D01*
X189308425Y-139842210D01*
X187806870Y-139843548D01*
X186175970Y-139844683D01*
X184410997Y-139845645D01*
X168871252Y-139853144D01*
X144139904Y-135508620D01*
X143972038Y-135479133D01*
X142143468Y-135158115D01*
X140349957Y-134843593D01*
X138596345Y-134536405D01*
X136887472Y-134237389D01*
X135228178Y-133947382D01*
X133623301Y-133667223D01*
X132077682Y-133397749D01*
X130596160Y-133139798D01*
X129183574Y-132894208D01*
X127844766Y-132661816D01*
X126584573Y-132443462D01*
X125407835Y-132239981D01*
X124319393Y-132052213D01*
X123324086Y-131880994D01*
X122426753Y-131727163D01*
X121632233Y-131591558D01*
X120945368Y-131475017D01*
X120370996Y-131378376D01*
X119913956Y-131302475D01*
X119579089Y-131248150D01*
X119371234Y-131216240D01*
X119295231Y-131207583D01*
X119237760Y-131243287D01*
X119247948Y-131317112D01*
X119300723Y-131329835D01*
X119485240Y-131366238D01*
X119797456Y-131424970D01*
X120232487Y-131505165D01*
X120785449Y-131605952D01*
X121451459Y-131726464D01*
X122225634Y-131865832D01*
X123103089Y-132023189D01*
X124078941Y-132197666D01*
X125148307Y-132388394D01*
X126306302Y-132594505D01*
X127548044Y-132815131D01*
X128868649Y-133049404D01*
X130263233Y-133296455D01*
X131726912Y-133555416D01*
X133254804Y-133825419D01*
X134842023Y-134105595D01*
X136483688Y-134395076D01*
X138174913Y-134692993D01*
X139910816Y-134998479D01*
X141686514Y-135310665D01*
X143497121Y-135628683D01*
X145040590Y-135899753D01*
X146821093Y-136212710D01*
X148562311Y-136519038D01*
X150259373Y-136817870D01*
X151907407Y-137108342D01*
X153501542Y-137389588D01*
X155036906Y-137660742D01*
X156508627Y-137920940D01*
X157911833Y-138169315D01*
X159241653Y-138405003D01*
X160493215Y-138627137D01*
X161661648Y-138834853D01*
X162742080Y-139027286D01*
X163729639Y-139203568D01*
X164619453Y-139362836D01*
X165406651Y-139504223D01*
X166086361Y-139626865D01*
X166653712Y-139729896D01*
X167103831Y-139812450D01*
X167431847Y-139873662D01*
X167632889Y-139912666D01*
X167702085Y-139928598D01*
X167722091Y-139949085D01*
X167819318Y-139946376D01*
X167894495Y-139938501D01*
X168040381Y-139982864D01*
X168039370Y-139983752D01*
X167971320Y-139987688D01*
X167798637Y-139991507D01*
X167520396Y-139995209D01*
X167135675Y-139998797D01*
X166643551Y-140002270D01*
X166043099Y-140005629D01*
X165333397Y-140008875D01*
X164513522Y-140012010D01*
X163582549Y-140015033D01*
X162539556Y-140017946D01*
X161383619Y-140020749D01*
X160113815Y-140023444D01*
X158729220Y-140026031D01*
X157228911Y-140028511D01*
X155611966Y-140030885D01*
X153877459Y-140033153D01*
X152024469Y-140035317D01*
X150052071Y-140037377D01*
X147959343Y-140039334D01*
X145745361Y-140041189D01*
X143409201Y-140042943D01*
X140949941Y-140044596D01*
X138366656Y-140046150D01*
X135658425Y-140047605D01*
X132824322Y-140048962D01*
X129863425Y-140050222D01*
X126774811Y-140051386D01*
X123557556Y-140052454D01*
X120210736Y-140053428D01*
X116733429Y-140054308D01*
X113124711Y-140055095D01*
X109383659Y-140055790D01*
X105509349Y-140056393D01*
X101500858Y-140056906D01*
X97357263Y-140057330D01*
X93077640Y-140057664D01*
X88661066Y-140057911D01*
X84106618Y-140058070D01*
X47191Y-140060181D01*
X47191Y-132714752D01*
X12757828Y-132714752D01*
X12856966Y-132800570D01*
X12913980Y-132820547D01*
X12978414Y-132833363D01*
X13046612Y-132830368D01*
X13244638Y-132824012D01*
X13563466Y-132814555D01*
X13994077Y-132802242D01*
X14527455Y-132787322D01*
X15154581Y-132770040D01*
X15866438Y-132750645D01*
X16654008Y-132729383D01*
X17508275Y-132706501D01*
X18420219Y-132682245D01*
X19380824Y-132656864D01*
X20381071Y-132630604D01*
X21360477Y-132604945D01*
X22325088Y-132579616D01*
X23242349Y-132555475D01*
X24103119Y-132532765D01*
X24898257Y-132511727D01*
X25618625Y-132492606D01*
X26255082Y-132475645D01*
X26798488Y-132461086D01*
X27239703Y-132449173D01*
X27569587Y-132440149D01*
X27779001Y-132434256D01*
X27858803Y-132431739D01*
X27910915Y-132398771D01*
X27945552Y-132279182D01*
X27943545Y-132233693D01*
X27922067Y-132186335D01*
X27857264Y-132159895D01*
X27725327Y-132151164D01*
X27502447Y-132156937D01*
X27164814Y-132174004D01*
X27133884Y-132175540D01*
X26920517Y-132183754D01*
X26582003Y-132194536D01*
X26129361Y-132207608D01*
X25573608Y-132222693D01*
X24925764Y-132239512D01*
X24196846Y-132257790D01*
X23397872Y-132277249D01*
X22539861Y-132297611D01*
X21633830Y-132318599D01*
X20690797Y-132339935D01*
X19721782Y-132361343D01*
X19379225Y-132368855D01*
X18438906Y-132389846D01*
X17539572Y-132410457D01*
X16691003Y-132430436D01*
X15902977Y-132449531D01*
X15185270Y-132467489D01*
X14547663Y-132484059D01*
X13999932Y-132498987D01*
X13551856Y-132512021D01*
X13213213Y-132522910D01*
X12993781Y-132531401D01*
X12903339Y-132537242D01*
X12891510Y-132539791D01*
X12772201Y-132611595D01*
X12757828Y-132714752D01*
X47191Y-132714752D01*
X47191Y-132027257D01*
X42936779Y-132027257D01*
X42936800Y-132029458D01*
X42942212Y-132041778D01*
X42964052Y-132051789D01*
X43012514Y-132059357D01*
X43097790Y-132064348D01*
X43230074Y-132066627D01*
X43419558Y-132066062D01*
X43676436Y-132062518D01*
X44010899Y-132055862D01*
X44433140Y-132045959D01*
X44953353Y-132032676D01*
X45581731Y-132015878D01*
X46328465Y-131995432D01*
X47203749Y-131971205D01*
X47674833Y-131958150D01*
X48308724Y-131940637D01*
X48897709Y-131924425D01*
X49426147Y-131909941D01*
X49878399Y-131897613D01*
X50238826Y-131887867D01*
X50491788Y-131881131D01*
X50621645Y-131877832D01*
X50697754Y-131874514D01*
X50864527Y-131841770D01*
X50916590Y-131771107D01*
X50911612Y-131728464D01*
X50855931Y-131633615D01*
X50817985Y-131629730D01*
X50653685Y-131627092D01*
X50371799Y-131628089D01*
X49985017Y-131632511D01*
X49506029Y-131640148D01*
X48947523Y-131650791D01*
X48322190Y-131664230D01*
X47642719Y-131680255D01*
X46921800Y-131698657D01*
X46331094Y-131714388D01*
X45576737Y-131735117D01*
X44943342Y-131753912D01*
X44420336Y-131771645D01*
X43997151Y-131789187D01*
X43663216Y-131807410D01*
X43407961Y-131827186D01*
X43220815Y-131849386D01*
X43091209Y-131874883D01*
X43008573Y-131904546D01*
X42962336Y-131939249D01*
X42941928Y-131979862D01*
X42936779Y-132027257D01*
X47191Y-132027257D01*
X47191Y-66705536D01*
X12816590Y-66705536D01*
X12816590Y-131871110D01*
X13632028Y-131861437D01*
X13745416Y-131859636D01*
X14010053Y-131854314D01*
X14383563Y-131846043D01*
X14854153Y-131835129D01*
X15410032Y-131821874D01*
X16039408Y-131806582D01*
X16730489Y-131789555D01*
X17471484Y-131771099D01*
X18250600Y-131751515D01*
X19056046Y-131731107D01*
X19876030Y-131710179D01*
X20698759Y-131689034D01*
X21512444Y-131667976D01*
X22305290Y-131647307D01*
X23065508Y-131627331D01*
X23781304Y-131608352D01*
X24440887Y-131590673D01*
X24890054Y-131578467D01*
X53217018Y-131578467D01*
X53230702Y-131694619D01*
X53298342Y-131762938D01*
X53344169Y-131771107D01*
X53464822Y-131792614D01*
X53486334Y-131791724D01*
X53634339Y-131786222D01*
X53906111Y-131776447D01*
X54290812Y-131762778D01*
X54777605Y-131745596D01*
X55355652Y-131725282D01*
X56014114Y-131702216D01*
X56742154Y-131676778D01*
X57528935Y-131649350D01*
X58363618Y-131620311D01*
X59235365Y-131590042D01*
X59312997Y-131587345D01*
X60451782Y-131546817D01*
X61464404Y-131508863D01*
X62349288Y-131473558D01*
X63104859Y-131440977D01*
X63729543Y-131411194D01*
X64221764Y-131384284D01*
X64579948Y-131360323D01*
X64802520Y-131339384D01*
X64887906Y-131321543D01*
X64918254Y-131279083D01*
X64896767Y-131180358D01*
X64890025Y-131178101D01*
X64780293Y-131172244D01*
X64547450Y-131171126D01*
X64203960Y-131174357D01*
X63762288Y-131181548D01*
X63234898Y-131192311D01*
X62634255Y-131206256D01*
X61972824Y-131222994D01*
X61263068Y-131242135D01*
X60517453Y-131263291D01*
X59748442Y-131286073D01*
X58968501Y-131310090D01*
X58190094Y-131334955D01*
X57425685Y-131360277D01*
X56687739Y-131385667D01*
X55988721Y-131410738D01*
X55341094Y-131435098D01*
X54757324Y-131458359D01*
X54249875Y-131480132D01*
X53831211Y-131500028D01*
X53513797Y-131517657D01*
X53310098Y-131532630D01*
X53232577Y-131544558D01*
X53217018Y-131578467D01*
X24890054Y-131578467D01*
X25032466Y-131574597D01*
X25544248Y-131560428D01*
X25964441Y-131548469D01*
X26281255Y-131539023D01*
X26482896Y-131532394D01*
X26557574Y-131528886D01*
X26546167Y-131515791D01*
X26443028Y-131451370D01*
X26255990Y-131346099D01*
X26009842Y-131214221D01*
X25555497Y-130944170D01*
X25112723Y-130582773D01*
X24793282Y-130181045D01*
X24589631Y-129729045D01*
X24494224Y-129216830D01*
X24490026Y-128981087D01*
X24529071Y-128705669D01*
X24623904Y-128422479D01*
X24782938Y-128117931D01*
X25014586Y-127778438D01*
X25327259Y-127390412D01*
X25729370Y-126940268D01*
X26229331Y-126414417D01*
X26567203Y-126075978D01*
X27084399Y-125597044D01*
X27565084Y-125200235D01*
X28001451Y-124890361D01*
X28385693Y-124672232D01*
X28710004Y-124550657D01*
X28966577Y-124530446D01*
X29147605Y-124616410D01*
X29207838Y-124709966D01*
X29266928Y-124929917D01*
X29282130Y-125191002D01*
X29251927Y-125437546D01*
X29174801Y-125613877D01*
X29163686Y-125625650D01*
X29057098Y-125717682D01*
X28867469Y-125869114D01*
X28617802Y-126061843D01*
X28331103Y-126277768D01*
X28264973Y-126327239D01*
X27681950Y-126785809D01*
X27152592Y-127242251D01*
X26687772Y-127684989D01*
X26298368Y-128102449D01*
X25995254Y-128483055D01*
X25789305Y-128815231D01*
X25691397Y-129087402D01*
X25680337Y-129288104D01*
X25768630Y-129620842D01*
X25989714Y-129935108D01*
X26340198Y-130227663D01*
X26816693Y-130495268D01*
X27415805Y-130734682D01*
X27616139Y-130799924D01*
X27915611Y-130879269D01*
X28094492Y-130895033D01*
X28154492Y-130847476D01*
X28154745Y-130836242D01*
X28167001Y-130662304D01*
X28194075Y-130394229D01*
X28231751Y-130065182D01*
X28275815Y-129708329D01*
X28322053Y-129356835D01*
X28366250Y-129043865D01*
X28404194Y-128802583D01*
X28431668Y-128666156D01*
X28485603Y-128514202D01*
X28703145Y-128128845D01*
X29037551Y-127721399D01*
X29477982Y-127305953D01*
X29733656Y-127098635D01*
X30101807Y-126840241D01*
X30474533Y-126636321D01*
X30874073Y-126480253D01*
X31322667Y-126365414D01*
X31842555Y-126285183D01*
X32455976Y-126232936D01*
X33185170Y-126202052D01*
X34035923Y-126195175D01*
X35130002Y-126244721D01*
X36219769Y-126366323D01*
X37363320Y-126565028D01*
X38210323Y-126735124D01*
X38511845Y-126531630D01*
X38614352Y-126466584D01*
X38850538Y-126336958D01*
X39100479Y-126219471D01*
X39330516Y-126128140D01*
X39506990Y-126076984D01*
X39596242Y-126080019D01*
X39608787Y-126106598D01*
X39630626Y-126242388D01*
X39639268Y-126442019D01*
X39639268Y-126760514D01*
X40090361Y-126847141D01*
X40296538Y-126891812D01*
X40644607Y-126982278D01*
X40951362Y-127077575D01*
X41132329Y-127134097D01*
X41338637Y-127177540D01*
X41583421Y-127204233D01*
X41900074Y-127217679D01*
X42321990Y-127221383D01*
X42692909Y-127222541D01*
X42962090Y-127228039D01*
X43134341Y-127240755D01*
X43230982Y-127263563D01*
X43273332Y-127299339D01*
X43282711Y-127350959D01*
X43273639Y-127391580D01*
X43178354Y-127523166D01*
X43006801Y-127663123D01*
X42980685Y-127680599D01*
X42724060Y-127888102D01*
X42581433Y-128099832D01*
X42549247Y-128338855D01*
X42623942Y-128628240D01*
X42801962Y-128991055D01*
X42929216Y-129272183D01*
X43057790Y-129732253D01*
X43126622Y-130235824D01*
X43126228Y-130731984D01*
X43091041Y-131170345D01*
X43273624Y-131142220D01*
X43309532Y-131138700D01*
X43480207Y-131129791D01*
X43762722Y-131119569D01*
X44138631Y-131108552D01*
X44589490Y-131097255D01*
X45096852Y-131086195D01*
X45642273Y-131075889D01*
X45649978Y-131075754D01*
X46281614Y-131064012D01*
X46951286Y-131050359D01*
X47623631Y-131035599D01*
X48263285Y-131020536D01*
X48834885Y-131005972D01*
X49303066Y-130992711D01*
X50777793Y-130947739D01*
X50777793Y-81639328D01*
X53345552Y-81639328D01*
X53345552Y-130968924D01*
X53675197Y-130959599D01*
X53739138Y-130957762D01*
X54038478Y-130948761D01*
X54439617Y-130936250D01*
X54929896Y-130920653D01*
X55496655Y-130902392D01*
X56127236Y-130881892D01*
X56808979Y-130859574D01*
X57529225Y-130835863D01*
X58275315Y-130811181D01*
X59034590Y-130785951D01*
X59794391Y-130760596D01*
X60542059Y-130735540D01*
X61264935Y-130711205D01*
X61950360Y-130688015D01*
X62585674Y-130666392D01*
X63158219Y-130646760D01*
X63655335Y-130629542D01*
X64064364Y-130615161D01*
X64372646Y-130604040D01*
X64567522Y-130596601D01*
X64636334Y-130593269D01*
X64636442Y-130593154D01*
X64621879Y-130524647D01*
X64573820Y-130350139D01*
X64499676Y-130095662D01*
X64406858Y-129787249D01*
X64267298Y-129320278D01*
X63855533Y-127828443D01*
X63462909Y-126236564D01*
X63095219Y-124573403D01*
X62758253Y-122867719D01*
X62457802Y-121148272D01*
X62199659Y-119443823D01*
X61989615Y-117783132D01*
X61960209Y-117512816D01*
X61909260Y-117002508D01*
X61858645Y-116449019D01*
X61810354Y-115878242D01*
X61766377Y-115316069D01*
X61728706Y-114788391D01*
X61703343Y-114384916D01*
X62300964Y-114384916D01*
X62314976Y-114771554D01*
X62349866Y-115278303D01*
X62405697Y-115913707D01*
X62488577Y-116722960D01*
X62676514Y-118257134D01*
X62910746Y-119874971D01*
X63186225Y-121548144D01*
X63497906Y-123248326D01*
X63840740Y-124947192D01*
X64209681Y-126616414D01*
X64599683Y-128227667D01*
X64633635Y-128364809D01*
X64715943Y-128711357D01*
X64821224Y-129167500D01*
X64945698Y-129716319D01*
X65085584Y-130340895D01*
X65237103Y-131024309D01*
X65293083Y-131279083D01*
X65396475Y-131749640D01*
X65511824Y-132279182D01*
X65559918Y-132499970D01*
X65723653Y-133258378D01*
X65867946Y-133928396D01*
X66029914Y-134675163D01*
X66167841Y-135303113D01*
X66284076Y-135821852D01*
X66380964Y-136240983D01*
X66460855Y-136570112D01*
X66526094Y-136818841D01*
X66579030Y-136996776D01*
X66622010Y-137113520D01*
X66657382Y-137178679D01*
X66687492Y-137201855D01*
X66753952Y-137201518D01*
X66808940Y-137145770D01*
X66805164Y-137113293D01*
X66776567Y-136954276D01*
X66722511Y-136681431D01*
X66646119Y-136309144D01*
X66550512Y-135851806D01*
X66438812Y-135323804D01*
X66314141Y-134739527D01*
X66179620Y-134113363D01*
X66038371Y-133459702D01*
X65893516Y-132792931D01*
X65748176Y-132127440D01*
X65605474Y-131477616D01*
X65468531Y-130857849D01*
X65340469Y-130282527D01*
X65224410Y-129766038D01*
X65123474Y-129322772D01*
X65040785Y-128967116D01*
X64979464Y-128713459D01*
X64635779Y-127294094D01*
X64296347Y-125790979D01*
X63978159Y-124277385D01*
X63700884Y-122856228D01*
X93374681Y-122856228D01*
X93387569Y-122860533D01*
X93511509Y-122886025D01*
X93756690Y-122930442D01*
X94111587Y-122991863D01*
X94564676Y-123068369D01*
X95104432Y-123158041D01*
X95719332Y-123258959D01*
X96397851Y-123369202D01*
X97128466Y-123486853D01*
X97899650Y-123609990D01*
X98169160Y-123652855D01*
X98934193Y-123774649D01*
X99658478Y-123890124D01*
X100329973Y-123997351D01*
X100936636Y-124094399D01*
X101466427Y-124179340D01*
X101907302Y-124250242D01*
X102247221Y-124305177D01*
X102474141Y-124342214D01*
X102576021Y-124359424D01*
X102712770Y-124367805D01*
X102749519Y-124326669D01*
X102701500Y-124258411D01*
X102576436Y-124097400D01*
X102386279Y-123858717D01*
X102142862Y-123557104D01*
X101858016Y-123207303D01*
X101559791Y-122843824D01*
X108291447Y-122843824D01*
X108296455Y-122927770D01*
X108309293Y-122936325D01*
X108444503Y-122985932D01*
X108713427Y-123060835D01*
X109113952Y-123160571D01*
X109643965Y-123284675D01*
X110301356Y-123432683D01*
X111084012Y-123604132D01*
X111989821Y-123798557D01*
X113016672Y-124015494D01*
X114162452Y-124254479D01*
X114512252Y-124326669D01*
X115425050Y-124515048D01*
X116802354Y-124796737D01*
X117282258Y-124894254D01*
X117884862Y-125015990D01*
X118435903Y-125126510D01*
X118921314Y-125223035D01*
X119327027Y-125302786D01*
X119638974Y-125362984D01*
X119843089Y-125400851D01*
X119925304Y-125413608D01*
X119950527Y-125407961D01*
X120078094Y-125346059D01*
X120246099Y-125238677D01*
X120270738Y-125221529D01*
X120715862Y-124977477D01*
X121274841Y-124779255D01*
X121952319Y-124625794D01*
X122752939Y-124516028D01*
X123681344Y-124448888D01*
X123948175Y-124434676D01*
X129857847Y-124434676D01*
X132876700Y-124434572D01*
X135895552Y-124434469D01*
X135496508Y-124295367D01*
X135377787Y-124251712D01*
X135164795Y-124151016D01*
X135088364Y-124069776D01*
X135147651Y-124009628D01*
X135341813Y-123972204D01*
X135670006Y-123959139D01*
X135704301Y-123958916D01*
X135890679Y-123956240D01*
X136204000Y-123950681D01*
X136635570Y-123942422D01*
X137176693Y-123931646D01*
X137818674Y-123918536D01*
X138552818Y-123903275D01*
X139370430Y-123886045D01*
X140262814Y-123867029D01*
X141221277Y-123846411D01*
X142237122Y-123824373D01*
X143301654Y-123801098D01*
X144406178Y-123776768D01*
X145542000Y-123751567D01*
X145968552Y-123742072D01*
X147091448Y-123717103D01*
X148178680Y-123692967D01*
X149221657Y-123669852D01*
X150211788Y-123647948D01*
X151140481Y-123627443D01*
X151999144Y-123608527D01*
X152779185Y-123591387D01*
X153472013Y-123576213D01*
X154069036Y-123563194D01*
X154561662Y-123552519D01*
X154941301Y-123544377D01*
X155199359Y-123538956D01*
X155327246Y-123536445D01*
X155344403Y-123529862D01*
X155239173Y-123511168D01*
X155014096Y-123481469D01*
X154678730Y-123441807D01*
X154242632Y-123393221D01*
X153715362Y-123336752D01*
X153106477Y-123273442D01*
X152425536Y-123204330D01*
X151682096Y-123130458D01*
X151288899Y-123092148D01*
X173960853Y-123092148D01*
X173995552Y-123126847D01*
X174030252Y-123092148D01*
X173995552Y-123057448D01*
X173960853Y-123092148D01*
X151288899Y-123092148D01*
X150885716Y-123052865D01*
X145958394Y-122577331D01*
X133119596Y-123554679D01*
X131488722Y-123994677D01*
X130510462Y-124258605D01*
X129857847Y-124434676D01*
X123948175Y-124434676D01*
X124103426Y-124426407D01*
X124490223Y-124400384D01*
X124813648Y-124373079D01*
X125048591Y-124346614D01*
X125169941Y-124323110D01*
X125339957Y-124258605D01*
X125169941Y-124149289D01*
X125043800Y-124078265D01*
X124884391Y-124012576D01*
X124684196Y-123954258D01*
X124429244Y-123901165D01*
X124105562Y-123851155D01*
X123699180Y-123802085D01*
X123196125Y-123751811D01*
X122582425Y-123698190D01*
X121844110Y-123639078D01*
X119382285Y-123447791D01*
X116098963Y-121391875D01*
X108603075Y-121391875D01*
X108556616Y-121756219D01*
X108534840Y-121892998D01*
X108465171Y-122207991D01*
X108379441Y-122502257D01*
X108327644Y-122671625D01*
X108291447Y-122843824D01*
X101559791Y-122843824D01*
X101543574Y-122824059D01*
X100364273Y-121391875D01*
X94090954Y-121391875D01*
X93708447Y-122103053D01*
X93568111Y-122373776D01*
X93454644Y-122613097D01*
X93386394Y-122782430D01*
X93374681Y-122856228D01*
X63700884Y-122856228D01*
X63684258Y-122771011D01*
X63417684Y-121289554D01*
X63314858Y-120663186D01*
X95298358Y-120663186D01*
X97275644Y-120743049D01*
X97544654Y-120753936D01*
X98173937Y-120779422D01*
X98681908Y-120799512D01*
X99081222Y-120814071D01*
X99384535Y-120822964D01*
X99604503Y-120826057D01*
X99753780Y-120823214D01*
X99845024Y-120814300D01*
X99890890Y-120799180D01*
X99904033Y-120777719D01*
X99897109Y-120749783D01*
X99882773Y-120715235D01*
X99844389Y-120620493D01*
X99760140Y-120422206D01*
X99644644Y-120155147D01*
X99511004Y-119849818D01*
X99183530Y-119105849D01*
X98648958Y-119103780D01*
X98114387Y-119101711D01*
X98149474Y-118772066D01*
X98155197Y-118711517D01*
X98153308Y-118506732D01*
X98099034Y-118319754D01*
X97976225Y-118086695D01*
X97885806Y-117948208D01*
X97690174Y-117704278D01*
X97495696Y-117515388D01*
X97223504Y-117299807D01*
X97144013Y-117919644D01*
X97091271Y-118269276D01*
X96959807Y-118856468D01*
X96790161Y-119341063D01*
X96587534Y-119706366D01*
X96576886Y-119720634D01*
X96398379Y-119907550D01*
X96139739Y-120120178D01*
X95841334Y-120325048D01*
X95298358Y-120663186D01*
X63314858Y-120663186D01*
X63181479Y-119850710D01*
X62978685Y-118472179D01*
X62812343Y-117171656D01*
X62685495Y-115966840D01*
X62601183Y-114875428D01*
X62553489Y-114084391D01*
X62720695Y-114122716D01*
X62800122Y-114138207D01*
X63021926Y-114175279D01*
X63356826Y-114227544D01*
X63793435Y-114293415D01*
X64320368Y-114371305D01*
X64926239Y-114459625D01*
X65599663Y-114556789D01*
X66329254Y-114661209D01*
X67103627Y-114771297D01*
X67911395Y-114885466D01*
X68741174Y-115002127D01*
X69581577Y-115119694D01*
X70421220Y-115236579D01*
X71248716Y-115351195D01*
X72052680Y-115461953D01*
X72821727Y-115567266D01*
X73544470Y-115665547D01*
X74209525Y-115755208D01*
X74805505Y-115834662D01*
X75321025Y-115902321D01*
X75744699Y-115956597D01*
X76065143Y-115995902D01*
X76270969Y-116018650D01*
X76350793Y-116023253D01*
X76431159Y-115971497D01*
X76400487Y-115896099D01*
X76382174Y-115889376D01*
X76246835Y-115861118D01*
X75990263Y-115815975D01*
X75623681Y-115755578D01*
X75158314Y-115681563D01*
X74605385Y-115595563D01*
X73976118Y-115499211D01*
X73281736Y-115394140D01*
X72533463Y-115281985D01*
X71742523Y-115164378D01*
X70920139Y-115042954D01*
X70077535Y-114919347D01*
X69225935Y-114795188D01*
X68376562Y-114672113D01*
X67540639Y-114551755D01*
X66729392Y-114435747D01*
X65954042Y-114325722D01*
X65225814Y-114223316D01*
X64555932Y-114130160D01*
X63955619Y-114047889D01*
X63436099Y-113978136D01*
X63008595Y-113922534D01*
X62684332Y-113882718D01*
X62474532Y-113860321D01*
X62390420Y-113856976D01*
X62383566Y-113860219D01*
X62335323Y-113937793D01*
X62307768Y-114109844D01*
X62300964Y-114384916D01*
X61703343Y-114384916D01*
X61699331Y-114321100D01*
X61680244Y-113940088D01*
X61673435Y-113671246D01*
X61673421Y-113202804D01*
X63480496Y-113202804D01*
X63737034Y-113203336D01*
X64288152Y-113206855D01*
X64935228Y-113213353D01*
X65658700Y-113222466D01*
X66439005Y-113233826D01*
X67256580Y-113247069D01*
X68091864Y-113261829D01*
X68925294Y-113277739D01*
X69737308Y-113294435D01*
X70508343Y-113311550D01*
X71218837Y-113328718D01*
X71849227Y-113345575D01*
X72379951Y-113361754D01*
X72791447Y-113376889D01*
X73742534Y-113416796D01*
X73572096Y-112915688D01*
X73523841Y-112769797D01*
X73444770Y-112484410D01*
X104561946Y-112484410D01*
X104574234Y-112495767D01*
X104668222Y-112508815D01*
X104685180Y-112508969D01*
X104727106Y-112505575D01*
X104762158Y-112481634D01*
X104797262Y-112418172D01*
X104839343Y-112296213D01*
X104895326Y-112096784D01*
X104972137Y-111800908D01*
X105076702Y-111389612D01*
X105277983Y-110638745D01*
X105504701Y-109877622D01*
X105737753Y-109174289D01*
X105971252Y-108544561D01*
X106199311Y-108004252D01*
X106416044Y-107569176D01*
X106615566Y-107255148D01*
X106636594Y-107228603D01*
X106804823Y-107059391D01*
X106974572Y-106941918D01*
X106992331Y-106933330D01*
X107113346Y-106866177D01*
X107163012Y-106811529D01*
X107130153Y-106765574D01*
X107003591Y-106724500D01*
X106772151Y-106684495D01*
X106424654Y-106641747D01*
X105949924Y-106592444D01*
X105915885Y-106589742D01*
X105835464Y-106601233D01*
X105780791Y-106664722D01*
X105735817Y-106808535D01*
X105684497Y-107061000D01*
X105656459Y-107203988D01*
X105599829Y-107484331D01*
X105521908Y-107864987D01*
X105426694Y-108326590D01*
X105318182Y-108849771D01*
X105200371Y-109415163D01*
X105077257Y-110003400D01*
X104961396Y-110556360D01*
X104852599Y-111076851D01*
X104756448Y-111538107D01*
X104676126Y-111924810D01*
X104614814Y-112221641D01*
X104575693Y-112413281D01*
X104561946Y-112484410D01*
X73444770Y-112484410D01*
X73359020Y-112174919D01*
X73249654Y-111574069D01*
X73189504Y-110924621D01*
X73179382Y-110487995D01*
X75121773Y-110487995D01*
X75125436Y-110835687D01*
X75135846Y-111086137D01*
X75171508Y-111571929D01*
X75266563Y-111155536D01*
X75278845Y-111102988D01*
X75374951Y-110737926D01*
X75502213Y-110307939D01*
X75649447Y-109846191D01*
X75805469Y-109385847D01*
X75959094Y-108960070D01*
X76099138Y-108602027D01*
X76214417Y-108344880D01*
X76218296Y-108337299D01*
X76335787Y-108134070D01*
X76518789Y-107847576D01*
X76749830Y-107503838D01*
X77011441Y-107128875D01*
X77286151Y-106748705D01*
X77642139Y-106255981D01*
X77993089Y-105742603D01*
X78205748Y-105400126D01*
X101520101Y-105400126D01*
X101537628Y-105468795D01*
X101607851Y-105640415D01*
X101720813Y-105894186D01*
X101866557Y-106209311D01*
X102035126Y-106564989D01*
X102216562Y-106940421D01*
X102400910Y-107314808D01*
X102578213Y-107667351D01*
X102738513Y-107977250D01*
X102871853Y-108223706D01*
X102986271Y-108431193D01*
X103124913Y-108705434D01*
X103212134Y-108926558D01*
X103262499Y-109134398D01*
X103290574Y-109368788D01*
X103297994Y-109614876D01*
X103288765Y-109969410D01*
X103265008Y-110373075D01*
X103230065Y-110780284D01*
X103187277Y-111145454D01*
X103139985Y-111422998D01*
X103135431Y-111462887D01*
X103169356Y-111569418D01*
X103283557Y-111701852D01*
X103496619Y-111884224D01*
X103507180Y-111892683D01*
X103710599Y-112053157D01*
X103876190Y-112179562D01*
X103968994Y-112245184D01*
X103990156Y-112231849D01*
X104034681Y-112133992D01*
X104098476Y-111938259D01*
X104183227Y-111638353D01*
X104290620Y-111227979D01*
X104422341Y-110700842D01*
X104580077Y-110050644D01*
X104765514Y-109271092D01*
X104848957Y-108917129D01*
X105007285Y-108240612D01*
X105135751Y-107682661D01*
X105236570Y-107232159D01*
X105311957Y-106877992D01*
X105364129Y-106609043D01*
X105395300Y-106414196D01*
X105407686Y-106282335D01*
X105403502Y-106202344D01*
X105384965Y-106163107D01*
X105383465Y-106161773D01*
X105285338Y-106091029D01*
X105095221Y-105966421D01*
X104834065Y-105800718D01*
X104522824Y-105606690D01*
X104182450Y-105397104D01*
X103833897Y-105184729D01*
X103498116Y-104982335D01*
X103196060Y-104802691D01*
X102948683Y-104658564D01*
X102776937Y-104562724D01*
X102701774Y-104527940D01*
X102682654Y-104533632D01*
X102585368Y-104612737D01*
X102461861Y-104755265D01*
X102444159Y-104774297D01*
X102364940Y-104859467D01*
X102153374Y-105031966D01*
X101915783Y-105182290D01*
X101743744Y-105275114D01*
X101588704Y-105360292D01*
X101520149Y-105400086D01*
X101520101Y-105400126D01*
X78205748Y-105400126D01*
X78251685Y-105326147D01*
X78419304Y-105004186D01*
X78497325Y-104774297D01*
X78487124Y-104634054D01*
X78486244Y-104632506D01*
X78443999Y-104598304D01*
X78370340Y-104615081D01*
X78247925Y-104693949D01*
X78059412Y-104846024D01*
X77787457Y-105082417D01*
X77412573Y-105426757D01*
X76768083Y-106088174D01*
X76206171Y-106759758D01*
X75742639Y-107421891D01*
X75393286Y-108054957D01*
X75371725Y-108101186D01*
X75292748Y-108281767D01*
X75236804Y-108445953D01*
X75198628Y-108624775D01*
X75172958Y-108849263D01*
X75154527Y-109150448D01*
X75138073Y-109559361D01*
X75134445Y-109666451D01*
X75124796Y-110084453D01*
X75121773Y-110487995D01*
X73179382Y-110487995D01*
X73172333Y-110183951D01*
X73184562Y-109599227D01*
X73226698Y-109046678D01*
X73306731Y-108534302D01*
X73432731Y-108011586D01*
X73612773Y-107428017D01*
X73737448Y-107074943D01*
X74013171Y-106422128D01*
X74338913Y-105811487D01*
X74723928Y-105234035D01*
X75177469Y-104680788D01*
X75708788Y-104142761D01*
X76327140Y-103610972D01*
X77041778Y-103076436D01*
X77861954Y-102530169D01*
X78573055Y-102098944D01*
X96339252Y-102098944D01*
X96388382Y-102176376D01*
X96546244Y-102258770D01*
X96823967Y-102366590D01*
X97064341Y-102446734D01*
X97433471Y-102527634D01*
X97737750Y-102539324D01*
X97958599Y-102481965D01*
X98077439Y-102355717D01*
X98081416Y-102304945D01*
X98048714Y-102144404D01*
X97975475Y-101940471D01*
X97937363Y-101846610D01*
X97848429Y-101590078D01*
X97791358Y-101372338D01*
X97785132Y-101341165D01*
X97738544Y-101176933D01*
X97690879Y-101092339D01*
X97625291Y-101105175D01*
X97471196Y-101185501D01*
X97259164Y-101318862D01*
X97016287Y-101487172D01*
X96769659Y-101672347D01*
X96546372Y-101856303D01*
X96522657Y-101877119D01*
X96387720Y-102006012D01*
X96339252Y-102098944D01*
X78573055Y-102098944D01*
X78796922Y-101963187D01*
X79855935Y-101366505D01*
X80088505Y-101239128D01*
X80799438Y-100845753D01*
X80885287Y-100797133D01*
X101033998Y-100797133D01*
X101048926Y-100945237D01*
X101094177Y-101068474D01*
X101148637Y-101127394D01*
X101195344Y-101102362D01*
X101317401Y-101000781D01*
X101475715Y-100847728D01*
X101532206Y-100789234D01*
X101653391Y-100646960D01*
X101721749Y-100511449D01*
X101755815Y-100334190D01*
X101774121Y-100066673D01*
X101775822Y-100002194D01*
X101765475Y-99722644D01*
X101734682Y-99363117D01*
X101688361Y-98960026D01*
X101631435Y-98549785D01*
X101568823Y-98168806D01*
X101505447Y-97853501D01*
X101446227Y-97640285D01*
X101436678Y-97623622D01*
X101401691Y-97658393D01*
X101359087Y-97804574D01*
X101311297Y-98041944D01*
X101260753Y-98350282D01*
X101209884Y-98709366D01*
X101161122Y-99098975D01*
X101116898Y-99498886D01*
X101079643Y-99888880D01*
X101051787Y-100248733D01*
X101035762Y-100558224D01*
X101033998Y-100797133D01*
X80885287Y-100797133D01*
X81403801Y-100503475D01*
X81832630Y-100251855D01*
X83930852Y-100251855D01*
X83980691Y-100285428D01*
X84055691Y-100271886D01*
X84167949Y-100181788D01*
X84342733Y-99999662D01*
X84558647Y-99747879D01*
X84918982Y-99267081D01*
X85297385Y-98697987D01*
X85677613Y-98066744D01*
X86043425Y-97399497D01*
X86378577Y-96722393D01*
X86409487Y-96655168D01*
X86549623Y-96334507D01*
X86720731Y-95924345D01*
X86909749Y-95456863D01*
X87103618Y-94964240D01*
X87289275Y-94478655D01*
X87531156Y-93845547D01*
X87819406Y-93117055D01*
X88098385Y-92439205D01*
X88361107Y-91828182D01*
X88600584Y-91300173D01*
X88809830Y-90871362D01*
X88981855Y-90557935D01*
X89065920Y-90413513D01*
X89189750Y-90159043D01*
X89221358Y-90005568D01*
X89160425Y-89954170D01*
X89103994Y-89975296D01*
X88987033Y-90096900D01*
X88832625Y-90331563D01*
X88674198Y-90618031D01*
X88637173Y-90684980D01*
X88397079Y-91162848D01*
X88374936Y-91208517D01*
X88251884Y-91468062D01*
X88126297Y-91744212D01*
X87992372Y-92051125D01*
X87844306Y-92402961D01*
X87676297Y-92813878D01*
X87482543Y-93298037D01*
X87257241Y-93869596D01*
X86994590Y-94542714D01*
X86688786Y-95331551D01*
X86476751Y-95858859D01*
X85975361Y-96967193D01*
X85430934Y-97998637D01*
X84854771Y-98932656D01*
X84258172Y-99748713D01*
X84190920Y-99834012D01*
X84044353Y-100034114D01*
X83951762Y-100182468D01*
X83930852Y-100251855D01*
X81832630Y-100251855D01*
X81915006Y-100203520D01*
X82346465Y-99937112D01*
X82711589Y-99695478D01*
X83023790Y-99469843D01*
X83296480Y-99251433D01*
X83543070Y-99031472D01*
X83776973Y-98801186D01*
X84094942Y-98427425D01*
X84455564Y-97897952D01*
X84832146Y-97238931D01*
X85225716Y-96448413D01*
X85637303Y-95524451D01*
X86067936Y-94465099D01*
X86107092Y-94363916D01*
X86230768Y-94035720D01*
X86373148Y-93648084D01*
X86527628Y-93219999D01*
X86687599Y-92770454D01*
X86846456Y-92318442D01*
X86997593Y-91882953D01*
X87134402Y-91482978D01*
X87250278Y-91137507D01*
X87338613Y-90865532D01*
X87392802Y-90686043D01*
X87406238Y-90618031D01*
X87406107Y-90617973D01*
X87333834Y-90598230D01*
X87133320Y-90544744D01*
X86810361Y-90459046D01*
X86370758Y-90342665D01*
X85820308Y-90197130D01*
X85164810Y-90023970D01*
X84410062Y-89824715D01*
X83561864Y-89600894D01*
X82626014Y-89354036D01*
X81608309Y-89085670D01*
X80514550Y-88797326D01*
X79350534Y-88490534D01*
X78122060Y-88166822D01*
X76834927Y-87827720D01*
X75494933Y-87474756D01*
X74107876Y-87109461D01*
X72679556Y-86733364D01*
X71215771Y-86347994D01*
X69843509Y-85986742D01*
X68394957Y-85605388D01*
X66981409Y-85233233D01*
X65609068Y-84871909D01*
X64284134Y-84523050D01*
X63012810Y-84188289D01*
X61801295Y-83869260D01*
X60655793Y-83567594D01*
X59582503Y-83284927D01*
X58587627Y-83022891D01*
X57677367Y-82783119D01*
X56857924Y-82567244D01*
X56135498Y-82376901D01*
X55516293Y-82213722D01*
X55006507Y-82079340D01*
X54612344Y-81975389D01*
X54340004Y-81903502D01*
X54195689Y-81865312D01*
X53345552Y-81639328D01*
X50777793Y-81639328D01*
X50777793Y-81028735D01*
X48886672Y-80592575D01*
X48671716Y-80543121D01*
X48135243Y-80420394D01*
X47501289Y-80276102D01*
X46795545Y-80116058D01*
X46043703Y-79946075D01*
X45271455Y-79771965D01*
X44504491Y-79599540D01*
X43768503Y-79434613D01*
X43129883Y-79291737D01*
X42513394Y-79153745D01*
X41948380Y-79027208D01*
X41448836Y-78915262D01*
X41028761Y-78821047D01*
X40702149Y-78747699D01*
X40482999Y-78698356D01*
X40385306Y-78676157D01*
X40300281Y-78629478D01*
X40232149Y-78504616D01*
X40238763Y-78365668D01*
X40328458Y-78271899D01*
X40347656Y-78270918D01*
X40484426Y-78288715D01*
X40735782Y-78333170D01*
X41086860Y-78401280D01*
X41522799Y-78490043D01*
X42028738Y-78596458D01*
X42589813Y-78717520D01*
X43191162Y-78850229D01*
X43499362Y-78919059D01*
X44199263Y-79075900D01*
X44922904Y-79238715D01*
X45657021Y-79404470D01*
X46388350Y-79570134D01*
X47103628Y-79732675D01*
X47789590Y-79889061D01*
X48432973Y-80036260D01*
X49020514Y-80171240D01*
X49538948Y-80290969D01*
X49975012Y-80392415D01*
X50315442Y-80472545D01*
X50546974Y-80528328D01*
X50656344Y-80556732D01*
X50676392Y-80558375D01*
X50695555Y-80543475D01*
X50712147Y-80502733D01*
X50726352Y-80427461D01*
X50738354Y-80308969D01*
X50748337Y-80138569D01*
X50756486Y-79907571D01*
X50762986Y-79607286D01*
X50768021Y-79229027D01*
X50771775Y-78764103D01*
X50774433Y-78203826D01*
X50776180Y-77539507D01*
X50777199Y-76762457D01*
X50777675Y-75863987D01*
X50777744Y-75262004D01*
X53345552Y-75262004D01*
X53345552Y-81181313D01*
X54160989Y-81375555D01*
X56356469Y-81903793D01*
X58858029Y-82517097D01*
X61448983Y-83163362D01*
X64107299Y-83836807D01*
X66810941Y-84531648D01*
X69537876Y-85242104D01*
X72266071Y-85962393D01*
X74973490Y-86686732D01*
X77638099Y-87409340D01*
X80237865Y-88124433D01*
X82750754Y-88826231D01*
X85154731Y-89508950D01*
X85571930Y-89628094D01*
X86083188Y-89772881D01*
X86541394Y-89901279D01*
X86930491Y-90008858D01*
X87234421Y-90091186D01*
X87437127Y-90143833D01*
X87522552Y-90162366D01*
X87562572Y-90134546D01*
X87660267Y-90006065D01*
X87789080Y-89796936D01*
X87931816Y-89533581D01*
X88253202Y-88904796D01*
X88253202Y-72064739D01*
X91058945Y-72064739D01*
X91059628Y-72310899D01*
X91061583Y-72668464D01*
X91064697Y-73126060D01*
X91068858Y-73672316D01*
X91073954Y-74295859D01*
X91079873Y-74985315D01*
X91086500Y-75729313D01*
X91093725Y-76516480D01*
X91101435Y-77335443D01*
X91109516Y-78174830D01*
X91117858Y-79023269D01*
X91126346Y-79869385D01*
X91134870Y-80701808D01*
X91143315Y-81509164D01*
X91151570Y-82280080D01*
X91159523Y-83003185D01*
X91167060Y-83667106D01*
X91174070Y-84260469D01*
X91180439Y-84771903D01*
X91186056Y-85190034D01*
X91190807Y-85503491D01*
X91194581Y-85700900D01*
X91197265Y-85770889D01*
X91220721Y-85766825D01*
X91336936Y-85719546D01*
X91514978Y-85635465D01*
X91701837Y-85562624D01*
X92098334Y-85480499D01*
X92569424Y-85449596D01*
X93080471Y-85471382D01*
X93596838Y-85547323D01*
X93837954Y-85602266D01*
X94260671Y-85716863D01*
X94714661Y-85856828D01*
X95158214Y-86008374D01*
X95549620Y-86157717D01*
X95847170Y-86291071D01*
X95874656Y-86304871D01*
X96030715Y-86369403D01*
X96194200Y-86401671D01*
X96408527Y-86406561D01*
X96717113Y-86388959D01*
X97029797Y-86373883D01*
X97806183Y-86404594D01*
X98549954Y-86528625D01*
X99242709Y-86739536D01*
X99866046Y-87030884D01*
X100401566Y-87396228D01*
X100830866Y-87829124D01*
X100863480Y-87870789D01*
X101121050Y-88255463D01*
X101364085Y-88724054D01*
X101595000Y-89284400D01*
X101816214Y-89944336D01*
X101833284Y-90005568D01*
X102030141Y-90711701D01*
X102239198Y-91594332D01*
X102445803Y-92600066D01*
X102652370Y-93736740D01*
X102684568Y-93921762D01*
X102745432Y-94260045D01*
X102797499Y-94534665D01*
X102836064Y-94721212D01*
X102856421Y-94795275D01*
X102867173Y-94800165D01*
X102981372Y-94840543D01*
X103208543Y-94916767D01*
X103534547Y-95024215D01*
X103945244Y-95158266D01*
X104426496Y-95314297D01*
X104964164Y-95487687D01*
X105544108Y-95673815D01*
X106218538Y-95889720D01*
X107054568Y-96157385D01*
X107773441Y-96387913D01*
X108383876Y-96584468D01*
X108894591Y-96750215D01*
X109314308Y-96888318D01*
X109651743Y-97001941D01*
X109915618Y-97094249D01*
X110114649Y-97168405D01*
X110257558Y-97227575D01*
X110353063Y-97274923D01*
X110409882Y-97313612D01*
X110436736Y-97346808D01*
X110442343Y-97377675D01*
X110435422Y-97409377D01*
X110424693Y-97445078D01*
X110387930Y-97569404D01*
X110350418Y-97652218D01*
X110350022Y-97652492D01*
X110274268Y-97638261D01*
X110084663Y-97586048D01*
X109798538Y-97501099D01*
X109433222Y-97388663D01*
X109006045Y-97253986D01*
X108534338Y-97102316D01*
X107752349Y-96849011D01*
X106984755Y-96601240D01*
X106251391Y-96365363D01*
X105563119Y-96144827D01*
X104930801Y-95943080D01*
X104365301Y-95763572D01*
X103877480Y-95609749D01*
X103478201Y-95485060D01*
X103178328Y-95392952D01*
X102988723Y-95336875D01*
X102920248Y-95320275D01*
X102920198Y-95355091D01*
X102934575Y-95501948D01*
X102963058Y-95736100D01*
X103002197Y-96027769D01*
X103007422Y-96065658D01*
X103041916Y-96329263D01*
X103085250Y-96677030D01*
X103134868Y-97086764D01*
X103188217Y-97536270D01*
X103242742Y-98003354D01*
X103295889Y-98465819D01*
X103345102Y-98901471D01*
X103387829Y-99288115D01*
X103421513Y-99603555D01*
X103443602Y-99825597D01*
X103451540Y-99932045D01*
X103455876Y-99960104D01*
X103512669Y-99976326D01*
X103656313Y-99914695D01*
X103812679Y-99856362D01*
X104136913Y-99815006D01*
X104488826Y-99843619D01*
X104811387Y-99940906D01*
X104812350Y-99941344D01*
X104908721Y-100002194D01*
X105069350Y-100103618D01*
X105379151Y-100374421D01*
X105729733Y-100739639D01*
X106109075Y-101185157D01*
X106505155Y-101696861D01*
X106905955Y-102260635D01*
X106934931Y-102304945D01*
X107299452Y-102862366D01*
X107305854Y-102872600D01*
X107586579Y-103342452D01*
X107866228Y-103847989D01*
X108132549Y-104363757D01*
X108373288Y-104864299D01*
X108576192Y-105324160D01*
X108729005Y-105717884D01*
X108819476Y-106020017D01*
X108870615Y-106282335D01*
X108923952Y-106555930D01*
X108960100Y-106811529D01*
X109045668Y-107416574D01*
X109138208Y-108393183D01*
X109201566Y-109474229D01*
X109235733Y-110648187D01*
X109240704Y-111903530D01*
X109216471Y-113228733D01*
X109163027Y-114612268D01*
X109084476Y-115971497D01*
X109080366Y-116042611D01*
X108968479Y-117508234D01*
X108827361Y-118997612D01*
X108821797Y-119051112D01*
X108780338Y-119450291D01*
X108740311Y-119836437D01*
X108706030Y-120167878D01*
X108681813Y-120402940D01*
X108643363Y-120777719D01*
X108637314Y-120836683D01*
X112272990Y-120835430D01*
X115908667Y-120834176D01*
X115353476Y-120515080D01*
X115285980Y-120476268D01*
X114965343Y-120290633D01*
X114900008Y-120251542D01*
X116040474Y-120251542D01*
X116087193Y-120312508D01*
X116102334Y-120323129D01*
X116226138Y-120362475D01*
X116463707Y-120404748D01*
X116821264Y-120450779D01*
X117305033Y-120501400D01*
X117921235Y-120557442D01*
X118570641Y-120611529D01*
X119322935Y-120668608D01*
X119984603Y-120712189D01*
X120547762Y-120741939D01*
X121004527Y-120757523D01*
X121347014Y-120758606D01*
X121567340Y-120744855D01*
X121657621Y-120715935D01*
X121673486Y-120680385D01*
X121652108Y-120613577D01*
X121542064Y-120561815D01*
X121330836Y-120522292D01*
X121005904Y-120492203D01*
X120554746Y-120468741D01*
X120442473Y-120463717D01*
X120039158Y-120441184D01*
X119546803Y-120408776D01*
X119001888Y-120369107D01*
X118440889Y-120324791D01*
X118340586Y-120316192D01*
X125459518Y-120316192D01*
X125611415Y-120478712D01*
X125719395Y-120584865D01*
X125845649Y-120672360D01*
X125867726Y-120680385D01*
X126000268Y-120728563D01*
X126210824Y-120759693D01*
X126504887Y-120771969D01*
X126910028Y-120771609D01*
X127798620Y-120762900D01*
X128095234Y-121114666D01*
X128391847Y-121466432D01*
X128562559Y-121282328D01*
X128570080Y-121274256D01*
X128696941Y-121162797D01*
X128830866Y-121124333D01*
X129035535Y-121139654D01*
X129092669Y-121149125D01*
X129367698Y-121223111D01*
X129624243Y-121327216D01*
X129774039Y-121387843D01*
X130009926Y-121451293D01*
X130270447Y-121498245D01*
X130523689Y-121525503D01*
X130737736Y-121529868D01*
X130880671Y-121508140D01*
X130920580Y-121457123D01*
X130919824Y-121455045D01*
X130836462Y-121368992D01*
X130653521Y-121244863D01*
X130398510Y-121097683D01*
X130098938Y-120942481D01*
X129782316Y-120794282D01*
X129476153Y-120668114D01*
X129249402Y-120583888D01*
X128979983Y-120491821D01*
X128735362Y-120424045D01*
X128488276Y-120376817D01*
X128211460Y-120346392D01*
X127877651Y-120329028D01*
X127459583Y-120320981D01*
X126929994Y-120318506D01*
X125459518Y-120316192D01*
X118340586Y-120316192D01*
X118123812Y-120297608D01*
X132178099Y-120297608D01*
X132260965Y-120426128D01*
X132446608Y-120639412D01*
X132736806Y-120939682D01*
X132934018Y-121134805D01*
X133189182Y-121371645D01*
X133296505Y-121457123D01*
X133396496Y-121536761D01*
X133582460Y-121650429D01*
X133773571Y-121732923D01*
X134018607Y-121819408D01*
X134263858Y-121892690D01*
X134434103Y-121917592D01*
X134559731Y-121897612D01*
X134671132Y-121836248D01*
X134770744Y-121747040D01*
X134807716Y-121631386D01*
X134789664Y-121439042D01*
X134779823Y-121387410D01*
X134680797Y-121084015D01*
X134515640Y-120734695D01*
X134308325Y-120385466D01*
X134082825Y-120082343D01*
X133847533Y-119807457D01*
X133067171Y-120013546D01*
X132778025Y-120090412D01*
X132498478Y-120165814D01*
X132291096Y-120222972D01*
X132186930Y-120253424D01*
X132178099Y-120297608D01*
X118123812Y-120297608D01*
X117900285Y-120278445D01*
X117400263Y-120234809D01*
X116920529Y-120197129D01*
X116557463Y-120175347D01*
X116299495Y-120169680D01*
X116135054Y-120180345D01*
X116052571Y-120207560D01*
X116040474Y-120251542D01*
X114900008Y-120251542D01*
X114744010Y-120158205D01*
X114603696Y-120066061D01*
X114526112Y-120001283D01*
X114492972Y-119950947D01*
X114485989Y-119902134D01*
X114524883Y-119809633D01*
X114640229Y-119695537D01*
X114646479Y-119691293D01*
X114726922Y-119653985D01*
X114851257Y-119626471D01*
X115038459Y-119607409D01*
X115307501Y-119595455D01*
X115677358Y-119589267D01*
X116167005Y-119587503D01*
X117539541Y-119587503D01*
X117539541Y-119348457D01*
X117532950Y-119247231D01*
X117487184Y-119119225D01*
X117376386Y-118985875D01*
X117175829Y-118810616D01*
X117174508Y-118809530D01*
X116801583Y-118482630D01*
X116420051Y-118112321D01*
X116053395Y-117724521D01*
X115725096Y-117345147D01*
X115458635Y-117000117D01*
X115277495Y-116715348D01*
X115267923Y-116697188D01*
X115078530Y-116250704D01*
X115020359Y-115986438D01*
X115964987Y-115986438D01*
X116008672Y-116196436D01*
X116161292Y-116450912D01*
X116427556Y-116763883D01*
X116554263Y-116894280D01*
X116769928Y-117099080D01*
X116986668Y-117288372D01*
X117184107Y-117446178D01*
X117341866Y-117556520D01*
X117439565Y-117603419D01*
X117456827Y-117570898D01*
X117447061Y-117544196D01*
X117395828Y-117398403D01*
X117312609Y-117158239D01*
X117206431Y-116849818D01*
X117086324Y-116499252D01*
X117033263Y-116345249D01*
X116916528Y-116015130D01*
X116815794Y-115741860D01*
X116740389Y-115550373D01*
X116699640Y-115465599D01*
X116598668Y-115443757D01*
X116433883Y-115493598D01*
X116247712Y-115597075D01*
X116082258Y-115735764D01*
X116025530Y-115806901D01*
X115964987Y-115986438D01*
X115020359Y-115986438D01*
X114986486Y-115832558D01*
X114994147Y-115463786D01*
X115103869Y-115165422D01*
X115141619Y-115109750D01*
X115413431Y-114829880D01*
X115794230Y-114577887D01*
X116259189Y-114370844D01*
X116706754Y-114210329D01*
X116706754Y-114067028D01*
X117261946Y-114067028D01*
X117295979Y-114133386D01*
X117418378Y-114202011D01*
X117641846Y-114270317D01*
X117978818Y-114342034D01*
X118441727Y-114420890D01*
X118467081Y-114424811D01*
X118882005Y-114473667D01*
X119395963Y-114512531D01*
X119972156Y-114540404D01*
X120573788Y-114556287D01*
X121164060Y-114559180D01*
X121706175Y-114548082D01*
X122163334Y-114521995D01*
X122723622Y-114469010D01*
X123266202Y-114404835D01*
X123730813Y-114335887D01*
X124107361Y-114264402D01*
X124385752Y-114192615D01*
X124555895Y-114122759D01*
X124607694Y-114057071D01*
X124531059Y-113997784D01*
X124476683Y-113990361D01*
X124298041Y-113996257D01*
X124039943Y-114022246D01*
X123738000Y-114065295D01*
X122960807Y-114169528D01*
X122073710Y-114246910D01*
X121167724Y-114288520D01*
X120293182Y-114292099D01*
X119500422Y-114255390D01*
X119334535Y-114241694D01*
X118915387Y-114201523D01*
X118520519Y-114156541D01*
X118188009Y-114111308D01*
X117955935Y-114070387D01*
X117770229Y-114030681D01*
X117514938Y-113984852D01*
X117359757Y-113975705D01*
X117282741Y-114003132D01*
X117261946Y-114067028D01*
X116706754Y-114067028D01*
X116706754Y-113574876D01*
X118007984Y-113458130D01*
X118766397Y-113393587D01*
X119592352Y-113331384D01*
X120371687Y-113281124D01*
X121086167Y-113243747D01*
X121717556Y-113220193D01*
X122247619Y-113211404D01*
X122658121Y-113218319D01*
X123369870Y-113249463D01*
X123334350Y-102133781D01*
X122328066Y-101777748D01*
X122063212Y-101683735D01*
X121755871Y-101571526D01*
X121546879Y-101486939D01*
X121416518Y-101418991D01*
X121345069Y-101356699D01*
X121312814Y-101289082D01*
X121300035Y-101205155D01*
X121295467Y-101102596D01*
X121317489Y-101033979D01*
X121383650Y-101005351D01*
X121511074Y-101018569D01*
X121716885Y-101075489D01*
X122018207Y-101177966D01*
X122432164Y-101327857D01*
X123334350Y-101658070D01*
X123351154Y-88514215D01*
X126006208Y-88514215D01*
X126006208Y-102619615D01*
X126752246Y-102881921D01*
X127018764Y-102977273D01*
X127290696Y-103078378D01*
X127492828Y-103157886D01*
X127594426Y-103204044D01*
X127644638Y-103293353D01*
X127647614Y-103436208D01*
X127608614Y-103567915D01*
X127536283Y-103625754D01*
X127467308Y-103608573D01*
X127290979Y-103551606D01*
X127038725Y-103464209D01*
X126739518Y-103356185D01*
X126006208Y-103086616D01*
X126006208Y-110781868D01*
X126006234Y-111024744D01*
X126006905Y-112037118D01*
X126008441Y-113007760D01*
X126009056Y-113249463D01*
X126010783Y-113927844D01*
X126011247Y-114057071D01*
X126013871Y-114788548D01*
X126017644Y-115581047D01*
X126022045Y-116296517D01*
X126027011Y-116926134D01*
X126032485Y-117461073D01*
X126033992Y-117570898D01*
X126038406Y-117892512D01*
X126044715Y-118211625D01*
X126051352Y-118409588D01*
X126058257Y-118477578D01*
X126060164Y-118477640D01*
X126159980Y-118492054D01*
X126372568Y-118528829D01*
X126675827Y-118583762D01*
X127047662Y-118652651D01*
X127465972Y-118731296D01*
X127908661Y-118815495D01*
X128353630Y-118901045D01*
X128778782Y-118983745D01*
X129162017Y-119059394D01*
X129481239Y-119123790D01*
X129714349Y-119172732D01*
X129816867Y-119195648D01*
X130234035Y-119296893D01*
X130674632Y-119413518D01*
X131058813Y-119524625D01*
X131494497Y-119643362D01*
X131877378Y-119705571D01*
X132214466Y-119704595D01*
X132544201Y-119643510D01*
X132553707Y-119640964D01*
X132719490Y-119579110D01*
X132806032Y-119479008D01*
X132857857Y-119290556D01*
X132895480Y-119100309D01*
X134806036Y-119100309D01*
X134866219Y-119203999D01*
X135044567Y-119377786D01*
X135093418Y-119422843D01*
X135332251Y-119702053D01*
X135506116Y-120001282D01*
X135573434Y-120141011D01*
X135669686Y-120292172D01*
X135742493Y-120350891D01*
X135753380Y-120348425D01*
X135858360Y-120287962D01*
X136042095Y-120158739D01*
X136282128Y-119977086D01*
X136556001Y-119759332D01*
X136655861Y-119678132D01*
X136993603Y-119407171D01*
X137267116Y-119205001D01*
X137505397Y-119062293D01*
X137737445Y-118969719D01*
X137992256Y-118917952D01*
X138298828Y-118897664D01*
X138686158Y-118899528D01*
X139183245Y-118914214D01*
X139480954Y-118925478D01*
X139993466Y-118949724D01*
X140581611Y-118981832D01*
X141208721Y-119019662D01*
X141838130Y-119061074D01*
X142433170Y-119103926D01*
X142833976Y-119134102D01*
X143327343Y-119169946D01*
X143712982Y-119195117D01*
X144009216Y-119209861D01*
X144234369Y-119214429D01*
X144406764Y-119209068D01*
X144544726Y-119194027D01*
X144666578Y-119169554D01*
X144790644Y-119135898D01*
X144958294Y-119083174D01*
X145229141Y-118984573D01*
X145440456Y-118892211D01*
X145659862Y-118767694D01*
X145795811Y-118653622D01*
X145828723Y-118553143D01*
X145752689Y-118462463D01*
X145561799Y-118377785D01*
X145250144Y-118295314D01*
X144811814Y-118211254D01*
X144240899Y-118121812D01*
X143860138Y-118064345D01*
X143369977Y-117985829D01*
X142899808Y-117906016D01*
X142488808Y-117831598D01*
X142176153Y-117769262D01*
X142034154Y-117739420D01*
X141604477Y-117664453D01*
X141223522Y-117630867D01*
X140846058Y-117638891D01*
X140426857Y-117688754D01*
X139920689Y-117780685D01*
X139889423Y-117786988D01*
X139525884Y-117864745D01*
X139076818Y-117967054D01*
X138564299Y-118088327D01*
X138010401Y-118222971D01*
X137437198Y-118365397D01*
X136866762Y-118510014D01*
X136321169Y-118651232D01*
X135822492Y-118783460D01*
X135392804Y-118901108D01*
X135054179Y-118998586D01*
X134828691Y-119070302D01*
X134806036Y-119100309D01*
X132895480Y-119100309D01*
X132914121Y-119006047D01*
X136503291Y-118094723D01*
X136830748Y-118011439D01*
X137495647Y-117841445D01*
X138113762Y-117682236D01*
X138672550Y-117537114D01*
X139016466Y-117446893D01*
X142939541Y-117446893D01*
X142941558Y-117458946D01*
X143019016Y-117499544D01*
X143210294Y-117501529D01*
X143517420Y-117464446D01*
X143942421Y-117387842D01*
X144474358Y-117274037D01*
X147901563Y-117274037D01*
X148181293Y-117353665D01*
X148336820Y-117391660D01*
X148606125Y-117448345D01*
X148937598Y-117512284D01*
X149291675Y-117575571D01*
X149431589Y-117598034D01*
X149816012Y-117648812D01*
X150240446Y-117692814D01*
X150675289Y-117728141D01*
X151090938Y-117752891D01*
X151457790Y-117765165D01*
X151746245Y-117763064D01*
X151926700Y-117744687D01*
X151997964Y-117728793D01*
X152194655Y-117687022D01*
X152429842Y-117638674D01*
X152573153Y-117604177D01*
X152732298Y-117547312D01*
X152794186Y-117497018D01*
X152782883Y-117464197D01*
X152663247Y-117378582D01*
X152423497Y-117289423D01*
X152076681Y-117200994D01*
X151635847Y-117117570D01*
X151584193Y-117109495D01*
X151127377Y-117062811D01*
X150582831Y-117040708D01*
X149993555Y-117042344D01*
X149402550Y-117066875D01*
X148852816Y-117113459D01*
X148387355Y-117181252D01*
X147901563Y-117274037D01*
X144474358Y-117274037D01*
X144487324Y-117271263D01*
X145154158Y-117114257D01*
X145944949Y-116916369D01*
X146861726Y-116677145D01*
X147906515Y-116396133D01*
X149081344Y-116072879D01*
X149293214Y-116029082D01*
X149780847Y-116029233D01*
X150313175Y-116159050D01*
X150372591Y-116178487D01*
X150516039Y-116210628D01*
X150573421Y-116198328D01*
X150552542Y-116147324D01*
X150445700Y-116018926D01*
X150276856Y-115857894D01*
X150078450Y-115692367D01*
X149882918Y-115550482D01*
X149722700Y-115460378D01*
X149674121Y-115441264D01*
X149395994Y-115388522D01*
X149153582Y-115460132D01*
X148920393Y-115662779D01*
X148892924Y-115693554D01*
X148819591Y-115765224D01*
X148732544Y-115823866D01*
X148611323Y-115875869D01*
X148435470Y-115927623D01*
X148184524Y-115985519D01*
X147838027Y-116055948D01*
X147375519Y-116145298D01*
X147261017Y-116167275D01*
X146451687Y-116326189D01*
X145715060Y-116477179D01*
X145061844Y-116617809D01*
X144502749Y-116745641D01*
X144048482Y-116858237D01*
X143709752Y-116953161D01*
X143497268Y-117027976D01*
X143419347Y-117063629D01*
X143169758Y-117202185D01*
X143001338Y-117336313D01*
X142939541Y-117446893D01*
X139016466Y-117446893D01*
X139159466Y-117409379D01*
X139561965Y-117302334D01*
X139867502Y-117219280D01*
X140063533Y-117163517D01*
X140137513Y-117138348D01*
X140140529Y-117122670D01*
X140158723Y-116990998D01*
X140178603Y-116836606D01*
X140649377Y-116836606D01*
X140649575Y-116839984D01*
X140714766Y-116874449D01*
X140875385Y-116865047D01*
X141100279Y-116820345D01*
X141358292Y-116748910D01*
X141618269Y-116659307D01*
X141849055Y-116560105D01*
X142019495Y-116459869D01*
X142077224Y-116415260D01*
X142380416Y-116146297D01*
X142642691Y-115859238D01*
X142823974Y-115597066D01*
X142885061Y-115470572D01*
X142930549Y-115324020D01*
X142956509Y-115139305D01*
X142967420Y-114882926D01*
X142967538Y-114756670D01*
X150231074Y-114756670D01*
X150235019Y-114758757D01*
X150331859Y-114783590D01*
X150540452Y-114827880D01*
X150839734Y-114887418D01*
X151208638Y-114957995D01*
X151626096Y-115035402D01*
X151705382Y-115049878D01*
X152115220Y-115124413D01*
X152472594Y-115188930D01*
X152756491Y-115239668D01*
X152945897Y-115272869D01*
X153019800Y-115284771D01*
X153052827Y-115228549D01*
X153113471Y-115066045D01*
X153192049Y-114826472D01*
X153279843Y-114539220D01*
X153368135Y-114233682D01*
X153448207Y-113939249D01*
X153511339Y-113685314D01*
X153548816Y-113501267D01*
X153637746Y-113180391D01*
X153797522Y-112888206D01*
X153830310Y-112847211D01*
X154061293Y-112609910D01*
X154396514Y-112321376D01*
X154820310Y-111992351D01*
X155317019Y-111633572D01*
X155870980Y-111255780D01*
X156466530Y-110869714D01*
X157088008Y-110486113D01*
X157719752Y-110115716D01*
X158346099Y-109769263D01*
X158363299Y-109760053D01*
X158992369Y-109412033D01*
X159503615Y-109102861D01*
X159908800Y-108822686D01*
X160219690Y-108561658D01*
X160448050Y-108309928D01*
X160512920Y-108206082D01*
X164977168Y-108206082D01*
X164979067Y-108451036D01*
X164988012Y-108775596D01*
X165008771Y-109068171D01*
X165046404Y-109348831D01*
X165105969Y-109637647D01*
X165192525Y-109954688D01*
X165311129Y-110320023D01*
X165466841Y-110753724D01*
X165664718Y-111275859D01*
X165909820Y-111906498D01*
X166058437Y-112286939D01*
X166221398Y-112707564D01*
X166342055Y-113028078D01*
X166425192Y-113265319D01*
X166475593Y-113436122D01*
X166498043Y-113557323D01*
X166497327Y-113645759D01*
X166478228Y-113718266D01*
X166445531Y-113791681D01*
X166405125Y-113887484D01*
X166378697Y-114003560D01*
X166381486Y-114139832D01*
X166418217Y-114317929D01*
X166493616Y-114559481D01*
X166612408Y-114886118D01*
X166779320Y-115319470D01*
X167115115Y-116133802D01*
X167145975Y-116198328D01*
X167683336Y-117321910D01*
X167784328Y-117497018D01*
X168299667Y-118390558D01*
X168413335Y-118553143D01*
X168969025Y-119347977D01*
X169696326Y-120202398D01*
X169973091Y-120485469D01*
X170337587Y-120821118D01*
X170730777Y-121137722D01*
X171177406Y-121453649D01*
X171457008Y-121631386D01*
X171702224Y-121787265D01*
X172329978Y-122156937D01*
X172766875Y-122406450D01*
X173187165Y-122644187D01*
X173497579Y-122816541D01*
X173703367Y-122926370D01*
X173809776Y-122976536D01*
X173822055Y-122969897D01*
X173820699Y-122968589D01*
X173747199Y-122910222D01*
X173586396Y-122787729D01*
X173360911Y-122618220D01*
X173093366Y-122418802D01*
X172698153Y-122120988D01*
X171907242Y-121491534D01*
X171232367Y-120900818D01*
X170664956Y-120339299D01*
X170196436Y-119797432D01*
X169818236Y-119265676D01*
X169521783Y-118734488D01*
X169298504Y-118194325D01*
X169245164Y-118038369D01*
X169174845Y-117815415D01*
X169126246Y-117616865D01*
X169095040Y-117410079D01*
X169076901Y-117162417D01*
X169067503Y-116841239D01*
X169062520Y-116413903D01*
X169056981Y-116024998D01*
X169044624Y-115666642D01*
X169024714Y-115415976D01*
X168995802Y-115256004D01*
X168956441Y-115169730D01*
X168878732Y-115099717D01*
X168703787Y-114967451D01*
X168463626Y-114798705D01*
X168186059Y-114613557D01*
X167942684Y-114449203D01*
X167700659Y-114272025D01*
X167522545Y-114125948D01*
X167435401Y-114031938D01*
X167430200Y-114021769D01*
X167391206Y-113806279D01*
X167444426Y-113569771D01*
X167576105Y-113376345D01*
X167639443Y-113311994D01*
X167651423Y-113248711D01*
X167622495Y-113214921D01*
X171851675Y-113214921D01*
X171919909Y-113232149D01*
X172100218Y-113246206D01*
X172362904Y-113255539D01*
X172678808Y-113259992D01*
X173018774Y-113259409D01*
X173353642Y-113253632D01*
X173654254Y-113242506D01*
X173891454Y-113225873D01*
X173974833Y-113217305D01*
X175012226Y-113060543D01*
X175988562Y-112819728D01*
X176888051Y-112500394D01*
X177694901Y-112108074D01*
X178169189Y-111795848D01*
X187414312Y-111795848D01*
X187719674Y-111872739D01*
X187783922Y-111890902D01*
X188022789Y-111985410D01*
X188211817Y-112096552D01*
X188217987Y-112101353D01*
X188269342Y-112138106D01*
X188315948Y-112169887D01*
X188358034Y-112203231D01*
X188395829Y-112244672D01*
X188429563Y-112300747D01*
X188459465Y-112377990D01*
X188485766Y-112482936D01*
X188508694Y-112622119D01*
X188528479Y-112802076D01*
X188545351Y-113029340D01*
X188559539Y-113310447D01*
X188571273Y-113651931D01*
X188580783Y-114060329D01*
X188588297Y-114542174D01*
X188594046Y-115104002D01*
X188598259Y-115752347D01*
X188601165Y-116493745D01*
X188602995Y-117334731D01*
X188603977Y-118281840D01*
X188604341Y-119341606D01*
X188604317Y-120520564D01*
X188604134Y-121825250D01*
X188604045Y-122969897D01*
X188604035Y-123092148D01*
X188604022Y-123262199D01*
X188604087Y-123529862D01*
X188604279Y-124323843D01*
X188605305Y-125595885D01*
X188607081Y-126800197D01*
X188609573Y-127930856D01*
X188612746Y-128981941D01*
X188616565Y-129947530D01*
X188620997Y-130821699D01*
X188626005Y-131598527D01*
X188631556Y-132272091D01*
X188637614Y-132836470D01*
X188644146Y-133285740D01*
X188651116Y-133613980D01*
X188658489Y-133815266D01*
X188666232Y-133883678D01*
X188757422Y-133841000D01*
X188894864Y-133697613D01*
X189043577Y-133483615D01*
X189181953Y-133230717D01*
X189288384Y-132970631D01*
X189384291Y-132648658D01*
X189491309Y-132189160D01*
X189579855Y-131670834D01*
X189650804Y-131082332D01*
X189705030Y-130412310D01*
X189743405Y-129649422D01*
X189766805Y-128782323D01*
X189776103Y-127799668D01*
X189772173Y-126690111D01*
X189771235Y-126576996D01*
X189767946Y-125995480D01*
X189767452Y-125463970D01*
X189769588Y-124997263D01*
X189774190Y-124610156D01*
X189781094Y-124317445D01*
X189790136Y-124133927D01*
X189801153Y-124074398D01*
X189820008Y-124092459D01*
X189853202Y-124200166D01*
X189864339Y-124268523D01*
X189927659Y-124464176D01*
X190035487Y-124736089D01*
X190174618Y-125055369D01*
X190331849Y-125393127D01*
X190493977Y-125720472D01*
X190647798Y-126008512D01*
X190780109Y-126228357D01*
X190929897Y-126446702D01*
X191256879Y-126866038D01*
X191568933Y-127175529D01*
X191883820Y-127391228D01*
X192219299Y-127529189D01*
X192374322Y-127571690D01*
X192527385Y-127595895D01*
X192689755Y-127590898D01*
X192903132Y-127554881D01*
X193209212Y-127486026D01*
X193408587Y-127442716D01*
X193801233Y-127380545D01*
X194230074Y-127346338D01*
X194745825Y-127335113D01*
X194999858Y-127335326D01*
X195319938Y-127341999D01*
X195569000Y-127361697D01*
X195788767Y-127400392D01*
X196020960Y-127464059D01*
X196307301Y-127558671D01*
X196506448Y-127631015D01*
X197102777Y-127889094D01*
X197724329Y-128211107D01*
X198339201Y-128577247D01*
X198915492Y-128967709D01*
X199421299Y-129362689D01*
X199824720Y-129742378D01*
X199979129Y-129912492D01*
X200517401Y-130578085D01*
X201061143Y-131357128D01*
X201599398Y-132231080D01*
X202121208Y-133181398D01*
X202615615Y-134189537D01*
X203071661Y-135236957D01*
X203094438Y-135292705D01*
X203219836Y-135598533D01*
X203323664Y-135849956D01*
X203395672Y-136022255D01*
X203425612Y-136090712D01*
X203425899Y-136090901D01*
X203501650Y-136105875D01*
X203704271Y-136141216D01*
X204024090Y-136195334D01*
X204451437Y-136266636D01*
X204976641Y-136353534D01*
X205590031Y-136454434D01*
X206281936Y-136567747D01*
X207042686Y-136691881D01*
X207862609Y-136825245D01*
X208732035Y-136966248D01*
X209641293Y-137113300D01*
X209662929Y-137116794D01*
X210575241Y-137264272D01*
X211450201Y-137405960D01*
X212277839Y-137540232D01*
X213048187Y-137665459D01*
X213751279Y-137780012D01*
X214377147Y-137882262D01*
X214915822Y-137970582D01*
X215357336Y-138043343D01*
X215691723Y-138098917D01*
X215909014Y-138135674D01*
X215999241Y-138151987D01*
X216098337Y-138168402D01*
X216155388Y-138157963D01*
X216154991Y-138155576D01*
X216089192Y-138094267D01*
X215928905Y-137984977D01*
X215700349Y-137843139D01*
X215429743Y-137684183D01*
X215143304Y-137523540D01*
X214867252Y-137376641D01*
X214627806Y-137258915D01*
X213978004Y-136984482D01*
X213357062Y-136782279D01*
X212761960Y-136656023D01*
X212536773Y-136626307D01*
X212279113Y-136615289D01*
X212010214Y-136638504D01*
X211669086Y-136698313D01*
X211489108Y-136730752D01*
X211090277Y-136770889D01*
X210713680Y-136752432D01*
X210325901Y-136669344D01*
X209893525Y-136515582D01*
X209383134Y-136285107D01*
X209182887Y-136185482D01*
X208313817Y-135690682D01*
X207399224Y-135072056D01*
X206437505Y-134328382D01*
X205427056Y-133458438D01*
X204366275Y-132461000D01*
X203702835Y-131800289D01*
X203010205Y-131075044D01*
X202386911Y-130377572D01*
X201808597Y-129680475D01*
X201250911Y-128956356D01*
X200878885Y-128467172D01*
X200140001Y-127565805D01*
X199421044Y-126788503D01*
X198713205Y-126128061D01*
X198007674Y-125577272D01*
X197295643Y-125128929D01*
X196568301Y-124775824D01*
X195816840Y-124510751D01*
X195684651Y-124474725D01*
X195455682Y-124425532D01*
X195292691Y-124402052D01*
X203464871Y-124402052D01*
X203524787Y-124480446D01*
X203586884Y-124537634D01*
X203760113Y-124653698D01*
X203975880Y-124768088D01*
X204007325Y-124782524D01*
X204350376Y-124899928D01*
X204664686Y-124914632D01*
X205006094Y-124829990D01*
X205216129Y-124733194D01*
X205521322Y-124487779D01*
X205743137Y-124165771D01*
X205881768Y-123788961D01*
X205937406Y-123379144D01*
X205910245Y-122958111D01*
X205800478Y-122547655D01*
X205608299Y-122169569D01*
X205352791Y-121867948D01*
X206375973Y-121867948D01*
X206406810Y-121932648D01*
X206499670Y-121900006D01*
X206676269Y-121773569D01*
X206716090Y-121745101D01*
X206913678Y-121641834D01*
X207088032Y-121600071D01*
X207272328Y-121600071D01*
X207272328Y-123076706D01*
X207272151Y-123283488D01*
X207271443Y-123379144D01*
X207268417Y-123787801D01*
X207256640Y-124173730D01*
X207232656Y-124456389D01*
X207192302Y-124650895D01*
X207131413Y-124772362D01*
X207045825Y-124835904D01*
X206931375Y-124856636D01*
X206783899Y-124849674D01*
X206746500Y-124846403D01*
X206589997Y-124846100D01*
X206565242Y-124878381D01*
X206670261Y-124940278D01*
X206903078Y-125028821D01*
X207109813Y-125094175D01*
X207304660Y-125129393D01*
X207471706Y-125110395D01*
X207666881Y-125037839D01*
X207677763Y-125033058D01*
X207801026Y-124965918D01*
X209007301Y-124965918D01*
X209042000Y-125000618D01*
X209076700Y-124965918D01*
X209042000Y-124931219D01*
X209007301Y-124965918D01*
X207801026Y-124965918D01*
X207820187Y-124955481D01*
X207927418Y-124853595D01*
X208004298Y-124708340D01*
X208055666Y-124500659D01*
X208086365Y-124211492D01*
X208101234Y-123821780D01*
X208105115Y-123312466D01*
X208105650Y-122985688D01*
X208110072Y-122543036D01*
X208121250Y-122212274D01*
X208141894Y-121976609D01*
X208174710Y-121819246D01*
X208222406Y-121723389D01*
X208287689Y-121672244D01*
X208338609Y-121658423D01*
X209007301Y-121658423D01*
X209007301Y-122167601D01*
X209220822Y-121987935D01*
X209390176Y-121876463D01*
X209676564Y-121808268D01*
X209918784Y-121808268D01*
X209872693Y-123317694D01*
X209863432Y-123614722D01*
X209848468Y-124041406D01*
X209833412Y-124358552D01*
X209816066Y-124584818D01*
X209794230Y-124738865D01*
X209765705Y-124839353D01*
X209728292Y-124904942D01*
X209679790Y-124954292D01*
X209661174Y-124965918D01*
X209563581Y-125026867D01*
X209339539Y-125042776D01*
X209221427Y-125025164D01*
X209153959Y-125038788D01*
X209210000Y-125092269D01*
X209386766Y-125177656D01*
X209553749Y-125234232D01*
X209888566Y-125279508D01*
X209941315Y-125272732D01*
X211428822Y-125272732D01*
X211544840Y-125337026D01*
X211793734Y-125408318D01*
X212064998Y-125390065D01*
X212280287Y-125266976D01*
X212430322Y-125116940D01*
X212776807Y-125311709D01*
X212909601Y-125380448D01*
X213216263Y-125486047D01*
X213581007Y-125532569D01*
X213945524Y-125524976D01*
X214278379Y-125434272D01*
X214527566Y-125247865D01*
X214708770Y-124957760D01*
X214776959Y-124756998D01*
X214782861Y-124618924D01*
X215067387Y-124618924D01*
X215077445Y-124660906D01*
X215113242Y-124845921D01*
X215149104Y-125070017D01*
X215178591Y-125274262D01*
X215217036Y-125443209D01*
X215284183Y-125545006D01*
X215407379Y-125599946D01*
X215613968Y-125628320D01*
X215931300Y-125650419D01*
X216040717Y-125657906D01*
X216422205Y-125685346D01*
X216801173Y-125714268D01*
X217109623Y-125739531D01*
X217612765Y-125783150D01*
X217612765Y-120975481D01*
X216710579Y-120975481D01*
X216710404Y-121861075D01*
X216710397Y-121895017D01*
X216708595Y-122201279D01*
X216706771Y-122334450D01*
X216702311Y-122659961D01*
X216692331Y-123178081D01*
X216679505Y-123712450D01*
X216664683Y-124219880D01*
X216658231Y-124416277D01*
X216654773Y-124521553D01*
X216640209Y-124921032D01*
X216625862Y-125210274D01*
X216609296Y-125407060D01*
X216588073Y-125529168D01*
X216559759Y-125594376D01*
X216521917Y-125620463D01*
X216472110Y-125625208D01*
X216371670Y-125612255D01*
X216227902Y-125551177D01*
X216048439Y-125427578D01*
X215814223Y-125227914D01*
X215506200Y-124938640D01*
X215390092Y-124829004D01*
X215203663Y-124667381D01*
X215093128Y-124595193D01*
X215067387Y-124618924D01*
X214782861Y-124618924D01*
X214791523Y-124416277D01*
X214671837Y-124085301D01*
X214416385Y-123760709D01*
X214023653Y-123439142D01*
X213912284Y-123360347D01*
X213556074Y-123084401D01*
X213300172Y-122843742D01*
X213152745Y-122646853D01*
X213121955Y-122502217D01*
X213130823Y-122424372D01*
X213095364Y-122402159D01*
X213032343Y-122496411D01*
X213046602Y-122677985D01*
X213149504Y-122916767D01*
X213334738Y-123191927D01*
X213354621Y-123217375D01*
X213590351Y-123536008D01*
X213745284Y-123796974D01*
X213834147Y-124039567D01*
X213871669Y-124303081D01*
X213872578Y-124626810D01*
X213845856Y-124785195D01*
X213709297Y-125009233D01*
X213475914Y-125156092D01*
X213166290Y-125208815D01*
X213074249Y-125206455D01*
X212832780Y-125181870D01*
X212650149Y-125139189D01*
X212467021Y-125069564D01*
X212489483Y-123661171D01*
X212495135Y-123338342D01*
X212505247Y-122927165D01*
X212518416Y-122621976D01*
X212536523Y-122402654D01*
X212559780Y-122259361D01*
X213240634Y-122259361D01*
X213275334Y-122294060D01*
X213310033Y-122259361D01*
X213275334Y-122224662D01*
X213240634Y-122259361D01*
X212559780Y-122259361D01*
X212561449Y-122249078D01*
X212595075Y-122141126D01*
X212639282Y-122058676D01*
X212744581Y-121898168D01*
X213281790Y-121898168D01*
X213296605Y-121981269D01*
X213369966Y-122094073D01*
X213475700Y-122199241D01*
X213587497Y-122259361D01*
X213587629Y-122259432D01*
X213719225Y-122292228D01*
X213899924Y-122341279D01*
X213992375Y-122364104D01*
X213992501Y-122334450D01*
X213900088Y-122226780D01*
X213836853Y-122163983D01*
X213656391Y-122026932D01*
X213465821Y-121920486D01*
X213320009Y-121877667D01*
X213281790Y-121898168D01*
X212744581Y-121898168D01*
X212766619Y-121864576D01*
X212604583Y-121914926D01*
X212455618Y-121974678D01*
X212139246Y-122205588D01*
X211870587Y-122558841D01*
X211836046Y-122618795D01*
X211772782Y-122743898D01*
X211727366Y-122874781D01*
X211695460Y-123038036D01*
X211672724Y-123260257D01*
X211654818Y-123568036D01*
X211637405Y-123987966D01*
X211628461Y-124208531D01*
X211609402Y-124580058D01*
X211587866Y-124842370D01*
X211561228Y-125015516D01*
X211526867Y-125119546D01*
X211482157Y-125174511D01*
X211429464Y-125218715D01*
X211428822Y-125272732D01*
X209941315Y-125272732D01*
X210196842Y-125239908D01*
X210435109Y-125117907D01*
X210439401Y-125114185D01*
X210532390Y-125011913D01*
X210604271Y-124876011D01*
X210657646Y-124688968D01*
X210695118Y-124433275D01*
X210719288Y-124091421D01*
X210732760Y-123645898D01*
X210738137Y-123079195D01*
X210742273Y-121886461D01*
X210967820Y-121858471D01*
X211150997Y-121835739D01*
X212912435Y-121835739D01*
X212913510Y-121859429D01*
X213003521Y-121872188D01*
X213071737Y-121861075D01*
X213045450Y-121830260D01*
X213005318Y-121819172D01*
X212941914Y-121830481D01*
X212912435Y-121835739D01*
X211150997Y-121835739D01*
X211193366Y-121830481D01*
X210967820Y-121819375D01*
X210742273Y-121808268D01*
X210742273Y-121322476D01*
X210742250Y-121292938D01*
X210737504Y-121048951D01*
X210718732Y-120911302D01*
X210677630Y-120850407D01*
X210605890Y-120836683D01*
X210553155Y-120843171D01*
X210367964Y-120933441D01*
X210178071Y-121100035D01*
X210021751Y-121304502D01*
X209937278Y-121508389D01*
X209916177Y-121620868D01*
X209891370Y-121753099D01*
X209449335Y-121705761D01*
X209007301Y-121658423D01*
X208338609Y-121658423D01*
X208373266Y-121649016D01*
X208556208Y-121620868D01*
X208365361Y-121610470D01*
X208305689Y-121606236D01*
X208230449Y-121583147D01*
X208191440Y-121514085D01*
X208176762Y-121368110D01*
X208174514Y-121114279D01*
X208170347Y-120895875D01*
X208142863Y-120707273D01*
X208075145Y-120634709D01*
X207950646Y-120665308D01*
X207867133Y-120716341D01*
X207752818Y-120786196D01*
X207700204Y-120823688D01*
X207464670Y-121072914D01*
X207311124Y-121414145D01*
X207305596Y-121426574D01*
X207290536Y-121460433D01*
X207222335Y-121508520D01*
X207082915Y-121526627D01*
X206838875Y-121522411D01*
X206404842Y-121504308D01*
X206383095Y-121725687D01*
X206375973Y-121867948D01*
X205352791Y-121867948D01*
X205333899Y-121845646D01*
X204977472Y-121597678D01*
X204779649Y-121504436D01*
X204652700Y-121468630D01*
X204637763Y-121512210D01*
X204733724Y-121635347D01*
X204812650Y-121737222D01*
X204959137Y-122058268D01*
X205050137Y-122481673D01*
X205080678Y-122988050D01*
X205072734Y-123237947D01*
X205043718Y-123430405D01*
X204993631Y-123762623D01*
X204823636Y-124225801D01*
X204749195Y-124335941D01*
X204533322Y-124492317D01*
X204251979Y-124571840D01*
X203942643Y-124566778D01*
X203642789Y-124469402D01*
X203606062Y-124450461D01*
X203485589Y-124392654D01*
X203464871Y-124402052D01*
X195292691Y-124402052D01*
X195194036Y-124387840D01*
X194873184Y-124358887D01*
X194466594Y-124335910D01*
X193947738Y-124316147D01*
X193769354Y-124310260D01*
X193344809Y-124294847D01*
X193028417Y-124279054D01*
X192797518Y-124259741D01*
X192629453Y-124233770D01*
X192501564Y-124198003D01*
X192391190Y-124149299D01*
X192275674Y-124084521D01*
X192091906Y-123957983D01*
X191747996Y-123604226D01*
X191452822Y-123131378D01*
X191211462Y-122548485D01*
X191141027Y-122284487D01*
X202955777Y-122284487D01*
X202975589Y-122595989D01*
X203000449Y-122669577D01*
X203174434Y-122934476D01*
X203448335Y-123144961D01*
X203794314Y-123284025D01*
X204184535Y-123334657D01*
X204401530Y-123354983D01*
X204632337Y-123403631D01*
X204648077Y-123408132D01*
X204789891Y-123443855D01*
X204820759Y-123430405D01*
X204760495Y-123361228D01*
X204684945Y-123301075D01*
X204504711Y-123186750D01*
X204284888Y-123067095D01*
X203996892Y-122897761D01*
X203779294Y-122688382D01*
X203663200Y-122435215D01*
X203628885Y-122109465D01*
X203630344Y-121992340D01*
X203651301Y-121801687D01*
X203712782Y-121672107D01*
X203834481Y-121550005D01*
X203884813Y-121506529D01*
X203970385Y-121426574D01*
X204426973Y-121426574D01*
X204461672Y-121461274D01*
X204496372Y-121426574D01*
X204461672Y-121391875D01*
X204426973Y-121426574D01*
X203970385Y-121426574D01*
X203977862Y-121419588D01*
X203971005Y-121398630D01*
X203869181Y-121426008D01*
X203611258Y-121526044D01*
X203285369Y-121734120D01*
X203062956Y-121992066D01*
X202955777Y-122284487D01*
X191141027Y-122284487D01*
X191028999Y-121864594D01*
X191005537Y-121747507D01*
X190979309Y-121601662D01*
X190955532Y-121444309D01*
X190933431Y-121263888D01*
X190912229Y-121048838D01*
X190891150Y-120787600D01*
X190869419Y-120468615D01*
X190846257Y-120080324D01*
X190823363Y-119656902D01*
X203788089Y-119656902D01*
X204224699Y-120160044D01*
X204330533Y-120281936D01*
X204518298Y-120497847D01*
X204665314Y-120666453D01*
X204746498Y-120758966D01*
X204758487Y-120768101D01*
X204768497Y-120716341D01*
X204740382Y-120560098D01*
X204677428Y-120320250D01*
X204658753Y-120257473D01*
X204572432Y-120006571D01*
X204488579Y-119815811D01*
X204423022Y-119722391D01*
X204406714Y-119713668D01*
X204256566Y-119674452D01*
X204055482Y-119657965D01*
X203788089Y-119656902D01*
X190823363Y-119656902D01*
X190820890Y-119611165D01*
X190792541Y-119049581D01*
X190760434Y-118384011D01*
X190723793Y-117602896D01*
X190681841Y-116694677D01*
X190681412Y-116685311D01*
X190660895Y-116143795D01*
X190645759Y-115549896D01*
X190635813Y-114920991D01*
X190630869Y-114274456D01*
X190630738Y-113627669D01*
X190635231Y-112998004D01*
X190644158Y-112402840D01*
X190657330Y-111859551D01*
X190674559Y-111385516D01*
X190695655Y-110998109D01*
X190720429Y-110714708D01*
X190748692Y-110552689D01*
X190754707Y-110534359D01*
X190871350Y-110325133D01*
X191071764Y-110151578D01*
X191366786Y-110009617D01*
X191767252Y-109895169D01*
X192283999Y-109804158D01*
X192927864Y-109732503D01*
X193087033Y-109721339D01*
X193407941Y-109705508D01*
X193840305Y-109688851D01*
X194368560Y-109671798D01*
X194977143Y-109654776D01*
X195650490Y-109638215D01*
X196373037Y-109622542D01*
X197129220Y-109608186D01*
X197903476Y-109595576D01*
X198800166Y-109581576D01*
X199592533Y-109567644D01*
X200267438Y-109553742D01*
X200835679Y-109539477D01*
X201308054Y-109524456D01*
X201695361Y-109508286D01*
X202008398Y-109490574D01*
X202257963Y-109470927D01*
X202454853Y-109448952D01*
X202609866Y-109424256D01*
X202863212Y-109372439D01*
X203253436Y-109269559D01*
X203545950Y-109153014D01*
X203767683Y-109013242D01*
X203778587Y-109001949D01*
X203776829Y-108986094D01*
X203746037Y-108972086D01*
X203678892Y-108959834D01*
X203568078Y-108949247D01*
X203406276Y-108940234D01*
X203186170Y-108932706D01*
X202900442Y-108926570D01*
X202541773Y-108921737D01*
X202102848Y-108918116D01*
X201576348Y-108915616D01*
X200954956Y-108914147D01*
X200231355Y-108913618D01*
X199398226Y-108913938D01*
X198448253Y-108915016D01*
X197374118Y-108916763D01*
X196168503Y-108919086D01*
X195926450Y-108919577D01*
X194750987Y-108922009D01*
X193704942Y-108924361D01*
X192780454Y-108926791D01*
X191969658Y-108929456D01*
X191264692Y-108932515D01*
X190657693Y-108936124D01*
X190140798Y-108940441D01*
X189706143Y-108945624D01*
X189345865Y-108951831D01*
X189052101Y-108959218D01*
X188816989Y-108967944D01*
X188632664Y-108978167D01*
X188491265Y-108990043D01*
X188384927Y-109003731D01*
X188305787Y-109019388D01*
X188245983Y-109037171D01*
X188197652Y-109057239D01*
X188152929Y-109079749D01*
X188068845Y-109130799D01*
X187850658Y-109310697D01*
X187667137Y-109519170D01*
X187630209Y-109571845D01*
X187558902Y-109684406D01*
X187509838Y-109797187D01*
X187478047Y-109937900D01*
X187458560Y-110134254D01*
X187446409Y-110413961D01*
X187436626Y-110804730D01*
X187429521Y-111120300D01*
X187414312Y-111795848D01*
X178169189Y-111795848D01*
X178393321Y-111648301D01*
X178511886Y-111557440D01*
X178721960Y-111390412D01*
X178850726Y-111255761D01*
X178906894Y-111120300D01*
X178899174Y-110950840D01*
X178836274Y-110714193D01*
X178726906Y-110377171D01*
X178650859Y-110138129D01*
X178545082Y-109788259D01*
X178456477Y-109475518D01*
X178398740Y-109247066D01*
X178388054Y-109199356D01*
X178267980Y-108745191D01*
X178139370Y-108414492D01*
X178073174Y-108312718D01*
X205204465Y-108312718D01*
X205207597Y-108314000D01*
X205302963Y-108327405D01*
X205518909Y-108349909D01*
X205840223Y-108380152D01*
X206251697Y-108416775D01*
X206738121Y-108458419D01*
X207284285Y-108503725D01*
X207874980Y-108551333D01*
X207950065Y-108557294D01*
X208544975Y-108604092D01*
X209100252Y-108647036D01*
X209599442Y-108684909D01*
X210026094Y-108716488D01*
X210363756Y-108740556D01*
X210595975Y-108755891D01*
X210706298Y-108761274D01*
X210740106Y-108760803D01*
X210802351Y-108748982D01*
X210810486Y-108707450D01*
X210754553Y-108618092D01*
X210624593Y-108462791D01*
X210410649Y-108223432D01*
X210279278Y-108078826D01*
X209885224Y-107662081D01*
X209543966Y-107333758D01*
X209233694Y-107075229D01*
X208932600Y-106867868D01*
X208618875Y-106693046D01*
X208449667Y-106604372D01*
X208139245Y-106433109D01*
X207767401Y-106221166D01*
X207366833Y-105987245D01*
X206970237Y-105750048D01*
X206625528Y-105542841D01*
X206313537Y-105358716D01*
X206060815Y-105213168D01*
X205887042Y-105117529D01*
X205811901Y-105083132D01*
X205798769Y-105084548D01*
X205714824Y-105146104D01*
X205705525Y-105173045D01*
X205673638Y-105316521D01*
X205627613Y-105559152D01*
X205571252Y-105877349D01*
X205508357Y-106247524D01*
X205442728Y-106646089D01*
X205378169Y-107049455D01*
X205318480Y-107434035D01*
X205267464Y-107776239D01*
X205228921Y-108052480D01*
X205206655Y-108239169D01*
X205204465Y-108312718D01*
X178073174Y-108312718D01*
X177995442Y-108193208D01*
X177829415Y-108067285D01*
X177787957Y-108047483D01*
X177666218Y-107965135D01*
X177607838Y-107846290D01*
X177583400Y-107639834D01*
X177576543Y-107510632D01*
X177587509Y-107373546D01*
X177646105Y-107307484D01*
X177774247Y-107269976D01*
X177985989Y-107223469D01*
X177985989Y-107035943D01*
X203015914Y-107035943D01*
X203034603Y-107201454D01*
X203078032Y-107280528D01*
X203124876Y-107289495D01*
X203215270Y-107228526D01*
X203247191Y-107052037D01*
X203251295Y-106986448D01*
X203314321Y-106721565D01*
X203436843Y-106412680D01*
X203597411Y-106108387D01*
X203774573Y-105857280D01*
X203859209Y-105767493D01*
X204170751Y-105525229D01*
X204607129Y-105284144D01*
X204757041Y-105209176D01*
X205005043Y-105066711D01*
X205129047Y-104961831D01*
X205126642Y-104897077D01*
X204995418Y-104874990D01*
X204966732Y-104876588D01*
X204762116Y-104933383D01*
X204497214Y-105055927D01*
X204209440Y-105222898D01*
X203936205Y-105412969D01*
X203714924Y-105604819D01*
X203491569Y-105864868D01*
X203251107Y-106241417D01*
X203085958Y-106624208D01*
X203016856Y-106972612D01*
X203015914Y-107035943D01*
X177985989Y-107035943D01*
X177985989Y-106326798D01*
X177981205Y-105967181D01*
X177967487Y-105681735D01*
X177946280Y-105496258D01*
X177919032Y-105430126D01*
X177829887Y-105480783D01*
X177749647Y-105660361D01*
X177695556Y-105962149D01*
X177669697Y-106378226D01*
X177665339Y-106518112D01*
X177650394Y-106787811D01*
X177630278Y-106990211D01*
X177608087Y-107089565D01*
X177525306Y-107140573D01*
X177367313Y-107165099D01*
X177173221Y-107165099D01*
X177265440Y-107695409D01*
X177304620Y-107890482D01*
X177406568Y-108216052D01*
X177531383Y-108415776D01*
X177675953Y-108483678D01*
X177758923Y-108506090D01*
X177831452Y-108588071D01*
X177899600Y-108749069D01*
X177971542Y-109008521D01*
X178055456Y-109385864D01*
X178094101Y-109563863D01*
X178185524Y-109950787D01*
X178281822Y-110322786D01*
X178367626Y-110619139D01*
X178527356Y-111123725D01*
X178031126Y-111514129D01*
X177681346Y-111769802D01*
X177210062Y-112047267D01*
X176690513Y-112273490D01*
X176077519Y-112470591D01*
X175764449Y-112551766D01*
X175220785Y-112672230D01*
X174601590Y-112790857D01*
X173944044Y-112901118D01*
X173285323Y-112996481D01*
X172662607Y-113070416D01*
X172633991Y-113073400D01*
X172318499Y-113111276D01*
X172066283Y-113150459D01*
X171902342Y-113186492D01*
X171851675Y-113214921D01*
X167622495Y-113214921D01*
X167582013Y-113167636D01*
X167416024Y-113036519D01*
X167214673Y-112855699D01*
X166931654Y-112529657D01*
X166649034Y-112134692D01*
X166391767Y-111706398D01*
X166184805Y-111280365D01*
X166065298Y-110982564D01*
X165888641Y-110482819D01*
X165752156Y-110016114D01*
X165664164Y-109612291D01*
X165632984Y-109301192D01*
X165633246Y-109259399D01*
X165652140Y-109066368D01*
X165721722Y-108945180D01*
X165871051Y-108866550D01*
X166129191Y-108801194D01*
X166221177Y-108765871D01*
X166359872Y-108615853D01*
X166420670Y-108388351D01*
X166391265Y-108115563D01*
X166355949Y-108007689D01*
X166224913Y-107797905D01*
X166016948Y-107676777D01*
X165706077Y-107625734D01*
X165599157Y-107616099D01*
X165389698Y-107571683D01*
X165280754Y-107505999D01*
X165262581Y-107471205D01*
X165220499Y-107258558D01*
X165230475Y-106964991D01*
X165289104Y-106627585D01*
X165392984Y-106283420D01*
X165408561Y-106241672D01*
X165524420Y-105927275D01*
X165656538Y-105563876D01*
X165779275Y-105221929D01*
X165790963Y-105189375D01*
X165931764Y-104824924D01*
X166096642Y-104434234D01*
X166252313Y-104096491D01*
X166515454Y-103560943D01*
X166307179Y-103709248D01*
X166271130Y-103738332D01*
X166108762Y-103935204D01*
X165929453Y-104240719D01*
X165742278Y-104632973D01*
X165556312Y-105090062D01*
X165516200Y-105204229D01*
X165380633Y-105590083D01*
X165224315Y-106111132D01*
X165096434Y-106631306D01*
X165071801Y-106754534D01*
X165016126Y-107154656D01*
X164985394Y-107627783D01*
X164977168Y-108206082D01*
X160512920Y-108206082D01*
X160605646Y-108057644D01*
X160704243Y-107794956D01*
X160711921Y-107767802D01*
X160848451Y-107435774D01*
X161078201Y-107032892D01*
X161389539Y-106576334D01*
X161770832Y-106083276D01*
X162210446Y-105570895D01*
X162351847Y-105412745D01*
X162475012Y-105268170D01*
X162514925Y-105204229D01*
X162478146Y-105208604D01*
X162371235Y-105268976D01*
X162318610Y-105300850D01*
X162141532Y-105408562D01*
X161871400Y-105573167D01*
X161524456Y-105784757D01*
X161116941Y-106033426D01*
X160665098Y-106309265D01*
X160185170Y-106602369D01*
X158242000Y-107789347D01*
X157062219Y-109137145D01*
X156704461Y-109542847D01*
X156360462Y-109922828D01*
X156059498Y-110239678D01*
X155777608Y-110516851D01*
X155490828Y-110777802D01*
X155175198Y-111045985D01*
X154806754Y-111344856D01*
X154511983Y-111580009D01*
X153751538Y-112181127D01*
X153087519Y-112696811D01*
X152513931Y-113131382D01*
X152024783Y-113489160D01*
X151614079Y-113774468D01*
X151275828Y-113991625D01*
X151004035Y-114144953D01*
X150792708Y-114238773D01*
X150658827Y-114300922D01*
X150479212Y-114420222D01*
X150327585Y-114554817D01*
X150234640Y-114676401D01*
X150231074Y-114756670D01*
X142967538Y-114756670D01*
X142967759Y-114521383D01*
X142964082Y-114308552D01*
X142948541Y-113998385D01*
X142916911Y-113690539D01*
X142864439Y-113350864D01*
X142786371Y-112945206D01*
X142677952Y-112439416D01*
X142576286Y-111967361D01*
X142429178Y-111214246D01*
X142328077Y-110565085D01*
X142274148Y-110002154D01*
X142268556Y-109507726D01*
X142312468Y-109064074D01*
X142407049Y-108653471D01*
X142553463Y-108258192D01*
X142752877Y-107860508D01*
X143006456Y-107442694D01*
X143123155Y-107259947D01*
X143587341Y-106486771D01*
X144067385Y-105620929D01*
X144549336Y-104691675D01*
X145019242Y-103728268D01*
X145139520Y-103465904D01*
X168919706Y-103465904D01*
X168943317Y-103634879D01*
X169028624Y-103902655D01*
X169170502Y-104255822D01*
X169363828Y-104680970D01*
X169603478Y-105164690D01*
X169653006Y-105259755D01*
X169901535Y-105698679D01*
X170145389Y-106070965D01*
X170363855Y-106344472D01*
X170396176Y-106378996D01*
X170549410Y-106537516D01*
X170649850Y-106632562D01*
X170677113Y-106644607D01*
X170667416Y-106622282D01*
X170615080Y-106499950D01*
X171864658Y-106499950D01*
X172018258Y-106624328D01*
X172034741Y-106637687D01*
X172044108Y-106644607D01*
X172138351Y-106714234D01*
X172225929Y-106736752D01*
X172345153Y-106704584D01*
X172543698Y-106617071D01*
X172659414Y-106554046D01*
X172916352Y-106371596D01*
X173206825Y-106126775D01*
X173497728Y-105850078D01*
X173755958Y-105572001D01*
X173948411Y-105323039D01*
X174150841Y-105017426D01*
X174025913Y-104493066D01*
X173998112Y-104369715D01*
X173923647Y-103970239D01*
X173859825Y-103530735D01*
X173810196Y-103086381D01*
X173778310Y-102672356D01*
X173767718Y-102323837D01*
X173781970Y-102076003D01*
X173791259Y-102016692D01*
X173831662Y-101845925D01*
X173892907Y-101769542D01*
X173998790Y-101751984D01*
X174001547Y-101752006D01*
X174109478Y-101784064D01*
X174240274Y-101883184D01*
X174400961Y-102058629D01*
X174598562Y-102319660D01*
X174840103Y-102675537D01*
X175132608Y-103135522D01*
X175483102Y-103708876D01*
X175572504Y-103856843D01*
X175880914Y-104361766D01*
X176124970Y-104750949D01*
X176304610Y-105023698D01*
X176419776Y-105179322D01*
X176470407Y-105217130D01*
X176456443Y-105136428D01*
X176377825Y-104936526D01*
X176234491Y-104616731D01*
X176026382Y-104176350D01*
X175761634Y-103631560D01*
X205826922Y-103631560D01*
X205829156Y-103684815D01*
X205882500Y-103657416D01*
X206028596Y-103582174D01*
X206231344Y-103477667D01*
X206584345Y-103312598D01*
X207244702Y-103080868D01*
X207918810Y-102932956D01*
X208571462Y-102875602D01*
X209167449Y-102915547D01*
X209239227Y-102926842D01*
X209430648Y-102948288D01*
X209498233Y-102935142D01*
X209439976Y-102885224D01*
X209253869Y-102796354D01*
X208937902Y-102666351D01*
X208923022Y-102660425D01*
X208649790Y-102546227D01*
X208298391Y-102392245D01*
X207912525Y-102217917D01*
X207535891Y-102042683D01*
X206654372Y-101625396D01*
X206445600Y-101950739D01*
X206434303Y-101968561D01*
X206257669Y-102295557D01*
X206086279Y-102689376D01*
X205944239Y-103089373D01*
X205855653Y-103434907D01*
X205846742Y-103486305D01*
X205826922Y-103631560D01*
X175761634Y-103631560D01*
X175753438Y-103614694D01*
X175415599Y-102931068D01*
X175229748Y-102555442D01*
X175000100Y-102085875D01*
X174798431Y-101667287D01*
X174673270Y-101402418D01*
X203871782Y-101402418D01*
X203906437Y-101552326D01*
X204054556Y-101756536D01*
X204295174Y-101936473D01*
X204602077Y-102068235D01*
X204688372Y-102093426D01*
X204962414Y-102155904D01*
X205135202Y-102157454D01*
X205225060Y-102098979D01*
X205233489Y-102084189D01*
X205236454Y-101987294D01*
X205121607Y-101917151D01*
X204878764Y-101866939D01*
X204660945Y-101828315D01*
X204371502Y-101727600D01*
X204203575Y-101581845D01*
X204149292Y-101385858D01*
X204149588Y-101367715D01*
X204167900Y-101261116D01*
X204225964Y-101144934D01*
X204339577Y-100998289D01*
X204524535Y-100800299D01*
X204796631Y-100530082D01*
X204797087Y-100529637D01*
X205074197Y-100269224D01*
X205350230Y-100027198D01*
X205503719Y-99902998D01*
X206263573Y-99902998D01*
X206283377Y-100023206D01*
X206364514Y-100031865D01*
X206502015Y-99920284D01*
X206643655Y-99792556D01*
X206992122Y-99572118D01*
X207037482Y-99551809D01*
X210190385Y-99551809D01*
X210234480Y-99633924D01*
X210384021Y-99670017D01*
X210511868Y-99691046D01*
X210656567Y-99775357D01*
X210814584Y-99938972D01*
X211000684Y-100197548D01*
X211229631Y-100566741D01*
X211307368Y-100702534D01*
X211519760Y-101162735D01*
X211615877Y-101557976D01*
X211595754Y-101885494D01*
X211459429Y-102142525D01*
X211206935Y-102326305D01*
X211140907Y-102360333D01*
X211016256Y-102449781D01*
X210986354Y-102517289D01*
X211054774Y-102570813D01*
X211210615Y-102572981D01*
X211402226Y-102499938D01*
X211594368Y-102366809D01*
X211751805Y-102188720D01*
X211805920Y-102093700D01*
X211880351Y-101830758D01*
X211864680Y-101519887D01*
X211756647Y-101143931D01*
X211553996Y-100685733D01*
X211552576Y-100682874D01*
X211309898Y-100242361D01*
X211062671Y-99881148D01*
X210822674Y-99612437D01*
X210601688Y-99449430D01*
X210411493Y-99405328D01*
X210402240Y-99406484D01*
X210247662Y-99462914D01*
X210190385Y-99551809D01*
X207037482Y-99551809D01*
X207436576Y-99373121D01*
X207949559Y-99205369D01*
X208503610Y-99078668D01*
X209071267Y-99002826D01*
X209606923Y-98958154D01*
X209515308Y-98604972D01*
X209458065Y-98330970D01*
X209424133Y-97906724D01*
X209461136Y-97534425D01*
X209567741Y-97248523D01*
X209584127Y-97220873D01*
X209654224Y-97041480D01*
X209616186Y-96916313D01*
X209460238Y-96833718D01*
X209176608Y-96782037D01*
X209107941Y-96774773D01*
X208939357Y-96770129D01*
X208792461Y-96802468D01*
X208622256Y-96886186D01*
X208383744Y-97035677D01*
X208166145Y-97189319D01*
X207702336Y-97591733D01*
X207260637Y-98068715D01*
X207006317Y-98403985D01*
X206867177Y-98587414D01*
X206548083Y-99114977D01*
X206418520Y-99413447D01*
X206329486Y-99618551D01*
X206310074Y-99679935D01*
X206263573Y-99902998D01*
X205503719Y-99902998D01*
X205593244Y-99830556D01*
X205771301Y-99706293D01*
X205850793Y-99657448D01*
X206022926Y-99519517D01*
X206066578Y-99413447D01*
X205979495Y-99343171D01*
X205903849Y-99353812D01*
X205727328Y-99447682D01*
X205476567Y-99623986D01*
X205164749Y-99873261D01*
X204805062Y-100186044D01*
X204795954Y-100194252D01*
X204387703Y-100585406D01*
X204099335Y-100914877D01*
X203928234Y-101186078D01*
X203871782Y-101402418D01*
X174673270Y-101402418D01*
X174631621Y-101314280D01*
X174506548Y-101041458D01*
X174430093Y-100863422D01*
X174409136Y-100794776D01*
X174410707Y-100793437D01*
X174494676Y-100750511D01*
X174679242Y-100667523D01*
X174938483Y-100555862D01*
X175246480Y-100426913D01*
X175280334Y-100412868D01*
X175728959Y-100217063D01*
X176153038Y-100015302D01*
X176526211Y-99821242D01*
X176822120Y-99648541D01*
X177014405Y-99510859D01*
X177060742Y-99467136D01*
X177197451Y-99330788D01*
X177387371Y-99136777D01*
X177604295Y-98911722D01*
X178090088Y-98403985D01*
X177725456Y-98443874D01*
X177571040Y-98466601D01*
X177415279Y-98513515D01*
X177254724Y-98599573D01*
X177056710Y-98742817D01*
X176788571Y-98961287D01*
X176334890Y-99325065D01*
X176239532Y-99392679D01*
X175731060Y-99753212D01*
X175158365Y-100085241D01*
X174592915Y-100334512D01*
X174010816Y-100514382D01*
X173928513Y-100535752D01*
X173657385Y-100617272D01*
X173439914Y-100698915D01*
X173317074Y-100765829D01*
X173277750Y-100812823D01*
X173177047Y-101012194D01*
X173057611Y-101338437D01*
X172921299Y-101784513D01*
X172769967Y-102343381D01*
X172605470Y-103008003D01*
X172429666Y-103771339D01*
X172244408Y-104626349D01*
X172051554Y-105565994D01*
X171864658Y-106499950D01*
X170615080Y-106499950D01*
X170610433Y-106489087D01*
X170511203Y-106256190D01*
X170377947Y-105942916D01*
X170218889Y-105568588D01*
X170042249Y-105152530D01*
X169864410Y-104738107D01*
X169680947Y-104326257D01*
X169532548Y-104016302D01*
X169411305Y-103792792D01*
X169309312Y-103640274D01*
X169218659Y-103543298D01*
X169173985Y-103507288D01*
X169025820Y-103419244D01*
X168936259Y-103418493D01*
X168919706Y-103465904D01*
X145139520Y-103465904D01*
X145463151Y-102759963D01*
X145867111Y-101816017D01*
X146217170Y-100925686D01*
X146485955Y-100156627D01*
X167992547Y-100156627D01*
X167992547Y-101127803D01*
X167992847Y-101253548D01*
X167996803Y-101586170D01*
X168004634Y-101854506D01*
X168015426Y-102033721D01*
X168028266Y-102098979D01*
X168113460Y-102035675D01*
X168201208Y-101868228D01*
X168282946Y-101630914D01*
X168350228Y-101358008D01*
X168394605Y-101083786D01*
X168407628Y-100842525D01*
X168380850Y-100668499D01*
X168376083Y-100646154D01*
X168414636Y-100536796D01*
X168547594Y-100372551D01*
X168784512Y-100140930D01*
X168854863Y-100074305D01*
X169060873Y-99858809D01*
X169220946Y-99661621D01*
X169305156Y-99518514D01*
X169317070Y-99483909D01*
X169342196Y-99392679D01*
X169330421Y-99349383D01*
X169265866Y-99359587D01*
X169132653Y-99428856D01*
X168914903Y-99562758D01*
X168596737Y-99766859D01*
X167992547Y-100156627D01*
X146485955Y-100156627D01*
X146499376Y-100118227D01*
X146526393Y-100034422D01*
X146652418Y-99637396D01*
X146739647Y-99324364D01*
X146786369Y-99064875D01*
X146790871Y-98828475D01*
X146751441Y-98584712D01*
X146666368Y-98303132D01*
X146533938Y-97953282D01*
X146352441Y-97504711D01*
X146284753Y-97337161D01*
X145886201Y-96302018D01*
X145531529Y-95295017D01*
X145316520Y-94619700D01*
X166217393Y-94619700D01*
X166227607Y-94722889D01*
X166348794Y-94818853D01*
X166353825Y-94821166D01*
X166443567Y-94878535D01*
X166500418Y-94971051D01*
X166537368Y-95133218D01*
X166567408Y-95399545D01*
X166588130Y-95572058D01*
X166686860Y-95974123D01*
X166844604Y-96254222D01*
X167060211Y-96409998D01*
X167184585Y-96444861D01*
X167517675Y-96462993D01*
X167951000Y-96405388D01*
X168489379Y-96271233D01*
X169137629Y-96059716D01*
X169483919Y-95933319D01*
X169798439Y-95807372D01*
X169999717Y-95709012D01*
X170098962Y-95632608D01*
X170107387Y-95572526D01*
X170098166Y-95559030D01*
X170033204Y-95516348D01*
X169919593Y-95520602D01*
X169731862Y-95576212D01*
X169444539Y-95687602D01*
X169131155Y-95806057D01*
X168686432Y-95947551D01*
X168246503Y-96060792D01*
X167836191Y-96141142D01*
X167480322Y-96183963D01*
X167203717Y-96184619D01*
X167031203Y-96138470D01*
X167019699Y-96128031D01*
X166963613Y-96004356D01*
X166906949Y-95776807D01*
X166857134Y-95473743D01*
X166841845Y-95361547D01*
X166797597Y-95095098D01*
X166747596Y-94919583D01*
X166679011Y-94799228D01*
X166579013Y-94698257D01*
X166546832Y-94671694D01*
X166403053Y-94578027D01*
X166306326Y-94552946D01*
X166217393Y-94619700D01*
X145316520Y-94619700D01*
X145223600Y-94327848D01*
X144965279Y-93412204D01*
X144759430Y-92559775D01*
X144608916Y-91782252D01*
X144516602Y-91091327D01*
X144485350Y-90498690D01*
X144518026Y-90016033D01*
X144609793Y-89598215D01*
X144815253Y-89103434D01*
X145123016Y-88683784D01*
X145543836Y-88325563D01*
X146088465Y-88015073D01*
X146517931Y-87833644D01*
X147238296Y-87622544D01*
X148048728Y-87490762D01*
X148473488Y-87444266D01*
X148510404Y-87120393D01*
X148516218Y-87068149D01*
X148538391Y-86862871D01*
X148571898Y-86548302D01*
X148614657Y-86144148D01*
X148664586Y-85670117D01*
X148719602Y-85145916D01*
X148777623Y-84591253D01*
X149007926Y-82385987D01*
X147121627Y-80499689D01*
X147033495Y-80411619D01*
X146619082Y-79999202D01*
X146238090Y-79622784D01*
X145901251Y-79292779D01*
X145619299Y-79019597D01*
X145402964Y-78813651D01*
X145262980Y-78685355D01*
X145210079Y-78645119D01*
X145201618Y-78703113D01*
X145177547Y-78893456D01*
X145138673Y-79210846D01*
X145085670Y-79649597D01*
X145019207Y-80204025D01*
X144939957Y-80868446D01*
X144848589Y-81637176D01*
X144745777Y-82504528D01*
X144632189Y-83464819D01*
X144508498Y-84512365D01*
X144375376Y-85641480D01*
X144233492Y-86846480D01*
X144083518Y-88121681D01*
X143926126Y-89461398D01*
X143761986Y-90859946D01*
X143591771Y-92311641D01*
X143416149Y-93810798D01*
X143235794Y-95351732D01*
X143051376Y-96928760D01*
X142900120Y-98221920D01*
X142717059Y-99784689D01*
X142537887Y-101311766D01*
X142363319Y-102797141D01*
X142194071Y-104234802D01*
X142030858Y-105618741D01*
X141874394Y-106942947D01*
X141725396Y-108201409D01*
X141584578Y-109388117D01*
X141452655Y-110497060D01*
X141330343Y-111522230D01*
X141218357Y-112457614D01*
X141117412Y-113297204D01*
X141028223Y-114034988D01*
X140951505Y-114664957D01*
X140887973Y-115181100D01*
X140838344Y-115577406D01*
X140803331Y-115847866D01*
X140783650Y-115986470D01*
X140732882Y-116294448D01*
X140689512Y-116564210D01*
X140660166Y-116754494D01*
X140649377Y-116836606D01*
X140178603Y-116836606D01*
X140192204Y-116730976D01*
X140240194Y-116349098D01*
X140301913Y-115851852D01*
X140376582Y-115245732D01*
X140463422Y-114537228D01*
X140561655Y-113732832D01*
X140670500Y-112839035D01*
X140789179Y-111862327D01*
X140916912Y-110809202D01*
X141052921Y-109686149D01*
X141196426Y-108499660D01*
X141346648Y-107256227D01*
X141502808Y-105962341D01*
X141664127Y-104624492D01*
X141829825Y-103249173D01*
X141999124Y-101842875D01*
X142171245Y-100412088D01*
X142345407Y-98963305D01*
X142520833Y-97503017D01*
X142696743Y-96037714D01*
X142872358Y-94573889D01*
X143046898Y-93118032D01*
X143219585Y-91676635D01*
X143389639Y-90256189D01*
X143556282Y-88863185D01*
X143718733Y-87504115D01*
X143876215Y-86185471D01*
X144027947Y-84913742D01*
X144173152Y-83695422D01*
X144311048Y-82537000D01*
X144440858Y-81444969D01*
X144561803Y-80425819D01*
X144673102Y-79486042D01*
X144773978Y-78632130D01*
X144863650Y-77870573D01*
X144941341Y-77207862D01*
X145006269Y-76650490D01*
X145057657Y-76204947D01*
X145094726Y-75877725D01*
X145116696Y-75675316D01*
X145122787Y-75604209D01*
X145107735Y-75602454D01*
X144978401Y-75592650D01*
X144724651Y-75575142D01*
X144356151Y-75550539D01*
X143882571Y-75519448D01*
X143313577Y-75482479D01*
X142658836Y-75440239D01*
X141928016Y-75393338D01*
X141130784Y-75342382D01*
X140276809Y-75287982D01*
X139375757Y-75230744D01*
X138437296Y-75171278D01*
X137471093Y-75110191D01*
X136486817Y-75048093D01*
X135494133Y-74985591D01*
X134502711Y-74923294D01*
X133522217Y-74861810D01*
X132562318Y-74801747D01*
X131632683Y-74743715D01*
X130742978Y-74688321D01*
X129902872Y-74636173D01*
X129122032Y-74587881D01*
X128410124Y-74544051D01*
X127776818Y-74505294D01*
X127231779Y-74472216D01*
X126784676Y-74445427D01*
X126445176Y-74425535D01*
X126222947Y-74413148D01*
X126127656Y-74408874D01*
X126121803Y-74409570D01*
X126108084Y-74419175D01*
X126095492Y-74444493D01*
X126083980Y-74491119D01*
X126073499Y-74564647D01*
X126064001Y-74670673D01*
X126055437Y-74814791D01*
X126047761Y-75002596D01*
X126040923Y-75239682D01*
X126034875Y-75531645D01*
X126029569Y-75884079D01*
X126024957Y-76302579D01*
X126020991Y-76792740D01*
X126017622Y-77360156D01*
X126014803Y-78010423D01*
X126012485Y-78749134D01*
X126010621Y-79581885D01*
X126009161Y-80514271D01*
X126008058Y-81551886D01*
X126007263Y-82700325D01*
X126006729Y-83965182D01*
X126006408Y-85352053D01*
X126006250Y-86866533D01*
X126006208Y-88514215D01*
X123351154Y-88514215D01*
X123351872Y-87952649D01*
X123352434Y-87503810D01*
X123353988Y-86146404D01*
X123355281Y-84828408D01*
X123356315Y-83556450D01*
X123357093Y-82337154D01*
X123357616Y-81177146D01*
X123357888Y-80083052D01*
X123357909Y-79061499D01*
X123357683Y-78119111D01*
X123357212Y-77262514D01*
X123356497Y-76498335D01*
X123355542Y-75833199D01*
X123354348Y-75273731D01*
X123352917Y-74826558D01*
X123351253Y-74498306D01*
X123349356Y-74295599D01*
X123347230Y-74225064D01*
X123337003Y-74223610D01*
X123217504Y-74213223D01*
X122969751Y-74193820D01*
X122601154Y-74165929D01*
X122119120Y-74130077D01*
X121531057Y-74086790D01*
X120844374Y-74036596D01*
X120066478Y-73980021D01*
X119204779Y-73917593D01*
X118266683Y-73849837D01*
X117259600Y-73777281D01*
X116190936Y-73700451D01*
X115068102Y-73619876D01*
X113898504Y-73536080D01*
X112689551Y-73449592D01*
X111448650Y-73360938D01*
X110183211Y-73270644D01*
X108900641Y-73179239D01*
X107608349Y-73087248D01*
X106313742Y-72995198D01*
X105024229Y-72903617D01*
X103747218Y-72813031D01*
X102490117Y-72723967D01*
X101260334Y-72636952D01*
X100065277Y-72552512D01*
X98912355Y-72471175D01*
X97808976Y-72393468D01*
X96762548Y-72319917D01*
X95780478Y-72251048D01*
X94870176Y-72187390D01*
X94039049Y-72129469D01*
X93294506Y-72077811D01*
X92643954Y-72032944D01*
X92094802Y-71995394D01*
X91654458Y-71965688D01*
X91330331Y-71944353D01*
X91129827Y-71931916D01*
X91060356Y-71928904D01*
X91059647Y-71941356D01*
X91058945Y-72064739D01*
X88253202Y-72064739D01*
X88253202Y-71649165D01*
X87750060Y-71605081D01*
X87742100Y-71604429D01*
X87617630Y-71595521D01*
X87364335Y-71578167D01*
X86989439Y-71552843D01*
X86500167Y-71520025D01*
X85903744Y-71480190D01*
X85207395Y-71433812D01*
X84418345Y-71381368D01*
X83543819Y-71323334D01*
X82591041Y-71260184D01*
X81567237Y-71192396D01*
X80479632Y-71120445D01*
X79335450Y-71044806D01*
X78141916Y-70965956D01*
X76906255Y-70884370D01*
X75635692Y-70800524D01*
X74337452Y-70714894D01*
X73018759Y-70627955D01*
X71686840Y-70540185D01*
X70348918Y-70452057D01*
X69012218Y-70364049D01*
X67683965Y-70276635D01*
X66371385Y-70190293D01*
X65081702Y-70105497D01*
X63822141Y-70022723D01*
X62599926Y-69942448D01*
X61422284Y-69865146D01*
X60296438Y-69791295D01*
X59229613Y-69721368D01*
X58229035Y-69655844D01*
X57514810Y-69609122D01*
X125866287Y-69609122D01*
X126300592Y-69652231D01*
X126335446Y-69655378D01*
X126512623Y-69669806D01*
X126816153Y-69693540D01*
X127237553Y-69725943D01*
X127768343Y-69766378D01*
X128400041Y-69814207D01*
X129124165Y-69868792D01*
X129932234Y-69929495D01*
X130815766Y-69995680D01*
X131766279Y-70066708D01*
X132775292Y-70141942D01*
X133834323Y-70220744D01*
X134934891Y-70302477D01*
X136068515Y-70386503D01*
X136611968Y-70426736D01*
X137721469Y-70508802D01*
X138789525Y-70587709D01*
X139808054Y-70662864D01*
X140768977Y-70733675D01*
X141664212Y-70799548D01*
X142485677Y-70859892D01*
X143225292Y-70914113D01*
X143874976Y-70961618D01*
X144426648Y-71001815D01*
X144872227Y-71034111D01*
X145203632Y-71057914D01*
X145412781Y-71072630D01*
X145491594Y-71077667D01*
X145525646Y-71071786D01*
X145606949Y-70990918D01*
X145615176Y-70937308D01*
X145638391Y-70756782D01*
X145674424Y-70463263D01*
X145721664Y-70070651D01*
X145778501Y-69592850D01*
X145843326Y-69043761D01*
X145914529Y-68437286D01*
X145990499Y-67787329D01*
X146069627Y-67107790D01*
X146150302Y-66412573D01*
X146230915Y-65715578D01*
X146309855Y-65030710D01*
X146385513Y-64371869D01*
X146456278Y-63752957D01*
X146520540Y-63187878D01*
X146576690Y-62690533D01*
X146623117Y-62274825D01*
X146658212Y-61954655D01*
X146680364Y-61743926D01*
X146687963Y-61656539D01*
X146684865Y-61652069D01*
X146642047Y-61640392D01*
X146544509Y-61629906D01*
X146386648Y-61620573D01*
X146162857Y-61612355D01*
X145867531Y-61605216D01*
X145495066Y-61599117D01*
X145039856Y-61594022D01*
X144496296Y-61589892D01*
X143858781Y-61586692D01*
X143121705Y-61584382D01*
X142279464Y-61582926D01*
X141326452Y-61582286D01*
X140257065Y-61582425D01*
X139065696Y-61583305D01*
X137746742Y-61584890D01*
X136294596Y-61587140D01*
X125902110Y-61604716D01*
X125884198Y-65606919D01*
X125866850Y-69483316D01*
X125866287Y-69609122D01*
X57514810Y-69609122D01*
X57301928Y-69595196D01*
X56455517Y-69539902D01*
X55697028Y-69490436D01*
X55033684Y-69447276D01*
X54472711Y-69410895D01*
X54021334Y-69381771D01*
X53686778Y-69360379D01*
X53476266Y-69347195D01*
X53397026Y-69342694D01*
X53391320Y-69379090D01*
X53383805Y-69541865D01*
X53376710Y-69826027D01*
X53370122Y-70221515D01*
X53364128Y-70718269D01*
X53358817Y-71306229D01*
X53354275Y-71975335D01*
X53350590Y-72715525D01*
X53347849Y-73516740D01*
X53346141Y-74368920D01*
X53345552Y-75262004D01*
X50777744Y-75262004D01*
X50777793Y-74835408D01*
X50777793Y-69076146D01*
X50344049Y-69034492D01*
X50309918Y-69031653D01*
X50135980Y-69019214D01*
X49834709Y-68998893D01*
X49413102Y-68971128D01*
X48878155Y-68936356D01*
X48236864Y-68895015D01*
X47496225Y-68847544D01*
X46663234Y-68794378D01*
X45744888Y-68735957D01*
X44748182Y-68672717D01*
X43680113Y-68605096D01*
X42547678Y-68533532D01*
X41357871Y-68458463D01*
X40117689Y-68380326D01*
X38834130Y-68299558D01*
X37514187Y-68216598D01*
X36164859Y-68131882D01*
X34793141Y-68045849D01*
X33406028Y-67958937D01*
X32010518Y-67871582D01*
X30613607Y-67784222D01*
X29222290Y-67697295D01*
X27843565Y-67611239D01*
X26484426Y-67526491D01*
X25151870Y-67443489D01*
X23852894Y-67362671D01*
X22594493Y-67284473D01*
X21383664Y-67209334D01*
X20227402Y-67137692D01*
X19132705Y-67069983D01*
X18106568Y-67006646D01*
X17155987Y-66948118D01*
X16287959Y-66894837D01*
X15509480Y-66847240D01*
X14827545Y-66805765D01*
X14249152Y-66770849D01*
X13781295Y-66742931D01*
X13430972Y-66722448D01*
X13205179Y-66709837D01*
X13110911Y-66705536D01*
X12816590Y-66705536D01*
X47191Y-66705536D01*
X47191Y-61574414D01*
X18888995Y-61574414D01*
X19095550Y-61728363D01*
X19098633Y-61730634D01*
X19125557Y-61747893D01*
X19161346Y-61764607D01*
X19211402Y-61781216D01*
X19281121Y-61798157D01*
X19375904Y-61815868D01*
X19501149Y-61834786D01*
X19662255Y-61855351D01*
X19864621Y-61877999D01*
X20113645Y-61903169D01*
X20414727Y-61931299D01*
X20773266Y-61962827D01*
X21194660Y-61998189D01*
X21684308Y-62037825D01*
X22247609Y-62082173D01*
X22889962Y-62131670D01*
X23616766Y-62186754D01*
X24433419Y-62247862D01*
X25345322Y-62315434D01*
X26357871Y-62389907D01*
X27476467Y-62471719D01*
X28706508Y-62561307D01*
X30053393Y-62659111D01*
X31522521Y-62765566D01*
X33119291Y-62881112D01*
X34849102Y-63006187D01*
X35421506Y-63047559D01*
X36868001Y-63152047D01*
X38276619Y-63253714D01*
X39641076Y-63352110D01*
X40955086Y-63446783D01*
X42212364Y-63537284D01*
X43406626Y-63623162D01*
X44531587Y-63703967D01*
X45580961Y-63779249D01*
X46548465Y-63848557D01*
X47427812Y-63911441D01*
X48212719Y-63967450D01*
X48896899Y-64016134D01*
X49474070Y-64057043D01*
X49937944Y-64089726D01*
X50282238Y-64113734D01*
X50500667Y-64128615D01*
X50586946Y-64133919D01*
X50777793Y-64137776D01*
X50777793Y-61570017D01*
X34833394Y-61572215D01*
X18888995Y-61574414D01*
X47191Y-61574414D01*
X47191Y-61569745D01*
X53345552Y-61569745D01*
X53345552Y-62992558D01*
X53345695Y-63296339D01*
X53347305Y-63699253D01*
X53352136Y-63991697D01*
X53359297Y-64137776D01*
X53361923Y-64191343D01*
X53378404Y-64315863D01*
X53403315Y-64382926D01*
X53438393Y-64410206D01*
X53485373Y-64415372D01*
X53487026Y-64415408D01*
X53579887Y-64420861D01*
X53804682Y-64435298D01*
X54155397Y-64458313D01*
X54626015Y-64489502D01*
X55210522Y-64528458D01*
X55902902Y-64574778D01*
X56697140Y-64628055D01*
X57587221Y-64687884D01*
X58567130Y-64753860D01*
X59630852Y-64825578D01*
X60772371Y-64902633D01*
X61985672Y-64984619D01*
X63264741Y-65071130D01*
X64603561Y-65161763D01*
X65996118Y-65256111D01*
X67436396Y-65353768D01*
X68918381Y-65454331D01*
X70436056Y-65557394D01*
X70503622Y-65561984D01*
X72025110Y-65665386D01*
X73513337Y-65766605D01*
X74962113Y-65865215D01*
X76365249Y-65960793D01*
X77716555Y-66052916D01*
X79009842Y-66141159D01*
X80238921Y-66225098D01*
X81397603Y-66304310D01*
X82479698Y-66378371D01*
X83479016Y-66446857D01*
X84389370Y-66509344D01*
X85204569Y-66565408D01*
X85918423Y-66614625D01*
X86524745Y-66656572D01*
X87017343Y-66690824D01*
X87390030Y-66716958D01*
X87636616Y-66734550D01*
X87750911Y-66743176D01*
X88254904Y-66786936D01*
X88247071Y-65671850D01*
X91040912Y-65671850D01*
X91043611Y-66120653D01*
X91049807Y-66464964D01*
X91059776Y-66715636D01*
X91065729Y-66786936D01*
X91073794Y-66883523D01*
X91092140Y-66979479D01*
X91115091Y-67014358D01*
X91141033Y-67017392D01*
X91291961Y-67030613D01*
X91571686Y-67053425D01*
X91974036Y-67085358D01*
X92492837Y-67125940D01*
X93121916Y-67174703D01*
X93855101Y-67231174D01*
X94686218Y-67294885D01*
X95609094Y-67365364D01*
X96617556Y-67442142D01*
X97705432Y-67524748D01*
X98866548Y-67612711D01*
X100094732Y-67705562D01*
X101383810Y-67802829D01*
X102727610Y-67904043D01*
X104119958Y-68008733D01*
X105554681Y-68116430D01*
X107025607Y-68226661D01*
X107819934Y-68286160D01*
X109275468Y-68395294D01*
X110692797Y-68501702D01*
X112065660Y-68604908D01*
X113387792Y-68704437D01*
X114652930Y-68799812D01*
X115854813Y-68890560D01*
X116987176Y-68976205D01*
X118043757Y-69056271D01*
X118305456Y-69076146D01*
X119018292Y-69130283D01*
X119904519Y-69197766D01*
X120696175Y-69258243D01*
X121386996Y-69311241D01*
X121970719Y-69356283D01*
X122441082Y-69392895D01*
X122791821Y-69420600D01*
X123016674Y-69438924D01*
X123109377Y-69447391D01*
X123370196Y-69483316D01*
X123334350Y-61604716D01*
X91063858Y-61604716D01*
X91045692Y-64295789D01*
X91044892Y-64417347D01*
X91041431Y-65107699D01*
X91040912Y-65671850D01*
X88247071Y-65671850D01*
X88236703Y-64195826D01*
X88218503Y-61604716D01*
X70782028Y-61587230D01*
X53345552Y-61569745D01*
X47191Y-61569745D01*
X47191Y-61361820D01*
X227467410Y-61361820D01*
X227467410Y-88443387D01*
X227091773Y-88396454D01*
X226920293Y-88375036D01*
X226618514Y-88337359D01*
X226261403Y-88292783D01*
X225894642Y-88247012D01*
X225781840Y-88233867D01*
X225305240Y-88191649D01*
X224727285Y-88156205D01*
X224077033Y-88128074D01*
X223383545Y-88107795D01*
X222675879Y-88095905D01*
X221983095Y-88092944D01*
X221334251Y-88099450D01*
X220758407Y-88115961D01*
X220284623Y-88143018D01*
X220042079Y-88163749D01*
X219460848Y-88224800D01*
X218850659Y-88302662D01*
X218226666Y-88394242D01*
X217604022Y-88496448D01*
X216997880Y-88606187D01*
X216423394Y-88720367D01*
X215895716Y-88835896D01*
X215430000Y-88949682D01*
X215041399Y-89058633D01*
X214745065Y-89159656D01*
X214556153Y-89249658D01*
X214489814Y-89325548D01*
X214502407Y-89378020D01*
X214562672Y-89407093D01*
X214691781Y-89396758D01*
X214910468Y-89344910D01*
X215239470Y-89249443D01*
X215243282Y-89248294D01*
X216312445Y-88966714D01*
X217485960Y-88731333D01*
X218736428Y-88544988D01*
X220036448Y-88410515D01*
X221358623Y-88330751D01*
X222675554Y-88308531D01*
X223959842Y-88346692D01*
X224088726Y-88353999D01*
X224653008Y-88390470D01*
X225222641Y-88433787D01*
X225773630Y-88481622D01*
X226281981Y-88531649D01*
X226723699Y-88581542D01*
X227074792Y-88628974D01*
X227311263Y-88671620D01*
X227325443Y-88675078D01*
X227416212Y-88721511D01*
X227457585Y-88825021D01*
X227467410Y-89026130D01*
X227466087Y-89163846D01*
X227448822Y-89284564D01*
X227393583Y-89318448D01*
X227278276Y-89297157D01*
X227077785Y-89254134D01*
X226636992Y-89187763D01*
X226089221Y-89130663D01*
X225454368Y-89083194D01*
X224752328Y-89045716D01*
X224002999Y-89018591D01*
X223226275Y-89002180D01*
X222442054Y-88996843D01*
X221670230Y-89002941D01*
X220930701Y-89020836D01*
X220243363Y-89050887D01*
X219628111Y-89093457D01*
X219104842Y-89148905D01*
X218277783Y-89267111D01*
X217244669Y-89446205D01*
X216259487Y-89656233D01*
X215912338Y-89743564D01*
X215594226Y-89844942D01*
X215337607Y-89959240D01*
X215101106Y-90102398D01*
X214954472Y-90199647D01*
X214830680Y-90284785D01*
X214730965Y-90369170D01*
X214652737Y-90466756D01*
X214593409Y-90591496D01*
X214550391Y-90757344D01*
X214521094Y-90978255D01*
X214502930Y-91268183D01*
X214493308Y-91641080D01*
X214489641Y-92110902D01*
X214489340Y-92691602D01*
X214489814Y-93397134D01*
X214489814Y-96115226D01*
X214715361Y-96157645D01*
G37*
G36*
X129542987Y-103933215D02*
G01*
X129690280Y-103976276D01*
X129909014Y-104047948D01*
X130166340Y-104136640D01*
X130429404Y-104230765D01*
X130665356Y-104318731D01*
X130841343Y-104388952D01*
X130924515Y-104429836D01*
X130930281Y-104489837D01*
X130905843Y-104628807D01*
X130890295Y-104681276D01*
X130840989Y-104760137D01*
X130752403Y-104789609D01*
X130602574Y-104768112D01*
X130369542Y-104694065D01*
X130031344Y-104565890D01*
X129785901Y-104467792D01*
X129599071Y-104382343D01*
X129497848Y-104311893D01*
X129458094Y-104238813D01*
X129455674Y-104145477D01*
X129472851Y-104010194D01*
X129498865Y-103926904D01*
X129542987Y-103933215D01*
G37*
G36*
X137883899Y-127449371D02*
G01*
X137977519Y-127498979D01*
X137978368Y-127500412D01*
X137948595Y-127549255D01*
X137812214Y-127568377D01*
X137654747Y-127548586D01*
X137561126Y-127498979D01*
X137560277Y-127497545D01*
X137590051Y-127448702D01*
X137726432Y-127429580D01*
X137883899Y-127449371D01*
G37*
G36*
X132907985Y-105207673D02*
G01*
X133133462Y-105278705D01*
X133433067Y-105383922D01*
X133784054Y-105514304D01*
X134163677Y-105660827D01*
X134549188Y-105814469D01*
X134917840Y-105966209D01*
X135246886Y-106107025D01*
X135513581Y-106227893D01*
X135695176Y-106319792D01*
X135768924Y-106373700D01*
X135780750Y-106423093D01*
X135766357Y-106575208D01*
X135736477Y-106623255D01*
X135625695Y-106679306D01*
X135601167Y-106674720D01*
X135460573Y-106630506D01*
X135219741Y-106545347D01*
X134898762Y-106426619D01*
X134517731Y-106281700D01*
X134096741Y-106117966D01*
X133867999Y-106027882D01*
X133455265Y-105863343D01*
X133149240Y-105736570D01*
X132934175Y-105639502D01*
X132794318Y-105564081D01*
X132713921Y-105502247D01*
X132677232Y-105445940D01*
X132668503Y-105387100D01*
X132690168Y-105270984D01*
X132762816Y-105181382D01*
X132779385Y-105179850D01*
X132907985Y-105207673D01*
G37*
G36*
X227729211Y-88706122D02*
G01*
X227732812Y-88829891D01*
X227736160Y-89085565D01*
X227739252Y-89468345D01*
X227742084Y-89973430D01*
X227744653Y-90596022D01*
X227746957Y-91331319D01*
X227748992Y-92174524D01*
X227750754Y-93120835D01*
X227752240Y-94165452D01*
X227753448Y-95303577D01*
X227754373Y-96530409D01*
X227755013Y-97841149D01*
X227755365Y-99230996D01*
X227755425Y-100695151D01*
X227755189Y-102228815D01*
X227754655Y-103827186D01*
X227753820Y-105485466D01*
X227752680Y-107198855D01*
X227751232Y-108962553D01*
X227749472Y-110771760D01*
X227747398Y-112621676D01*
X227745006Y-114507502D01*
X227710307Y-140372476D01*
X227692864Y-114559645D01*
X227692371Y-113795559D01*
X227691355Y-111924234D01*
X227690632Y-110090264D01*
X227690195Y-108298482D01*
X227690037Y-106553716D01*
X227690152Y-104860797D01*
X227690533Y-103224557D01*
X227691174Y-101649825D01*
X227692068Y-100141433D01*
X227693209Y-98704210D01*
X227694591Y-97342988D01*
X227696206Y-96062596D01*
X227698049Y-94867866D01*
X227700113Y-93763628D01*
X227702392Y-92754713D01*
X227704878Y-91845950D01*
X227707566Y-91042172D01*
X227710449Y-90348208D01*
X227713521Y-89768888D01*
X227716775Y-89309045D01*
X227720204Y-88973507D01*
X227723802Y-88767105D01*
X227727563Y-88694671D01*
X227729211Y-88706122D01*
G37*
G36*
X112326476Y-97891423D02*
G01*
X112475076Y-97938168D01*
X112731309Y-98021690D01*
X113081116Y-98137253D01*
X113510437Y-98280123D01*
X114005212Y-98445567D01*
X114551379Y-98628850D01*
X115134880Y-98825238D01*
X115741654Y-99029997D01*
X116357641Y-99238392D01*
X116968781Y-99445690D01*
X117561014Y-99647156D01*
X118120279Y-99838056D01*
X118632517Y-100013655D01*
X119083667Y-100169221D01*
X119276701Y-100240142D01*
X119411757Y-100311428D01*
X119470124Y-100392328D01*
X119482711Y-100509175D01*
X119460151Y-100649297D01*
X119390977Y-100711000D01*
X119380343Y-100709157D01*
X119263134Y-100675230D01*
X119031012Y-100601775D01*
X118696714Y-100493012D01*
X118272976Y-100353162D01*
X117772537Y-100186442D01*
X117208134Y-99997072D01*
X116592503Y-99789273D01*
X115938382Y-99567263D01*
X115762937Y-99507560D01*
X115113460Y-99286605D01*
X114503272Y-99079101D01*
X113945529Y-98889519D01*
X113453390Y-98722328D01*
X113040013Y-98581995D01*
X112718554Y-98472990D01*
X112502171Y-98399782D01*
X112404022Y-98366840D01*
X112349155Y-98346110D01*
X112260131Y-98263471D01*
X112253140Y-98105767D01*
X112274242Y-97957380D01*
X112294053Y-97883083D01*
X112326476Y-97891423D01*
G37*
G36*
X39034156Y-74690393D02*
G01*
X39080930Y-74725628D01*
X39074322Y-74790904D01*
X39004460Y-74857912D01*
X38833986Y-74981620D01*
X38582424Y-75149001D01*
X38269283Y-75347077D01*
X37914069Y-75562869D01*
X37578822Y-75766844D01*
X37229099Y-75988776D01*
X36927306Y-76189797D01*
X36697565Y-76353795D01*
X36563996Y-76464659D01*
X36490464Y-76534905D01*
X36339388Y-76652506D01*
X36234351Y-76698979D01*
X36190664Y-76705072D01*
X36134623Y-76758899D01*
X36153217Y-76775360D01*
X36275065Y-76829200D01*
X36485473Y-76905517D01*
X36754952Y-76995170D01*
X37054014Y-77089019D01*
X37353171Y-77177924D01*
X37622936Y-77252744D01*
X37833819Y-77304339D01*
X37956332Y-77323569D01*
X37957872Y-77323551D01*
X38075253Y-77299005D01*
X38277658Y-77236796D01*
X38522207Y-77150071D01*
X38612190Y-77118352D01*
X38883543Y-77043407D01*
X39150671Y-76994383D01*
X39381361Y-76974659D01*
X39543398Y-76987610D01*
X39604569Y-77036614D01*
X39604412Y-77039645D01*
X39560875Y-77135493D01*
X39463416Y-77276100D01*
X39322264Y-77455546D01*
X39630411Y-77350550D01*
X39801655Y-77305570D01*
X40052150Y-77273281D01*
X40288266Y-77272953D01*
X40469623Y-77303932D01*
X40555841Y-77365563D01*
X40543980Y-77392364D01*
X40437484Y-77473937D01*
X40243915Y-77583703D01*
X39989983Y-77705611D01*
X39792386Y-77795129D01*
X39587593Y-77897302D01*
X39474864Y-77974980D01*
X39432222Y-78044784D01*
X39437694Y-78123336D01*
X39447697Y-78216503D01*
X39390288Y-78281348D01*
X39226725Y-78324552D01*
X39175778Y-78336966D01*
X38951366Y-78434140D01*
X38743786Y-78576172D01*
X38538447Y-78720958D01*
X38337772Y-78782867D01*
X38186847Y-78738364D01*
X38104956Y-78587120D01*
X38086417Y-78516490D01*
X38049595Y-78459313D01*
X37975149Y-78409346D01*
X37843502Y-78359148D01*
X37635073Y-78301278D01*
X37330286Y-78228292D01*
X36909560Y-78132749D01*
X36660525Y-78078019D01*
X36238514Y-77990922D01*
X35846105Y-77916412D01*
X35518434Y-77861031D01*
X35290637Y-77831322D01*
X35150348Y-77821730D01*
X34899434Y-77830298D01*
X34684011Y-77890447D01*
X34475031Y-78017513D01*
X34243445Y-78226832D01*
X33960207Y-78533740D01*
X33790357Y-78714343D01*
X33556278Y-78908801D01*
X33376645Y-78976236D01*
X33250062Y-78916442D01*
X33175136Y-78729212D01*
X33150470Y-78414341D01*
X33149325Y-78313233D01*
X33126181Y-78163912D01*
X33045796Y-78076763D01*
X32872875Y-77998968D01*
X32729937Y-77934248D01*
X32623312Y-77841012D01*
X32595279Y-77713287D01*
X32595898Y-77694829D01*
X32666697Y-77525907D01*
X32822921Y-77421852D01*
X33018767Y-77414931D01*
X33032100Y-77418187D01*
X33125445Y-77405012D01*
X33150470Y-77286028D01*
X33150174Y-77271779D01*
X33135293Y-77208716D01*
X33083904Y-77151830D01*
X32976686Y-77092024D01*
X32794316Y-77020203D01*
X32517474Y-76927270D01*
X32126836Y-76804128D01*
X31722028Y-76677291D01*
X31271003Y-76532337D01*
X30918910Y-76413057D01*
X30645902Y-76311989D01*
X30432132Y-76221677D01*
X30257755Y-76134660D01*
X30102922Y-76043479D01*
X29959501Y-75935719D01*
X29830269Y-75757537D01*
X29828858Y-75589357D01*
X29948641Y-75443367D01*
X30182993Y-75331755D01*
X30525286Y-75266708D01*
X30571515Y-75263009D01*
X30706515Y-75261650D01*
X30864010Y-75276850D01*
X31062316Y-75312797D01*
X31319750Y-75373676D01*
X31654627Y-75463674D01*
X32085265Y-75586978D01*
X32629978Y-75747774D01*
X34364951Y-76264214D01*
X34386122Y-75999268D01*
X34420156Y-75823096D01*
X34515085Y-75708534D01*
X34686317Y-75690411D01*
X34951996Y-75761089D01*
X35018706Y-75783922D01*
X35291100Y-75850982D01*
X35525366Y-75845294D01*
X35787629Y-75767354D01*
X36504989Y-75494959D01*
X37161122Y-75249886D01*
X37704952Y-75052359D01*
X38144895Y-74899878D01*
X38489370Y-74789941D01*
X38746793Y-74720049D01*
X38925583Y-74687700D01*
X39034156Y-74690393D01*
G37*
G36*
X227762014Y-74783883D02*
G01*
X227762636Y-75295561D01*
X227763935Y-76653504D01*
X227764693Y-77971284D01*
X227764925Y-79242326D01*
X227764649Y-80460054D01*
X227763881Y-81617892D01*
X227762638Y-82709266D01*
X227760935Y-83727599D01*
X227758789Y-84666315D01*
X227756217Y-85518839D01*
X227753235Y-86278595D01*
X227749859Y-86939008D01*
X227746107Y-87493502D01*
X227741994Y-87935500D01*
X227737537Y-88258429D01*
X227732752Y-88455711D01*
X227727656Y-88520771D01*
X227725968Y-88512568D01*
X227720812Y-88397748D01*
X227715807Y-88152900D01*
X227710977Y-87784655D01*
X227706348Y-87299646D01*
X227701945Y-86704508D01*
X227697793Y-86005872D01*
X227693917Y-85210373D01*
X227690342Y-84324642D01*
X227687094Y-83355313D01*
X227684197Y-82309018D01*
X227681677Y-81192392D01*
X227679559Y-80012066D01*
X227677867Y-78774675D01*
X227676628Y-77486850D01*
X227675866Y-76155226D01*
X227675607Y-74786434D01*
X227675607Y-61084267D01*
X113705252Y-61066875D01*
X-265104Y-61049483D01*
X113739610Y-61032154D01*
X227744323Y-61014826D01*
X227762014Y-74783883D01*
G37*
%TO.C,R2*%
X-3466422Y-108365000D02*
X-3983578Y-108365000D01*
X-3466422Y-109785000D02*
X-3983578Y-109785000D01*
%TO.C,D43*%
X145150000Y-108375000D02*
X145150000Y-104475000D01*
X143150000Y-108375000D02*
X143150000Y-104475000D01*
X145150000Y-108375000D02*
X143150000Y-108375000D01*
%TO.C,D59*%
X211775000Y-127425000D02*
X211775000Y-123525000D01*
X209775000Y-127425000D02*
X209775000Y-123525000D01*
X211775000Y-127425000D02*
X209775000Y-127425000D01*
%TO.C,D45*%
X183250000Y-108375000D02*
X183250000Y-104475000D01*
X181250000Y-108375000D02*
X181250000Y-104475000D01*
X183250000Y-108375000D02*
X181250000Y-108375000D01*
%TO.C,D70*%
X326100000Y-146425000D02*
X326100000Y-142525000D01*
X324100000Y-146425000D02*
X324100000Y-142525000D01*
X326100000Y-146425000D02*
X324100000Y-146425000D01*
%TO.C,C2*%
X273891422Y-92410000D02*
X274408578Y-92410000D01*
X273891422Y-90990000D02*
X274408578Y-90990000D01*
%TO.C,D46*%
X202300000Y-108375000D02*
X202300000Y-104475000D01*
X200300000Y-108375000D02*
X200300000Y-104475000D01*
X202300000Y-108375000D02*
X200300000Y-108375000D01*
%TO.C,R1*%
X289210000Y-94946078D02*
X289210000Y-94428922D01*
X287790000Y-94946078D02*
X287790000Y-94428922D01*
%TO.C,D22*%
X64175000Y-89325000D02*
X64175000Y-85425000D01*
X62175000Y-89325000D02*
X62175000Y-85425000D01*
X64175000Y-89325000D02*
X62175000Y-89325000D01*
%TO.C,D30*%
X216575000Y-89300000D02*
X216575000Y-85400000D01*
X214575000Y-89300000D02*
X214575000Y-85400000D01*
X216575000Y-89300000D02*
X214575000Y-89300000D01*
%TO.C,G\u002A\u002A\u002A*%
G36*
X303954336Y-104733498D02*
G01*
X304025746Y-104850533D01*
X304074262Y-105067549D01*
X304075679Y-105291375D01*
X304022125Y-105439986D01*
X303911007Y-105481518D01*
X303812666Y-105383452D01*
X303756868Y-105162587D01*
X303748851Y-105055947D01*
X303762728Y-104803426D01*
X303832862Y-104692382D01*
X303954336Y-104733498D01*
G37*
G36*
X305038421Y-103505436D02*
G01*
X305324915Y-103581656D01*
X305527504Y-103712091D01*
X305604334Y-103881680D01*
X305564521Y-104012255D01*
X305441744Y-104048237D01*
X305278335Y-103949500D01*
X305203463Y-103909078D01*
X304983502Y-103861766D01*
X304689902Y-103843667D01*
X304668748Y-103843635D01*
X304391107Y-103831593D01*
X304247952Y-103792074D01*
X304207334Y-103716667D01*
X304209608Y-103697942D01*
X304319422Y-103595631D01*
X304588334Y-103516051D01*
X304709872Y-103498493D01*
X305038421Y-103505436D01*
G37*
G36*
X295688894Y-104797688D02*
G01*
X295752580Y-104969712D01*
X295755292Y-104973998D01*
X295822696Y-105141537D01*
X295843087Y-105380555D01*
X295840961Y-105414324D01*
X295820598Y-105737733D01*
X295803638Y-105936194D01*
X295800998Y-106216025D01*
X295843809Y-106433868D01*
X295940970Y-106657724D01*
X296055935Y-106847812D01*
X296411790Y-107208809D01*
X296879923Y-107453382D01*
X296886146Y-107455561D01*
X297083869Y-107550469D01*
X297124519Y-107656754D01*
X297019243Y-107802329D01*
X296954580Y-107922223D01*
X296930637Y-108138993D01*
X296946168Y-108485710D01*
X296950862Y-108556696D01*
X296964438Y-108761977D01*
X296959996Y-108946357D01*
X296922918Y-109030589D01*
X296846878Y-109050667D01*
X296740581Y-109026891D01*
X296570108Y-108918536D01*
X296569554Y-108917983D01*
X296469257Y-108843532D01*
X296368955Y-108867454D01*
X296211689Y-109003203D01*
X296099474Y-109107242D01*
X295952671Y-109200648D01*
X295819018Y-109178924D01*
X295632225Y-109047092D01*
X295412407Y-108874183D01*
X295154832Y-109131758D01*
X295052122Y-109228372D01*
X294850821Y-109365057D01*
X294725490Y-109359364D01*
X294682334Y-109210263D01*
X294682334Y-109208908D01*
X294672532Y-109092465D01*
X294613051Y-109084267D01*
X294458676Y-109177738D01*
X294358068Y-109236480D01*
X294171554Y-109281327D01*
X293929509Y-109235950D01*
X293914551Y-109231990D01*
X293703538Y-109202862D01*
X293377645Y-109183538D01*
X292977450Y-109173707D01*
X292543530Y-109173061D01*
X292116462Y-109181289D01*
X291736823Y-109198084D01*
X291445191Y-109223134D01*
X291282142Y-109256132D01*
X291277257Y-109258114D01*
X291102252Y-109259433D01*
X290879976Y-109181619D01*
X290853541Y-109167984D01*
X290692486Y-109094252D01*
X290629276Y-109108764D01*
X290618334Y-109217826D01*
X290613269Y-109283838D01*
X290541408Y-109378525D01*
X290386273Y-109328060D01*
X290150106Y-109132851D01*
X289885483Y-108876368D01*
X289658393Y-109054997D01*
X289431304Y-109233625D01*
X289167508Y-109011656D01*
X289134503Y-108984061D01*
X288971450Y-108864771D01*
X288865422Y-108847728D01*
X288759523Y-108920177D01*
X288672238Y-108990356D01*
X288490306Y-109057952D01*
X288373553Y-108970520D01*
X288332334Y-108732608D01*
X288332360Y-108724274D01*
X288355617Y-108424087D01*
X288357665Y-108413485D01*
X288684392Y-108413485D01*
X288698270Y-108503853D01*
X288784108Y-108493949D01*
X288799893Y-108489427D01*
X288966097Y-108513934D01*
X289167899Y-108619428D01*
X289203432Y-108644453D01*
X289365142Y-108750444D01*
X289446071Y-108789983D01*
X289535772Y-108759951D01*
X289616195Y-108673697D01*
X289641773Y-108502079D01*
X289624920Y-108204453D01*
X289616728Y-108104816D01*
X289616675Y-108096854D01*
X289867769Y-108096854D01*
X289985508Y-108462205D01*
X289996255Y-108482790D01*
X290089857Y-108645341D01*
X290144665Y-108712000D01*
X290148001Y-108710505D01*
X290166791Y-108655440D01*
X290191448Y-108507222D01*
X290215276Y-108319065D01*
X290486675Y-108319065D01*
X290590169Y-108582356D01*
X290843930Y-108793667D01*
X290900133Y-108825666D01*
X291104057Y-108923330D01*
X291237007Y-108959316D01*
X291293287Y-108954385D01*
X291431070Y-108914033D01*
X291452508Y-108823721D01*
X291353663Y-108663209D01*
X291130598Y-108412258D01*
X291109194Y-108389456D01*
X290903735Y-108151360D01*
X290758235Y-107948646D01*
X290703000Y-107823072D01*
X290689415Y-107738016D01*
X290635451Y-107730631D01*
X290565484Y-107833915D01*
X290506904Y-108020316D01*
X290486675Y-108319065D01*
X290215276Y-108319065D01*
X290224404Y-108246986D01*
X290268096Y-107855867D01*
X290324957Y-107315000D01*
X290368689Y-106891667D01*
X290237140Y-107145667D01*
X290113617Y-107376945D01*
X289982211Y-107611334D01*
X289912706Y-107756115D01*
X289867769Y-108096854D01*
X289616675Y-108096854D01*
X289614753Y-107809127D01*
X289670936Y-107564017D01*
X289802668Y-107278929D01*
X289943403Y-106989891D01*
X290012057Y-106773639D01*
X289995582Y-106626410D01*
X289898667Y-106510667D01*
X289890420Y-106503876D01*
X289794989Y-106450539D01*
X289771667Y-106529930D01*
X289734714Y-106655044D01*
X289606217Y-106876233D01*
X289420904Y-107124734D01*
X289215886Y-107351704D01*
X289028273Y-107508302D01*
X289027501Y-107508790D01*
X288861954Y-107661055D01*
X288786353Y-107823000D01*
X288760051Y-108021738D01*
X288711965Y-108269021D01*
X288684392Y-108413485D01*
X288357665Y-108413485D01*
X288409336Y-108146058D01*
X288429068Y-108071344D01*
X288441107Y-107906781D01*
X288367003Y-107831775D01*
X288282417Y-107780715D01*
X288256905Y-107659591D01*
X288376360Y-107512200D01*
X288630969Y-107356219D01*
X288784065Y-107273082D01*
X289168698Y-106956653D01*
X289426907Y-106562878D01*
X289544421Y-106119484D01*
X289506972Y-105654193D01*
X289486380Y-105571410D01*
X289459258Y-105405767D01*
X289775216Y-105405767D01*
X289777039Y-105436212D01*
X289832771Y-105667597D01*
X289941000Y-105918000D01*
X290103236Y-106214334D01*
X290106785Y-105600500D01*
X290106871Y-105559006D01*
X290097908Y-105269086D01*
X290093083Y-105225913D01*
X290391557Y-105225913D01*
X290401386Y-105533892D01*
X290404772Y-105559006D01*
X290445177Y-105858645D01*
X290463139Y-105945656D01*
X290551905Y-106308802D01*
X290670648Y-106733761D01*
X290683055Y-106773639D01*
X290719775Y-106891667D01*
X290798799Y-107145667D01*
X290966878Y-107586474D01*
X291237724Y-108073362D01*
X291571913Y-108441534D01*
X291990794Y-108719174D01*
X292034367Y-108740826D01*
X292325671Y-108823721D01*
X292493953Y-108871608D01*
X292972346Y-108834373D01*
X293011672Y-108818100D01*
X293824850Y-108818100D01*
X293856651Y-108896094D01*
X294032480Y-108958547D01*
X294249174Y-108915369D01*
X294535680Y-108751281D01*
X294668946Y-108649122D01*
X294813206Y-108456125D01*
X294844876Y-108211784D01*
X294776801Y-107869105D01*
X294742529Y-107767776D01*
X294697121Y-107745567D01*
X294619910Y-107837309D01*
X294485230Y-108059788D01*
X294395310Y-108199924D01*
X294192142Y-108459382D01*
X294001142Y-108643574D01*
X293933248Y-108696268D01*
X293824850Y-108818100D01*
X293011672Y-108818100D01*
X293468172Y-108629202D01*
X293649627Y-108513700D01*
X293908127Y-108311599D01*
X294083590Y-108127869D01*
X294221122Y-107897066D01*
X294407246Y-107479840D01*
X294582357Y-106983218D01*
X294608497Y-106891667D01*
X294923654Y-106891667D01*
X294986171Y-107357334D01*
X295005341Y-107503565D01*
X295055400Y-107907884D01*
X295090342Y-108211784D01*
X295098345Y-108281384D01*
X295118825Y-108454560D01*
X295151905Y-108621004D01*
X295195825Y-108660389D01*
X295264239Y-108598837D01*
X295288555Y-108562760D01*
X295366859Y-108358565D01*
X295415866Y-108098120D01*
X295417273Y-108083303D01*
X295416093Y-107833593D01*
X295346579Y-107601809D01*
X295187454Y-107315000D01*
X294923654Y-106891667D01*
X294608497Y-106891667D01*
X294632579Y-106807325D01*
X295307297Y-106807325D01*
X295352638Y-106972971D01*
X295483583Y-107217433D01*
X295487218Y-107223648D01*
X295625150Y-107500780D01*
X295685820Y-107763266D01*
X295690078Y-108083303D01*
X295690317Y-108101259D01*
X295687542Y-108320119D01*
X295701422Y-108563149D01*
X295731524Y-108697206D01*
X295805570Y-108772477D01*
X295971375Y-108769909D01*
X296188474Y-108607564D01*
X296279743Y-108523511D01*
X296407039Y-108468132D01*
X296545956Y-108523614D01*
X296631558Y-108568711D01*
X296704239Y-108556696D01*
X296690111Y-108423817D01*
X296590787Y-108156873D01*
X296573182Y-108112647D01*
X296510923Y-107898348D01*
X296505654Y-107757425D01*
X296506396Y-107727547D01*
X296424489Y-107604407D01*
X296250227Y-107463717D01*
X296120126Y-107358853D01*
X295897795Y-107114623D01*
X295705536Y-106834542D01*
X295454684Y-106395317D01*
X295355635Y-106612705D01*
X295335037Y-106661307D01*
X295307297Y-106807325D01*
X294632579Y-106807325D01*
X294733627Y-106453429D01*
X294848231Y-105936701D01*
X294913340Y-105479261D01*
X294914490Y-105334111D01*
X295202024Y-105334111D01*
X295207404Y-105632819D01*
X295219243Y-105840827D01*
X295248522Y-106048127D01*
X295297001Y-106088324D01*
X295372753Y-105962561D01*
X295483851Y-105671982D01*
X295502179Y-105619347D01*
X295557928Y-105414324D01*
X295541128Y-105278239D01*
X295446701Y-105138136D01*
X295446235Y-105137562D01*
X295319746Y-105016838D01*
X295235859Y-104997819D01*
X295235362Y-104998339D01*
X295212069Y-105106430D01*
X295211147Y-105127339D01*
X295202024Y-105334111D01*
X294914490Y-105334111D01*
X294916129Y-105127339D01*
X294887434Y-104982030D01*
X294799108Y-104677599D01*
X294669944Y-104304155D01*
X294516494Y-103912027D01*
X294157397Y-103049054D01*
X293577652Y-102917194D01*
X293202425Y-102842036D01*
X292720261Y-102793595D01*
X292260513Y-102821314D01*
X291745955Y-102925544D01*
X291187775Y-103065754D01*
X290913001Y-103666377D01*
X290893891Y-103708304D01*
X290754859Y-104022547D01*
X290642035Y-104292486D01*
X290578296Y-104463631D01*
X290569090Y-104494029D01*
X290547526Y-104602901D01*
X290604543Y-104610113D01*
X290775811Y-104527131D01*
X290848471Y-104495414D01*
X291144694Y-104424563D01*
X291493469Y-104396971D01*
X291823435Y-104415158D01*
X292063233Y-104481646D01*
X292158834Y-104564050D01*
X292227000Y-104734289D01*
X292215907Y-104809687D01*
X292161404Y-104855933D01*
X292032083Y-104876984D01*
X291796538Y-104877899D01*
X291423363Y-104863737D01*
X291225209Y-104853567D01*
X290896894Y-104829901D01*
X290654079Y-104803385D01*
X290538641Y-104778074D01*
X290533613Y-104775240D01*
X290460893Y-104809325D01*
X290412467Y-104971970D01*
X290391557Y-105225913D01*
X290093083Y-105225913D01*
X290075018Y-105064283D01*
X290042600Y-104986667D01*
X289936478Y-105027058D01*
X289820226Y-105185199D01*
X289775216Y-105405767D01*
X289459258Y-105405767D01*
X289449023Y-105343255D01*
X289478520Y-105171270D01*
X289584132Y-104973785D01*
X289624165Y-104903845D01*
X289708922Y-104684326D01*
X289757102Y-104397006D01*
X289758520Y-104370355D01*
X290031154Y-104370355D01*
X290041823Y-104571729D01*
X290080590Y-104648000D01*
X290134343Y-104587531D01*
X290238492Y-104398468D01*
X290374321Y-104111498D01*
X290526095Y-103758050D01*
X290661253Y-103438691D01*
X290800788Y-103130440D01*
X290910216Y-102912113D01*
X290973471Y-102817488D01*
X291030434Y-102786389D01*
X291346621Y-102681075D01*
X291776988Y-102605346D01*
X292279188Y-102561735D01*
X292810876Y-102552772D01*
X293329707Y-102580989D01*
X293793334Y-102648918D01*
X294023895Y-102702317D01*
X294229333Y-102779921D01*
X294365423Y-102896585D01*
X294488661Y-103087982D01*
X294491089Y-103092306D01*
X294617398Y-103344324D01*
X294767847Y-103682239D01*
X294910394Y-104034167D01*
X294937361Y-104103691D01*
X295054055Y-104380450D01*
X295151155Y-104574704D01*
X295209900Y-104648000D01*
X295252297Y-104583884D01*
X295273757Y-104392565D01*
X295271115Y-104116285D01*
X295246465Y-103797927D01*
X295201902Y-103480377D01*
X295139519Y-103206517D01*
X294986683Y-102841425D01*
X294744269Y-102521955D01*
X294387577Y-102226405D01*
X293890397Y-101927945D01*
X293865145Y-101915326D01*
X294597670Y-101915326D01*
X294613210Y-101948169D01*
X294724957Y-102069769D01*
X294909055Y-102229454D01*
X295058430Y-102341798D01*
X295161193Y-102390954D01*
X295163053Y-102328362D01*
X295132105Y-102242429D01*
X295105667Y-102145583D01*
X295104536Y-102141860D01*
X295022887Y-102078281D01*
X294851667Y-101981000D01*
X294820862Y-101965554D01*
X294662273Y-101905090D01*
X294597670Y-101915326D01*
X293865145Y-101915326D01*
X293614476Y-101790061D01*
X293354843Y-101698047D01*
X293071854Y-101651874D01*
X292692667Y-101633646D01*
X292504776Y-101631584D01*
X292179980Y-101648449D01*
X291897273Y-101706583D01*
X291612691Y-101821626D01*
X291455391Y-101910933D01*
X291282273Y-102009221D01*
X290862057Y-102285010D01*
X290635101Y-102451908D01*
X290394256Y-102693944D01*
X290244777Y-102960754D01*
X290189345Y-103137019D01*
X290127678Y-103427210D01*
X290078087Y-103756936D01*
X290044577Y-104085037D01*
X290031154Y-104370355D01*
X289758520Y-104370355D01*
X289778680Y-103991528D01*
X289780946Y-103834061D01*
X289763698Y-103452800D01*
X289703407Y-103208177D01*
X289591644Y-103077815D01*
X289419976Y-103039334D01*
X289414232Y-103039264D01*
X289259539Y-102973529D01*
X289191410Y-102832244D01*
X289244712Y-102685755D01*
X289267802Y-102640449D01*
X289234383Y-102477395D01*
X289086621Y-102209203D01*
X288902896Y-101824295D01*
X288825826Y-101395239D01*
X288839190Y-101301640D01*
X289108209Y-101301640D01*
X289172867Y-101678701D01*
X289384012Y-102109609D01*
X289519776Y-102336973D01*
X289617453Y-102526816D01*
X289643489Y-102617907D01*
X289656345Y-102666749D01*
X289766043Y-102762172D01*
X289807269Y-102786599D01*
X289877654Y-102800823D01*
X289896579Y-102712524D01*
X289877281Y-102489222D01*
X289872745Y-102405091D01*
X290129508Y-102405091D01*
X290141121Y-102407543D01*
X290244357Y-102357059D01*
X290403989Y-102241984D01*
X290571062Y-102102491D01*
X290696621Y-101978749D01*
X290731711Y-101910933D01*
X290722601Y-101904131D01*
X290601930Y-101912759D01*
X290427256Y-101996107D01*
X290259838Y-102118432D01*
X290160934Y-102243987D01*
X290135493Y-102322477D01*
X290129508Y-102405091D01*
X289872745Y-102405091D01*
X289864824Y-102258177D01*
X289912810Y-102075961D01*
X290050423Y-101906214D01*
X290056243Y-101900460D01*
X290276581Y-101736732D01*
X290505209Y-101638705D01*
X290703498Y-101592502D01*
X290871530Y-101534901D01*
X290942432Y-101463558D01*
X290957000Y-101352641D01*
X290955600Y-101300513D01*
X290865309Y-100973129D01*
X290645326Y-100741225D01*
X290311303Y-100615625D01*
X289878891Y-100607151D01*
X289749081Y-100627382D01*
X289400725Y-100762597D01*
X289185631Y-100991811D01*
X289108209Y-101301640D01*
X288839190Y-101301640D01*
X288882480Y-100998439D01*
X289073167Y-100669307D01*
X289216801Y-100543100D01*
X289543544Y-100382987D01*
X289921829Y-100308108D01*
X290310656Y-100315733D01*
X290669026Y-100403132D01*
X290955936Y-100567574D01*
X291130387Y-100806326D01*
X291138102Y-100828127D01*
X291189834Y-101070271D01*
X291211000Y-101348018D01*
X291211000Y-101677679D01*
X291613167Y-101479355D01*
X291637863Y-101467551D01*
X292030102Y-101345076D01*
X292499011Y-101287231D01*
X292986104Y-101293545D01*
X293432892Y-101363549D01*
X293780889Y-101496773D01*
X294089667Y-101678956D01*
X294089667Y-101410619D01*
X294388474Y-101410619D01*
X294477247Y-101556007D01*
X294684896Y-101600000D01*
X294713769Y-101601358D01*
X294951310Y-101673996D01*
X295194022Y-101827762D01*
X295319476Y-101939538D01*
X295412354Y-102069582D01*
X295438065Y-102236265D01*
X295431295Y-102328362D01*
X295418302Y-102505096D01*
X295401099Y-102683283D01*
X295386437Y-102875738D01*
X295386951Y-102947611D01*
X295425442Y-102919584D01*
X295539733Y-102791911D01*
X295649355Y-102635330D01*
X295698334Y-102525684D01*
X295705163Y-102494537D01*
X295783238Y-102343477D01*
X295920462Y-102144144D01*
X296087375Y-101842590D01*
X296183727Y-101487952D01*
X296195948Y-101283493D01*
X296151025Y-101075606D01*
X296011263Y-100874659D01*
X295913432Y-100769717D01*
X295774749Y-100676230D01*
X295587394Y-100635350D01*
X295291220Y-100626334D01*
X295059010Y-100636453D01*
X294723232Y-100716300D01*
X294511260Y-100885348D01*
X294403623Y-101155200D01*
X294388474Y-101410619D01*
X294089667Y-101410619D01*
X294089667Y-101398112D01*
X294143291Y-100981021D01*
X294318853Y-100641936D01*
X294612739Y-100422135D01*
X295021000Y-100326163D01*
X295074435Y-100322559D01*
X295463694Y-100312218D01*
X295744054Y-100349291D01*
X295966841Y-100446622D01*
X296183387Y-100617057D01*
X296316491Y-100744799D01*
X296436179Y-100905240D01*
X296486414Y-101092008D01*
X296493285Y-101283493D01*
X296496620Y-101376440D01*
X296477104Y-101699938D01*
X296398754Y-101952144D01*
X296232501Y-102223474D01*
X296141513Y-102359919D01*
X296039913Y-102569951D01*
X296056267Y-102686067D01*
X296060107Y-102690014D01*
X296108853Y-102837187D01*
X296037395Y-102977073D01*
X295880691Y-103039334D01*
X295767585Y-103051327D01*
X295638420Y-103130963D01*
X295567105Y-103305571D01*
X295546256Y-103598671D01*
X295568489Y-104033780D01*
X295579907Y-104157603D01*
X295611945Y-104392565D01*
X295627871Y-104509365D01*
X295688894Y-104797688D01*
G37*
G36*
X291689140Y-105206260D02*
G01*
X291864917Y-105255238D01*
X292047661Y-105358924D01*
X292120489Y-105476457D01*
X292056265Y-105580200D01*
X291993624Y-105610223D01*
X291880081Y-105616567D01*
X291844412Y-105615408D01*
X291772863Y-105706820D01*
X291700993Y-105799959D01*
X291546766Y-105821444D01*
X291385458Y-105712507D01*
X291251957Y-105635989D01*
X290985480Y-105640316D01*
X290812792Y-105660854D01*
X290719505Y-105634383D01*
X290715557Y-105536733D01*
X290736450Y-105486225D01*
X290887489Y-105357122D01*
X291133080Y-105255049D01*
X291418529Y-105198574D01*
X291689140Y-105206260D01*
G37*
G36*
X294028731Y-104413369D02*
G01*
X294346046Y-104461273D01*
X294596826Y-104550689D01*
X294739052Y-104664917D01*
X294742406Y-104788042D01*
X294708976Y-104805109D01*
X294537095Y-104833131D01*
X294256890Y-104852461D01*
X293908319Y-104859667D01*
X293696479Y-104858769D01*
X293395632Y-104849657D01*
X293215611Y-104825971D01*
X293124429Y-104781928D01*
X293090103Y-104711747D01*
X293134647Y-104571791D01*
X293321273Y-104468265D01*
X293627192Y-104412949D01*
X294028731Y-104413369D01*
G37*
G36*
X303305016Y-105963221D02*
G01*
X303318343Y-105978233D01*
X303549099Y-106143208D01*
X303786135Y-106139173D01*
X304025230Y-105966112D01*
X304184678Y-105835904D01*
X304328980Y-105830025D01*
X304389633Y-105901945D01*
X304396282Y-106071933D01*
X304309000Y-106256381D01*
X304147367Y-106394438D01*
X304139700Y-106398161D01*
X303836844Y-106484870D01*
X303526379Y-106480416D01*
X303251339Y-106397574D01*
X303054757Y-106249119D01*
X302979667Y-106047823D01*
X302980990Y-105996501D01*
X303027464Y-105828750D01*
X303137006Y-105817258D01*
X303305016Y-105963221D01*
G37*
G36*
X323784513Y-106874855D02*
G01*
X324146018Y-106898079D01*
X324450527Y-106939944D01*
X324660651Y-106996772D01*
X324739000Y-107064884D01*
X324733047Y-107105106D01*
X324645781Y-107204962D01*
X324542643Y-107216155D01*
X324302229Y-107225760D01*
X323964644Y-107231764D01*
X323567439Y-107233184D01*
X323160942Y-107229294D01*
X322864657Y-107217184D01*
X322683658Y-107193091D01*
X322590060Y-107153165D01*
X322555977Y-107093557D01*
X322553456Y-107063279D01*
X322600495Y-106991346D01*
X322754251Y-106940527D01*
X323046011Y-106898360D01*
X323403400Y-106873949D01*
X323784513Y-106874855D01*
G37*
G36*
X307974596Y-109267615D02*
G01*
X307722007Y-109610178D01*
X307638928Y-109715437D01*
X307449087Y-110019239D01*
X307382334Y-110255615D01*
X307378434Y-110318493D01*
X307302875Y-110467112D01*
X307149926Y-110479361D01*
X306944501Y-110349878D01*
X306873404Y-110289533D01*
X306766328Y-110255930D01*
X306639759Y-110345420D01*
X306504257Y-110445800D01*
X306279926Y-110564842D01*
X306188702Y-110600275D01*
X306016995Y-110641859D01*
X305916604Y-110583197D01*
X305826860Y-110402558D01*
X305718894Y-110145782D01*
X305489357Y-110326336D01*
X305292402Y-110441745D01*
X305050346Y-110454315D01*
X304848305Y-110450595D01*
X304576738Y-110538330D01*
X304562734Y-110545389D01*
X304329778Y-110623862D01*
X304132968Y-110632297D01*
X304009008Y-110602888D01*
X303767207Y-110545540D01*
X303563566Y-110542637D01*
X303321953Y-110599218D01*
X303205268Y-110637010D01*
X303012215Y-110642901D01*
X302788164Y-110549113D01*
X302591936Y-110469131D01*
X302257807Y-110452339D01*
X302247194Y-110454411D01*
X302019287Y-110453548D01*
X301842766Y-110327406D01*
X301685760Y-110185324D01*
X301577165Y-110171887D01*
X301540334Y-110310300D01*
X301536314Y-110377452D01*
X301450484Y-110555977D01*
X301262983Y-110606983D01*
X300987128Y-110525296D01*
X300927764Y-110495372D01*
X300733660Y-110370147D01*
X300632738Y-110260404D01*
X300612357Y-110222099D01*
X300535700Y-110212565D01*
X300390821Y-110326785D01*
X300317977Y-110386807D01*
X300126098Y-110462085D01*
X299985959Y-110400660D01*
X299931667Y-110211123D01*
X299931238Y-110201169D01*
X299872529Y-110029419D01*
X299734102Y-109783038D01*
X299543612Y-109511860D01*
X299483896Y-109434541D01*
X299308159Y-109191986D01*
X299217058Y-109016957D01*
X299190966Y-108859974D01*
X299195004Y-108820525D01*
X299508497Y-108820525D01*
X299544744Y-108943477D01*
X299665080Y-109157021D01*
X299841941Y-109403085D01*
X300007295Y-109621594D01*
X300138675Y-109818391D01*
X300191034Y-109929560D01*
X300214831Y-109943304D01*
X300272972Y-109833834D01*
X300294155Y-109787414D01*
X300423688Y-109659500D01*
X300583477Y-109689679D01*
X300753260Y-109876167D01*
X300786020Y-109925694D01*
X300964820Y-110135240D01*
X301125623Y-110237026D01*
X301241702Y-110220980D01*
X301286334Y-110077034D01*
X301296083Y-109970086D01*
X301388461Y-109821757D01*
X301569657Y-109810794D01*
X301828960Y-109939903D01*
X302100927Y-110083403D01*
X302341261Y-110102290D01*
X302507266Y-110093916D01*
X302735536Y-110156615D01*
X302765537Y-110170605D01*
X302999354Y-110228092D01*
X303330373Y-110262646D01*
X303705635Y-110273995D01*
X304072185Y-110261864D01*
X304377067Y-110225981D01*
X304567324Y-110166072D01*
X304735598Y-110101001D01*
X304980056Y-110089439D01*
X305179850Y-110082187D01*
X305492945Y-109934539D01*
X305578233Y-109881084D01*
X305811964Y-109790660D01*
X305969898Y-109820770D01*
X306028964Y-109969892D01*
X306031833Y-110034073D01*
X306088826Y-110211578D01*
X306207640Y-110242769D01*
X306373825Y-110130135D01*
X306572933Y-109876167D01*
X306602649Y-109832782D01*
X306771702Y-109672491D01*
X306922570Y-109672413D01*
X307041029Y-109833834D01*
X307094237Y-109935988D01*
X307122967Y-109923650D01*
X307158964Y-109840747D01*
X307281719Y-109660549D01*
X307460572Y-109439094D01*
X307671871Y-109177794D01*
X307820921Y-108927601D01*
X307860166Y-108724368D01*
X307801885Y-108535599D01*
X307792321Y-108515971D01*
X307743512Y-108265087D01*
X307760191Y-107903503D01*
X307776712Y-107687664D01*
X307741549Y-107366380D01*
X307611908Y-107049202D01*
X307369880Y-106680000D01*
X307290416Y-106547446D01*
X307175248Y-106173047D01*
X307158283Y-105758400D01*
X307246388Y-105376019D01*
X307254911Y-105355294D01*
X307364243Y-104950583D01*
X307361537Y-104529941D01*
X307241208Y-104071591D01*
X306997671Y-103553758D01*
X306625340Y-102954667D01*
X306496740Y-102744826D01*
X306394228Y-102466587D01*
X306366696Y-102136487D01*
X306366334Y-101699307D01*
X305667834Y-101280397D01*
X305205261Y-101006813D01*
X304816288Y-100791029D01*
X304524201Y-100654522D01*
X304305413Y-100590633D01*
X304136336Y-100592704D01*
X303993380Y-100654077D01*
X303852957Y-100768092D01*
X303657000Y-100952184D01*
X303461044Y-100768092D01*
X303258340Y-100631330D01*
X303020905Y-100598833D01*
X302726762Y-100681820D01*
X302345436Y-100883440D01*
X302096129Y-101031319D01*
X301740488Y-101236855D01*
X301438207Y-101406008D01*
X301255208Y-101511379D01*
X301103121Y-101634862D01*
X301012425Y-101792146D01*
X300959347Y-102028312D01*
X300920114Y-102388439D01*
X300847553Y-102733189D01*
X300707775Y-102981983D01*
X300699786Y-102990734D01*
X300570072Y-103167425D01*
X300402883Y-103437031D01*
X300232303Y-103744863D01*
X300068594Y-104097142D01*
X299949917Y-104521800D01*
X299951737Y-104916354D01*
X300069279Y-105327165D01*
X300089916Y-105381706D01*
X300173092Y-105857924D01*
X300088723Y-106352037D01*
X299836569Y-106865616D01*
X299796884Y-106928088D01*
X299664362Y-107161408D01*
X299587823Y-107374023D01*
X299550274Y-107629255D01*
X299534722Y-107990425D01*
X299532972Y-108063364D01*
X299524010Y-108397133D01*
X299515296Y-108667103D01*
X299508497Y-108820525D01*
X299195004Y-108820525D01*
X299210251Y-108671561D01*
X299231785Y-108483767D01*
X299251227Y-108142857D01*
X299254519Y-107790633D01*
X299254500Y-107571989D01*
X299284040Y-107305289D01*
X299369666Y-107066841D01*
X299533932Y-106774633D01*
X299594558Y-106673616D01*
X299785910Y-106312194D01*
X299877902Y-106027017D01*
X299879446Y-105775872D01*
X299799448Y-105516546D01*
X299734479Y-105338387D01*
X299654288Y-104790682D01*
X299736034Y-104198098D01*
X299979914Y-103559751D01*
X300386123Y-102874757D01*
X300555918Y-102602653D01*
X300663356Y-102334959D01*
X300693667Y-102063091D01*
X300694878Y-101981097D01*
X300712600Y-101730939D01*
X300744734Y-101565438D01*
X300771133Y-101528719D01*
X300921779Y-101401462D01*
X301172018Y-101226218D01*
X301487401Y-101024003D01*
X301833477Y-100815830D01*
X302175798Y-100622716D01*
X302479914Y-100465676D01*
X302711374Y-100365726D01*
X302919987Y-100312924D01*
X303270633Y-100315561D01*
X303551167Y-100436708D01*
X303609955Y-100469609D01*
X303762834Y-100437262D01*
X303881053Y-100360535D01*
X304111427Y-100292177D01*
X304389709Y-100311844D01*
X304736220Y-100424899D01*
X305171276Y-100636705D01*
X305715196Y-100952626D01*
X306578000Y-101479848D01*
X306627446Y-101992814D01*
X306641296Y-102113824D01*
X306731323Y-102497132D01*
X306894638Y-102793723D01*
X306954545Y-102876024D01*
X307197488Y-103267805D01*
X307417462Y-103705191D01*
X307586902Y-104128875D01*
X307678240Y-104479550D01*
X307694904Y-104739622D01*
X307601804Y-105241550D01*
X307497051Y-105652388D01*
X307484813Y-106083070D01*
X307593365Y-106426000D01*
X307682522Y-106580513D01*
X307902580Y-106995849D01*
X308032910Y-107316756D01*
X308083928Y-107573427D01*
X308066051Y-107796053D01*
X308038480Y-108062377D01*
X308083094Y-108436169D01*
X308130560Y-108693572D01*
X308127887Y-108724368D01*
X308105874Y-108978033D01*
X307974596Y-109267615D01*
G37*
G36*
X294246805Y-105816468D02*
G01*
X294329030Y-105946856D01*
X294321217Y-106055219D01*
X294203189Y-106072696D01*
X294147080Y-106053480D01*
X294059161Y-105955031D01*
X294065336Y-105843851D01*
X294173174Y-105791000D01*
X294246805Y-105816468D01*
G37*
G36*
X324384241Y-106066075D02*
G01*
X324384929Y-106183516D01*
X324300940Y-106332659D01*
X324061667Y-106468783D01*
X323863280Y-106537071D01*
X323679865Y-106575702D01*
X323511278Y-106556669D01*
X323275781Y-106481272D01*
X323002315Y-106365880D01*
X322830643Y-106232163D01*
X322823993Y-106103525D01*
X322824334Y-106102986D01*
X322932619Y-106068124D01*
X323133368Y-106080940D01*
X323360363Y-106131646D01*
X323547390Y-106210454D01*
X323601175Y-106228989D01*
X323747876Y-106191203D01*
X323751198Y-106188680D01*
X323906490Y-106117648D01*
X324130929Y-106057878D01*
X324302486Y-106033718D01*
X324384241Y-106066075D01*
G37*
G36*
X303476567Y-104730124D02*
G01*
X303525606Y-104868778D01*
X303556162Y-105101221D01*
X303562597Y-105314695D01*
X303538034Y-105454382D01*
X303471496Y-105475165D01*
X303411195Y-105395854D01*
X303370423Y-105211673D01*
X303360993Y-104991581D01*
X303385199Y-104802538D01*
X303445334Y-104711500D01*
X303476567Y-104730124D01*
G37*
G36*
X317560091Y-105617745D02*
G01*
X317439690Y-105963637D01*
X317299095Y-106275958D01*
X317155410Y-106502266D01*
X317124228Y-106537967D01*
X316940274Y-106710056D01*
X316781407Y-106806660D01*
X316744676Y-106824134D01*
X316608903Y-106997794D01*
X316481747Y-107340352D01*
X316412197Y-107541261D01*
X316268253Y-107843982D01*
X316117122Y-108062987D01*
X315882814Y-108287410D01*
X315492398Y-108592896D01*
X315088952Y-108845122D01*
X314731297Y-109004142D01*
X314535632Y-109056888D01*
X313891555Y-109119650D01*
X313234734Y-109026549D01*
X312597062Y-108780922D01*
X312456816Y-108690100D01*
X312230464Y-108520307D01*
X311976939Y-108314151D01*
X311875878Y-108226650D01*
X311645106Y-107991422D01*
X311495236Y-107750220D01*
X311378198Y-107432239D01*
X311260893Y-107111422D01*
X311128302Y-106903175D01*
X310947725Y-106758000D01*
X310858423Y-106691460D01*
X310634182Y-106426451D01*
X310432316Y-106063228D01*
X310277963Y-105652414D01*
X310196259Y-105244633D01*
X310189943Y-105132017D01*
X310463426Y-105132017D01*
X310503666Y-105320059D01*
X310598229Y-105617346D01*
X310705413Y-105902510D01*
X310834983Y-106181330D01*
X310947507Y-106361049D01*
X311113174Y-106553000D01*
X311057990Y-105960334D01*
X311050158Y-105877516D01*
X310991425Y-105348283D01*
X310929549Y-104976413D01*
X310917672Y-104938121D01*
X311287532Y-104938121D01*
X311326639Y-105669373D01*
X311441998Y-106417632D01*
X311471234Y-106553000D01*
X311497823Y-106676111D01*
X311588942Y-107059085D01*
X311674234Y-107376296D01*
X311740745Y-107577458D01*
X311760088Y-107618249D01*
X311946472Y-107863460D01*
X312240936Y-108130357D01*
X312600709Y-108387712D01*
X312983021Y-108604295D01*
X313345104Y-108748880D01*
X313413992Y-108768718D01*
X313727119Y-108846236D01*
X313970743Y-108865178D01*
X314220293Y-108823747D01*
X314551200Y-108720147D01*
X314722480Y-108658596D01*
X315079596Y-108496602D01*
X315404379Y-108284755D01*
X315765292Y-107981396D01*
X315846846Y-107905084D01*
X315985511Y-107746260D01*
X316087489Y-107560706D01*
X316175035Y-107301786D01*
X316270403Y-106922863D01*
X316382491Y-106387629D01*
X316718706Y-106387629D01*
X316724798Y-106483354D01*
X316772988Y-106484979D01*
X316877957Y-106376820D01*
X317004835Y-106168375D01*
X317133061Y-105895064D01*
X317242073Y-105592305D01*
X317243110Y-105588880D01*
X317324436Y-105303113D01*
X317353246Y-105123415D01*
X317330730Y-104995783D01*
X317258078Y-104866217D01*
X317144416Y-104736226D01*
X317004806Y-104698211D01*
X316903684Y-104809687D01*
X316885042Y-104927989D01*
X316864361Y-105059225D01*
X316855699Y-105242288D01*
X316823632Y-105565982D01*
X316776144Y-105907395D01*
X316738324Y-106173091D01*
X316718706Y-106387629D01*
X316382491Y-106387629D01*
X316429386Y-106163698D01*
X316520347Y-105512379D01*
X316546870Y-104927989D01*
X316513044Y-104367449D01*
X316511898Y-104357214D01*
X316405071Y-103728396D01*
X316241794Y-103250229D01*
X316018659Y-102912679D01*
X315974044Y-102868058D01*
X315890252Y-102811387D01*
X315771601Y-102780748D01*
X315584635Y-102773355D01*
X315295900Y-102786419D01*
X314871942Y-102817155D01*
X314273898Y-102846079D01*
X313583360Y-102847199D01*
X312952764Y-102816866D01*
X312897455Y-102812382D01*
X312453996Y-102782198D01*
X312141806Y-102784570D01*
X311927246Y-102833129D01*
X311776674Y-102941510D01*
X311656451Y-103123345D01*
X311532936Y-103392267D01*
X311433517Y-103678310D01*
X311323538Y-104261795D01*
X311287532Y-104938121D01*
X310917672Y-104938121D01*
X310859744Y-104751356D01*
X310777221Y-104662558D01*
X310677193Y-104699471D01*
X310554872Y-104851541D01*
X310534558Y-104883081D01*
X310474670Y-105003073D01*
X310463426Y-105132017D01*
X310189943Y-105132017D01*
X310186503Y-105070682D01*
X310222138Y-104832248D01*
X310343485Y-104626834D01*
X310357776Y-104609314D01*
X310529905Y-104456673D01*
X310690479Y-104394000D01*
X310691533Y-104393999D01*
X310756382Y-104383336D01*
X310801281Y-104334230D01*
X310829947Y-104220503D01*
X310846093Y-104015979D01*
X310853435Y-103694482D01*
X310855687Y-103229834D01*
X310857139Y-102972077D01*
X311114896Y-102972077D01*
X311121539Y-103208667D01*
X311124326Y-103237140D01*
X311145560Y-103404607D01*
X311169631Y-103417695D01*
X311210942Y-103289415D01*
X311241958Y-103209966D01*
X311372163Y-102986318D01*
X311550399Y-102751270D01*
X311829230Y-102428711D01*
X312893272Y-102524897D01*
X313612176Y-102572391D01*
X314270945Y-102573255D01*
X314965347Y-102527277D01*
X315973380Y-102433470D01*
X316228690Y-102721146D01*
X316290379Y-102792003D01*
X316465880Y-103007143D01*
X316584855Y-103172245D01*
X316635179Y-103230089D01*
X316667281Y-103188297D01*
X316684109Y-103021404D01*
X316690688Y-102707334D01*
X316690932Y-102612714D01*
X316676861Y-102276180D01*
X316632675Y-102058493D01*
X316551259Y-101919431D01*
X316545578Y-101913104D01*
X316455887Y-101759152D01*
X316501341Y-101608557D01*
X316531199Y-101545963D01*
X316515406Y-101455460D01*
X316399787Y-101348970D01*
X316158917Y-101195851D01*
X315948967Y-101075661D01*
X315486651Y-100859727D01*
X315016816Y-100721462D01*
X314487038Y-100647965D01*
X313844895Y-100626334D01*
X313672909Y-100626573D01*
X313309457Y-100631653D01*
X313065033Y-100648353D01*
X312902931Y-100683190D01*
X312786446Y-100742678D01*
X312678873Y-100833335D01*
X312676795Y-100835296D01*
X312502303Y-101056960D01*
X312390122Y-101299002D01*
X312331312Y-101452421D01*
X312226206Y-101535002D01*
X312039581Y-101541413D01*
X311731975Y-101482668D01*
X311623337Y-101464086D01*
X311429263Y-101489054D01*
X311295103Y-101623022D01*
X311206698Y-101885801D01*
X311149893Y-102297202D01*
X311125433Y-102640390D01*
X311114896Y-102972077D01*
X310857139Y-102972077D01*
X310857254Y-102951595D01*
X310873151Y-102357176D01*
X310912135Y-101906942D01*
X310981697Y-101583199D01*
X311089331Y-101368255D01*
X311242528Y-101244416D01*
X311448782Y-101193991D01*
X311715584Y-101199286D01*
X311793512Y-101205896D01*
X312003706Y-101208822D01*
X312108536Y-101164005D01*
X312156973Y-101055490D01*
X312168962Y-101019828D01*
X312281532Y-100831876D01*
X312455313Y-100633060D01*
X312569249Y-100534391D01*
X312744052Y-100435884D01*
X312978029Y-100374512D01*
X313326257Y-100331183D01*
X313956206Y-100302435D01*
X314855080Y-100386025D01*
X315683614Y-100623342D01*
X316442567Y-101014553D01*
X316534682Y-101074447D01*
X316765395Y-101234757D01*
X316886335Y-101352065D01*
X316924934Y-101460485D01*
X316908623Y-101594130D01*
X316894696Y-101773562D01*
X316949246Y-101896073D01*
X316975626Y-101948437D01*
X316999908Y-102152475D01*
X317004106Y-102483714D01*
X316999547Y-102612714D01*
X316988783Y-102917274D01*
X316954502Y-103428274D01*
X316901827Y-103991834D01*
X316887065Y-104145356D01*
X316888452Y-104312773D01*
X316940040Y-104381014D01*
X317058992Y-104394000D01*
X317101015Y-104397229D01*
X317323071Y-104496745D01*
X317527796Y-104698401D01*
X317661021Y-104951991D01*
X317671897Y-105035025D01*
X317661975Y-105123415D01*
X317643195Y-105290727D01*
X317560091Y-105617745D01*
G37*
G36*
X322643227Y-103974923D02*
G01*
X322961708Y-104011318D01*
X323119232Y-104084290D01*
X323159705Y-104152328D01*
X323154465Y-104256980D01*
X323152642Y-104258576D01*
X323037043Y-104284020D01*
X322803330Y-104295854D01*
X322499931Y-104291523D01*
X322273373Y-104279295D01*
X322041841Y-104250186D01*
X321921235Y-104199962D01*
X321876190Y-104118834D01*
X321880183Y-104042321D01*
X321952266Y-103996604D01*
X322126509Y-103975674D01*
X322436425Y-103970667D01*
X322643227Y-103974923D01*
G37*
G36*
X303946841Y-106974884D02*
G01*
X304254525Y-106985513D01*
X304440628Y-107009585D01*
X304535921Y-107052356D01*
X304571176Y-107119081D01*
X304572109Y-107177204D01*
X304492122Y-107255089D01*
X304275998Y-107299693D01*
X304238564Y-107303420D01*
X304000888Y-107312538D01*
X303694569Y-107309729D01*
X303367202Y-107297293D01*
X303066383Y-107277530D01*
X302839707Y-107252739D01*
X302734769Y-107225220D01*
X302730896Y-107192350D01*
X302793947Y-107080745D01*
X302821010Y-107057777D01*
X302979701Y-107007781D01*
X303271899Y-106980157D01*
X303715023Y-106972866D01*
X303946841Y-106974884D01*
G37*
G36*
X303769234Y-107527698D02*
G01*
X303969876Y-107545067D01*
X304059671Y-107597082D01*
X304080334Y-107700639D01*
X304078666Y-107743702D01*
X304041537Y-107826446D01*
X303922669Y-107856173D01*
X303678929Y-107848806D01*
X303490473Y-107829642D01*
X303315643Y-107774326D01*
X303249387Y-107674834D01*
X303245343Y-107645540D01*
X303273196Y-107570411D01*
X303396035Y-107535331D01*
X303650792Y-107526667D01*
X303769234Y-107527698D01*
G37*
G36*
X292699101Y-107459357D02*
G01*
X293031890Y-107477132D01*
X293245080Y-107506627D01*
X293355316Y-107555614D01*
X293396457Y-107632500D01*
X293399648Y-107680720D01*
X293362029Y-107733523D01*
X293245782Y-107763748D01*
X293020692Y-107777446D01*
X292656542Y-107780667D01*
X292480752Y-107778978D01*
X292176968Y-107766663D01*
X291967415Y-107745023D01*
X291889630Y-107717167D01*
X291890574Y-107695802D01*
X291935942Y-107566507D01*
X292067909Y-107489705D01*
X292313340Y-107456840D01*
X292699101Y-107459357D01*
G37*
G36*
X292839993Y-107968054D02*
G01*
X292945628Y-108043292D01*
X292893232Y-108175043D01*
X292831983Y-108228040D01*
X292650334Y-108288667D01*
X292606370Y-108284454D01*
X292458092Y-108216407D01*
X292361341Y-108105823D01*
X292368846Y-108005710D01*
X292462010Y-107968967D01*
X292650334Y-107950000D01*
X292839993Y-107968054D01*
G37*
G36*
X302930409Y-104276059D02*
G01*
X302958920Y-104288993D01*
X303055845Y-104411726D01*
X303024967Y-104568410D01*
X302873834Y-104702194D01*
X302709102Y-104769582D01*
X302479908Y-104802417D01*
X302344475Y-104732356D01*
X302260515Y-104689652D01*
X302085478Y-104699201D01*
X302037563Y-104710094D01*
X301911021Y-104701961D01*
X301879000Y-104586102D01*
X301930052Y-104455928D01*
X302107003Y-104326160D01*
X302364783Y-104243469D01*
X302655286Y-104222040D01*
X302930409Y-104276059D01*
G37*
G36*
X302831639Y-103508081D02*
G01*
X303059180Y-103566722D01*
X303181939Y-103680381D01*
X303177773Y-103810588D01*
X303028002Y-103867428D01*
X302729398Y-103844297D01*
X302482877Y-103828169D01*
X302161005Y-103918456D01*
X301929115Y-104014338D01*
X301794245Y-103989405D01*
X301752000Y-103836980D01*
X301806238Y-103721558D01*
X301986614Y-103611196D01*
X302248726Y-103535425D01*
X302545944Y-103499351D01*
X302831639Y-103508081D01*
G37*
G36*
X305367065Y-104833372D02*
G01*
X305428616Y-104911931D01*
X305333400Y-105054400D01*
X305241938Y-105122855D01*
X305086345Y-105154052D01*
X304983019Y-105085882D01*
X304984226Y-104936056D01*
X305058152Y-104861450D01*
X305232392Y-104817334D01*
X305367065Y-104833372D01*
G37*
G36*
X293985966Y-105201845D02*
G01*
X294222351Y-105262896D01*
X294575073Y-105370893D01*
X294622560Y-105409109D01*
X294626750Y-105541000D01*
X294607179Y-105580357D01*
X294501252Y-105642209D01*
X294288405Y-105624828D01*
X294219268Y-105613301D01*
X294036853Y-105616381D01*
X293952503Y-105702290D01*
X293882939Y-105797339D01*
X293707737Y-105818247D01*
X293451688Y-105696596D01*
X293367046Y-105634853D01*
X293256346Y-105483734D01*
X293313750Y-105352472D01*
X293539334Y-105240667D01*
X293683675Y-105198134D01*
X293821285Y-105182129D01*
X293985966Y-105201845D01*
G37*
G36*
X323742482Y-107377845D02*
G01*
X323863998Y-107471997D01*
X323850000Y-107611334D01*
X323734008Y-107685203D01*
X323551550Y-107677824D01*
X323395435Y-107582377D01*
X323342950Y-107485339D01*
X323398845Y-107390579D01*
X323605115Y-107357334D01*
X323742482Y-107377845D01*
G37*
G36*
X316129701Y-106029693D02*
G01*
X316002627Y-106268947D01*
X315879436Y-106418114D01*
X315874443Y-106424160D01*
X315688292Y-106520472D01*
X315366398Y-106589288D01*
X315027788Y-106588953D01*
X314752866Y-106513092D01*
X314693113Y-106485883D01*
X314604650Y-106504279D01*
X314552288Y-106661259D01*
X314453360Y-106862069D01*
X314267023Y-107037581D01*
X314147267Y-107107815D01*
X313973528Y-107172656D01*
X313810722Y-107143905D01*
X313584167Y-107019595D01*
X313409129Y-106895694D01*
X313306789Y-106742397D01*
X313301904Y-106535215D01*
X313301219Y-106504322D01*
X313235802Y-106474922D01*
X313052021Y-106524392D01*
X313014472Y-106536345D01*
X312714940Y-106580317D01*
X312382466Y-106565760D01*
X312083192Y-106500212D01*
X311898206Y-106399359D01*
X313633373Y-106399359D01*
X313652446Y-106578843D01*
X313719246Y-106701167D01*
X313819556Y-106806154D01*
X313937607Y-106836585D01*
X314101343Y-106741571D01*
X314157080Y-106692636D01*
X314205517Y-106590558D01*
X314207667Y-106418114D01*
X314168755Y-106127738D01*
X314137097Y-105894832D01*
X314119109Y-105669749D01*
X314125285Y-105584859D01*
X314448767Y-105584859D01*
X314498890Y-105802060D01*
X314688157Y-106066167D01*
X314704159Y-106082533D01*
X314927127Y-106207534D01*
X315216032Y-106260172D01*
X315500220Y-106235992D01*
X315709034Y-106130538D01*
X315819167Y-105968853D01*
X315893633Y-105741949D01*
X315903305Y-105531069D01*
X315836884Y-105400720D01*
X315817222Y-105388812D01*
X315597901Y-105321894D01*
X315416398Y-105368214D01*
X315325722Y-105515834D01*
X315261482Y-105659747D01*
X315087000Y-105706334D01*
X314921498Y-105666912D01*
X314848279Y-105515834D01*
X314814375Y-105367553D01*
X314738300Y-105337910D01*
X314569366Y-105415157D01*
X314541044Y-105432413D01*
X314448767Y-105584859D01*
X314125285Y-105584859D01*
X314127227Y-105558167D01*
X314099324Y-105515875D01*
X313956389Y-105494667D01*
X313842554Y-105508270D01*
X313768716Y-105575487D01*
X313760279Y-105602199D01*
X313718466Y-105734587D01*
X313671182Y-106023834D01*
X313658635Y-106114889D01*
X313633373Y-106399359D01*
X311898206Y-106399359D01*
X311883257Y-106391209D01*
X311868686Y-106375773D01*
X311745645Y-106183735D01*
X311635487Y-105921510D01*
X311554650Y-105644137D01*
X311534284Y-105506268D01*
X311895779Y-105506268D01*
X311917113Y-105696169D01*
X311991262Y-105917695D01*
X312103879Y-106108500D01*
X312113131Y-106118457D01*
X312319845Y-106227945D01*
X312602181Y-106258898D01*
X312890981Y-106212566D01*
X313117088Y-106090198D01*
X313150267Y-106058138D01*
X313324758Y-105818848D01*
X313363784Y-105602199D01*
X313260861Y-105437618D01*
X313105913Y-105343834D01*
X313003787Y-105359111D01*
X312955056Y-105515834D01*
X312890815Y-105659747D01*
X312716334Y-105706334D01*
X312550832Y-105666912D01*
X312477612Y-105515834D01*
X312474281Y-105494414D01*
X312421173Y-105366444D01*
X312295480Y-105332692D01*
X312055856Y-105379825D01*
X311959566Y-105414585D01*
X311895779Y-105506268D01*
X311534284Y-105506268D01*
X311519569Y-105406656D01*
X311543087Y-105283000D01*
X312547000Y-105283000D01*
X312589334Y-105325334D01*
X312631667Y-105283000D01*
X312801000Y-105283000D01*
X312843334Y-105325334D01*
X312885667Y-105283000D01*
X315171667Y-105283000D01*
X315214000Y-105325334D01*
X315256334Y-105283000D01*
X315214000Y-105240667D01*
X315171667Y-105283000D01*
X312885667Y-105283000D01*
X312843334Y-105240667D01*
X312801000Y-105283000D01*
X312631667Y-105283000D01*
X312589334Y-105240667D01*
X312547000Y-105283000D01*
X311543087Y-105283000D01*
X311546680Y-105264108D01*
X311607715Y-105202977D01*
X311815365Y-105091184D01*
X312121327Y-105029211D01*
X312541761Y-105016111D01*
X313092828Y-105050940D01*
X313790689Y-105132750D01*
X314072082Y-105162054D01*
X314313089Y-105154520D01*
X314463038Y-105095126D01*
X314477852Y-105085167D01*
X314699906Y-105014152D01*
X315025427Y-104987555D01*
X315401263Y-105001156D01*
X315774262Y-105050733D01*
X316091274Y-105132067D01*
X316299147Y-105240935D01*
X316316003Y-105283000D01*
X316325313Y-105306232D01*
X316308939Y-105498481D01*
X316299942Y-105531069D01*
X316237770Y-105756253D01*
X316129701Y-106029693D01*
G37*
G36*
X315326252Y-104396483D02*
G01*
X315704709Y-104440614D01*
X315938420Y-104537487D01*
X316018334Y-104683943D01*
X315988318Y-104736491D01*
X315873385Y-104766013D01*
X315645694Y-104771118D01*
X315277500Y-104754448D01*
X315129959Y-104745117D01*
X314819616Y-104721520D01*
X314597253Y-104698934D01*
X314503435Y-104681196D01*
X314503945Y-104640808D01*
X314577302Y-104523046D01*
X314625054Y-104481903D01*
X314833654Y-104415311D01*
X315187600Y-104394000D01*
X315326252Y-104396483D01*
G37*
G36*
X326448840Y-104359643D02*
G01*
X326390257Y-104574467D01*
X326402636Y-104668382D01*
X326537005Y-104775590D01*
X326611399Y-104814778D01*
X326675181Y-104887983D01*
X326710034Y-105020471D01*
X326724273Y-105248910D01*
X326724727Y-105333421D01*
X326726214Y-105609967D01*
X326724155Y-105850822D01*
X326711858Y-106133544D01*
X326680727Y-106312296D01*
X326621855Y-106427639D01*
X326526334Y-106520134D01*
X326352849Y-106629130D01*
X326184960Y-106680000D01*
X326129490Y-106693861D01*
X326026624Y-106821532D01*
X325933646Y-107098924D01*
X325728946Y-107635927D01*
X325403780Y-108114147D01*
X324987964Y-108481797D01*
X324504978Y-108712363D01*
X324437454Y-108729137D01*
X324138452Y-108767801D01*
X323754084Y-108785718D01*
X323346977Y-108782820D01*
X322979756Y-108759040D01*
X322715050Y-108714309D01*
X322295334Y-108532891D01*
X321862735Y-108188677D01*
X321520880Y-107726871D01*
X321291869Y-107171433D01*
X321242983Y-107004796D01*
X321159121Y-106796189D01*
X321059897Y-106687276D01*
X320914737Y-106634534D01*
X320743216Y-106564077D01*
X320561164Y-106354745D01*
X320455648Y-106010030D01*
X320422297Y-105520038D01*
X320422648Y-105449782D01*
X320423975Y-105415135D01*
X320692741Y-105415135D01*
X320694929Y-105691913D01*
X320730215Y-105951064D01*
X320799261Y-106137368D01*
X320844059Y-106202649D01*
X320972796Y-106336288D01*
X321050884Y-106310333D01*
X321078932Y-106123936D01*
X321057545Y-105776246D01*
X321041964Y-105635693D01*
X320996272Y-105302029D01*
X320948284Y-105103707D01*
X320889829Y-105015183D01*
X320812736Y-105010910D01*
X320785020Y-105029566D01*
X320722992Y-105175946D01*
X320692741Y-105415135D01*
X320423975Y-105415135D01*
X320435463Y-105115126D01*
X320475469Y-104905590D01*
X320554902Y-104783675D01*
X320685998Y-104711884D01*
X320764867Y-104656404D01*
X320787428Y-104532466D01*
X320753185Y-104294726D01*
X320742251Y-104225831D01*
X321202099Y-104225831D01*
X321225841Y-104670735D01*
X321274498Y-105184185D01*
X321342508Y-105726568D01*
X321403642Y-106123936D01*
X321424310Y-106258273D01*
X321514343Y-106739690D01*
X321607046Y-107131207D01*
X321696857Y-107393213D01*
X321818848Y-107611211D01*
X322119887Y-107982201D01*
X322479477Y-108277263D01*
X322849175Y-108451894D01*
X322976786Y-108480375D01*
X323302252Y-108523099D01*
X323638334Y-108538478D01*
X323797455Y-108533497D01*
X324387320Y-108431148D01*
X324873556Y-108195532D01*
X325259466Y-107824533D01*
X325548358Y-107316035D01*
X325593193Y-107188344D01*
X325676765Y-106851941D01*
X325757688Y-106415045D01*
X325777194Y-106283638D01*
X326092112Y-106283638D01*
X326105080Y-106391235D01*
X326155584Y-106403738D01*
X326251317Y-106350346D01*
X326299597Y-106302819D01*
X326386695Y-106122243D01*
X326452819Y-105869171D01*
X326492543Y-105590573D01*
X326500442Y-105333421D01*
X326471089Y-105144684D01*
X326399059Y-105071334D01*
X326371304Y-105073111D01*
X326285460Y-105119471D01*
X326222453Y-105249948D01*
X326172686Y-105492911D01*
X326126557Y-105876731D01*
X326108989Y-106051746D01*
X326092112Y-106283638D01*
X325777194Y-106283638D01*
X325832503Y-105911041D01*
X325897752Y-105373316D01*
X325949975Y-104835257D01*
X325985716Y-104330249D01*
X326001515Y-103891680D01*
X325993914Y-103552935D01*
X325959454Y-103347401D01*
X325909334Y-103271739D01*
X325812404Y-103274286D01*
X325618176Y-103357403D01*
X325488440Y-103417008D01*
X325350459Y-103448507D01*
X325230412Y-103391308D01*
X325059640Y-103229717D01*
X324939694Y-103111387D01*
X324827876Y-103023920D01*
X324762668Y-103039844D01*
X324699918Y-103149290D01*
X324613727Y-103259035D01*
X324400484Y-103335667D01*
X324382290Y-103335363D01*
X324251193Y-103298591D01*
X324148346Y-103173583D01*
X324040379Y-102922004D01*
X323993272Y-102805003D01*
X323830394Y-102470178D01*
X323656728Y-102182979D01*
X323472563Y-101977150D01*
X323241356Y-101864623D01*
X322946354Y-101866534D01*
X322551471Y-101976130D01*
X322408023Y-102032425D01*
X321929299Y-102327074D01*
X321566605Y-102741996D01*
X321324459Y-103270703D01*
X321207374Y-103906712D01*
X321202099Y-104225831D01*
X320742251Y-104225831D01*
X320739026Y-104205508D01*
X320709289Y-103901527D01*
X320687876Y-103516355D01*
X320678688Y-103111892D01*
X320678523Y-103065013D01*
X320679657Y-102974927D01*
X320944735Y-102974927D01*
X320951200Y-103039504D01*
X320970687Y-103144687D01*
X321008446Y-103142873D01*
X321083134Y-103019000D01*
X321213410Y-102758002D01*
X321374357Y-102471453D01*
X321662298Y-102124638D01*
X322028139Y-101868929D01*
X322501097Y-101685828D01*
X323110387Y-101556836D01*
X323201602Y-101543472D01*
X323404045Y-101538565D01*
X323556593Y-101608964D01*
X323737431Y-101782852D01*
X323852571Y-101922121D01*
X324052151Y-102218513D01*
X324223004Y-102531334D01*
X324338159Y-102768110D01*
X324410371Y-102884189D01*
X324448298Y-102877370D01*
X324469417Y-102764167D01*
X324510564Y-102614118D01*
X324629175Y-102539763D01*
X324821870Y-102615105D01*
X325090701Y-102840394D01*
X325264780Y-103005318D01*
X325389691Y-103088760D01*
X325493546Y-103083182D01*
X325628458Y-103004486D01*
X325821631Y-102910840D01*
X325985359Y-102885926D01*
X326004737Y-102892266D01*
X326121387Y-103006715D01*
X326221503Y-103208667D01*
X326321995Y-103505000D01*
X326381840Y-102952765D01*
X326399256Y-102492331D01*
X326355096Y-102041251D01*
X326255951Y-101661133D01*
X326110038Y-101398938D01*
X326065381Y-101353013D01*
X325767115Y-101143646D01*
X325352209Y-100951089D01*
X324864040Y-100788050D01*
X324345983Y-100667237D01*
X323841414Y-100601359D01*
X323393707Y-100603122D01*
X323046337Y-100672527D01*
X322635161Y-100823652D01*
X322227539Y-101032297D01*
X321855225Y-101277315D01*
X321549973Y-101537555D01*
X321343536Y-101791870D01*
X321267667Y-102019111D01*
X321217705Y-102246996D01*
X321092902Y-102476676D01*
X320993553Y-102643909D01*
X320944735Y-102974927D01*
X320679657Y-102974927D01*
X320683315Y-102684420D01*
X320702712Y-102440674D01*
X320740884Y-102304524D01*
X320802000Y-102246716D01*
X320887162Y-102154166D01*
X320929000Y-101967283D01*
X320943627Y-101882275D01*
X321070396Y-101648390D01*
X321302591Y-101376210D01*
X321610092Y-101094698D01*
X321962782Y-100832817D01*
X322330542Y-100619528D01*
X322563347Y-100511614D01*
X322777940Y-100437094D01*
X323008736Y-100395078D01*
X323306751Y-100376510D01*
X323723000Y-100372334D01*
X324370565Y-100401502D01*
X325104915Y-100525961D01*
X325710320Y-100746581D01*
X326180352Y-101061563D01*
X326396099Y-101293428D01*
X326566601Y-101603503D01*
X326658251Y-101991344D01*
X326685495Y-102492331D01*
X326685862Y-102499076D01*
X326685786Y-102517722D01*
X326669797Y-102820416D01*
X326630926Y-103206374D01*
X326576356Y-103625178D01*
X326534451Y-103891680D01*
X326513267Y-104026407D01*
X326448840Y-104359643D01*
G37*
G36*
X322867925Y-104676352D02*
G01*
X323064913Y-104748434D01*
X323114793Y-104867164D01*
X323093197Y-104925923D01*
X323018545Y-104969972D01*
X322963313Y-104982427D01*
X322866171Y-105092500D01*
X322863210Y-105097654D01*
X322717181Y-105217091D01*
X322534573Y-105227266D01*
X322393708Y-105123105D01*
X322329758Y-105054250D01*
X322156667Y-104973778D01*
X322106982Y-104962394D01*
X321980991Y-104888110D01*
X321993584Y-104795133D01*
X322126517Y-104711087D01*
X322361543Y-104663596D01*
X322540739Y-104655490D01*
X322867925Y-104676352D01*
G37*
G36*
X312972323Y-104407164D02*
G01*
X313175076Y-104445392D01*
X313240496Y-104485149D01*
X313309000Y-104611016D01*
X313308202Y-104620604D01*
X313238311Y-104684656D01*
X313040866Y-104727665D01*
X312695167Y-104754468D01*
X312680230Y-104755182D01*
X312356511Y-104772004D01*
X312088595Y-104788255D01*
X311933167Y-104800510D01*
X311868361Y-104797890D01*
X311791946Y-104723621D01*
X311819668Y-104599404D01*
X311948768Y-104481646D01*
X312091429Y-104439165D01*
X312362871Y-104406050D01*
X312679045Y-104394717D01*
X312972323Y-104407164D01*
G37*
G36*
X291261715Y-105868490D02*
G01*
X291257893Y-105995290D01*
X291226303Y-106030923D01*
X291079004Y-106087334D01*
X290979179Y-106029800D01*
X290965128Y-105902626D01*
X291049044Y-105786441D01*
X291166472Y-105778509D01*
X291261715Y-105868490D01*
G37*
G36*
X314902843Y-107314287D02*
G01*
X314927121Y-107381414D01*
X314855682Y-107513000D01*
X314682746Y-107649356D01*
X314442868Y-107757207D01*
X314322382Y-107787442D01*
X314010928Y-107817078D01*
X313679420Y-107798847D01*
X313365715Y-107741180D01*
X313107671Y-107652507D01*
X312943148Y-107541260D01*
X312910003Y-107415867D01*
X312929687Y-107380644D01*
X313042539Y-107335164D01*
X313262698Y-107358028D01*
X313613460Y-107450381D01*
X313658941Y-107463678D01*
X313889592Y-107508470D01*
X314111448Y-107491632D01*
X314405964Y-107408904D01*
X314591769Y-107354040D01*
X314800819Y-107310327D01*
X314902843Y-107314287D01*
G37*
G36*
X292471031Y-106649771D02*
G01*
X292549736Y-106786806D01*
X292537479Y-106888380D01*
X292402542Y-106934000D01*
X292282783Y-106903209D01*
X292227000Y-106758459D01*
X292249101Y-106667937D01*
X292348996Y-106608231D01*
X292471031Y-106649771D01*
G37*
G36*
X325123424Y-103980920D02*
G01*
X325317494Y-104017026D01*
X325377467Y-104086215D01*
X325320566Y-104195710D01*
X325286321Y-104219545D01*
X325119720Y-104265518D01*
X324871684Y-104296994D01*
X324592037Y-104312156D01*
X324330603Y-104309189D01*
X324137205Y-104286276D01*
X324061667Y-104241600D01*
X324061808Y-104234251D01*
X324147781Y-104088740D01*
X324389795Y-104000416D01*
X324784156Y-103970667D01*
X325123424Y-103980920D01*
G37*
G36*
X305138510Y-104278307D02*
G01*
X305353422Y-104397088D01*
X305395402Y-104443265D01*
X305472219Y-104602373D01*
X305421890Y-104702299D01*
X305256196Y-104705658D01*
X305159050Y-104695494D01*
X305049088Y-104740615D01*
X304970614Y-104792064D01*
X304811137Y-104815518D01*
X304657260Y-104795263D01*
X304588334Y-104732667D01*
X304556581Y-104683456D01*
X304419000Y-104648000D01*
X304342164Y-104631587D01*
X304256123Y-104525887D01*
X304267637Y-104383275D01*
X304383592Y-104276059D01*
X304524010Y-104237515D01*
X304837240Y-104222021D01*
X305138510Y-104278307D01*
G37*
G36*
X324956604Y-104660591D02*
G01*
X325171539Y-104702991D01*
X325274442Y-104766723D01*
X325288711Y-104813262D01*
X325254024Y-104943283D01*
X325073923Y-104986667D01*
X324983046Y-105005342D01*
X324823667Y-105113667D01*
X324775640Y-105168236D01*
X324679804Y-105228999D01*
X324549793Y-105208980D01*
X324328675Y-105107466D01*
X324274247Y-105078331D01*
X324102371Y-104935636D01*
X324073452Y-104801039D01*
X324195592Y-104699392D01*
X324203204Y-104696558D01*
X324416076Y-104653857D01*
X324685996Y-104643040D01*
X324956604Y-104660591D01*
G37*
G36*
X293028047Y-106623522D02*
G01*
X293073667Y-106758459D01*
X293042876Y-106878218D01*
X292898126Y-106934000D01*
X292807604Y-106911900D01*
X292747898Y-106812005D01*
X292789438Y-106689970D01*
X292926473Y-106611264D01*
X293028047Y-106623522D01*
G37*
G36*
X302274086Y-104881916D02*
G01*
X302372501Y-105014709D01*
X302375527Y-105032398D01*
X302350416Y-105134208D01*
X302204898Y-105141709D01*
X302076582Y-105091418D01*
X301978167Y-104958624D01*
X301975141Y-104940935D01*
X302000252Y-104839126D01*
X302145770Y-104831624D01*
X302274086Y-104881916D01*
G37*
G36*
X306927879Y-105540906D02*
G01*
X306795264Y-105949216D01*
X306590935Y-106346176D01*
X306354152Y-106591975D01*
X306091167Y-106678118D01*
X306012353Y-106699229D01*
X305943000Y-106810373D01*
X305906299Y-106965047D01*
X305768574Y-107238992D01*
X305552862Y-107570585D01*
X305284960Y-107927731D01*
X304990661Y-108278336D01*
X304695760Y-108590305D01*
X304426053Y-108831542D01*
X304207334Y-108969954D01*
X303958985Y-109026080D01*
X303634137Y-109038975D01*
X303316286Y-109008958D01*
X303084389Y-108938260D01*
X302928093Y-108823228D01*
X302679193Y-108588380D01*
X302392494Y-108282501D01*
X302099799Y-107942744D01*
X301832911Y-107606263D01*
X301623632Y-107310210D01*
X301503767Y-107091738D01*
X301499293Y-107080256D01*
X301328174Y-106775861D01*
X301090942Y-106595334D01*
X301084859Y-106592436D01*
X300813479Y-106373594D01*
X300594802Y-106019622D01*
X300442152Y-105559549D01*
X300368856Y-105022400D01*
X300366775Y-104978413D01*
X300371450Y-104752806D01*
X300640599Y-104752806D01*
X300664797Y-105021505D01*
X300731161Y-105353194D01*
X300825348Y-105691305D01*
X300933011Y-105979269D01*
X301039806Y-106160516D01*
X301069496Y-106191902D01*
X301216494Y-106320512D01*
X301276417Y-106306890D01*
X301253768Y-106150834D01*
X301243415Y-106107863D01*
X301202409Y-105892107D01*
X301151103Y-105578669D01*
X301098176Y-105219500D01*
X301094326Y-105192023D01*
X301038046Y-104836175D01*
X300985078Y-104618113D01*
X300925650Y-104508667D01*
X300849988Y-104478667D01*
X300759810Y-104506553D01*
X300654068Y-104639387D01*
X300640599Y-104752806D01*
X300371450Y-104752806D01*
X300375008Y-104581067D01*
X300423920Y-104406254D01*
X301356451Y-104406254D01*
X301411063Y-105069828D01*
X301542132Y-105855852D01*
X301560598Y-105948403D01*
X301645151Y-106306890D01*
X301698420Y-106532741D01*
X301860561Y-107000083D01*
X302070718Y-107396392D01*
X302352585Y-107767634D01*
X302729859Y-108159770D01*
X302990560Y-108406885D01*
X303190045Y-108574583D01*
X303348183Y-108666130D01*
X303505075Y-108704334D01*
X303700819Y-108712000D01*
X303754420Y-108711786D01*
X303928626Y-108700840D01*
X304072398Y-108656717D01*
X304222166Y-108556706D01*
X304414361Y-108378093D01*
X304685413Y-108098167D01*
X304827772Y-107945231D01*
X305088652Y-107646005D01*
X305301259Y-107378221D01*
X305429704Y-107185870D01*
X305433035Y-107179551D01*
X305561568Y-106860145D01*
X305687185Y-106418691D01*
X305720911Y-106265246D01*
X306104399Y-106265246D01*
X306125923Y-106341334D01*
X306166382Y-106327368D01*
X306284445Y-106197083D01*
X306415526Y-105965077D01*
X306537278Y-105674671D01*
X306627357Y-105369189D01*
X306657891Y-105218439D01*
X306694218Y-104844687D01*
X306647629Y-104600435D01*
X306519327Y-104495420D01*
X306464607Y-104494180D01*
X306380179Y-104573580D01*
X306325851Y-104790888D01*
X306286503Y-105030444D01*
X306227900Y-105369863D01*
X306164036Y-105727500D01*
X306154947Y-105778873D01*
X306114918Y-106064168D01*
X306104399Y-106265246D01*
X305720911Y-106265246D01*
X305800937Y-105901153D01*
X305893875Y-105353493D01*
X305957050Y-104821677D01*
X305981514Y-104351667D01*
X305981724Y-104235891D01*
X305971791Y-103871250D01*
X305935667Y-103594935D01*
X305861268Y-103342785D01*
X305736512Y-103050638D01*
X305610672Y-102793650D01*
X305476350Y-102588774D01*
X305321060Y-102455053D01*
X305101512Y-102344338D01*
X304724449Y-102227508D01*
X304321759Y-102222194D01*
X304093055Y-102237822D01*
X303911575Y-102205299D01*
X303779470Y-102102994D01*
X303764726Y-102087362D01*
X303630297Y-101996975D01*
X303424511Y-101951299D01*
X303099057Y-101938667D01*
X302964098Y-101939986D01*
X302576953Y-101971683D01*
X302297788Y-102061497D01*
X302081009Y-102230422D01*
X301881021Y-102499449D01*
X301681791Y-102848812D01*
X301488772Y-103325888D01*
X301381340Y-103834988D01*
X301356451Y-104406254D01*
X300423920Y-104406254D01*
X300447366Y-104322456D01*
X300594413Y-104182221D01*
X300826715Y-104140000D01*
X300914401Y-104133961D01*
X301009625Y-104066763D01*
X301032334Y-103883885D01*
X301034563Y-103823105D01*
X301101223Y-103467823D01*
X301244811Y-103044650D01*
X301444006Y-102608737D01*
X301677485Y-102215232D01*
X301879923Y-101956737D01*
X302097808Y-101777518D01*
X302365536Y-101668926D01*
X302722402Y-101615173D01*
X303207700Y-101600472D01*
X303375259Y-101601943D01*
X303657543Y-101620368D01*
X303828318Y-101666388D01*
X303927366Y-101748167D01*
X303970329Y-101793574D01*
X304152556Y-101872591D01*
X304461334Y-101897116D01*
X304567646Y-101901280D01*
X304940371Y-101955032D01*
X305282992Y-102050818D01*
X305459487Y-102126088D01*
X305635898Y-102243856D01*
X305777917Y-102421859D01*
X305933692Y-102708786D01*
X306045372Y-102956096D01*
X306187764Y-103339371D01*
X306282204Y-103676918D01*
X306316396Y-103831959D01*
X306379514Y-104029497D01*
X306458649Y-104118975D01*
X306579202Y-104140000D01*
X306760511Y-104181113D01*
X306814497Y-104235891D01*
X306932618Y-104355744D01*
X307020682Y-104651836D01*
X307020596Y-104844687D01*
X307020503Y-105052515D01*
X306927879Y-105540906D01*
G37*
%TO.C,R5*%
X278709888Y-111430796D02*
X278344204Y-111065112D01*
X277705796Y-112434888D02*
X277340112Y-112069204D01*
%TO.C,D62*%
X307050000Y-127375000D02*
X307050000Y-123475000D01*
X305050000Y-127375000D02*
X305050000Y-123475000D01*
X307050000Y-127375000D02*
X305050000Y-127375000D01*
%TO.C,D42*%
X126075000Y-108375000D02*
X126075000Y-104475000D01*
X124075000Y-108375000D02*
X124075000Y-104475000D01*
X126075000Y-108375000D02*
X124075000Y-108375000D01*
%TO.C,D50*%
X40325000Y-127425000D02*
X40325000Y-123525000D01*
X38325000Y-127425000D02*
X38325000Y-123525000D01*
X40325000Y-127425000D02*
X38325000Y-127425000D01*
%TO.C,D53*%
X97475000Y-127425000D02*
X97475000Y-123525000D01*
X95475000Y-127425000D02*
X95475000Y-123525000D01*
X97475000Y-127425000D02*
X95475000Y-127425000D01*
%TO.C,D14*%
X263475000Y-70225000D02*
X263475000Y-66325000D01*
X261475000Y-70225000D02*
X261475000Y-66325000D01*
X263475000Y-70225000D02*
X261475000Y-70225000D01*
%TO.C,D64*%
X49850000Y-146475000D02*
X49850000Y-142575000D01*
X47850000Y-146475000D02*
X47850000Y-142575000D01*
X49850000Y-146475000D02*
X47850000Y-146475000D01*
%TO.C,D1*%
X-2500000Y-70275000D02*
X-2500000Y-66375000D01*
X-4500000Y-70275000D02*
X-4500000Y-66375000D01*
X-2500000Y-70275000D02*
X-4500000Y-70275000D01*
%TO.C,D52*%
X78425000Y-127425000D02*
X78425000Y-123525000D01*
X76425000Y-127425000D02*
X76425000Y-123525000D01*
X78425000Y-127425000D02*
X76425000Y-127425000D01*
%TO.C,C7*%
X284855796Y-95490112D02*
X284490112Y-95855796D01*
X285859888Y-96494204D02*
X285494204Y-96859888D01*
%TO.C,D7*%
X111800000Y-70275000D02*
X111800000Y-66375000D01*
X109800000Y-70275000D02*
X109800000Y-66375000D01*
X111800000Y-70275000D02*
X109800000Y-70275000D01*
%TO.C,C6*%
X280063804Y-91479488D02*
X280429488Y-91113804D01*
X279059712Y-90475396D02*
X279425396Y-90109712D01*
%TO.C,D32*%
X259425000Y-89300000D02*
X259425000Y-85400000D01*
X257425000Y-89300000D02*
X257425000Y-85400000D01*
X259425000Y-89300000D02*
X257425000Y-89300000D01*
%TO.C,D63*%
X3225000Y-141975000D02*
X3225000Y-138075000D01*
X1225000Y-141975000D02*
X1225000Y-138075000D01*
X3225000Y-141975000D02*
X1225000Y-141975000D01*
%TO.C,D58*%
X192725000Y-127425000D02*
X192725000Y-123525000D01*
X190725000Y-127425000D02*
X190725000Y-123525000D01*
X192725000Y-127425000D02*
X190725000Y-127425000D01*
%TO.C,D57*%
X173675000Y-127425000D02*
X173675000Y-123525000D01*
X171675000Y-127425000D02*
X171675000Y-123525000D01*
X173675000Y-127425000D02*
X171675000Y-127425000D01*
%TO.C,D65*%
X130812500Y-146475000D02*
X130812500Y-142575000D01*
X128812500Y-146475000D02*
X128812500Y-142575000D01*
X130812500Y-146475000D02*
X128812500Y-146475000D01*
%TO.C,D68*%
X289000000Y-141925000D02*
X289000000Y-138025000D01*
X287000000Y-141925000D02*
X287000000Y-138025000D01*
X289000000Y-141925000D02*
X287000000Y-141925000D01*
%TO.C,D60*%
X237975000Y-127400000D02*
X237975000Y-123500000D01*
X235975000Y-127400000D02*
X235975000Y-123500000D01*
X237975000Y-127400000D02*
X235975000Y-127400000D01*
%TO.C,D17*%
X307050000Y-70225000D02*
X307050000Y-66325000D01*
X305050000Y-70225000D02*
X305050000Y-66325000D01*
X307050000Y-70225000D02*
X305050000Y-70225000D01*
%TO.C,D39*%
X68925000Y-108375000D02*
X68925000Y-104475000D01*
X66925000Y-108375000D02*
X66925000Y-104475000D01*
X68925000Y-108375000D02*
X66925000Y-108375000D01*
%TO.C,D11*%
X188000000Y-70275000D02*
X188000000Y-66375000D01*
X186000000Y-70275000D02*
X186000000Y-66375000D01*
X188000000Y-70275000D02*
X186000000Y-70275000D01*
%TO.C,D3*%
X35600000Y-70275000D02*
X35600000Y-66375000D01*
X33600000Y-70275000D02*
X33600000Y-66375000D01*
X35600000Y-70275000D02*
X33600000Y-70275000D01*
%TO.C,D48*%
X253300000Y-103350000D02*
X253300000Y-99450000D01*
X251300000Y-103350000D02*
X251300000Y-99450000D01*
X253300000Y-103350000D02*
X251300000Y-103350000D01*
%TO.C,C8*%
X268309888Y-93030796D02*
X267944204Y-92665112D01*
X267305796Y-94034888D02*
X266940112Y-93669204D01*
%TO.C,D54*%
X116525000Y-127425000D02*
X116525000Y-123525000D01*
X114525000Y-127425000D02*
X114525000Y-123525000D01*
X116525000Y-127425000D02*
X114525000Y-127425000D01*
%TO.C,D41*%
X107025000Y-108375000D02*
X107025000Y-104475000D01*
X105025000Y-108375000D02*
X105025000Y-104475000D01*
X107025000Y-108375000D02*
X105025000Y-108375000D01*
%TO.C,D29*%
X197525000Y-89325000D02*
X197525000Y-85425000D01*
X195525000Y-89325000D02*
X195525000Y-85425000D01*
X197525000Y-89325000D02*
X195525000Y-89325000D01*
%TO.C,D40*%
X87975000Y-108375000D02*
X87975000Y-104475000D01*
X85975000Y-108375000D02*
X85975000Y-104475000D01*
X87975000Y-108375000D02*
X85975000Y-108375000D01*
%TD*%
M02*
