%FSLAX45Y45*%
G04 Gerber Fmt 4.5, Leading zero omitted, Abs format (unit mm)*
G04 Created by KiCad (PCBNEW (5.99.0-12118-g897269f33f)) date 2021-10-27 19:42:26*
%MOMM*%
%LPD*%
G01*
G04 APERTURE LIST*
%TA.AperFunction,Profile*%
%ADD10C,0.100000*%
%TD*%
%ADD11C,0.200000*%
%ADD12C,0.175000*%
%ADD13C,0.304800*%
%ADD14C,0.398780*%
G04 APERTURE END LIST*
D10*
X495035Y-5428477D02*
G75*
G02*
X565762Y-5378430I70727J-24953D01*
G01*
X8591434Y-5428477D02*
G75*
G02*
X8662161Y-5378430I70727J-24953D01*
G01*
X24278125Y-14673429D02*
X24278125Y-14773429D01*
X32771300Y-14723429D02*
X32771300Y-5503430D01*
X29353750Y-14848429D02*
X32646300Y-14848429D01*
X18250518Y-5428477D02*
G75*
G02*
X18321246Y-5378430I70727J-24953D01*
G01*
X3702604Y-14848429D02*
G75*
G02*
X3628312Y-14783707I0J75000D01*
G01*
X1016875Y-14848429D02*
X3009445Y-14848429D01*
X27158937Y-14848477D02*
X28553750Y-14848429D01*
X291875Y-14773429D02*
G75*
G02*
X216875Y-14848429I-75000J0D01*
G01*
X-283010Y-5378430D02*
G75*
G02*
X-212282Y-5428477I0J-75000D01*
G01*
X26540067Y-14783756D02*
G75*
G02*
X27084642Y-14783756I272287J-37672D01*
G01*
X6274756Y-14848428D02*
X18295303Y-14848429D01*
X495034Y-5428477D02*
G75*
G02*
X-212282Y-5428477I-353658J124770D01*
G01*
X32355301Y-5428477D02*
G75*
G02*
X31647984Y-5428477I-353659J124770D01*
G01*
X-2010000Y-5503430D02*
X-2010000Y-14723429D01*
X941875Y-14673429D02*
X941875Y-14773429D01*
X29278750Y-14673429D02*
X29278750Y-14773429D01*
X7813389Y-5378430D02*
X2207500Y-5378430D01*
X1407500Y-5378430D02*
G75*
G02*
X1482500Y-5453430I0J-75000D01*
G01*
X1482500Y-5553430D02*
X1482500Y-5453430D01*
X-283010Y-5378430D02*
X-1885000Y-5378430D01*
X291875Y-14773429D02*
X291875Y-14673429D01*
X31183750Y-5453430D02*
X31183750Y-5553430D01*
X11657500Y-5553430D02*
G75*
G02*
X11007500Y-5553430I-325000J0D01*
G01*
X23628125Y-14773429D02*
X23628125Y-14673429D01*
X291875Y-14673429D02*
G75*
G02*
X941875Y-14673429I325000J0D01*
G01*
X23628125Y-14673429D02*
G75*
G02*
X24278125Y-14673429I325000J0D01*
G01*
X26540067Y-14783757D02*
G75*
G02*
X26465773Y-14848478I-74292J10279D01*
G01*
X-1885000Y-14848429D02*
G75*
G02*
X-2010000Y-14723429I0J125000D01*
G01*
X-2010000Y-5503430D02*
G75*
G02*
X-1885000Y-5378430I125000J0D01*
G01*
X31577257Y-5378430D02*
X31258750Y-5378430D01*
X19537883Y-14848301D02*
G75*
G02*
X19463592Y-14783579I2J75000D01*
G01*
X17472474Y-5378430D02*
G75*
G02*
X17543201Y-5428477I0J-75000D01*
G01*
X1016875Y-14848429D02*
G75*
G02*
X941875Y-14773429I0J75000D01*
G01*
X28628750Y-14773429D02*
X28628750Y-14673429D01*
X24353123Y-14848429D02*
X26465773Y-14848478D01*
X2132500Y-5453430D02*
X2132500Y-5553430D01*
X30458750Y-5378430D02*
X23162500Y-5378430D01*
X2132500Y-5453430D02*
G75*
G02*
X2207500Y-5378430I75000J0D01*
G01*
X24353123Y-14848429D02*
G75*
G02*
X24278125Y-14773429I2J75000D01*
G01*
X27158937Y-14848477D02*
G75*
G02*
X27084642Y-14783756I-3J75000D01*
G01*
X22362500Y-5378430D02*
G75*
G02*
X22437500Y-5453430I0J-75000D01*
G01*
X7813389Y-5378430D02*
G75*
G02*
X7884116Y-5428477I0J-75000D01*
G01*
X18919016Y-14783589D02*
G75*
G02*
X18844739Y-14848314I-74293J10275D01*
G01*
X30458750Y-5378430D02*
G75*
G02*
X30533750Y-5453430I0J-75000D01*
G01*
X17472474Y-5378430D02*
X11732500Y-5378430D01*
X30533750Y-5553430D02*
X30533750Y-5453430D01*
X23087500Y-5453430D02*
X23087500Y-5553430D01*
X32355302Y-5428477D02*
G75*
G02*
X32426029Y-5378430I70727J-24953D01*
G01*
X29353750Y-14848429D02*
G75*
G02*
X29278750Y-14773429I0J75000D01*
G01*
X31183750Y-5553430D02*
G75*
G02*
X30533750Y-5553430I-325000J0D01*
G01*
X-1885000Y-14848429D02*
X216875Y-14848429D01*
X3083737Y-14783707D02*
G75*
G02*
X3009445Y-14848429I-74292J10278D01*
G01*
X23087500Y-5553430D02*
G75*
G02*
X22437500Y-5553430I-325000J0D01*
G01*
X23087500Y-5453430D02*
G75*
G02*
X23162500Y-5378430I75000J0D01*
G01*
X22437500Y-5553430D02*
X22437500Y-5453430D01*
X8591433Y-5428477D02*
G75*
G02*
X7884116Y-5428477I-353658J124770D01*
G01*
X1407500Y-5378430D02*
X565762Y-5378430D01*
X10932500Y-5378430D02*
X8662161Y-5378430D01*
X11657500Y-5453430D02*
G75*
G02*
X11732500Y-5378430I75000J0D01*
G01*
X32646300Y-5378430D02*
G75*
G02*
X32771300Y-5503430I0J-125000D01*
G01*
X2132500Y-5553430D02*
G75*
G02*
X1482500Y-5553430I-325000J0D01*
G01*
X23628125Y-14773429D02*
G75*
G02*
X23553125Y-14848429I-75000J0D01*
G01*
X3083737Y-14783707D02*
G75*
G02*
X3628312Y-14783707I272288J-37670D01*
G01*
X18295303Y-14848429D02*
X18844739Y-14848314D01*
X28628750Y-14673429D02*
G75*
G02*
X29278750Y-14673429I325000J0D01*
G01*
X28628750Y-14773429D02*
G75*
G02*
X28553750Y-14848429I-75000J0D01*
G01*
X32646300Y-5378430D02*
X32426029Y-5378430D01*
X18919016Y-14783589D02*
G75*
G02*
X19463592Y-14783579I272289J-37658D01*
G01*
X32771300Y-14723429D02*
G75*
G02*
X32646300Y-14848429I-125000J0D01*
G01*
X31183750Y-5453430D02*
G75*
G02*
X31258750Y-5378430I75000J0D01*
G01*
X18250518Y-5428477D02*
G75*
G02*
X17543201Y-5428477I-353659J124770D01*
G01*
X10932500Y-5378430D02*
G75*
G02*
X11007500Y-5453430I0J-75000D01*
G01*
X19537883Y-14848301D02*
X23553125Y-14848429D01*
X3702604Y-14848429D02*
X6274756Y-14848428D01*
X22362500Y-5378430D02*
X18321246Y-5378430D01*
X31577257Y-5378430D02*
G75*
G02*
X31647984Y-5428477I0J-75000D01*
G01*
X11007500Y-5553430D02*
X11007500Y-5453430D01*
X11657500Y-5453430D02*
X11657500Y-5553430D01*
D11*
D12*
X-1645500Y-6215000D02*
X-1470500Y-6390000D01*
X-1470500Y-6215000D02*
X-1645500Y-6390000D01*
X-1410500Y-10025000D02*
X-1235500Y-10200000D01*
X-1235500Y-10025000D02*
X-1410500Y-10200000D01*
X-1173000Y-13835000D02*
X-998000Y-14010000D01*
X-998000Y-13835000D02*
X-1173000Y-14010000D01*
X-1170500Y-8120000D02*
X-995500Y-8295000D01*
X-995500Y-8120000D02*
X-1170500Y-8295000D01*
X-933000Y-10025000D02*
X-758000Y-10200000D01*
X-758000Y-10025000D02*
X-933000Y-10200000D01*
X-629500Y-6215000D02*
X-454500Y-6390000D01*
X-454500Y-6215000D02*
X-629500Y-6390000D01*
X-458000Y-11930000D02*
X-283000Y-12105000D01*
X-283000Y-11930000D02*
X-458000Y-12105000D01*
X-394500Y-10025000D02*
X-219500Y-10200000D01*
X-219500Y-10025000D02*
X-394500Y-10200000D01*
X-157000Y-13835000D02*
X18000Y-14010000D01*
X18000Y-13835000D02*
X-157000Y-14010000D01*
X-154500Y-8120000D02*
X20500Y-8295000D01*
X20500Y-8120000D02*
X-154500Y-8295000D01*
X83000Y-10025000D02*
X258000Y-10200000D01*
X258000Y-10025000D02*
X83000Y-10200000D01*
X259500Y-6215000D02*
X434500Y-6390000D01*
X434500Y-6215000D02*
X259500Y-6390000D01*
X558000Y-11930000D02*
X733000Y-12105000D01*
X733000Y-11930000D02*
X558000Y-12105000D01*
X1212000Y-8120000D02*
X1387000Y-8295000D01*
X1387000Y-8120000D02*
X1212000Y-8295000D01*
X1275500Y-6215000D02*
X1450500Y-6390000D01*
X1450500Y-6215000D02*
X1275500Y-6390000D01*
X1687000Y-10025000D02*
X1862000Y-10200000D01*
X1862000Y-10025000D02*
X1687000Y-10200000D01*
X2164500Y-6215000D02*
X2339500Y-6390000D01*
X2339500Y-6215000D02*
X2164500Y-6390000D01*
X2228000Y-8120000D02*
X2403000Y-8295000D01*
X2403000Y-8120000D02*
X2228000Y-8295000D01*
X2637000Y-11930000D02*
X2812000Y-12105000D01*
X2812000Y-11930000D02*
X2637000Y-12105000D01*
X2703000Y-10025000D02*
X2878000Y-10200000D01*
X2878000Y-10025000D02*
X2703000Y-10200000D01*
X3117000Y-8120000D02*
X3292000Y-8295000D01*
X3292000Y-8120000D02*
X3117000Y-8295000D01*
X3180500Y-6215000D02*
X3355500Y-6390000D01*
X3355500Y-6215000D02*
X3180500Y-6390000D01*
X3589500Y-13835000D02*
X3764500Y-14010000D01*
X3764500Y-13835000D02*
X3589500Y-14010000D01*
X3592000Y-10025000D02*
X3767000Y-10200000D01*
X3767000Y-10025000D02*
X3592000Y-10200000D01*
X3653000Y-11930000D02*
X3828000Y-12105000D01*
X3828000Y-11930000D02*
X3653000Y-12105000D01*
X4069500Y-6215000D02*
X4244500Y-6390000D01*
X4244500Y-6215000D02*
X4069500Y-6390000D01*
X4133000Y-8120000D02*
X4308000Y-8295000D01*
X4308000Y-8120000D02*
X4133000Y-8295000D01*
X4542000Y-11930000D02*
X4717000Y-12105000D01*
X4717000Y-11930000D02*
X4542000Y-12105000D01*
X4605500Y-13835000D02*
X4780500Y-14010000D01*
X4780500Y-13835000D02*
X4605500Y-14010000D01*
X4608000Y-10025000D02*
X4783000Y-10200000D01*
X4783000Y-10025000D02*
X4608000Y-10200000D01*
X5022000Y-8120000D02*
X5197000Y-8295000D01*
X5197000Y-8120000D02*
X5022000Y-8295000D01*
X5085500Y-6215000D02*
X5260500Y-6390000D01*
X5260500Y-6215000D02*
X5085500Y-6390000D01*
X5497000Y-10025000D02*
X5672000Y-10200000D01*
X5672000Y-10025000D02*
X5497000Y-10200000D01*
X5558000Y-11930000D02*
X5733000Y-12105000D01*
X5733000Y-11930000D02*
X5558000Y-12105000D01*
X5974500Y-6215000D02*
X6149500Y-6390000D01*
X6149500Y-6215000D02*
X5974500Y-6390000D01*
X6038000Y-8120000D02*
X6213000Y-8295000D01*
X6213000Y-8120000D02*
X6038000Y-8295000D01*
X6447000Y-11930000D02*
X6622000Y-12105000D01*
X6622000Y-11930000D02*
X6447000Y-12105000D01*
X6513000Y-10025000D02*
X6688000Y-10200000D01*
X6688000Y-10025000D02*
X6513000Y-10200000D01*
X6927000Y-8120000D02*
X7102000Y-8295000D01*
X7102000Y-8120000D02*
X6927000Y-8295000D01*
X6990500Y-6215000D02*
X7165500Y-6390000D01*
X7165500Y-6215000D02*
X6990500Y-6390000D01*
X7402000Y-10025000D02*
X7577000Y-10200000D01*
X7577000Y-10025000D02*
X7402000Y-10200000D01*
X7463000Y-11930000D02*
X7638000Y-12105000D01*
X7638000Y-11930000D02*
X7463000Y-12105000D01*
X7879500Y-6215000D02*
X8054500Y-6390000D01*
X8054500Y-6215000D02*
X7879500Y-6390000D01*
X7943000Y-8120000D02*
X8118000Y-8295000D01*
X8118000Y-8120000D02*
X7943000Y-8295000D01*
X8352000Y-11930000D02*
X8527000Y-12105000D01*
X8527000Y-11930000D02*
X8352000Y-12105000D01*
X8418000Y-10025000D02*
X8593000Y-10200000D01*
X8593000Y-10025000D02*
X8418000Y-10200000D01*
X8832000Y-8120000D02*
X9007000Y-8295000D01*
X9007000Y-8120000D02*
X8832000Y-8295000D01*
X8895500Y-6215000D02*
X9070500Y-6390000D01*
X9070500Y-6215000D02*
X8895500Y-6390000D01*
X9307000Y-10025000D02*
X9482000Y-10200000D01*
X9482000Y-10025000D02*
X9307000Y-10200000D01*
X9368000Y-11930000D02*
X9543000Y-12105000D01*
X9543000Y-11930000D02*
X9368000Y-12105000D01*
X9784500Y-6215000D02*
X9959500Y-6390000D01*
X9959500Y-6215000D02*
X9784500Y-6390000D01*
X9848000Y-8120000D02*
X10023000Y-8295000D01*
X10023000Y-8120000D02*
X9848000Y-8295000D01*
X10257000Y-11930000D02*
X10432000Y-12105000D01*
X10432000Y-11930000D02*
X10257000Y-12105000D01*
X10323000Y-10025000D02*
X10498000Y-10200000D01*
X10498000Y-10025000D02*
X10323000Y-10200000D01*
X10737000Y-8120000D02*
X10912000Y-8295000D01*
X10912000Y-8120000D02*
X10737000Y-8295000D01*
X10800500Y-6215000D02*
X10975500Y-6390000D01*
X10975500Y-6215000D02*
X10800500Y-6390000D01*
X11212000Y-10025000D02*
X11387000Y-10200000D01*
X11387000Y-10025000D02*
X11212000Y-10200000D01*
X11273000Y-11930000D02*
X11448000Y-12105000D01*
X11448000Y-11930000D02*
X11273000Y-12105000D01*
X11685750Y-13835000D02*
X11860750Y-14010000D01*
X11860750Y-13835000D02*
X11685750Y-14010000D01*
X11689500Y-6215000D02*
X11864500Y-6390000D01*
X11864500Y-6215000D02*
X11689500Y-6390000D01*
X11753000Y-8120000D02*
X11928000Y-8295000D01*
X11928000Y-8120000D02*
X11753000Y-8295000D01*
X12162000Y-11930000D02*
X12337000Y-12105000D01*
X12337000Y-11930000D02*
X12162000Y-12105000D01*
X12228000Y-10025000D02*
X12403000Y-10200000D01*
X12403000Y-10025000D02*
X12228000Y-10200000D01*
X12642000Y-8120000D02*
X12817000Y-8295000D01*
X12817000Y-8120000D02*
X12642000Y-8295000D01*
X12701750Y-13835000D02*
X12876750Y-14010000D01*
X12876750Y-13835000D02*
X12701750Y-14010000D01*
X12705500Y-6215000D02*
X12880500Y-6390000D01*
X12880500Y-6215000D02*
X12705500Y-6390000D01*
X13119500Y-10025000D02*
X13294500Y-10200000D01*
X13294500Y-10025000D02*
X13119500Y-10200000D01*
X13178000Y-11930000D02*
X13353000Y-12105000D01*
X13353000Y-11930000D02*
X13178000Y-12105000D01*
X13594500Y-6215000D02*
X13769500Y-6390000D01*
X13769500Y-6215000D02*
X13594500Y-6390000D01*
X13658000Y-8120000D02*
X13833000Y-8295000D01*
X13833000Y-8120000D02*
X13658000Y-8295000D01*
X14067000Y-11930000D02*
X14242000Y-12105000D01*
X14242000Y-11930000D02*
X14067000Y-12105000D01*
X14135500Y-10025000D02*
X14310500Y-10200000D01*
X14310500Y-10025000D02*
X14135500Y-10200000D01*
X14547000Y-8120000D02*
X14722000Y-8295000D01*
X14722000Y-8120000D02*
X14547000Y-8295000D01*
X14610500Y-6215000D02*
X14785500Y-6390000D01*
X14785500Y-6215000D02*
X14610500Y-6390000D01*
X15024500Y-10025000D02*
X15199500Y-10200000D01*
X15199500Y-10025000D02*
X15024500Y-10200000D01*
X15083000Y-11930000D02*
X15258000Y-12105000D01*
X15258000Y-11930000D02*
X15083000Y-12105000D01*
X15499500Y-6215000D02*
X15674500Y-6390000D01*
X15674500Y-6215000D02*
X15499500Y-6390000D01*
X15563000Y-8120000D02*
X15738000Y-8295000D01*
X15738000Y-8120000D02*
X15563000Y-8295000D01*
X15972000Y-11930000D02*
X16147000Y-12105000D01*
X16147000Y-11930000D02*
X15972000Y-12105000D01*
X16040500Y-10025000D02*
X16215500Y-10200000D01*
X16215500Y-10025000D02*
X16040500Y-10200000D01*
X16452000Y-8120000D02*
X16627000Y-8295000D01*
X16627000Y-8120000D02*
X16452000Y-8295000D01*
X16515500Y-6215000D02*
X16690500Y-6390000D01*
X16690500Y-6215000D02*
X16515500Y-6390000D01*
X16929500Y-10025000D02*
X17104500Y-10200000D01*
X17104500Y-10025000D02*
X16929500Y-10200000D01*
X16988000Y-11930000D02*
X17163000Y-12105000D01*
X17163000Y-11930000D02*
X16988000Y-12105000D01*
X17404500Y-6215000D02*
X17579500Y-6390000D01*
X17579500Y-6215000D02*
X17404500Y-6390000D01*
X17468000Y-8120000D02*
X17643000Y-8295000D01*
X17643000Y-8120000D02*
X17468000Y-8295000D01*
X17877000Y-11930000D02*
X18052000Y-12105000D01*
X18052000Y-11930000D02*
X17877000Y-12105000D01*
X17945500Y-10025000D02*
X18120500Y-10200000D01*
X18120500Y-10025000D02*
X17945500Y-10200000D01*
X18357000Y-8120000D02*
X18532000Y-8295000D01*
X18532000Y-8120000D02*
X18357000Y-8295000D01*
X18420500Y-6215000D02*
X18595500Y-6390000D01*
X18595500Y-6215000D02*
X18420500Y-6390000D01*
X18834500Y-10025000D02*
X19009500Y-10200000D01*
X19009500Y-10025000D02*
X18834500Y-10200000D01*
X18893000Y-11930000D02*
X19068000Y-12105000D01*
X19068000Y-11930000D02*
X18893000Y-12105000D01*
X19309500Y-6212500D02*
X19484500Y-6387500D01*
X19484500Y-6212500D02*
X19309500Y-6387500D01*
X19373000Y-8120000D02*
X19548000Y-8295000D01*
X19548000Y-8120000D02*
X19373000Y-8295000D01*
X19782000Y-11930000D02*
X19957000Y-12105000D01*
X19957000Y-11930000D02*
X19782000Y-12105000D01*
X19783213Y-13832500D02*
X19958213Y-14007500D01*
X19958213Y-13832500D02*
X19783213Y-14007500D01*
X19850500Y-10025000D02*
X20025500Y-10200000D01*
X20025500Y-10025000D02*
X19850500Y-10200000D01*
X20262000Y-8117500D02*
X20437000Y-8292500D01*
X20437000Y-8117500D02*
X20262000Y-8292500D01*
X20325500Y-6212500D02*
X20500500Y-6387500D01*
X20500500Y-6212500D02*
X20325500Y-6387500D01*
X20739500Y-10022500D02*
X20914500Y-10197500D01*
X20914500Y-10022500D02*
X20739500Y-10197500D01*
X20798000Y-11930000D02*
X20973000Y-12105000D01*
X20973000Y-11930000D02*
X20798000Y-12105000D01*
X20799213Y-13832500D02*
X20974213Y-14007500D01*
X20974213Y-13832500D02*
X20799213Y-14007500D01*
X21214500Y-6212500D02*
X21389500Y-6387500D01*
X21389500Y-6212500D02*
X21214500Y-6387500D01*
X21278000Y-8117500D02*
X21453000Y-8292500D01*
X21453000Y-8117500D02*
X21278000Y-8292500D01*
X21755500Y-10022500D02*
X21930500Y-10197500D01*
X21930500Y-10022500D02*
X21755500Y-10197500D01*
X22167000Y-8117500D02*
X22342000Y-8292500D01*
X22342000Y-8117500D02*
X22167000Y-8292500D01*
X22230500Y-6212500D02*
X22405500Y-6387500D01*
X22405500Y-6212500D02*
X22230500Y-6387500D01*
X22402000Y-11927500D02*
X22577000Y-12102500D01*
X22577000Y-11927500D02*
X22402000Y-12102500D01*
X23119500Y-6212500D02*
X23294500Y-6387500D01*
X23294500Y-6212500D02*
X23119500Y-6387500D01*
X23183000Y-8117500D02*
X23358000Y-8292500D01*
X23358000Y-8117500D02*
X23183000Y-8292500D01*
X23354500Y-11927500D02*
X23529500Y-12102500D01*
X23529500Y-11927500D02*
X23354500Y-12102500D01*
X23418000Y-11927500D02*
X23593000Y-12102500D01*
X23593000Y-11927500D02*
X23418000Y-12102500D01*
X23834500Y-10022500D02*
X24009500Y-10197500D01*
X24009500Y-10022500D02*
X23834500Y-10197500D01*
X24072000Y-6210000D02*
X24247000Y-6385000D01*
X24247000Y-6210000D02*
X24072000Y-6385000D01*
X24135500Y-6212500D02*
X24310500Y-6387500D01*
X24310500Y-6212500D02*
X24135500Y-6387500D01*
X24370500Y-11927500D02*
X24545500Y-12102500D01*
X24545500Y-11927500D02*
X24370500Y-12102500D01*
X24545712Y-13832500D02*
X24720712Y-14007500D01*
X24720712Y-13832500D02*
X24545712Y-14007500D01*
X24547000Y-8117500D02*
X24722000Y-8292500D01*
X24722000Y-8117500D02*
X24547000Y-8292500D01*
X24850500Y-10022500D02*
X25025500Y-10197500D01*
X25025500Y-10022500D02*
X24850500Y-10197500D01*
X25022000Y-11927500D02*
X25197000Y-12102500D01*
X25197000Y-11927500D02*
X25022000Y-12102500D01*
X25024500Y-6210000D02*
X25199500Y-6385000D01*
X25199500Y-6210000D02*
X25024500Y-6385000D01*
X25088000Y-6210000D02*
X25263000Y-6385000D01*
X25263000Y-6210000D02*
X25088000Y-6385000D01*
X25561712Y-13832500D02*
X25736712Y-14007500D01*
X25736712Y-13832500D02*
X25561712Y-14007500D01*
X25563000Y-8117500D02*
X25738000Y-8292500D01*
X25738000Y-8117500D02*
X25563000Y-8292500D01*
X26038000Y-11927500D02*
X26213000Y-12102500D01*
X26213000Y-11927500D02*
X26038000Y-12102500D01*
X26040500Y-6210000D02*
X26215500Y-6385000D01*
X26215500Y-6210000D02*
X26040500Y-6385000D01*
X27404500Y-6210000D02*
X27579500Y-6385000D01*
X27579500Y-6210000D02*
X27404500Y-6385000D01*
X27404500Y-8115000D02*
X27579500Y-8290000D01*
X27579500Y-8115000D02*
X27404500Y-8290000D01*
X27404500Y-13830000D02*
X27579500Y-14005000D01*
X27579500Y-13830000D02*
X27404500Y-14005000D01*
X28420500Y-6210000D02*
X28595500Y-6385000D01*
X28595500Y-6210000D02*
X28420500Y-6385000D01*
X28420500Y-8115000D02*
X28595500Y-8290000D01*
X28595500Y-8115000D02*
X28420500Y-8290000D01*
X28420500Y-13830000D02*
X28595500Y-14005000D01*
X28595500Y-13830000D02*
X28420500Y-14005000D01*
X29309500Y-6210000D02*
X29484500Y-6385000D01*
X29484500Y-6210000D02*
X29309500Y-6385000D01*
X29309500Y-8115000D02*
X29484500Y-8290000D01*
X29484500Y-8115000D02*
X29309500Y-8290000D01*
X29309500Y-11925000D02*
X29484500Y-12100000D01*
X29484500Y-11925000D02*
X29309500Y-12100000D01*
X29309500Y-13830000D02*
X29484500Y-14005000D01*
X29484500Y-13830000D02*
X29309500Y-14005000D01*
X30325500Y-6210000D02*
X30500500Y-6385000D01*
X30500500Y-6210000D02*
X30325500Y-6385000D01*
X30325500Y-8115000D02*
X30500500Y-8290000D01*
X30500500Y-8115000D02*
X30325500Y-8290000D01*
X30325500Y-11925000D02*
X30500500Y-12100000D01*
X30500500Y-11925000D02*
X30325500Y-12100000D01*
X30325500Y-13830000D02*
X30500500Y-14005000D01*
X30500500Y-13830000D02*
X30325500Y-14005000D01*
X31214500Y-6210000D02*
X31389500Y-6385000D01*
X31389500Y-6210000D02*
X31214500Y-6385000D01*
X31214500Y-8115000D02*
X31389500Y-8290000D01*
X31389500Y-8115000D02*
X31214500Y-8290000D01*
X31214500Y-13830000D02*
X31389500Y-14005000D01*
X31389500Y-13830000D02*
X31214500Y-14005000D01*
X32230500Y-6210000D02*
X32405500Y-6385000D01*
X32405500Y-6210000D02*
X32230500Y-6385000D01*
X32230500Y-8115000D02*
X32405500Y-8290000D01*
X32405500Y-8115000D02*
X32230500Y-8290000D01*
X32230500Y-13830000D02*
X32405500Y-14005000D01*
X32405500Y-13830000D02*
X32230500Y-14005000D01*
D13*
X-900725Y-11319000D02*
G75*
G03*
X-900725Y-11319000I-152400J0D01*
G01*
X1480525Y-11319000D02*
G75*
G03*
X1480525Y-11319000I-152400J0D01*
G01*
X5766150Y-14621000D02*
G75*
G03*
X5766150Y-14621000I-152400J0D01*
G01*
X6718650Y-14621000D02*
G75*
G03*
X6718650Y-14621000I-152400J0D01*
G01*
X18148650Y-14621000D02*
G75*
G03*
X18148650Y-14621000I-152400J0D01*
G01*
X19101150Y-14621000D02*
G75*
G03*
X19101150Y-14621000I-152400J0D01*
G01*
X22911775Y-11316500D02*
G75*
G03*
X22911775Y-11316500I-152400J0D01*
G01*
X23391775Y-9411500D02*
G75*
G03*
X23391775Y-9411500I-152400J0D01*
G01*
X23629275Y-5599000D02*
G75*
G03*
X23629275Y-5599000I-152400J0D01*
G01*
X25293025Y-11316500D02*
G75*
G03*
X25293025Y-11316500I-152400J0D01*
G01*
X25773025Y-9411500D02*
G75*
G03*
X25773025Y-9411500I-152400J0D01*
G01*
X26010525Y-5599000D02*
G75*
G03*
X26010525Y-5599000I-152400J0D01*
G01*
D14*
X-1053125Y-12643610D02*
X-1053125Y-13042390D01*
X-1252515Y-12843000D02*
X-853735Y-12843000D01*
X-1050000Y-6103110D02*
X-1050000Y-6501890D01*
X-1249390Y-6302500D02*
X-850610Y-6302500D01*
X-815000Y-9913110D02*
X-815000Y-10311890D01*
X-1014390Y-10112500D02*
X-615610Y-10112500D01*
X-577500Y-13723110D02*
X-577500Y-14121890D01*
X-776890Y-13922500D02*
X-378110Y-13922500D01*
X-575000Y-8008110D02*
X-575000Y-8406890D01*
X-774390Y-8207500D02*
X-375610Y-8207500D01*
X-337500Y-9913110D02*
X-337500Y-10311890D01*
X-536890Y-10112500D02*
X-138110Y-10112500D01*
X137500Y-11818110D02*
X137500Y-12216890D01*
X-61890Y-12017500D02*
X336890Y-12017500D01*
X855000Y-6103110D02*
X855000Y-6501890D01*
X655610Y-6302500D02*
X1054390Y-6302500D01*
X1328125Y-12643610D02*
X1328125Y-13042390D01*
X1128735Y-12843000D02*
X1527515Y-12843000D01*
X1807500Y-8008110D02*
X1807500Y-8406890D01*
X1608110Y-8207500D02*
X2006890Y-8207500D01*
X2282500Y-9913110D02*
X2282500Y-10311890D01*
X2083110Y-10112500D02*
X2481890Y-10112500D01*
X2760000Y-6103110D02*
X2760000Y-6501890D01*
X2560610Y-6302500D02*
X2959390Y-6302500D01*
X3232500Y-11818110D02*
X3232500Y-12216890D01*
X3033110Y-12017500D02*
X3431890Y-12017500D01*
X3712500Y-8008110D02*
X3712500Y-8406890D01*
X3513110Y-8207500D02*
X3911890Y-8207500D01*
X4185000Y-13723110D02*
X4185000Y-14121890D01*
X3985610Y-13922500D02*
X4384390Y-13922500D01*
X4187500Y-9913110D02*
X4187500Y-10311890D01*
X3988110Y-10112500D02*
X4386890Y-10112500D01*
X4665000Y-6103110D02*
X4665000Y-6501890D01*
X4465610Y-6302500D02*
X4864390Y-6302500D01*
X5137500Y-11818110D02*
X5137500Y-12216890D01*
X4938110Y-12017500D02*
X5336890Y-12017500D01*
X5613750Y-12897610D02*
X5613750Y-13296390D01*
X5414360Y-13097000D02*
X5813140Y-13097000D01*
X5617500Y-8008110D02*
X5617500Y-8406890D01*
X5418110Y-8207500D02*
X5816890Y-8207500D01*
X6092500Y-9913110D02*
X6092500Y-10311890D01*
X5893110Y-10112500D02*
X6291890Y-10112500D01*
X6566250Y-12897610D02*
X6566250Y-13296390D01*
X6366860Y-13097000D02*
X6765640Y-13097000D01*
X6570000Y-6103110D02*
X6570000Y-6501890D01*
X6370610Y-6302500D02*
X6769390Y-6302500D01*
X7042500Y-11818110D02*
X7042500Y-12216890D01*
X6843110Y-12017500D02*
X7241890Y-12017500D01*
X7522500Y-8008110D02*
X7522500Y-8406890D01*
X7323110Y-8207500D02*
X7721890Y-8207500D01*
X7997500Y-9913110D02*
X7997500Y-10311890D01*
X7798110Y-10112500D02*
X8196890Y-10112500D01*
X8475000Y-6103110D02*
X8475000Y-6501890D01*
X8275610Y-6302500D02*
X8674390Y-6302500D01*
X8947500Y-11818110D02*
X8947500Y-12216890D01*
X8748110Y-12017500D02*
X9146890Y-12017500D01*
X9427500Y-8008110D02*
X9427500Y-8406890D01*
X9228110Y-8207500D02*
X9626890Y-8207500D01*
X9902500Y-9913110D02*
X9902500Y-10311890D01*
X9703110Y-10112500D02*
X10101890Y-10112500D01*
X10380000Y-6103110D02*
X10380000Y-6501890D01*
X10180610Y-6302500D02*
X10579390Y-6302500D01*
X10852500Y-11818110D02*
X10852500Y-12216890D01*
X10653110Y-12017500D02*
X11051890Y-12017500D01*
X11332500Y-8008110D02*
X11332500Y-8406890D01*
X11133110Y-8207500D02*
X11531890Y-8207500D01*
X11807500Y-9913110D02*
X11807500Y-10311890D01*
X11608110Y-10112500D02*
X12006890Y-10112500D01*
X12281250Y-13723110D02*
X12281250Y-14121890D01*
X12081860Y-13922500D02*
X12480640Y-13922500D01*
X12285000Y-6103110D02*
X12285000Y-6501890D01*
X12085610Y-6302500D02*
X12484390Y-6302500D01*
X12757500Y-11818110D02*
X12757500Y-12216890D01*
X12558110Y-12017500D02*
X12956890Y-12017500D01*
X13237500Y-8008110D02*
X13237500Y-8406890D01*
X13038110Y-8207500D02*
X13436890Y-8207500D01*
X13715000Y-9913110D02*
X13715000Y-10311890D01*
X13515610Y-10112500D02*
X13914390Y-10112500D01*
X14190000Y-6103110D02*
X14190000Y-6501890D01*
X13990610Y-6302500D02*
X14389390Y-6302500D01*
X14662500Y-11818110D02*
X14662500Y-12216890D01*
X14463110Y-12017500D02*
X14861890Y-12017500D01*
X15142500Y-8008110D02*
X15142500Y-8406890D01*
X14943110Y-8207500D02*
X15341890Y-8207500D01*
X15620000Y-9913110D02*
X15620000Y-10311890D01*
X15420610Y-10112500D02*
X15819390Y-10112500D01*
X16095000Y-6103110D02*
X16095000Y-6501890D01*
X15895610Y-6302500D02*
X16294390Y-6302500D01*
X16567500Y-11818110D02*
X16567500Y-12216890D01*
X16368110Y-12017500D02*
X16766890Y-12017500D01*
X17047500Y-8008110D02*
X17047500Y-8406890D01*
X16848110Y-8207500D02*
X17246890Y-8207500D01*
X17525000Y-9913110D02*
X17525000Y-10311890D01*
X17325610Y-10112500D02*
X17724390Y-10112500D01*
X17996250Y-12897610D02*
X17996250Y-13296390D01*
X17796860Y-13097000D02*
X18195640Y-13097000D01*
X18000000Y-6103110D02*
X18000000Y-6501890D01*
X17800610Y-6302500D02*
X18199390Y-6302500D01*
X18472500Y-11818110D02*
X18472500Y-12216890D01*
X18273110Y-12017500D02*
X18671890Y-12017500D01*
X18948750Y-12897610D02*
X18948750Y-13296390D01*
X18749360Y-13097000D02*
X19148140Y-13097000D01*
X18952500Y-8008110D02*
X18952500Y-8406890D01*
X18753110Y-8207500D02*
X19151890Y-8207500D01*
X19430000Y-9913110D02*
X19430000Y-10311890D01*
X19230610Y-10112500D02*
X19629390Y-10112500D01*
X19905000Y-6100610D02*
X19905000Y-6499390D01*
X19705610Y-6300000D02*
X20104390Y-6300000D01*
X20377500Y-11818110D02*
X20377500Y-12216890D01*
X20178110Y-12017500D02*
X20576890Y-12017500D01*
X20378713Y-13720610D02*
X20378713Y-14119390D01*
X20179323Y-13920000D02*
X20578103Y-13920000D01*
X20857500Y-8005610D02*
X20857500Y-8404390D01*
X20658110Y-8205000D02*
X21056890Y-8205000D01*
X21335000Y-9910610D02*
X21335000Y-10309390D01*
X21135610Y-10110000D02*
X21534390Y-10110000D01*
X21810000Y-6100610D02*
X21810000Y-6499390D01*
X21610610Y-6300000D02*
X22009390Y-6300000D01*
X22759375Y-12641110D02*
X22759375Y-13039890D01*
X22559985Y-12840500D02*
X22958765Y-12840500D01*
X22762500Y-8005610D02*
X22762500Y-8404390D01*
X22563110Y-8205000D02*
X22961890Y-8205000D01*
X22997500Y-11815610D02*
X22997500Y-12214390D01*
X22798110Y-12015000D02*
X23196890Y-12015000D01*
X23239375Y-10736110D02*
X23239375Y-11134890D01*
X23039985Y-10935500D02*
X23438765Y-10935500D01*
X23476875Y-6923610D02*
X23476875Y-7322390D01*
X23277485Y-7123000D02*
X23676265Y-7123000D01*
X23715000Y-6100610D02*
X23715000Y-6499390D01*
X23515610Y-6300000D02*
X23914390Y-6300000D01*
X23950000Y-11815610D02*
X23950000Y-12214390D01*
X23750610Y-12015000D02*
X24149390Y-12015000D01*
X24430000Y-9910610D02*
X24430000Y-10309390D01*
X24230610Y-10110000D02*
X24629390Y-10110000D01*
X24667500Y-6098110D02*
X24667500Y-6496890D01*
X24468110Y-6297500D02*
X24866890Y-6297500D01*
X25140625Y-12641110D02*
X25140625Y-13039890D01*
X24941235Y-12840500D02*
X25340015Y-12840500D01*
X25141212Y-13720610D02*
X25141212Y-14119390D01*
X24941822Y-13920000D02*
X25340602Y-13920000D01*
X25142500Y-8005610D02*
X25142500Y-8404390D01*
X24943110Y-8205000D02*
X25341890Y-8205000D01*
X25617500Y-11815610D02*
X25617500Y-12214390D01*
X25418110Y-12015000D02*
X25816890Y-12015000D01*
X25620000Y-6098110D02*
X25620000Y-6496890D01*
X25420610Y-6297500D02*
X25819390Y-6297500D01*
X25620625Y-10736110D02*
X25620625Y-11134890D01*
X25421235Y-10935500D02*
X25820015Y-10935500D01*
X25858125Y-6923610D02*
X25858125Y-7322390D01*
X25658735Y-7123000D02*
X26057515Y-7123000D01*
X28000000Y-6098110D02*
X28000000Y-6496890D01*
X27800610Y-6297500D02*
X28199390Y-6297500D01*
X28000000Y-8003110D02*
X28000000Y-8401890D01*
X27800610Y-8202500D02*
X28199390Y-8202500D01*
X28000000Y-13718110D02*
X28000000Y-14116890D01*
X27800610Y-13917500D02*
X28199390Y-13917500D01*
X29905000Y-6098110D02*
X29905000Y-6496890D01*
X29705610Y-6297500D02*
X30104390Y-6297500D01*
X29905000Y-8003110D02*
X29905000Y-8401890D01*
X29705610Y-8202500D02*
X30104390Y-8202500D01*
X29905000Y-11813110D02*
X29905000Y-12211890D01*
X29705610Y-12012500D02*
X30104390Y-12012500D01*
X29905000Y-13718110D02*
X29905000Y-14116890D01*
X29705610Y-13917500D02*
X30104390Y-13917500D01*
X31810000Y-6098110D02*
X31810000Y-6496890D01*
X31610610Y-6297500D02*
X32009390Y-6297500D01*
X31810000Y-8003110D02*
X31810000Y-8401890D01*
X31610610Y-8202500D02*
X32009390Y-8202500D01*
X31810000Y-13718110D02*
X31810000Y-14116890D01*
X31610610Y-13917500D02*
X32009390Y-13917500D01*
D11*
X-1767381Y-15173954D02*
X-1767381Y-14973954D01*
X-1719762Y-14973954D01*
X-1691190Y-14983478D01*
X-1672143Y-15002526D01*
X-1662619Y-15021573D01*
X-1653095Y-15059668D01*
X-1653095Y-15088240D01*
X-1662619Y-15126335D01*
X-1672143Y-15145383D01*
X-1691190Y-15164430D01*
X-1719762Y-15173954D01*
X-1767381Y-15173954D01*
X-1567381Y-15173954D02*
X-1567381Y-15040621D01*
X-1567381Y-15078716D02*
X-1557857Y-15059668D01*
X-1548333Y-15050145D01*
X-1529286Y-15040621D01*
X-1510238Y-15040621D01*
X-1443571Y-15173954D02*
X-1443571Y-15040621D01*
X-1443571Y-14973954D02*
X-1453095Y-14983478D01*
X-1443571Y-14993002D01*
X-1434048Y-14983478D01*
X-1443571Y-14973954D01*
X-1443571Y-14993002D01*
X-1319762Y-15173954D02*
X-1338810Y-15164430D01*
X-1348333Y-15145383D01*
X-1348333Y-14973954D01*
X-1215000Y-15173954D02*
X-1234048Y-15164430D01*
X-1243571Y-15145383D01*
X-1243571Y-14973954D01*
X-986428Y-15173954D02*
X-986428Y-14973954D01*
X-919762Y-15116811D01*
X-853095Y-14973954D01*
X-853095Y-15173954D01*
X-672143Y-15173954D02*
X-672143Y-15069192D01*
X-681667Y-15050145D01*
X-700714Y-15040621D01*
X-738809Y-15040621D01*
X-757857Y-15050145D01*
X-672143Y-15164430D02*
X-691190Y-15173954D01*
X-738809Y-15173954D01*
X-757857Y-15164430D01*
X-767381Y-15145383D01*
X-767381Y-15126335D01*
X-757857Y-15107288D01*
X-738809Y-15097764D01*
X-691190Y-15097764D01*
X-672143Y-15088240D01*
X-576905Y-15040621D02*
X-576905Y-15240621D01*
X-576905Y-15050145D02*
X-557857Y-15040621D01*
X-519762Y-15040621D01*
X-500714Y-15050145D01*
X-491190Y-15059668D01*
X-481667Y-15078716D01*
X-481667Y-15135859D01*
X-491190Y-15154907D01*
X-500714Y-15164430D01*
X-519762Y-15173954D01*
X-557857Y-15173954D01*
X-576905Y-15164430D01*
X-395952Y-15154907D02*
X-386428Y-15164430D01*
X-395952Y-15173954D01*
X-405476Y-15164430D01*
X-395952Y-15154907D01*
X-395952Y-15173954D01*
X-395952Y-15050145D02*
X-386428Y-15059668D01*
X-395952Y-15069192D01*
X-405476Y-15059668D01*
X-395952Y-15050145D01*
X-395952Y-15069192D01*
D12*
X-2200000Y-15415978D02*
X-2025000Y-15590978D01*
X-2025000Y-15415978D02*
X-2200000Y-15590978D01*
D11*
X-1662619Y-15593954D02*
X-1776905Y-15593954D01*
X-1719762Y-15593954D02*
X-1719762Y-15393954D01*
X-1738809Y-15422526D01*
X-1757857Y-15441573D01*
X-1776905Y-15451097D01*
X-1576905Y-15574907D02*
X-1567381Y-15584430D01*
X-1576905Y-15593954D01*
X-1586428Y-15584430D01*
X-1576905Y-15574907D01*
X-1576905Y-15593954D01*
X-1500714Y-15393954D02*
X-1367381Y-15393954D01*
X-1453095Y-15593954D01*
X-1195952Y-15393954D02*
X-1291190Y-15393954D01*
X-1300714Y-15489192D01*
X-1291190Y-15479668D01*
X-1272143Y-15470145D01*
X-1224524Y-15470145D01*
X-1205476Y-15479668D01*
X-1195952Y-15489192D01*
X-1186429Y-15508240D01*
X-1186429Y-15555859D01*
X-1195952Y-15574907D01*
X-1205476Y-15584430D01*
X-1224524Y-15593954D01*
X-1272143Y-15593954D01*
X-1291190Y-15584430D01*
X-1300714Y-15574907D01*
X-1062619Y-15393954D02*
X-1043571Y-15393954D01*
X-1024524Y-15403478D01*
X-1015000Y-15413002D01*
X-1005476Y-15432049D01*
X-995952Y-15470145D01*
X-995952Y-15517764D01*
X-1005476Y-15555859D01*
X-1015000Y-15574907D01*
X-1024524Y-15584430D01*
X-1043571Y-15593954D01*
X-1062619Y-15593954D01*
X-1081667Y-15584430D01*
X-1091190Y-15574907D01*
X-1100714Y-15555859D01*
X-1110238Y-15517764D01*
X-1110238Y-15470145D01*
X-1100714Y-15432049D01*
X-1091190Y-15413002D01*
X-1081667Y-15403478D01*
X-1062619Y-15393954D01*
X-910238Y-15593954D02*
X-910238Y-15460621D01*
X-910238Y-15479668D02*
X-900714Y-15470145D01*
X-881667Y-15460621D01*
X-853095Y-15460621D01*
X-834048Y-15470145D01*
X-824524Y-15489192D01*
X-824524Y-15593954D01*
X-824524Y-15489192D02*
X-815000Y-15470145D01*
X-795952Y-15460621D01*
X-767381Y-15460621D01*
X-748333Y-15470145D01*
X-738809Y-15489192D01*
X-738809Y-15593954D01*
X-643571Y-15593954D02*
X-643571Y-15460621D01*
X-643571Y-15479668D02*
X-634048Y-15470145D01*
X-615000Y-15460621D01*
X-586429Y-15460621D01*
X-567381Y-15470145D01*
X-557857Y-15489192D01*
X-557857Y-15593954D01*
X-557857Y-15489192D02*
X-548333Y-15470145D01*
X-529286Y-15460621D01*
X-500714Y-15460621D01*
X-481667Y-15470145D01*
X-472143Y-15489192D01*
X-472143Y-15593954D01*
X-81667Y-15384430D02*
X-253095Y-15641573D01*
X175476Y-15393954D02*
X194524Y-15393954D01*
X213571Y-15403478D01*
X223095Y-15413002D01*
X232619Y-15432049D01*
X242143Y-15470145D01*
X242143Y-15517764D01*
X232619Y-15555859D01*
X223095Y-15574907D01*
X213571Y-15584430D01*
X194524Y-15593954D01*
X175476Y-15593954D01*
X156429Y-15584430D01*
X146905Y-15574907D01*
X137381Y-15555859D01*
X127857Y-15517764D01*
X127857Y-15470145D01*
X137381Y-15432049D01*
X146905Y-15413002D01*
X156429Y-15403478D01*
X175476Y-15393954D01*
X327857Y-15574907D02*
X337381Y-15584430D01*
X327857Y-15593954D01*
X318333Y-15584430D01*
X327857Y-15574907D01*
X327857Y-15593954D01*
X461190Y-15393954D02*
X480238Y-15393954D01*
X499286Y-15403478D01*
X508809Y-15413002D01*
X518333Y-15432049D01*
X527857Y-15470145D01*
X527857Y-15517764D01*
X518333Y-15555859D01*
X508809Y-15574907D01*
X499286Y-15584430D01*
X480238Y-15593954D01*
X461190Y-15593954D01*
X442143Y-15584430D01*
X432619Y-15574907D01*
X423095Y-15555859D01*
X413571Y-15517764D01*
X413571Y-15470145D01*
X423095Y-15432049D01*
X432619Y-15413002D01*
X442143Y-15403478D01*
X461190Y-15393954D01*
X699286Y-15393954D02*
X661190Y-15393954D01*
X642143Y-15403478D01*
X632619Y-15413002D01*
X613571Y-15441573D01*
X604048Y-15479668D01*
X604048Y-15555859D01*
X613571Y-15574907D01*
X623095Y-15584430D01*
X642143Y-15593954D01*
X680238Y-15593954D01*
X699286Y-15584430D01*
X708809Y-15574907D01*
X718333Y-15555859D01*
X718333Y-15508240D01*
X708809Y-15489192D01*
X699286Y-15479668D01*
X680238Y-15470145D01*
X642143Y-15470145D01*
X623095Y-15479668D01*
X613571Y-15489192D01*
X604048Y-15508240D01*
X832619Y-15479668D02*
X813571Y-15470145D01*
X804048Y-15460621D01*
X794524Y-15441573D01*
X794524Y-15432049D01*
X804048Y-15413002D01*
X813571Y-15403478D01*
X832619Y-15393954D01*
X870714Y-15393954D01*
X889762Y-15403478D01*
X899286Y-15413002D01*
X908809Y-15432049D01*
X908809Y-15441573D01*
X899286Y-15460621D01*
X889762Y-15470145D01*
X870714Y-15479668D01*
X832619Y-15479668D01*
X813571Y-15489192D01*
X804048Y-15498716D01*
X794524Y-15517764D01*
X794524Y-15555859D01*
X804048Y-15574907D01*
X813571Y-15584430D01*
X832619Y-15593954D01*
X870714Y-15593954D01*
X889762Y-15584430D01*
X899286Y-15574907D01*
X908809Y-15555859D01*
X908809Y-15517764D01*
X899286Y-15498716D01*
X889762Y-15489192D01*
X870714Y-15479668D01*
X1004048Y-15593954D02*
X1042143Y-15593954D01*
X1061190Y-15584430D01*
X1070714Y-15574907D01*
X1089762Y-15546335D01*
X1099286Y-15508240D01*
X1099286Y-15432049D01*
X1089762Y-15413002D01*
X1080238Y-15403478D01*
X1061190Y-15393954D01*
X1023095Y-15393954D01*
X1004048Y-15403478D01*
X994524Y-15413002D01*
X985000Y-15432049D01*
X985000Y-15479668D01*
X994524Y-15498716D01*
X1004048Y-15508240D01*
X1023095Y-15517764D01*
X1061190Y-15517764D01*
X1080238Y-15508240D01*
X1089762Y-15498716D01*
X1099286Y-15479668D01*
X1175476Y-15393954D02*
X1175476Y-15432049D01*
X1251667Y-15393954D02*
X1251667Y-15432049D01*
X1546905Y-15670145D02*
X1537381Y-15660621D01*
X1518333Y-15632049D01*
X1508809Y-15613002D01*
X1499286Y-15584430D01*
X1489762Y-15536811D01*
X1489762Y-15498716D01*
X1499286Y-15451097D01*
X1508809Y-15422526D01*
X1518333Y-15403478D01*
X1537381Y-15374907D01*
X1546905Y-15365383D01*
X1727857Y-15593954D02*
X1613571Y-15593954D01*
X1670714Y-15593954D02*
X1670714Y-15393954D01*
X1651667Y-15422526D01*
X1632619Y-15441573D01*
X1613571Y-15451097D01*
X1899286Y-15460621D02*
X1899286Y-15593954D01*
X1851667Y-15384430D02*
X1804048Y-15527288D01*
X1927857Y-15527288D01*
X2089762Y-15393954D02*
X2051667Y-15393954D01*
X2032619Y-15403478D01*
X2023095Y-15413002D01*
X2004048Y-15441573D01*
X1994524Y-15479668D01*
X1994524Y-15555859D01*
X2004048Y-15574907D01*
X2013571Y-15584430D01*
X2032619Y-15593954D01*
X2070714Y-15593954D01*
X2089762Y-15584430D01*
X2099286Y-15574907D01*
X2108810Y-15555859D01*
X2108810Y-15508240D01*
X2099286Y-15489192D01*
X2089762Y-15479668D01*
X2070714Y-15470145D01*
X2032619Y-15470145D01*
X2013571Y-15479668D01*
X2004048Y-15489192D01*
X1994524Y-15508240D01*
X2346905Y-15593954D02*
X2346905Y-15393954D01*
X2432619Y-15593954D02*
X2432619Y-15489192D01*
X2423095Y-15470145D01*
X2404048Y-15460621D01*
X2375476Y-15460621D01*
X2356429Y-15470145D01*
X2346905Y-15479668D01*
X2556429Y-15593954D02*
X2537381Y-15584430D01*
X2527857Y-15574907D01*
X2518333Y-15555859D01*
X2518333Y-15498716D01*
X2527857Y-15479668D01*
X2537381Y-15470145D01*
X2556429Y-15460621D01*
X2585000Y-15460621D01*
X2604048Y-15470145D01*
X2613571Y-15479668D01*
X2623095Y-15498716D01*
X2623095Y-15555859D01*
X2613571Y-15574907D01*
X2604048Y-15584430D01*
X2585000Y-15593954D01*
X2556429Y-15593954D01*
X2737381Y-15593954D02*
X2718333Y-15584430D01*
X2708810Y-15565383D01*
X2708810Y-15393954D01*
X2889762Y-15584430D02*
X2870714Y-15593954D01*
X2832619Y-15593954D01*
X2813571Y-15584430D01*
X2804048Y-15565383D01*
X2804048Y-15489192D01*
X2813571Y-15470145D01*
X2832619Y-15460621D01*
X2870714Y-15460621D01*
X2889762Y-15470145D01*
X2899286Y-15489192D01*
X2899286Y-15508240D01*
X2804048Y-15527288D01*
X2975476Y-15584430D02*
X2994524Y-15593954D01*
X3032619Y-15593954D01*
X3051667Y-15584430D01*
X3061190Y-15565383D01*
X3061190Y-15555859D01*
X3051667Y-15536811D01*
X3032619Y-15527288D01*
X3004048Y-15527288D01*
X2985000Y-15517764D01*
X2975476Y-15498716D01*
X2975476Y-15489192D01*
X2985000Y-15470145D01*
X3004048Y-15460621D01*
X3032619Y-15460621D01*
X3051667Y-15470145D01*
X3127857Y-15670145D02*
X3137381Y-15660621D01*
X3156428Y-15632049D01*
X3165952Y-15613002D01*
X3175476Y-15584430D01*
X3185000Y-15536811D01*
X3185000Y-15498716D01*
X3175476Y-15451097D01*
X3165952Y-15422526D01*
X3156428Y-15403478D01*
X3137381Y-15374907D01*
X3127857Y-15365383D01*
X3489762Y-15670145D02*
X3480238Y-15660621D01*
X3461190Y-15632049D01*
X3451667Y-15613002D01*
X3442143Y-15584430D01*
X3432619Y-15536811D01*
X3432619Y-15498716D01*
X3442143Y-15451097D01*
X3451667Y-15422526D01*
X3461190Y-15403478D01*
X3480238Y-15374907D01*
X3489762Y-15365383D01*
X3565952Y-15460621D02*
X3565952Y-15593954D01*
X3565952Y-15479668D02*
X3575476Y-15470145D01*
X3594524Y-15460621D01*
X3623095Y-15460621D01*
X3642143Y-15470145D01*
X3651667Y-15489192D01*
X3651667Y-15593954D01*
X3775476Y-15593954D02*
X3756428Y-15584430D01*
X3746905Y-15574907D01*
X3737381Y-15555859D01*
X3737381Y-15498716D01*
X3746905Y-15479668D01*
X3756428Y-15470145D01*
X3775476Y-15460621D01*
X3804048Y-15460621D01*
X3823095Y-15470145D01*
X3832619Y-15479668D01*
X3842143Y-15498716D01*
X3842143Y-15555859D01*
X3832619Y-15574907D01*
X3823095Y-15584430D01*
X3804048Y-15593954D01*
X3775476Y-15593954D01*
X3899286Y-15460621D02*
X3975476Y-15460621D01*
X3927857Y-15393954D02*
X3927857Y-15565383D01*
X3937381Y-15584430D01*
X3956428Y-15593954D01*
X3975476Y-15593954D01*
X4194524Y-15460621D02*
X4194524Y-15660621D01*
X4194524Y-15470145D02*
X4213571Y-15460621D01*
X4251667Y-15460621D01*
X4270714Y-15470145D01*
X4280238Y-15479668D01*
X4289762Y-15498716D01*
X4289762Y-15555859D01*
X4280238Y-15574907D01*
X4270714Y-15584430D01*
X4251667Y-15593954D01*
X4213571Y-15593954D01*
X4194524Y-15584430D01*
X4404048Y-15593954D02*
X4385000Y-15584430D01*
X4375476Y-15565383D01*
X4375476Y-15393954D01*
X4565952Y-15593954D02*
X4565952Y-15489192D01*
X4556429Y-15470145D01*
X4537381Y-15460621D01*
X4499286Y-15460621D01*
X4480238Y-15470145D01*
X4565952Y-15584430D02*
X4546905Y-15593954D01*
X4499286Y-15593954D01*
X4480238Y-15584430D01*
X4470714Y-15565383D01*
X4470714Y-15546335D01*
X4480238Y-15527288D01*
X4499286Y-15517764D01*
X4546905Y-15517764D01*
X4565952Y-15508240D01*
X4632619Y-15460621D02*
X4708810Y-15460621D01*
X4661190Y-15393954D02*
X4661190Y-15565383D01*
X4670714Y-15584430D01*
X4689762Y-15593954D01*
X4708810Y-15593954D01*
X4851667Y-15584430D02*
X4832619Y-15593954D01*
X4794524Y-15593954D01*
X4775476Y-15584430D01*
X4765952Y-15565383D01*
X4765952Y-15489192D01*
X4775476Y-15470145D01*
X4794524Y-15460621D01*
X4832619Y-15460621D01*
X4851667Y-15470145D01*
X4861190Y-15489192D01*
X4861190Y-15508240D01*
X4765952Y-15527288D01*
X5032619Y-15593954D02*
X5032619Y-15393954D01*
X5032619Y-15584430D02*
X5013571Y-15593954D01*
X4975476Y-15593954D01*
X4956429Y-15584430D01*
X4946905Y-15574907D01*
X4937381Y-15555859D01*
X4937381Y-15498716D01*
X4946905Y-15479668D01*
X4956429Y-15470145D01*
X4975476Y-15460621D01*
X5013571Y-15460621D01*
X5032619Y-15470145D01*
X5108810Y-15670145D02*
X5118333Y-15660621D01*
X5137381Y-15632049D01*
X5146905Y-15613002D01*
X5156429Y-15584430D01*
X5165952Y-15536811D01*
X5165952Y-15498716D01*
X5156429Y-15451097D01*
X5146905Y-15422526D01*
X5137381Y-15403478D01*
X5118333Y-15374907D01*
X5108810Y-15365383D01*
X-2025000Y-15798478D02*
G75*
G03*
X-2025000Y-15798478I-100000J0D01*
G01*
X-1786428Y-15688954D02*
X-1662619Y-15688954D01*
X-1729286Y-15765145D01*
X-1700714Y-15765145D01*
X-1681667Y-15774668D01*
X-1672143Y-15784192D01*
X-1662619Y-15803240D01*
X-1662619Y-15850859D01*
X-1672143Y-15869907D01*
X-1681667Y-15879430D01*
X-1700714Y-15888954D01*
X-1757857Y-15888954D01*
X-1776905Y-15879430D01*
X-1786428Y-15869907D01*
X-1576905Y-15869907D02*
X-1567381Y-15879430D01*
X-1576905Y-15888954D01*
X-1586428Y-15879430D01*
X-1576905Y-15869907D01*
X-1576905Y-15888954D01*
X-1443571Y-15688954D02*
X-1424524Y-15688954D01*
X-1405476Y-15698478D01*
X-1395952Y-15708002D01*
X-1386429Y-15727049D01*
X-1376905Y-15765145D01*
X-1376905Y-15812764D01*
X-1386429Y-15850859D01*
X-1395952Y-15869907D01*
X-1405476Y-15879430D01*
X-1424524Y-15888954D01*
X-1443571Y-15888954D01*
X-1462619Y-15879430D01*
X-1472143Y-15869907D01*
X-1481667Y-15850859D01*
X-1491190Y-15812764D01*
X-1491190Y-15765145D01*
X-1481667Y-15727049D01*
X-1472143Y-15708002D01*
X-1462619Y-15698478D01*
X-1443571Y-15688954D01*
X-1205476Y-15755621D02*
X-1205476Y-15888954D01*
X-1253095Y-15679430D02*
X-1300714Y-15822288D01*
X-1176905Y-15822288D01*
X-1072143Y-15774668D02*
X-1091190Y-15765145D01*
X-1100714Y-15755621D01*
X-1110238Y-15736573D01*
X-1110238Y-15727049D01*
X-1100714Y-15708002D01*
X-1091190Y-15698478D01*
X-1072143Y-15688954D01*
X-1034048Y-15688954D01*
X-1015000Y-15698478D01*
X-1005476Y-15708002D01*
X-995952Y-15727049D01*
X-995952Y-15736573D01*
X-1005476Y-15755621D01*
X-1015000Y-15765145D01*
X-1034048Y-15774668D01*
X-1072143Y-15774668D01*
X-1091190Y-15784192D01*
X-1100714Y-15793716D01*
X-1110238Y-15812764D01*
X-1110238Y-15850859D01*
X-1100714Y-15869907D01*
X-1091190Y-15879430D01*
X-1072143Y-15888954D01*
X-1034048Y-15888954D01*
X-1015000Y-15879430D01*
X-1005476Y-15869907D01*
X-995952Y-15850859D01*
X-995952Y-15812764D01*
X-1005476Y-15793716D01*
X-1015000Y-15784192D01*
X-1034048Y-15774668D01*
X-910238Y-15888954D02*
X-910238Y-15755621D01*
X-910238Y-15774668D02*
X-900714Y-15765145D01*
X-881667Y-15755621D01*
X-853095Y-15755621D01*
X-834048Y-15765145D01*
X-824524Y-15784192D01*
X-824524Y-15888954D01*
X-824524Y-15784192D02*
X-815000Y-15765145D01*
X-795952Y-15755621D01*
X-767381Y-15755621D01*
X-748333Y-15765145D01*
X-738809Y-15784192D01*
X-738809Y-15888954D01*
X-643571Y-15888954D02*
X-643571Y-15755621D01*
X-643571Y-15774668D02*
X-634048Y-15765145D01*
X-615000Y-15755621D01*
X-586429Y-15755621D01*
X-567381Y-15765145D01*
X-557857Y-15784192D01*
X-557857Y-15888954D01*
X-557857Y-15784192D02*
X-548333Y-15765145D01*
X-529286Y-15755621D01*
X-500714Y-15755621D01*
X-481667Y-15765145D01*
X-472143Y-15784192D01*
X-472143Y-15888954D01*
X-81667Y-15679430D02*
X-253095Y-15936573D01*
X175476Y-15688954D02*
X194524Y-15688954D01*
X213571Y-15698478D01*
X223095Y-15708002D01*
X232619Y-15727049D01*
X242143Y-15765145D01*
X242143Y-15812764D01*
X232619Y-15850859D01*
X223095Y-15869907D01*
X213571Y-15879430D01*
X194524Y-15888954D01*
X175476Y-15888954D01*
X156429Y-15879430D01*
X146905Y-15869907D01*
X137381Y-15850859D01*
X127857Y-15812764D01*
X127857Y-15765145D01*
X137381Y-15727049D01*
X146905Y-15708002D01*
X156429Y-15698478D01*
X175476Y-15688954D01*
X327857Y-15869907D02*
X337381Y-15879430D01*
X327857Y-15888954D01*
X318333Y-15879430D01*
X327857Y-15869907D01*
X327857Y-15888954D01*
X527857Y-15888954D02*
X413571Y-15888954D01*
X470714Y-15888954D02*
X470714Y-15688954D01*
X451667Y-15717526D01*
X432619Y-15736573D01*
X413571Y-15746097D01*
X604048Y-15708002D02*
X613571Y-15698478D01*
X632619Y-15688954D01*
X680238Y-15688954D01*
X699286Y-15698478D01*
X708809Y-15708002D01*
X718333Y-15727049D01*
X718333Y-15746097D01*
X708809Y-15774668D01*
X594524Y-15888954D01*
X718333Y-15888954D01*
X842143Y-15688954D02*
X861190Y-15688954D01*
X880238Y-15698478D01*
X889762Y-15708002D01*
X899286Y-15727049D01*
X908809Y-15765145D01*
X908809Y-15812764D01*
X899286Y-15850859D01*
X889762Y-15869907D01*
X880238Y-15879430D01*
X861190Y-15888954D01*
X842143Y-15888954D01*
X823095Y-15879430D01*
X813571Y-15869907D01*
X804048Y-15850859D01*
X794524Y-15812764D01*
X794524Y-15765145D01*
X804048Y-15727049D01*
X813571Y-15708002D01*
X823095Y-15698478D01*
X842143Y-15688954D01*
X1032619Y-15688954D02*
X1051667Y-15688954D01*
X1070714Y-15698478D01*
X1080238Y-15708002D01*
X1089762Y-15727049D01*
X1099286Y-15765145D01*
X1099286Y-15812764D01*
X1089762Y-15850859D01*
X1080238Y-15869907D01*
X1070714Y-15879430D01*
X1051667Y-15888954D01*
X1032619Y-15888954D01*
X1013571Y-15879430D01*
X1004048Y-15869907D01*
X994524Y-15850859D01*
X985000Y-15812764D01*
X985000Y-15765145D01*
X994524Y-15727049D01*
X1004048Y-15708002D01*
X1013571Y-15698478D01*
X1032619Y-15688954D01*
X1175476Y-15688954D02*
X1175476Y-15727049D01*
X1251667Y-15688954D02*
X1251667Y-15727049D01*
X1546905Y-15965145D02*
X1537381Y-15955621D01*
X1518333Y-15927049D01*
X1508809Y-15908002D01*
X1499286Y-15879430D01*
X1489762Y-15831811D01*
X1489762Y-15793716D01*
X1499286Y-15746097D01*
X1508809Y-15717526D01*
X1518333Y-15698478D01*
X1537381Y-15669907D01*
X1546905Y-15660383D01*
X1727857Y-15888954D02*
X1613571Y-15888954D01*
X1670714Y-15888954D02*
X1670714Y-15688954D01*
X1651667Y-15717526D01*
X1632619Y-15736573D01*
X1613571Y-15746097D01*
X1804048Y-15708002D02*
X1813571Y-15698478D01*
X1832619Y-15688954D01*
X1880238Y-15688954D01*
X1899286Y-15698478D01*
X1908809Y-15708002D01*
X1918333Y-15727049D01*
X1918333Y-15746097D01*
X1908809Y-15774668D01*
X1794524Y-15888954D01*
X1918333Y-15888954D01*
X2156429Y-15888954D02*
X2156429Y-15688954D01*
X2242143Y-15888954D02*
X2242143Y-15784192D01*
X2232619Y-15765145D01*
X2213571Y-15755621D01*
X2185000Y-15755621D01*
X2165952Y-15765145D01*
X2156429Y-15774668D01*
X2365952Y-15888954D02*
X2346905Y-15879430D01*
X2337381Y-15869907D01*
X2327857Y-15850859D01*
X2327857Y-15793716D01*
X2337381Y-15774668D01*
X2346905Y-15765145D01*
X2365952Y-15755621D01*
X2394524Y-15755621D01*
X2413571Y-15765145D01*
X2423095Y-15774668D01*
X2432619Y-15793716D01*
X2432619Y-15850859D01*
X2423095Y-15869907D01*
X2413571Y-15879430D01*
X2394524Y-15888954D01*
X2365952Y-15888954D01*
X2546905Y-15888954D02*
X2527857Y-15879430D01*
X2518333Y-15860383D01*
X2518333Y-15688954D01*
X2699286Y-15879430D02*
X2680238Y-15888954D01*
X2642143Y-15888954D01*
X2623095Y-15879430D01*
X2613571Y-15860383D01*
X2613571Y-15784192D01*
X2623095Y-15765145D01*
X2642143Y-15755621D01*
X2680238Y-15755621D01*
X2699286Y-15765145D01*
X2708810Y-15784192D01*
X2708810Y-15803240D01*
X2613571Y-15822288D01*
X2785000Y-15879430D02*
X2804048Y-15888954D01*
X2842143Y-15888954D01*
X2861190Y-15879430D01*
X2870714Y-15860383D01*
X2870714Y-15850859D01*
X2861190Y-15831811D01*
X2842143Y-15822288D01*
X2813571Y-15822288D01*
X2794524Y-15812764D01*
X2785000Y-15793716D01*
X2785000Y-15784192D01*
X2794524Y-15765145D01*
X2813571Y-15755621D01*
X2842143Y-15755621D01*
X2861190Y-15765145D01*
X2937381Y-15965145D02*
X2946905Y-15955621D01*
X2965952Y-15927049D01*
X2975476Y-15908002D01*
X2985000Y-15879430D01*
X2994524Y-15831811D01*
X2994524Y-15793716D01*
X2985000Y-15746097D01*
X2975476Y-15717526D01*
X2965952Y-15698478D01*
X2946905Y-15669907D01*
X2937381Y-15660383D01*
X3299286Y-15965145D02*
X3289762Y-15955621D01*
X3270714Y-15927049D01*
X3261190Y-15908002D01*
X3251667Y-15879430D01*
X3242143Y-15831811D01*
X3242143Y-15793716D01*
X3251667Y-15746097D01*
X3261190Y-15717526D01*
X3270714Y-15698478D01*
X3289762Y-15669907D01*
X3299286Y-15660383D01*
X3375476Y-15755621D02*
X3375476Y-15888954D01*
X3375476Y-15774668D02*
X3385000Y-15765145D01*
X3404048Y-15755621D01*
X3432619Y-15755621D01*
X3451667Y-15765145D01*
X3461190Y-15784192D01*
X3461190Y-15888954D01*
X3585000Y-15888954D02*
X3565952Y-15879430D01*
X3556428Y-15869907D01*
X3546905Y-15850859D01*
X3546905Y-15793716D01*
X3556428Y-15774668D01*
X3565952Y-15765145D01*
X3585000Y-15755621D01*
X3613571Y-15755621D01*
X3632619Y-15765145D01*
X3642143Y-15774668D01*
X3651667Y-15793716D01*
X3651667Y-15850859D01*
X3642143Y-15869907D01*
X3632619Y-15879430D01*
X3613571Y-15888954D01*
X3585000Y-15888954D01*
X3708809Y-15755621D02*
X3785000Y-15755621D01*
X3737381Y-15688954D02*
X3737381Y-15860383D01*
X3746905Y-15879430D01*
X3765952Y-15888954D01*
X3785000Y-15888954D01*
X4004048Y-15755621D02*
X4004048Y-15955621D01*
X4004048Y-15765145D02*
X4023095Y-15755621D01*
X4061190Y-15755621D01*
X4080238Y-15765145D01*
X4089762Y-15774668D01*
X4099286Y-15793716D01*
X4099286Y-15850859D01*
X4089762Y-15869907D01*
X4080238Y-15879430D01*
X4061190Y-15888954D01*
X4023095Y-15888954D01*
X4004048Y-15879430D01*
X4213571Y-15888954D02*
X4194524Y-15879430D01*
X4185000Y-15860383D01*
X4185000Y-15688954D01*
X4375476Y-15888954D02*
X4375476Y-15784192D01*
X4365952Y-15765145D01*
X4346905Y-15755621D01*
X4308810Y-15755621D01*
X4289762Y-15765145D01*
X4375476Y-15879430D02*
X4356429Y-15888954D01*
X4308810Y-15888954D01*
X4289762Y-15879430D01*
X4280238Y-15860383D01*
X4280238Y-15841335D01*
X4289762Y-15822288D01*
X4308810Y-15812764D01*
X4356429Y-15812764D01*
X4375476Y-15803240D01*
X4442143Y-15755621D02*
X4518333Y-15755621D01*
X4470714Y-15688954D02*
X4470714Y-15860383D01*
X4480238Y-15879430D01*
X4499286Y-15888954D01*
X4518333Y-15888954D01*
X4661190Y-15879430D02*
X4642143Y-15888954D01*
X4604048Y-15888954D01*
X4585000Y-15879430D01*
X4575476Y-15860383D01*
X4575476Y-15784192D01*
X4585000Y-15765145D01*
X4604048Y-15755621D01*
X4642143Y-15755621D01*
X4661190Y-15765145D01*
X4670714Y-15784192D01*
X4670714Y-15803240D01*
X4575476Y-15822288D01*
X4842143Y-15888954D02*
X4842143Y-15688954D01*
X4842143Y-15879430D02*
X4823095Y-15888954D01*
X4785000Y-15888954D01*
X4765952Y-15879430D01*
X4756429Y-15869907D01*
X4746905Y-15850859D01*
X4746905Y-15793716D01*
X4756429Y-15774668D01*
X4765952Y-15765145D01*
X4785000Y-15755621D01*
X4823095Y-15755621D01*
X4842143Y-15765145D01*
X4918333Y-15965145D02*
X4927857Y-15955621D01*
X4946905Y-15927049D01*
X4956429Y-15908002D01*
X4965952Y-15879430D01*
X4975476Y-15831811D01*
X4975476Y-15793716D01*
X4965952Y-15746097D01*
X4956429Y-15717526D01*
X4946905Y-15698478D01*
X4927857Y-15669907D01*
X4918333Y-15660383D01*
X-2125000Y-16018478D02*
X-2125000Y-16218478D01*
X-2225000Y-16118478D02*
X-2025000Y-16118478D01*
X-1786428Y-16008954D02*
X-1662619Y-16008954D01*
X-1729286Y-16085145D01*
X-1700714Y-16085145D01*
X-1681667Y-16094668D01*
X-1672143Y-16104192D01*
X-1662619Y-16123240D01*
X-1662619Y-16170859D01*
X-1672143Y-16189907D01*
X-1681667Y-16199430D01*
X-1700714Y-16208954D01*
X-1757857Y-16208954D01*
X-1776905Y-16199430D01*
X-1786428Y-16189907D01*
X-1576905Y-16189907D02*
X-1567381Y-16199430D01*
X-1576905Y-16208954D01*
X-1586428Y-16199430D01*
X-1576905Y-16189907D01*
X-1576905Y-16208954D01*
X-1472143Y-16208954D02*
X-1434048Y-16208954D01*
X-1415000Y-16199430D01*
X-1405476Y-16189907D01*
X-1386429Y-16161335D01*
X-1376905Y-16123240D01*
X-1376905Y-16047049D01*
X-1386429Y-16028002D01*
X-1395952Y-16018478D01*
X-1415000Y-16008954D01*
X-1453095Y-16008954D01*
X-1472143Y-16018478D01*
X-1481667Y-16028002D01*
X-1491190Y-16047049D01*
X-1491190Y-16094668D01*
X-1481667Y-16113716D01*
X-1472143Y-16123240D01*
X-1453095Y-16132764D01*
X-1415000Y-16132764D01*
X-1395952Y-16123240D01*
X-1386429Y-16113716D01*
X-1376905Y-16094668D01*
X-1262619Y-16094668D02*
X-1281667Y-16085145D01*
X-1291190Y-16075621D01*
X-1300714Y-16056573D01*
X-1300714Y-16047049D01*
X-1291190Y-16028002D01*
X-1281667Y-16018478D01*
X-1262619Y-16008954D01*
X-1224524Y-16008954D01*
X-1205476Y-16018478D01*
X-1195952Y-16028002D01*
X-1186429Y-16047049D01*
X-1186429Y-16056573D01*
X-1195952Y-16075621D01*
X-1205476Y-16085145D01*
X-1224524Y-16094668D01*
X-1262619Y-16094668D01*
X-1281667Y-16104192D01*
X-1291190Y-16113716D01*
X-1300714Y-16132764D01*
X-1300714Y-16170859D01*
X-1291190Y-16189907D01*
X-1281667Y-16199430D01*
X-1262619Y-16208954D01*
X-1224524Y-16208954D01*
X-1205476Y-16199430D01*
X-1195952Y-16189907D01*
X-1186429Y-16170859D01*
X-1186429Y-16132764D01*
X-1195952Y-16113716D01*
X-1205476Y-16104192D01*
X-1224524Y-16094668D01*
X-1072143Y-16094668D02*
X-1091190Y-16085145D01*
X-1100714Y-16075621D01*
X-1110238Y-16056573D01*
X-1110238Y-16047049D01*
X-1100714Y-16028002D01*
X-1091190Y-16018478D01*
X-1072143Y-16008954D01*
X-1034048Y-16008954D01*
X-1015000Y-16018478D01*
X-1005476Y-16028002D01*
X-995952Y-16047049D01*
X-995952Y-16056573D01*
X-1005476Y-16075621D01*
X-1015000Y-16085145D01*
X-1034048Y-16094668D01*
X-1072143Y-16094668D01*
X-1091190Y-16104192D01*
X-1100714Y-16113716D01*
X-1110238Y-16132764D01*
X-1110238Y-16170859D01*
X-1100714Y-16189907D01*
X-1091190Y-16199430D01*
X-1072143Y-16208954D01*
X-1034048Y-16208954D01*
X-1015000Y-16199430D01*
X-1005476Y-16189907D01*
X-995952Y-16170859D01*
X-995952Y-16132764D01*
X-1005476Y-16113716D01*
X-1015000Y-16104192D01*
X-1034048Y-16094668D01*
X-910238Y-16208954D02*
X-910238Y-16075621D01*
X-910238Y-16094668D02*
X-900714Y-16085145D01*
X-881667Y-16075621D01*
X-853095Y-16075621D01*
X-834048Y-16085145D01*
X-824524Y-16104192D01*
X-824524Y-16208954D01*
X-824524Y-16104192D02*
X-815000Y-16085145D01*
X-795952Y-16075621D01*
X-767381Y-16075621D01*
X-748333Y-16085145D01*
X-738809Y-16104192D01*
X-738809Y-16208954D01*
X-643571Y-16208954D02*
X-643571Y-16075621D01*
X-643571Y-16094668D02*
X-634048Y-16085145D01*
X-615000Y-16075621D01*
X-586429Y-16075621D01*
X-567381Y-16085145D01*
X-557857Y-16104192D01*
X-557857Y-16208954D01*
X-557857Y-16104192D02*
X-548333Y-16085145D01*
X-529286Y-16075621D01*
X-500714Y-16075621D01*
X-481667Y-16085145D01*
X-472143Y-16104192D01*
X-472143Y-16208954D01*
X-81667Y-15999430D02*
X-253095Y-16256573D01*
X175476Y-16008954D02*
X194524Y-16008954D01*
X213571Y-16018478D01*
X223095Y-16028002D01*
X232619Y-16047049D01*
X242143Y-16085145D01*
X242143Y-16132764D01*
X232619Y-16170859D01*
X223095Y-16189907D01*
X213571Y-16199430D01*
X194524Y-16208954D01*
X175476Y-16208954D01*
X156429Y-16199430D01*
X146905Y-16189907D01*
X137381Y-16170859D01*
X127857Y-16132764D01*
X127857Y-16085145D01*
X137381Y-16047049D01*
X146905Y-16028002D01*
X156429Y-16018478D01*
X175476Y-16008954D01*
X327857Y-16189907D02*
X337381Y-16199430D01*
X327857Y-16208954D01*
X318333Y-16199430D01*
X327857Y-16189907D01*
X327857Y-16208954D01*
X527857Y-16208954D02*
X413571Y-16208954D01*
X470714Y-16208954D02*
X470714Y-16008954D01*
X451667Y-16037526D01*
X432619Y-16056573D01*
X413571Y-16066097D01*
X708809Y-16008954D02*
X613571Y-16008954D01*
X604048Y-16104192D01*
X613571Y-16094668D01*
X632619Y-16085145D01*
X680238Y-16085145D01*
X699286Y-16094668D01*
X708809Y-16104192D01*
X718333Y-16123240D01*
X718333Y-16170859D01*
X708809Y-16189907D01*
X699286Y-16199430D01*
X680238Y-16208954D01*
X632619Y-16208954D01*
X613571Y-16199430D01*
X604048Y-16189907D01*
X785000Y-16008954D02*
X918333Y-16008954D01*
X832619Y-16208954D01*
X1032619Y-16008954D02*
X1051667Y-16008954D01*
X1070714Y-16018478D01*
X1080238Y-16028002D01*
X1089762Y-16047049D01*
X1099286Y-16085145D01*
X1099286Y-16132764D01*
X1089762Y-16170859D01*
X1080238Y-16189907D01*
X1070714Y-16199430D01*
X1051667Y-16208954D01*
X1032619Y-16208954D01*
X1013571Y-16199430D01*
X1004048Y-16189907D01*
X994524Y-16170859D01*
X985000Y-16132764D01*
X985000Y-16085145D01*
X994524Y-16047049D01*
X1004048Y-16028002D01*
X1013571Y-16018478D01*
X1032619Y-16008954D01*
X1175476Y-16008954D02*
X1175476Y-16047049D01*
X1251667Y-16008954D02*
X1251667Y-16047049D01*
X1546905Y-16285145D02*
X1537381Y-16275621D01*
X1518333Y-16247049D01*
X1508809Y-16228002D01*
X1499286Y-16199430D01*
X1489762Y-16151811D01*
X1489762Y-16113716D01*
X1499286Y-16066097D01*
X1508809Y-16037526D01*
X1518333Y-16018478D01*
X1537381Y-15989907D01*
X1546905Y-15980383D01*
X1651667Y-16094668D02*
X1632619Y-16085145D01*
X1623095Y-16075621D01*
X1613571Y-16056573D01*
X1613571Y-16047049D01*
X1623095Y-16028002D01*
X1632619Y-16018478D01*
X1651667Y-16008954D01*
X1689762Y-16008954D01*
X1708809Y-16018478D01*
X1718333Y-16028002D01*
X1727857Y-16047049D01*
X1727857Y-16056573D01*
X1718333Y-16075621D01*
X1708809Y-16085145D01*
X1689762Y-16094668D01*
X1651667Y-16094668D01*
X1632619Y-16104192D01*
X1623095Y-16113716D01*
X1613571Y-16132764D01*
X1613571Y-16170859D01*
X1623095Y-16189907D01*
X1632619Y-16199430D01*
X1651667Y-16208954D01*
X1689762Y-16208954D01*
X1708809Y-16199430D01*
X1718333Y-16189907D01*
X1727857Y-16170859D01*
X1727857Y-16132764D01*
X1718333Y-16113716D01*
X1708809Y-16104192D01*
X1689762Y-16094668D01*
X1908809Y-16008954D02*
X1813571Y-16008954D01*
X1804048Y-16104192D01*
X1813571Y-16094668D01*
X1832619Y-16085145D01*
X1880238Y-16085145D01*
X1899286Y-16094668D01*
X1908809Y-16104192D01*
X1918333Y-16123240D01*
X1918333Y-16170859D01*
X1908809Y-16189907D01*
X1899286Y-16199430D01*
X1880238Y-16208954D01*
X1832619Y-16208954D01*
X1813571Y-16199430D01*
X1804048Y-16189907D01*
X2156429Y-16208954D02*
X2156429Y-16008954D01*
X2242143Y-16208954D02*
X2242143Y-16104192D01*
X2232619Y-16085145D01*
X2213571Y-16075621D01*
X2185000Y-16075621D01*
X2165952Y-16085145D01*
X2156429Y-16094668D01*
X2365952Y-16208954D02*
X2346905Y-16199430D01*
X2337381Y-16189907D01*
X2327857Y-16170859D01*
X2327857Y-16113716D01*
X2337381Y-16094668D01*
X2346905Y-16085145D01*
X2365952Y-16075621D01*
X2394524Y-16075621D01*
X2413571Y-16085145D01*
X2423095Y-16094668D01*
X2432619Y-16113716D01*
X2432619Y-16170859D01*
X2423095Y-16189907D01*
X2413571Y-16199430D01*
X2394524Y-16208954D01*
X2365952Y-16208954D01*
X2546905Y-16208954D02*
X2527857Y-16199430D01*
X2518333Y-16180383D01*
X2518333Y-16008954D01*
X2699286Y-16199430D02*
X2680238Y-16208954D01*
X2642143Y-16208954D01*
X2623095Y-16199430D01*
X2613571Y-16180383D01*
X2613571Y-16104192D01*
X2623095Y-16085145D01*
X2642143Y-16075621D01*
X2680238Y-16075621D01*
X2699286Y-16085145D01*
X2708810Y-16104192D01*
X2708810Y-16123240D01*
X2613571Y-16142288D01*
X2785000Y-16199430D02*
X2804048Y-16208954D01*
X2842143Y-16208954D01*
X2861190Y-16199430D01*
X2870714Y-16180383D01*
X2870714Y-16170859D01*
X2861190Y-16151811D01*
X2842143Y-16142288D01*
X2813571Y-16142288D01*
X2794524Y-16132764D01*
X2785000Y-16113716D01*
X2785000Y-16104192D01*
X2794524Y-16085145D01*
X2813571Y-16075621D01*
X2842143Y-16075621D01*
X2861190Y-16085145D01*
X2937381Y-16285145D02*
X2946905Y-16275621D01*
X2965952Y-16247049D01*
X2975476Y-16228002D01*
X2985000Y-16199430D01*
X2994524Y-16151811D01*
X2994524Y-16113716D01*
X2985000Y-16066097D01*
X2975476Y-16037526D01*
X2965952Y-16018478D01*
X2946905Y-15989907D01*
X2937381Y-15980383D01*
X3299286Y-16285145D02*
X3289762Y-16275621D01*
X3270714Y-16247049D01*
X3261190Y-16228002D01*
X3251667Y-16199430D01*
X3242143Y-16151811D01*
X3242143Y-16113716D01*
X3251667Y-16066097D01*
X3261190Y-16037526D01*
X3270714Y-16018478D01*
X3289762Y-15989907D01*
X3299286Y-15980383D01*
X3375476Y-16075621D02*
X3375476Y-16208954D01*
X3375476Y-16094668D02*
X3385000Y-16085145D01*
X3404048Y-16075621D01*
X3432619Y-16075621D01*
X3451667Y-16085145D01*
X3461190Y-16104192D01*
X3461190Y-16208954D01*
X3585000Y-16208954D02*
X3565952Y-16199430D01*
X3556428Y-16189907D01*
X3546905Y-16170859D01*
X3546905Y-16113716D01*
X3556428Y-16094668D01*
X3565952Y-16085145D01*
X3585000Y-16075621D01*
X3613571Y-16075621D01*
X3632619Y-16085145D01*
X3642143Y-16094668D01*
X3651667Y-16113716D01*
X3651667Y-16170859D01*
X3642143Y-16189907D01*
X3632619Y-16199430D01*
X3613571Y-16208954D01*
X3585000Y-16208954D01*
X3708809Y-16075621D02*
X3785000Y-16075621D01*
X3737381Y-16008954D02*
X3737381Y-16180383D01*
X3746905Y-16199430D01*
X3765952Y-16208954D01*
X3785000Y-16208954D01*
X4004048Y-16075621D02*
X4004048Y-16275621D01*
X4004048Y-16085145D02*
X4023095Y-16075621D01*
X4061190Y-16075621D01*
X4080238Y-16085145D01*
X4089762Y-16094668D01*
X4099286Y-16113716D01*
X4099286Y-16170859D01*
X4089762Y-16189907D01*
X4080238Y-16199430D01*
X4061190Y-16208954D01*
X4023095Y-16208954D01*
X4004048Y-16199430D01*
X4213571Y-16208954D02*
X4194524Y-16199430D01*
X4185000Y-16180383D01*
X4185000Y-16008954D01*
X4375476Y-16208954D02*
X4375476Y-16104192D01*
X4365952Y-16085145D01*
X4346905Y-16075621D01*
X4308810Y-16075621D01*
X4289762Y-16085145D01*
X4375476Y-16199430D02*
X4356429Y-16208954D01*
X4308810Y-16208954D01*
X4289762Y-16199430D01*
X4280238Y-16180383D01*
X4280238Y-16161335D01*
X4289762Y-16142288D01*
X4308810Y-16132764D01*
X4356429Y-16132764D01*
X4375476Y-16123240D01*
X4442143Y-16075621D02*
X4518333Y-16075621D01*
X4470714Y-16008954D02*
X4470714Y-16180383D01*
X4480238Y-16199430D01*
X4499286Y-16208954D01*
X4518333Y-16208954D01*
X4661190Y-16199430D02*
X4642143Y-16208954D01*
X4604048Y-16208954D01*
X4585000Y-16199430D01*
X4575476Y-16180383D01*
X4575476Y-16104192D01*
X4585000Y-16085145D01*
X4604048Y-16075621D01*
X4642143Y-16075621D01*
X4661190Y-16085145D01*
X4670714Y-16104192D01*
X4670714Y-16123240D01*
X4575476Y-16142288D01*
X4842143Y-16208954D02*
X4842143Y-16008954D01*
X4842143Y-16199430D02*
X4823095Y-16208954D01*
X4785000Y-16208954D01*
X4765952Y-16199430D01*
X4756429Y-16189907D01*
X4746905Y-16170859D01*
X4746905Y-16113716D01*
X4756429Y-16094668D01*
X4765952Y-16085145D01*
X4785000Y-16075621D01*
X4823095Y-16075621D01*
X4842143Y-16085145D01*
X4918333Y-16285145D02*
X4927857Y-16275621D01*
X4946905Y-16247049D01*
X4956429Y-16228002D01*
X4965952Y-16199430D01*
X4975476Y-16151811D01*
X4975476Y-16113716D01*
X4965952Y-16066097D01*
X4956429Y-16037526D01*
X4946905Y-16018478D01*
X4927857Y-15989907D01*
X4918333Y-15980383D01*
M02*
