M48
; DRILL file {KiCad (5.99.0-12118-g897269f33f)} date Thu Oct 21 22:54:37 2021
; FORMAT={-:-/ absolute / inch / decimal}
; #@! TF.CreationDate,2021-10-21T22:54:37-04:00
; #@! TF.GenerationSoftware,Kicad,Pcbnew,(5.99.0-12118-g897269f33f)
; #@! TF.FileFunction,NonPlated,1,2,NPTH
FMAT,2
INCH
; #@! TA.AperFunction,NonPlated,NPTH,ComponentDrill
T1C0.0689
; #@! TA.AperFunction,NonPlated,NPTH,ComponentDrill
T2C0.1200
; #@! TA.AperFunction,NonPlated,NPTH,ComponentDrill
T3C0.1570
%
G90
G05
T1
X-0.6134Y-2.4813
X-0.5209Y-3.9813
X-0.4274Y-5.4813
X-0.4264Y-3.2313
X-0.3329Y-3.9813
X-0.2134Y-2.4813
X-0.1459Y-4.7313
X-0.1209Y-3.9813
X-0.0274Y-5.4813
X-0.0264Y-3.2313
X0.0671Y-3.9813
X0.1366Y-2.4813
X0.2541Y-4.7313
X0.5116Y-3.2313
X0.5366Y-2.4813
X0.6986Y-3.9813
X0.8866Y-2.4813
X0.9116Y-3.2313
X1.0726Y-4.7313
X1.0986Y-3.9813
X1.2616Y-3.2313
X1.2866Y-2.4813
X1.4476Y-5.4813
X1.4486Y-3.9813
X1.4726Y-4.7313
X1.6366Y-2.4813
X1.6616Y-3.2313
X1.8226Y-4.7313
X1.8476Y-5.4813
X1.8486Y-3.9813
X2.0116Y-3.2313
X2.0366Y-2.4813
X2.1986Y-3.9813
X2.2226Y-4.7313
X2.3866Y-2.4813
X2.4116Y-3.2313
X2.5726Y-4.7313
X2.5986Y-3.9813
X2.7616Y-3.2313
X2.7866Y-2.4813
X2.9486Y-3.9813
X2.9726Y-4.7313
X3.1366Y-2.4813
X3.1616Y-3.2313
X3.3226Y-4.7313
X3.3486Y-3.9813
X3.5116Y-3.2313
X3.5366Y-2.4813
X3.6986Y-3.9813
X3.7226Y-4.7313
X3.8866Y-2.4813
X3.9116Y-3.2313
X4.0726Y-4.7313
X4.0986Y-3.9813
X4.2616Y-3.2313
X4.2866Y-2.4813
X4.4486Y-3.9813
X4.4726Y-4.7313
X4.6351Y-5.4813
X4.6366Y-2.4813
X4.6616Y-3.2313
X4.8226Y-4.7313
X4.8486Y-3.9813
X5.0116Y-3.2313
X5.0351Y-5.4813
X5.0366Y-2.4813
X5.1996Y-3.9813
X5.2226Y-4.7313
X5.3866Y-2.4813
X5.4116Y-3.2313
X5.5726Y-4.7313
X5.5996Y-3.9813
X5.7616Y-3.2313
X5.7866Y-2.4813
X5.9496Y-3.9813
X5.9726Y-4.7313
X6.1366Y-2.4813
X6.1616Y-3.2313
X6.3226Y-4.7313
X6.3496Y-3.9813
X6.5116Y-3.2313
X6.5366Y-2.4813
X6.6996Y-3.9813
X6.7226Y-4.7313
X6.8866Y-2.4813
X6.9116Y-3.2313
X7.0726Y-4.7313
X7.0996Y-3.9813
X7.2616Y-3.2313
X7.2866Y-2.4813
X7.4496Y-3.9813
X7.4726Y-4.7313
X7.6366Y-2.4803
X7.6616Y-3.2313
X7.8226Y-4.7313
X7.8231Y-5.4803
X7.8496Y-3.9813
X8.0116Y-3.2303
X8.0366Y-2.4803
X8.1996Y-3.9803
X8.2226Y-4.7313
X8.2231Y-5.4803
X8.3866Y-2.4803
X8.4116Y-3.2303
X8.5996Y-3.9803
X8.7616Y-3.2303
X8.7866Y-2.4803
X8.8541Y-4.7303
X9.1366Y-2.4803
X9.1616Y-3.2303
X9.2291Y-4.7303
X9.2541Y-4.7303
X9.4181Y-3.9803
X9.5116Y-2.4793
X9.5366Y-2.4803
X9.6291Y-4.7303
X9.6981Y-5.4803
X9.6986Y-3.2303
X9.8181Y-3.9803
X9.8856Y-4.7303
X9.8866Y-2.4793
X9.9116Y-2.4793
X10.0981Y-5.4803
X10.0986Y-3.2303
X10.2856Y-4.7303
X10.2866Y-2.4793
X10.8236Y-2.4793
X10.8236Y-3.2293
X10.8236Y-5.4793
X11.2236Y-2.4793
X11.2236Y-3.2293
X11.2236Y-5.4793
X11.5736Y-2.4793
X11.5736Y-3.2293
X11.5736Y-4.7293
X11.5736Y-5.4793
X11.9736Y-2.4793
X11.9736Y-3.2293
X11.9736Y-4.7293
X11.9736Y-5.4793
X12.3236Y-2.4793
X12.3236Y-3.2293
X12.3236Y-5.4793
X12.7236Y-2.4793
X12.7236Y-3.2293
X12.7236Y-5.4793
T2
X-0.4146Y-4.4563
X0.5229Y-4.4563
X2.2101Y-5.7563
X2.5851Y-5.7563
X7.0851Y-5.7563
X7.4601Y-5.7563
X8.9604Y-4.4553
X9.1494Y-3.7053
X9.2429Y-2.2043
X9.8979Y-4.4553
X10.0869Y-3.7053
X10.1804Y-2.2043
T3
X-0.4146Y-5.0563
X-0.4134Y-2.4813
X-0.3209Y-3.9813
X-0.2274Y-5.4813
X-0.2264Y-3.2313
X-0.1329Y-3.9813
X0.0541Y-4.7313
X0.3366Y-2.4813
X0.5229Y-5.0563
X0.7116Y-3.2313
X0.8986Y-3.9813
X1.0866Y-2.4813
X1.2726Y-4.7313
X1.4616Y-3.2313
X1.6476Y-5.4813
X1.6486Y-3.9813
X1.8366Y-2.4813
X2.0226Y-4.7313
X2.2101Y-5.1563
X2.2116Y-3.2313
X2.3986Y-3.9813
X2.5851Y-5.1563
X2.5866Y-2.4813
X2.7726Y-4.7313
X2.9616Y-3.2313
X3.1486Y-3.9813
X3.3366Y-2.4813
X3.5226Y-4.7313
X3.7116Y-3.2313
X3.8986Y-3.9813
X4.0866Y-2.4813
X4.2726Y-4.7313
X4.4616Y-3.2313
X4.6486Y-3.9813
X4.8351Y-5.4813
X4.8366Y-2.4813
X5.0226Y-4.7313
X5.2116Y-3.2313
X5.3996Y-3.9813
X5.5866Y-2.4813
X5.7726Y-4.7313
X5.9616Y-3.2313
X6.1496Y-3.9813
X6.3366Y-2.4813
X6.5226Y-4.7313
X6.7116Y-3.2313
X6.8996Y-3.9813
X7.0851Y-5.1563
X7.0866Y-2.4813
X7.2726Y-4.7313
X7.4601Y-5.1563
X7.4616Y-3.2313
X7.6496Y-3.9813
X7.8366Y-2.4803
X8.0226Y-4.7313
X8.0231Y-5.4803
X8.2116Y-3.2303
X8.3996Y-3.9803
X8.5866Y-2.4803
X8.9604Y-5.0553
X8.9616Y-3.2303
X9.0541Y-4.7303
X9.1494Y-4.3053
X9.2429Y-2.8043
X9.3366Y-2.4803
X9.4291Y-4.7303
X9.6181Y-3.9803
X9.7116Y-2.4793
X9.8979Y-5.0553
X9.8981Y-5.4803
X9.8986Y-3.2303
X10.0856Y-4.7303
X10.0866Y-2.4793
X10.0869Y-4.3053
X10.1804Y-2.8043
X11.0236Y-2.4793
X11.0236Y-3.2293
X11.0236Y-5.4793
X11.7736Y-2.4793
X11.7736Y-3.2293
X11.7736Y-4.7293
X11.7736Y-5.4793
X12.5236Y-2.4793
X12.5236Y-3.2293
X12.5236Y-5.4793
T0
M30
