%TF.GenerationSoftware,KiCad,Pcbnew,(5.99.0-12118-g897269f33f)*%
%TF.CreationDate,2021-10-21T22:54:26-04:00*%
%TF.ProjectId,latte,6c617474-652e-46b6-9963-61645f706362,rev?*%
%TF.SameCoordinates,Original*%
%TF.FileFunction,Paste,Bot*%
%TF.FilePolarity,Positive*%
%FSLAX46Y46*%
G04 Gerber Fmt 4.6, Leading zero omitted, Abs format (unit mm)*
G04 Created by KiCad (PCBNEW (5.99.0-12118-g897269f33f)) date 2021-10-21 22:54:26*
%MOMM*%
%LPD*%
G01*
G04 APERTURE LIST*
G04 Aperture macros list*
%AMRoundRect*
0 Rectangle with rounded corners*
0 $1 Rounding radius*
0 $2 $3 $4 $5 $6 $7 $8 $9 X,Y pos of 4 corners*
0 Add a 4 corners polygon primitive as box body*
4,1,4,$2,$3,$4,$5,$6,$7,$8,$9,$2,$3,0*
0 Add four circle primitives for the rounded corners*
1,1,$1+$1,$2,$3*
1,1,$1+$1,$4,$5*
1,1,$1+$1,$6,$7*
1,1,$1+$1,$8,$9*
0 Add four rect primitives between the rounded corners*
20,1,$1+$1,$2,$3,$4,$5,0*
20,1,$1+$1,$4,$5,$6,$7,0*
20,1,$1+$1,$6,$7,$8,$9,0*
20,1,$1+$1,$8,$9,$2,$3,0*%
%AMRotRect*
0 Rectangle, with rotation*
0 The origin of the aperture is its center*
0 $1 length*
0 $2 width*
0 $3 Rotation angle, in degrees counterclockwise*
0 Add horizontal line*
21,1,$1,$2,0,0,$3*%
G04 Aperture macros list end*
%ADD10R,1.200000X0.900000*%
%ADD11RoundRect,0.243750X0.494975X0.150260X0.150260X0.494975X-0.494975X-0.150260X-0.150260X-0.494975X0*%
%ADD12RoundRect,0.243750X-0.456250X0.243750X-0.456250X-0.243750X0.456250X-0.243750X0.456250X0.243750X0*%
%ADD13RoundRect,0.243750X0.456250X-0.243750X0.456250X0.243750X-0.456250X0.243750X-0.456250X-0.243750X0*%
%ADD14R,1.800000X1.200000*%
%ADD15R,1.550000X0.600000*%
%ADD16RotRect,2.100000X1.800000X315.000000*%
%ADD17RoundRect,0.243750X0.243750X0.456250X-0.243750X0.456250X-0.243750X-0.456250X0.243750X-0.456250X0*%
%ADD18RoundRect,0.250000X-0.388909X0.000000X0.000000X-0.388909X0.388909X0.000000X0.000000X0.388909X0*%
%ADD19RotRect,1.500000X0.550000X315.000000*%
%ADD20RoundRect,0.062500X-0.380070X0.291682X0.291682X-0.380070X0.380070X-0.291682X-0.291682X0.380070X0*%
%ADD21RotRect,1.500000X0.550000X225.000000*%
%ADD22RoundRect,0.062500X-0.380070X-0.291682X-0.291682X-0.380070X0.380070X0.291682X0.291682X0.380070X0*%
%ADD23RoundRect,0.243750X-0.243750X-0.456250X0.243750X-0.456250X0.243750X0.456250X-0.243750X0.456250X0*%
%ADD24RoundRect,0.243750X-0.150260X0.494975X-0.494975X0.150260X0.150260X-0.494975X0.494975X-0.150260X0*%
%ADD25RoundRect,0.243750X0.150260X-0.494975X0.494975X-0.150260X-0.150260X0.494975X-0.494975X0.150260X0*%
G04 APERTURE END LIST*
D10*
%TO.C,D47*%
X221350000Y-102750000D03*
X221350000Y-99450000D03*
%TD*%
%TO.C,D16*%
X287000000Y-69625000D03*
X287000000Y-66325000D03*
%TD*%
D11*
%TO.C,C1*%
X266887913Y-95412913D03*
X265562087Y-94087087D03*
%TD*%
D12*
%TO.C,R4*%
X263050000Y-83912500D03*
X263050000Y-85787500D03*
%TD*%
D10*
%TO.C,D2*%
X15550000Y-69675000D03*
X15550000Y-66375000D03*
%TD*%
D12*
%TO.C,C5*%
X263625000Y-101312500D03*
X263625000Y-103187500D03*
%TD*%
D10*
%TO.C,D56*%
X153625000Y-126825000D03*
X153625000Y-123525000D03*
%TD*%
%TO.C,D23*%
X82225000Y-88725000D03*
X82225000Y-85425000D03*
%TD*%
D13*
%TO.C,C3*%
X284675000Y-103187500D03*
X284675000Y-101312500D03*
%TD*%
D10*
%TO.C,D31*%
X234625000Y-88700000D03*
X234625000Y-85400000D03*
%TD*%
%TO.C,D20*%
X25075000Y-88725000D03*
X25075000Y-85425000D03*
%TD*%
%TO.C,D25*%
X120325000Y-88725000D03*
X120325000Y-85425000D03*
%TD*%
%TO.C,D67*%
X258412125Y-145850000D03*
X258412125Y-142550000D03*
%TD*%
%TO.C,D51*%
X58375000Y-126825000D03*
X58375000Y-123525000D03*
%TD*%
%TO.C,D27*%
X158425000Y-88725000D03*
X158425000Y-85425000D03*
%TD*%
%TO.C,D15*%
X264975000Y-69625000D03*
X264975000Y-66325000D03*
%TD*%
%TO.C,D19*%
X1250000Y-88725000D03*
X1250000Y-85425000D03*
%TD*%
D14*
%TO.C,J1*%
X272375000Y-54825000D03*
X272375000Y-60425000D03*
D15*
X268500000Y-56125000D03*
X268500000Y-57125000D03*
X268500000Y-58125000D03*
X268500000Y-59125000D03*
%TD*%
D10*
%TO.C,D9*%
X148900000Y-69675000D03*
X148900000Y-66375000D03*
%TD*%
%TO.C,D36*%
X3625000Y-107775000D03*
X3625000Y-104475000D03*
%TD*%
%TO.C,D8*%
X129850000Y-69675000D03*
X129850000Y-66375000D03*
%TD*%
D16*
%TO.C,Y1*%
X282182468Y-91731122D03*
X284233078Y-93781732D03*
X282606732Y-95408078D03*
X280556122Y-93357468D03*
%TD*%
D10*
%TO.C,D38*%
X48875000Y-107775000D03*
X48875000Y-104475000D03*
%TD*%
D17*
%TO.C,C4*%
X275087500Y-112750000D03*
X273212500Y-112750000D03*
%TD*%
D10*
%TO.C,D28*%
X177475000Y-88725000D03*
X177475000Y-85425000D03*
%TD*%
%TO.C,D21*%
X44125000Y-88725000D03*
X44125000Y-85425000D03*
%TD*%
%TO.C,D37*%
X29825000Y-107775000D03*
X29825000Y-104475000D03*
%TD*%
%TO.C,D33*%
X287000000Y-88675000D03*
X287000000Y-85375000D03*
%TD*%
%TO.C,D55*%
X134575000Y-126825000D03*
X134575000Y-123525000D03*
%TD*%
%TO.C,D13*%
X225100000Y-69650000D03*
X225100000Y-66350000D03*
%TD*%
%TO.C,D35*%
X325100000Y-88675000D03*
X325100000Y-85375000D03*
%TD*%
%TO.C,D6*%
X91750000Y-69675000D03*
X91750000Y-66375000D03*
%TD*%
%TO.C,D44*%
X163200000Y-107775000D03*
X163200000Y-104475000D03*
%TD*%
%TO.C,D26*%
X139375000Y-88725000D03*
X139375000Y-85425000D03*
%TD*%
%TO.C,D12*%
X206050000Y-69650000D03*
X206050000Y-66350000D03*
%TD*%
%TO.C,D49*%
X8375000Y-126825000D03*
X8375000Y-123525000D03*
%TD*%
%TO.C,D10*%
X167950000Y-69675000D03*
X167950000Y-66375000D03*
%TD*%
D18*
%TO.C,U1*%
X275994794Y-103162923D03*
X274156316Y-101324445D03*
X275075555Y-102243684D03*
X273237077Y-100405206D03*
X274156316Y-99485968D03*
X272317838Y-103162923D03*
X273237077Y-102243684D03*
X275075555Y-100405206D03*
X275075555Y-104082162D03*
X275994794Y-101324445D03*
X274156316Y-105001401D03*
X276914032Y-102243684D03*
X271398599Y-102243684D03*
X274156316Y-103162923D03*
X273237077Y-104082162D03*
X272317838Y-101324445D03*
D19*
X267297380Y-101041603D03*
D20*
X270028580Y-101651482D03*
X270382133Y-101297929D03*
D19*
X267863066Y-100475917D03*
D20*
X270735687Y-100944375D03*
D19*
X268428751Y-99910232D03*
X268994436Y-99344546D03*
D20*
X271089240Y-100590822D03*
X271442794Y-100237269D03*
D19*
X269560122Y-98778861D03*
D20*
X271796347Y-99883715D03*
D19*
X270125807Y-98213175D03*
X270691493Y-97647490D03*
D20*
X272149900Y-99530162D03*
X272503454Y-99176608D03*
D19*
X271257178Y-97081805D03*
D20*
X272857007Y-98823055D03*
D19*
X271822864Y-96516119D03*
X272388549Y-95950434D03*
D20*
X273210561Y-98469502D03*
D19*
X272954234Y-95384748D03*
D20*
X273564114Y-98115948D03*
D21*
X275358397Y-95384748D03*
D22*
X274748518Y-98115948D03*
D21*
X275924083Y-95950434D03*
D22*
X275102071Y-98469502D03*
D21*
X276489768Y-96516119D03*
D22*
X275455625Y-98823055D03*
D21*
X277055454Y-97081805D03*
D22*
X275809178Y-99176608D03*
X276162731Y-99530162D03*
D21*
X277621139Y-97647490D03*
X278186825Y-98213175D03*
D22*
X276516285Y-99883715D03*
X276869838Y-100237269D03*
D21*
X278752510Y-98778861D03*
X279318195Y-99344546D03*
D22*
X277223392Y-100590822D03*
D21*
X279883881Y-99910232D03*
D22*
X277576945Y-100944375D03*
X277930498Y-101297929D03*
D21*
X280449566Y-100475917D03*
X281015252Y-101041603D03*
D22*
X278284052Y-101651482D03*
D19*
X281015252Y-103445766D03*
D20*
X278284052Y-102835886D03*
D19*
X280449566Y-104011451D03*
D20*
X277930498Y-103189439D03*
D19*
X279883881Y-104577136D03*
D20*
X277576945Y-103542993D03*
D19*
X279318195Y-105142822D03*
D20*
X277223392Y-103896546D03*
D19*
X278752510Y-105708507D03*
D20*
X276869838Y-104250100D03*
D19*
X278186825Y-106274193D03*
D20*
X276516285Y-104603653D03*
D19*
X277621139Y-106839878D03*
D20*
X276162731Y-104957206D03*
D19*
X277055454Y-107405564D03*
D20*
X275809178Y-105310760D03*
X275455625Y-105664313D03*
D19*
X276489768Y-107971249D03*
X275924083Y-108536934D03*
D20*
X275102071Y-106017867D03*
X274748518Y-106371420D03*
D19*
X275358397Y-109102620D03*
D22*
X273564114Y-106371420D03*
D21*
X272954234Y-109102620D03*
D22*
X273210561Y-106017867D03*
D21*
X272388549Y-108536934D03*
D22*
X272882109Y-105639211D03*
D21*
X271822864Y-107971249D03*
X271257178Y-107405564D03*
D22*
X272503454Y-105310760D03*
X272149900Y-104957206D03*
D21*
X270691493Y-106839878D03*
X270125807Y-106274193D03*
D22*
X271796347Y-104603653D03*
D21*
X269560122Y-105708507D03*
D22*
X271442794Y-104250100D03*
X271089240Y-103896546D03*
D21*
X268994436Y-105142822D03*
X268428751Y-104577136D03*
D22*
X270735687Y-103542993D03*
D21*
X267863066Y-104011451D03*
D22*
X270382133Y-103189439D03*
D21*
X267297380Y-103445766D03*
D22*
X270028580Y-102835886D03*
%TD*%
D10*
%TO.C,D69*%
X306050000Y-145825000D03*
X306050000Y-142525000D03*
%TD*%
%TO.C,D61*%
X263175000Y-126800000D03*
X263175000Y-123500000D03*
%TD*%
%TO.C,D4*%
X53650000Y-69675000D03*
X53650000Y-66375000D03*
%TD*%
%TO.C,D66*%
X210787125Y-145850000D03*
X210787125Y-142550000D03*
%TD*%
%TO.C,D18*%
X325100000Y-69625000D03*
X325100000Y-66325000D03*
%TD*%
D12*
%TO.C,R3*%
X265025000Y-83912500D03*
X265025000Y-85787500D03*
%TD*%
D10*
%TO.C,D34*%
X306050000Y-88675000D03*
X306050000Y-85375000D03*
%TD*%
%TO.C,D24*%
X101275000Y-88725000D03*
X101275000Y-85425000D03*
%TD*%
%TO.C,D5*%
X72700000Y-69675000D03*
X72700000Y-66375000D03*
%TD*%
D17*
%TO.C,R2*%
X-2787500Y-109075000D03*
X-4662500Y-109075000D03*
%TD*%
D10*
%TO.C,D43*%
X144150000Y-107775000D03*
X144150000Y-104475000D03*
%TD*%
%TO.C,D59*%
X210775000Y-126825000D03*
X210775000Y-123525000D03*
%TD*%
%TO.C,D45*%
X182250000Y-107775000D03*
X182250000Y-104475000D03*
%TD*%
%TO.C,D70*%
X325100000Y-145825000D03*
X325100000Y-142525000D03*
%TD*%
D23*
%TO.C,C2*%
X273212500Y-91700000D03*
X275087500Y-91700000D03*
%TD*%
D10*
%TO.C,D46*%
X201300000Y-107775000D03*
X201300000Y-104475000D03*
%TD*%
D13*
%TO.C,R1*%
X288500000Y-95625000D03*
X288500000Y-93750000D03*
%TD*%
D10*
%TO.C,D22*%
X63175000Y-88725000D03*
X63175000Y-85425000D03*
%TD*%
%TO.C,D30*%
X215575000Y-88700000D03*
X215575000Y-85400000D03*
%TD*%
D11*
%TO.C,R5*%
X278687913Y-112412913D03*
X277362087Y-111087087D03*
%TD*%
D10*
%TO.C,D62*%
X306050000Y-126775000D03*
X306050000Y-123475000D03*
%TD*%
%TO.C,D42*%
X125075000Y-107775000D03*
X125075000Y-104475000D03*
%TD*%
%TO.C,D50*%
X39325000Y-126825000D03*
X39325000Y-123525000D03*
%TD*%
%TO.C,D53*%
X96475000Y-126825000D03*
X96475000Y-123525000D03*
%TD*%
%TO.C,D14*%
X262475000Y-69625000D03*
X262475000Y-66325000D03*
%TD*%
%TO.C,D64*%
X48850000Y-145875000D03*
X48850000Y-142575000D03*
%TD*%
%TO.C,D1*%
X-3500000Y-69675000D03*
X-3500000Y-66375000D03*
%TD*%
%TO.C,D52*%
X77425000Y-126825000D03*
X77425000Y-123525000D03*
%TD*%
D24*
%TO.C,C7*%
X285837913Y-95512087D03*
X284512087Y-96837913D03*
%TD*%
D10*
%TO.C,D7*%
X110800000Y-69675000D03*
X110800000Y-66375000D03*
%TD*%
D25*
%TO.C,C6*%
X279081687Y-91457513D03*
X280407513Y-90131687D03*
%TD*%
D10*
%TO.C,D32*%
X258425000Y-88700000D03*
X258425000Y-85400000D03*
%TD*%
%TO.C,D63*%
X2225000Y-141375000D03*
X2225000Y-138075000D03*
%TD*%
%TO.C,D58*%
X191725000Y-126825000D03*
X191725000Y-123525000D03*
%TD*%
%TO.C,D57*%
X172675000Y-126825000D03*
X172675000Y-123525000D03*
%TD*%
%TO.C,D65*%
X129812500Y-145875000D03*
X129812500Y-142575000D03*
%TD*%
%TO.C,D68*%
X288000000Y-141325000D03*
X288000000Y-138025000D03*
%TD*%
%TO.C,D60*%
X236975000Y-126800000D03*
X236975000Y-123500000D03*
%TD*%
%TO.C,D17*%
X306050000Y-69625000D03*
X306050000Y-66325000D03*
%TD*%
%TO.C,D39*%
X67925000Y-107775000D03*
X67925000Y-104475000D03*
%TD*%
%TO.C,D11*%
X187000000Y-69675000D03*
X187000000Y-66375000D03*
%TD*%
%TO.C,D3*%
X34600000Y-69675000D03*
X34600000Y-66375000D03*
%TD*%
%TO.C,D48*%
X252300000Y-102750000D03*
X252300000Y-99450000D03*
%TD*%
D11*
%TO.C,C8*%
X268287913Y-94012913D03*
X266962087Y-92687087D03*
%TD*%
D10*
%TO.C,D54*%
X115525000Y-126825000D03*
X115525000Y-123525000D03*
%TD*%
%TO.C,D41*%
X106025000Y-107775000D03*
X106025000Y-104475000D03*
%TD*%
%TO.C,D29*%
X196525000Y-88725000D03*
X196525000Y-85425000D03*
%TD*%
%TO.C,D40*%
X86975000Y-107775000D03*
X86975000Y-104475000D03*
%TD*%
M02*
