M48
; DRILL file {KiCad (5.99.0-12118-g897269f33f)} date Thu Oct 21 22:54:37 2021
; FORMAT={-:-/ absolute / inch / decimal}
; #@! TF.CreationDate,2021-10-21T22:54:37-04:00
; #@! TF.GenerationSoftware,Kicad,Pcbnew,(5.99.0-12118-g897269f33f)
; #@! TF.FileFunction,Plated,1,2,PTH
FMAT,2
INCH
; #@! TA.AperFunction,Plated,PTH,ViaDrill
T1C0.0157
; #@! TA.AperFunction,Plated,PTH,ComponentDrill
T2C0.0409
; #@! TA.AperFunction,Plated,PTH,ComponentDrill
T3C0.0579
; #@! TA.AperFunction,Plated,PTH,ComponentDrill
T4C0.0591
%
G90
G05
T1
X5.11Y-5.795
X8.3Y-5.795
X8.31Y-4.3
X8.31Y-4.425
X9.305Y-4.29
X9.305Y-4.425
X10.1047Y-4.0953
X10.3583Y-3.4911
X10.3789Y-3.937
X10.5437Y-2.7411
X10.5643Y-3.4921
X10.5994Y-3.6644
X10.6622Y-2.7411
X10.6663Y-4.3887
X10.7559Y-3.5472
X10.8307Y-4.5
X10.9066Y-3.7344
X11.17Y-4.44
X11.2677Y-4.063
X11.2933Y-3.6634
X11.4222Y-3.7657
T2
X-0.3709Y-4.1813
X-0.2709Y-4.1813
X-0.1829Y-4.1813
X-0.0829Y-4.1813
T3
X-0.5634Y-2.3813
X-0.4709Y-3.8813
X-0.3774Y-5.3813
X-0.3764Y-3.1313
X-0.3134Y-2.2813
X-0.2829Y-3.8813
X-0.2209Y-3.7813
X-0.1274Y-5.2813
X-0.1264Y-3.0313
X-0.0959Y-4.6313
X-0.0329Y-3.7813
X0.1541Y-4.5313
X0.1866Y-2.3813
X0.4366Y-2.2813
X0.5616Y-3.1313
X0.7486Y-3.8813
X0.8116Y-3.0313
X0.9366Y-2.3813
X0.9986Y-3.7813
X1.1226Y-4.6313
X1.1866Y-2.2813
X1.3116Y-3.1313
X1.3726Y-4.5313
X1.4976Y-5.3813
X1.4986Y-3.8813
X1.5616Y-3.0313
X1.6866Y-2.3813
X1.7476Y-5.2813
X1.7486Y-3.7813
X1.8726Y-4.6313
X1.9366Y-2.2813
X2.0616Y-3.1313
X2.1226Y-4.5313
X2.2486Y-3.8813
X2.3116Y-3.0313
X2.4366Y-2.3813
X2.4986Y-3.7813
X2.6226Y-4.6313
X2.6866Y-2.2813
X2.8116Y-3.1313
X2.8726Y-4.5313
X2.9986Y-3.8813
X3.0616Y-3.0313
X3.1866Y-2.3813
X3.2486Y-3.7813
X3.3726Y-4.6313
X3.4366Y-2.2813
X3.5616Y-3.1313
X3.6226Y-4.5313
X3.7486Y-3.8813
X3.8116Y-3.0313
X3.9366Y-2.3813
X3.9986Y-3.7813
X4.1226Y-4.6313
X4.1866Y-2.2813
X4.3116Y-3.1313
X4.3726Y-4.5313
X4.4986Y-3.8813
X4.5616Y-3.0313
X4.6851Y-5.3813
X4.6866Y-2.3813
X4.7486Y-3.7813
X4.8726Y-4.6313
X4.9351Y-5.2813
X4.9366Y-2.2813
X5.0616Y-3.1313
X5.1226Y-4.5313
X5.2496Y-3.8813
X5.3116Y-3.0313
X5.4366Y-2.3813
X5.4996Y-3.7813
X5.6226Y-4.6313
X5.6866Y-2.2813
X5.8116Y-3.1313
X5.8726Y-4.5313
X5.9996Y-3.8813
X6.0616Y-3.0313
X6.1866Y-2.3813
X6.2496Y-3.7813
X6.3726Y-4.6313
X6.4366Y-2.2813
X6.5616Y-3.1313
X6.6226Y-4.5313
X6.7496Y-3.8813
X6.8116Y-3.0313
X6.9366Y-2.3813
X6.9996Y-3.7813
X7.1226Y-4.6313
X7.1866Y-2.2813
X7.3116Y-3.1313
X7.3726Y-4.5313
X7.4996Y-3.8813
X7.5616Y-3.0313
X7.6866Y-2.3803
X7.7496Y-3.7813
X7.8726Y-4.6313
X7.8731Y-5.3803
X7.9366Y-2.2803
X8.0616Y-3.1303
X8.1226Y-4.5313
X8.1231Y-5.2803
X8.2496Y-3.8803
X8.3116Y-3.0303
X8.4366Y-2.3803
X8.4996Y-3.7803
X8.6866Y-2.2803
X8.8116Y-3.1303
X8.9041Y-4.6303
X9.0616Y-3.0303
X9.1541Y-4.5303
X9.1866Y-2.3803
X9.2791Y-4.6303
X9.4366Y-2.2803
X9.4681Y-3.8803
X9.5291Y-4.5303
X9.5616Y-2.3793
X9.7181Y-3.7803
X9.7481Y-5.3803
X9.7486Y-3.1303
X9.8116Y-2.2793
X9.9356Y-4.6303
X9.9366Y-2.3793
X9.9981Y-5.2803
X9.9986Y-3.0303
X10.1856Y-4.5303
X10.1866Y-2.2793
X10.8736Y-2.3793
X10.8736Y-3.1293
X10.8736Y-5.3793
X11.1236Y-2.2793
X11.1236Y-3.0293
X11.1236Y-5.2793
X11.6236Y-2.3793
X11.6236Y-3.1293
X11.6236Y-4.6293
X11.6236Y-5.3793
X11.8736Y-2.2793
X11.8736Y-3.0293
X11.8736Y-4.5293
X11.8736Y-5.2793
X12.3736Y-2.3793
X12.3736Y-3.1293
X12.3736Y-5.3793
X12.6236Y-2.2793
X12.6236Y-3.0293
X12.6236Y-5.2793
T4
X11.3567Y-3.6033
X11.5567Y-3.6033
T0
M30
