%FSLAX45Y45*%
G04 Gerber Fmt 4.5, Leading zero omitted, Abs format (unit mm)*
G04 Created by KiCad (PCBNEW (5.99.0-12118-g897269f33f)) date 2021-10-21 22:54:38*
%MOMM*%
%LPD*%
G01*
G04 APERTURE LIST*
%TA.AperFunction,Profile*%
%ADD10C,0.100000*%
%TD*%
%ADD11C,0.200000*%
%ADD12C,0.040000*%
%ADD13C,0.104000*%
%ADD14C,0.147000*%
%ADD15C,0.150000*%
G04 APERTURE END LIST*
D10*
X495035Y-5428477D02*
G75*
G02*
X565762Y-5378430I70727J-24953D01*
G01*
X8591434Y-5428477D02*
G75*
G02*
X8662161Y-5378430I70727J-24953D01*
G01*
X24278125Y-14673429D02*
X24278125Y-14773429D01*
X32771300Y-14723429D02*
X32771300Y-5503430D01*
X29353750Y-14848429D02*
X32646300Y-14848429D01*
X18250518Y-5428477D02*
G75*
G02*
X18321246Y-5378430I70727J-24953D01*
G01*
X3702604Y-14848429D02*
G75*
G02*
X3628312Y-14783707I0J75000D01*
G01*
X1016875Y-14848429D02*
X3009445Y-14848429D01*
X27158937Y-14848477D02*
X28553750Y-14848429D01*
X291875Y-14773429D02*
G75*
G02*
X216875Y-14848429I-75000J0D01*
G01*
X-283010Y-5378430D02*
G75*
G02*
X-212282Y-5428477I0J-75000D01*
G01*
X26540067Y-14783756D02*
G75*
G02*
X27084642Y-14783756I272287J-37672D01*
G01*
X6274756Y-14848428D02*
X18295303Y-14848429D01*
X495034Y-5428477D02*
G75*
G02*
X-212282Y-5428477I-353658J124770D01*
G01*
X32355301Y-5428477D02*
G75*
G02*
X31647984Y-5428477I-353659J124770D01*
G01*
X-2010000Y-5503430D02*
X-2010000Y-14723429D01*
X941875Y-14673429D02*
X941875Y-14773429D01*
X29278750Y-14673429D02*
X29278750Y-14773429D01*
X7813389Y-5378430D02*
X2207500Y-5378430D01*
X1407500Y-5378430D02*
G75*
G02*
X1482500Y-5453430I0J-75000D01*
G01*
X1482500Y-5553430D02*
X1482500Y-5453430D01*
X-283010Y-5378430D02*
X-1885000Y-5378430D01*
X291875Y-14773429D02*
X291875Y-14673429D01*
X31183750Y-5453430D02*
X31183750Y-5553430D01*
X11657500Y-5553430D02*
G75*
G02*
X11007500Y-5553430I-325000J0D01*
G01*
X23628125Y-14773429D02*
X23628125Y-14673429D01*
X291875Y-14673429D02*
G75*
G02*
X941875Y-14673429I325000J0D01*
G01*
X23628125Y-14673429D02*
G75*
G02*
X24278125Y-14673429I325000J0D01*
G01*
X26540067Y-14783757D02*
G75*
G02*
X26465773Y-14848478I-74292J10279D01*
G01*
X-1885000Y-14848429D02*
G75*
G02*
X-2010000Y-14723429I0J125000D01*
G01*
X-2010000Y-5503430D02*
G75*
G02*
X-1885000Y-5378430I125000J0D01*
G01*
X31577257Y-5378430D02*
X31258750Y-5378430D01*
X19537883Y-14848301D02*
G75*
G02*
X19463592Y-14783579I2J75000D01*
G01*
X17472474Y-5378430D02*
G75*
G02*
X17543201Y-5428477I0J-75000D01*
G01*
X1016875Y-14848429D02*
G75*
G02*
X941875Y-14773429I0J75000D01*
G01*
X28628750Y-14773429D02*
X28628750Y-14673429D01*
X24353123Y-14848429D02*
X26465773Y-14848478D01*
X2132500Y-5453430D02*
X2132500Y-5553430D01*
X30458750Y-5378430D02*
X23162500Y-5378430D01*
X2132500Y-5453430D02*
G75*
G02*
X2207500Y-5378430I75000J0D01*
G01*
X24353123Y-14848429D02*
G75*
G02*
X24278125Y-14773429I2J75000D01*
G01*
X27158937Y-14848477D02*
G75*
G02*
X27084642Y-14783756I-3J75000D01*
G01*
X22362500Y-5378430D02*
G75*
G02*
X22437500Y-5453430I0J-75000D01*
G01*
X7813389Y-5378430D02*
G75*
G02*
X7884116Y-5428477I0J-75000D01*
G01*
X18919016Y-14783589D02*
G75*
G02*
X18844739Y-14848314I-74293J10275D01*
G01*
X30458750Y-5378430D02*
G75*
G02*
X30533750Y-5453430I0J-75000D01*
G01*
X17472474Y-5378430D02*
X11732500Y-5378430D01*
X30533750Y-5553430D02*
X30533750Y-5453430D01*
X23087500Y-5453430D02*
X23087500Y-5553430D01*
X32355302Y-5428477D02*
G75*
G02*
X32426029Y-5378430I70727J-24953D01*
G01*
X29353750Y-14848429D02*
G75*
G02*
X29278750Y-14773429I0J75000D01*
G01*
X31183750Y-5553430D02*
G75*
G02*
X30533750Y-5553430I-325000J0D01*
G01*
X-1885000Y-14848429D02*
X216875Y-14848429D01*
X3083737Y-14783707D02*
G75*
G02*
X3009445Y-14848429I-74292J10278D01*
G01*
X23087500Y-5553430D02*
G75*
G02*
X22437500Y-5553430I-325000J0D01*
G01*
X23087500Y-5453430D02*
G75*
G02*
X23162500Y-5378430I75000J0D01*
G01*
X22437500Y-5553430D02*
X22437500Y-5453430D01*
X8591433Y-5428477D02*
G75*
G02*
X7884116Y-5428477I-353658J124770D01*
G01*
X1407500Y-5378430D02*
X565762Y-5378430D01*
X10932500Y-5378430D02*
X8662161Y-5378430D01*
X11657500Y-5453430D02*
G75*
G02*
X11732500Y-5378430I75000J0D01*
G01*
X32646300Y-5378430D02*
G75*
G02*
X32771300Y-5503430I0J-125000D01*
G01*
X2132500Y-5553430D02*
G75*
G02*
X1482500Y-5553430I-325000J0D01*
G01*
X23628125Y-14773429D02*
G75*
G02*
X23553125Y-14848429I-75000J0D01*
G01*
X3083737Y-14783707D02*
G75*
G02*
X3628312Y-14783707I272288J-37670D01*
G01*
X18295303Y-14848429D02*
X18844739Y-14848314D01*
X28628750Y-14673429D02*
G75*
G02*
X29278750Y-14673429I325000J0D01*
G01*
X28628750Y-14773429D02*
G75*
G02*
X28553750Y-14848429I-75000J0D01*
G01*
X32646300Y-5378430D02*
X32426029Y-5378430D01*
X18919016Y-14783589D02*
G75*
G02*
X19463592Y-14783579I272289J-37658D01*
G01*
X32771300Y-14723429D02*
G75*
G02*
X32646300Y-14848429I-125000J0D01*
G01*
X31183750Y-5453430D02*
G75*
G02*
X31258750Y-5378430I75000J0D01*
G01*
X18250518Y-5428477D02*
G75*
G02*
X17543201Y-5428477I-353659J124770D01*
G01*
X10932500Y-5378430D02*
G75*
G02*
X11007500Y-5453430I0J-75000D01*
G01*
X19537883Y-14848301D02*
X23553125Y-14848429D01*
X3702604Y-14848429D02*
X6274756Y-14848428D01*
X22362500Y-5378430D02*
X18321246Y-5378430D01*
X31577257Y-5378430D02*
G75*
G02*
X31647984Y-5428477I0J-75000D01*
G01*
X11007500Y-5553430D02*
X11007500Y-5453430D01*
X11657500Y-5453430D02*
X11657500Y-5553430D01*
D11*
D12*
X12959400Y-14699300D02*
X12999400Y-14739300D01*
X12999400Y-14699300D02*
X12959400Y-14739300D01*
X21062000Y-14699300D02*
X21102000Y-14739300D01*
X21102000Y-14699300D02*
X21062000Y-14739300D01*
X21087400Y-10902000D02*
X21127400Y-10942000D01*
X21127400Y-10902000D02*
X21087400Y-10942000D01*
X21087400Y-11219500D02*
X21127400Y-11259500D01*
X21127400Y-11219500D02*
X21087400Y-11259500D01*
X23614700Y-10876600D02*
X23654700Y-10916600D01*
X23654700Y-10876600D02*
X23614700Y-10916600D01*
X23614700Y-11219500D02*
X23654700Y-11259500D01*
X23654700Y-11219500D02*
X23614700Y-11259500D01*
X25645998Y-10382002D02*
X25685998Y-10422002D01*
X25685998Y-10382002D02*
X25645998Y-10422002D01*
X26290098Y-8847500D02*
X26330098Y-8887500D01*
X26330098Y-8847500D02*
X26290098Y-8887500D01*
X26342500Y-9980000D02*
X26382500Y-10020000D01*
X26382500Y-9980000D02*
X26342500Y-10020000D01*
X26761042Y-6942500D02*
X26801042Y-6982500D01*
X26801042Y-6942500D02*
X26761042Y-6982500D01*
X26813261Y-8850000D02*
X26853261Y-8890000D01*
X26853261Y-8850000D02*
X26813261Y-8890000D01*
X26902500Y-9287500D02*
X26942500Y-9327500D01*
X26942500Y-9287500D02*
X26902500Y-9327500D01*
X27062046Y-6942500D02*
X27102046Y-6982500D01*
X27102046Y-6942500D02*
X27062046Y-6982500D01*
X27072350Y-11127350D02*
X27112350Y-11167350D01*
X27112350Y-11127350D02*
X27072350Y-11167350D01*
X27300000Y-8990000D02*
X27340000Y-9030000D01*
X27340000Y-8990000D02*
X27300000Y-9030000D01*
X27490000Y-11410000D02*
X27530000Y-11450000D01*
X27530000Y-11410000D02*
X27490000Y-11450000D01*
X27682888Y-9465389D02*
X27722888Y-9505389D01*
X27722888Y-9465389D02*
X27682888Y-9505389D01*
X28351800Y-11257600D02*
X28391800Y-11297600D01*
X28391800Y-11257600D02*
X28351800Y-11297600D01*
X28600000Y-10300000D02*
X28640000Y-10340000D01*
X28640000Y-10300000D02*
X28600000Y-10340000D01*
X28665000Y-9285000D02*
X28705000Y-9325000D01*
X28705000Y-9285000D02*
X28665000Y-9325000D01*
X28992500Y-9545000D02*
X29032500Y-9585000D01*
X29032500Y-9545000D02*
X28992500Y-9585000D01*
D13*
X-890000Y-10620500D02*
G75*
G03*
X-890000Y-10620500I-52000J0D01*
G01*
X-636000Y-10620500D02*
G75*
G03*
X-636000Y-10620500I-52000J0D01*
G01*
X-412500Y-10620500D02*
G75*
G03*
X-412500Y-10620500I-52000J0D01*
G01*
X-158500Y-10620500D02*
G75*
G03*
X-158500Y-10620500I-52000J0D01*
G01*
D14*
X-1431000Y-5975000D02*
X-1431000Y-6122000D01*
X-1504500Y-6048500D02*
X-1357500Y-6048500D01*
X-1196000Y-9785000D02*
X-1196000Y-9932000D01*
X-1269500Y-9858500D02*
X-1122500Y-9858500D01*
X-958500Y-13595000D02*
X-958500Y-13742000D01*
X-1032000Y-13668500D02*
X-885000Y-13668500D01*
X-956000Y-7880000D02*
X-956000Y-8027000D01*
X-1029500Y-7953500D02*
X-882500Y-7953500D01*
X-796000Y-5721000D02*
X-796000Y-5868000D01*
X-869500Y-5794500D02*
X-722500Y-5794500D01*
X-718500Y-9785000D02*
X-718500Y-9932000D01*
X-792000Y-9858500D02*
X-645000Y-9858500D01*
X-561000Y-9531000D02*
X-561000Y-9678000D01*
X-634500Y-9604500D02*
X-487500Y-9604500D01*
X-323500Y-13341000D02*
X-323500Y-13488000D01*
X-397000Y-13414500D02*
X-250000Y-13414500D01*
X-321000Y-7626000D02*
X-321000Y-7773000D01*
X-394500Y-7699500D02*
X-247500Y-7699500D01*
X-243500Y-11690000D02*
X-243500Y-11837000D01*
X-317000Y-11763500D02*
X-170000Y-11763500D01*
X-83500Y-9531000D02*
X-83500Y-9678000D01*
X-157000Y-9604500D02*
X-10000Y-9604500D01*
X391500Y-11436000D02*
X391500Y-11583000D01*
X318000Y-11509500D02*
X465000Y-11509500D01*
X474000Y-5975000D02*
X474000Y-6122000D01*
X400500Y-6048500D02*
X547500Y-6048500D01*
X1109000Y-5721000D02*
X1109000Y-5868000D01*
X1035500Y-5794500D02*
X1182500Y-5794500D01*
X1426500Y-7880000D02*
X1426500Y-8027000D01*
X1353000Y-7953500D02*
X1500000Y-7953500D01*
X1901500Y-9785000D02*
X1901500Y-9932000D01*
X1828000Y-9858500D02*
X1975000Y-9858500D01*
X2061500Y-7626000D02*
X2061500Y-7773000D01*
X1988000Y-7699500D02*
X2135000Y-7699500D01*
X2379000Y-5975000D02*
X2379000Y-6122000D01*
X2305500Y-6048500D02*
X2452500Y-6048500D01*
X2536500Y-9531000D02*
X2536500Y-9678000D01*
X2463000Y-9604500D02*
X2610000Y-9604500D01*
X2851500Y-11690000D02*
X2851500Y-11837000D01*
X2778000Y-11763500D02*
X2925000Y-11763500D01*
X3014000Y-5721000D02*
X3014000Y-5868000D01*
X2940500Y-5794500D02*
X3087500Y-5794500D01*
X3331500Y-7880000D02*
X3331500Y-8027000D01*
X3258000Y-7953500D02*
X3405000Y-7953500D01*
X3486500Y-11436000D02*
X3486500Y-11583000D01*
X3413000Y-11509500D02*
X3560000Y-11509500D01*
X3804000Y-13595000D02*
X3804000Y-13742000D01*
X3730500Y-13668500D02*
X3877500Y-13668500D01*
X3806500Y-9785000D02*
X3806500Y-9932000D01*
X3733000Y-9858500D02*
X3880000Y-9858500D01*
X3966500Y-7626000D02*
X3966500Y-7773000D01*
X3893000Y-7699500D02*
X4040000Y-7699500D01*
X4284000Y-5975000D02*
X4284000Y-6122000D01*
X4210500Y-6048500D02*
X4357500Y-6048500D01*
X4439000Y-13341000D02*
X4439000Y-13488000D01*
X4365500Y-13414500D02*
X4512500Y-13414500D01*
X4441500Y-9531000D02*
X4441500Y-9678000D01*
X4368000Y-9604500D02*
X4515000Y-9604500D01*
X4756500Y-11690000D02*
X4756500Y-11837000D01*
X4683000Y-11763500D02*
X4830000Y-11763500D01*
X4919000Y-5721000D02*
X4919000Y-5868000D01*
X4845500Y-5794500D02*
X4992500Y-5794500D01*
X5236500Y-7880000D02*
X5236500Y-8027000D01*
X5163000Y-7953500D02*
X5310000Y-7953500D01*
X5391500Y-11436000D02*
X5391500Y-11583000D01*
X5318000Y-11509500D02*
X5465000Y-11509500D01*
X5711500Y-9785000D02*
X5711500Y-9932000D01*
X5638000Y-9858500D02*
X5785000Y-9858500D01*
X5871500Y-7626000D02*
X5871500Y-7773000D01*
X5798000Y-7699500D02*
X5945000Y-7699500D01*
X6189000Y-5975000D02*
X6189000Y-6122000D01*
X6115500Y-6048500D02*
X6262500Y-6048500D01*
X6346500Y-9531000D02*
X6346500Y-9678000D01*
X6273000Y-9604500D02*
X6420000Y-9604500D01*
X6661500Y-11690000D02*
X6661500Y-11837000D01*
X6588000Y-11763500D02*
X6735000Y-11763500D01*
X6824000Y-5721000D02*
X6824000Y-5868000D01*
X6750500Y-5794500D02*
X6897500Y-5794500D01*
X7141500Y-7880000D02*
X7141500Y-8027000D01*
X7068000Y-7953500D02*
X7215000Y-7953500D01*
X7296500Y-11436000D02*
X7296500Y-11583000D01*
X7223000Y-11509500D02*
X7370000Y-11509500D01*
X7616500Y-9785000D02*
X7616500Y-9932000D01*
X7543000Y-9858500D02*
X7690000Y-9858500D01*
X7776500Y-7626000D02*
X7776500Y-7773000D01*
X7703000Y-7699500D02*
X7850000Y-7699500D01*
X8094000Y-5975000D02*
X8094000Y-6122000D01*
X8020500Y-6048500D02*
X8167500Y-6048500D01*
X8251500Y-9531000D02*
X8251500Y-9678000D01*
X8178000Y-9604500D02*
X8325000Y-9604500D01*
X8566500Y-11690000D02*
X8566500Y-11837000D01*
X8493000Y-11763500D02*
X8640000Y-11763500D01*
X8729000Y-5721000D02*
X8729000Y-5868000D01*
X8655500Y-5794500D02*
X8802500Y-5794500D01*
X9046500Y-7880000D02*
X9046500Y-8027000D01*
X8973000Y-7953500D02*
X9120000Y-7953500D01*
X9201500Y-11436000D02*
X9201500Y-11583000D01*
X9128000Y-11509500D02*
X9275000Y-11509500D01*
X9521500Y-9785000D02*
X9521500Y-9932000D01*
X9448000Y-9858500D02*
X9595000Y-9858500D01*
X9681500Y-7626000D02*
X9681500Y-7773000D01*
X9608000Y-7699500D02*
X9755000Y-7699500D01*
X9999000Y-5975000D02*
X9999000Y-6122000D01*
X9925500Y-6048500D02*
X10072500Y-6048500D01*
X10156500Y-9531000D02*
X10156500Y-9678000D01*
X10083000Y-9604500D02*
X10230000Y-9604500D01*
X10471500Y-11690000D02*
X10471500Y-11837000D01*
X10398000Y-11763500D02*
X10545000Y-11763500D01*
X10634000Y-5721000D02*
X10634000Y-5868000D01*
X10560500Y-5794500D02*
X10707500Y-5794500D01*
X10951500Y-7880000D02*
X10951500Y-8027000D01*
X10878000Y-7953500D02*
X11025000Y-7953500D01*
X11106500Y-11436000D02*
X11106500Y-11583000D01*
X11033000Y-11509500D02*
X11180000Y-11509500D01*
X11426500Y-9785000D02*
X11426500Y-9932000D01*
X11353000Y-9858500D02*
X11500000Y-9858500D01*
X11586500Y-7626000D02*
X11586500Y-7773000D01*
X11513000Y-7699500D02*
X11660000Y-7699500D01*
X11900250Y-13595000D02*
X11900250Y-13742000D01*
X11826750Y-13668500D02*
X11973750Y-13668500D01*
X11904000Y-5975000D02*
X11904000Y-6122000D01*
X11830500Y-6048500D02*
X11977500Y-6048500D01*
X12061500Y-9531000D02*
X12061500Y-9678000D01*
X11988000Y-9604500D02*
X12135000Y-9604500D01*
X12376500Y-11690000D02*
X12376500Y-11837000D01*
X12303000Y-11763500D02*
X12450000Y-11763500D01*
X12535250Y-13341000D02*
X12535250Y-13488000D01*
X12461750Y-13414500D02*
X12608750Y-13414500D01*
X12539000Y-5721000D02*
X12539000Y-5868000D01*
X12465500Y-5794500D02*
X12612500Y-5794500D01*
X12856500Y-7880000D02*
X12856500Y-8027000D01*
X12783000Y-7953500D02*
X12930000Y-7953500D01*
X13011500Y-11436000D02*
X13011500Y-11583000D01*
X12938000Y-11509500D02*
X13085000Y-11509500D01*
X13334000Y-9785000D02*
X13334000Y-9932000D01*
X13260500Y-9858500D02*
X13407500Y-9858500D01*
X13491500Y-7626000D02*
X13491500Y-7773000D01*
X13418000Y-7699500D02*
X13565000Y-7699500D01*
X13809000Y-5975000D02*
X13809000Y-6122000D01*
X13735500Y-6048500D02*
X13882500Y-6048500D01*
X13969000Y-9531000D02*
X13969000Y-9678000D01*
X13895500Y-9604500D02*
X14042500Y-9604500D01*
X14281500Y-11690000D02*
X14281500Y-11837000D01*
X14208000Y-11763500D02*
X14355000Y-11763500D01*
X14444000Y-5721000D02*
X14444000Y-5868000D01*
X14370500Y-5794500D02*
X14517500Y-5794500D01*
X14761500Y-7880000D02*
X14761500Y-8027000D01*
X14688000Y-7953500D02*
X14835000Y-7953500D01*
X14916500Y-11436000D02*
X14916500Y-11583000D01*
X14843000Y-11509500D02*
X14990000Y-11509500D01*
X15239000Y-9785000D02*
X15239000Y-9932000D01*
X15165500Y-9858500D02*
X15312500Y-9858500D01*
X15396500Y-7626000D02*
X15396500Y-7773000D01*
X15323000Y-7699500D02*
X15470000Y-7699500D01*
X15714000Y-5975000D02*
X15714000Y-6122000D01*
X15640500Y-6048500D02*
X15787500Y-6048500D01*
X15874000Y-9531000D02*
X15874000Y-9678000D01*
X15800500Y-9604500D02*
X15947500Y-9604500D01*
X16186500Y-11690000D02*
X16186500Y-11837000D01*
X16113000Y-11763500D02*
X16260000Y-11763500D01*
X16349000Y-5721000D02*
X16349000Y-5868000D01*
X16275500Y-5794500D02*
X16422500Y-5794500D01*
X16666500Y-7880000D02*
X16666500Y-8027000D01*
X16593000Y-7953500D02*
X16740000Y-7953500D01*
X16821500Y-11436000D02*
X16821500Y-11583000D01*
X16748000Y-11509500D02*
X16895000Y-11509500D01*
X17144000Y-9785000D02*
X17144000Y-9932000D01*
X17070500Y-9858500D02*
X17217500Y-9858500D01*
X17301500Y-7626000D02*
X17301500Y-7773000D01*
X17228000Y-7699500D02*
X17375000Y-7699500D01*
X17619000Y-5975000D02*
X17619000Y-6122000D01*
X17545500Y-6048500D02*
X17692500Y-6048500D01*
X17779000Y-9531000D02*
X17779000Y-9678000D01*
X17705500Y-9604500D02*
X17852500Y-9604500D01*
X18091500Y-11690000D02*
X18091500Y-11837000D01*
X18018000Y-11763500D02*
X18165000Y-11763500D01*
X18254000Y-5721000D02*
X18254000Y-5868000D01*
X18180500Y-5794500D02*
X18327500Y-5794500D01*
X18571500Y-7880000D02*
X18571500Y-8027000D01*
X18498000Y-7953500D02*
X18645000Y-7953500D01*
X18726500Y-11436000D02*
X18726500Y-11583000D01*
X18653000Y-11509500D02*
X18800000Y-11509500D01*
X19049000Y-9785000D02*
X19049000Y-9932000D01*
X18975500Y-9858500D02*
X19122500Y-9858500D01*
X19206500Y-7626000D02*
X19206500Y-7773000D01*
X19133000Y-7699500D02*
X19280000Y-7699500D01*
X19524000Y-5972500D02*
X19524000Y-6119500D01*
X19450500Y-6046000D02*
X19597500Y-6046000D01*
X19684000Y-9531000D02*
X19684000Y-9678000D01*
X19610500Y-9604500D02*
X19757500Y-9604500D01*
X19996500Y-11690000D02*
X19996500Y-11837000D01*
X19923000Y-11763500D02*
X20070000Y-11763500D01*
X19997713Y-13592500D02*
X19997713Y-13739500D01*
X19924213Y-13666000D02*
X20071213Y-13666000D01*
X20159000Y-5718500D02*
X20159000Y-5865500D01*
X20085500Y-5792000D02*
X20232500Y-5792000D01*
X20476500Y-7877500D02*
X20476500Y-8024500D01*
X20403000Y-7951000D02*
X20550000Y-7951000D01*
X20631500Y-11436000D02*
X20631500Y-11583000D01*
X20558000Y-11509500D02*
X20705000Y-11509500D01*
X20632713Y-13338500D02*
X20632713Y-13485500D01*
X20559213Y-13412000D02*
X20706213Y-13412000D01*
X20954000Y-9782500D02*
X20954000Y-9929500D01*
X20880500Y-9856000D02*
X21027500Y-9856000D01*
X21111500Y-7623500D02*
X21111500Y-7770500D01*
X21038000Y-7697000D02*
X21185000Y-7697000D01*
X21429000Y-5972500D02*
X21429000Y-6119500D01*
X21355500Y-6046000D02*
X21502500Y-6046000D01*
X21589000Y-9528500D02*
X21589000Y-9675500D01*
X21515500Y-9602000D02*
X21662500Y-9602000D01*
X22064000Y-5718500D02*
X22064000Y-5865500D01*
X21990500Y-5792000D02*
X22137500Y-5792000D01*
X22381500Y-7877500D02*
X22381500Y-8024500D01*
X22308000Y-7951000D02*
X22455000Y-7951000D01*
X22616500Y-11687500D02*
X22616500Y-11834500D01*
X22543000Y-11761000D02*
X22690000Y-11761000D01*
X23016500Y-7623500D02*
X23016500Y-7770500D01*
X22943000Y-7697000D02*
X23090000Y-7697000D01*
X23251500Y-11433500D02*
X23251500Y-11580500D01*
X23178000Y-11507000D02*
X23325000Y-11507000D01*
X23334000Y-5972500D02*
X23334000Y-6119500D01*
X23260500Y-6046000D02*
X23407500Y-6046000D01*
X23569000Y-11687500D02*
X23569000Y-11834500D01*
X23495500Y-11761000D02*
X23642500Y-11761000D01*
X23969000Y-5718500D02*
X23969000Y-5865500D01*
X23895500Y-5792000D02*
X24042500Y-5792000D01*
X24049000Y-9782500D02*
X24049000Y-9929500D01*
X23975500Y-9856000D02*
X24122500Y-9856000D01*
X24204000Y-11433500D02*
X24204000Y-11580500D01*
X24130500Y-11507000D02*
X24277500Y-11507000D01*
X24286500Y-5970000D02*
X24286500Y-6117000D01*
X24213000Y-6043500D02*
X24360000Y-6043500D01*
X24684000Y-9528500D02*
X24684000Y-9675500D01*
X24610500Y-9602000D02*
X24757500Y-9602000D01*
X24760212Y-13592500D02*
X24760212Y-13739500D01*
X24686712Y-13666000D02*
X24833712Y-13666000D01*
X24761500Y-7877500D02*
X24761500Y-8024500D01*
X24688000Y-7951000D02*
X24835000Y-7951000D01*
X24921500Y-5716000D02*
X24921500Y-5863000D01*
X24848000Y-5789500D02*
X24995000Y-5789500D01*
X25236500Y-11687500D02*
X25236500Y-11834500D01*
X25163000Y-11761000D02*
X25310000Y-11761000D01*
X25239000Y-5970000D02*
X25239000Y-6117000D01*
X25165500Y-6043500D02*
X25312500Y-6043500D01*
X25395212Y-13338500D02*
X25395212Y-13485500D01*
X25321712Y-13412000D02*
X25468712Y-13412000D01*
X25396500Y-7623500D02*
X25396500Y-7770500D01*
X25323000Y-7697000D02*
X25470000Y-7697000D01*
X25871500Y-11433500D02*
X25871500Y-11580500D01*
X25798000Y-11507000D02*
X25945000Y-11507000D01*
X25874000Y-5716000D02*
X25874000Y-5863000D01*
X25800500Y-5789500D02*
X25947500Y-5789500D01*
X27619000Y-5970000D02*
X27619000Y-6117000D01*
X27545500Y-6043500D02*
X27692500Y-6043500D01*
X27619000Y-7875000D02*
X27619000Y-8022000D01*
X27545500Y-7948500D02*
X27692500Y-7948500D01*
X27619000Y-13590000D02*
X27619000Y-13737000D01*
X27545500Y-13663500D02*
X27692500Y-13663500D01*
X28254000Y-5716000D02*
X28254000Y-5863000D01*
X28180500Y-5789500D02*
X28327500Y-5789500D01*
X28254000Y-7621000D02*
X28254000Y-7768000D01*
X28180500Y-7694500D02*
X28327500Y-7694500D01*
X28254000Y-13336000D02*
X28254000Y-13483000D01*
X28180500Y-13409500D02*
X28327500Y-13409500D01*
X29524000Y-5970000D02*
X29524000Y-6117000D01*
X29450500Y-6043500D02*
X29597500Y-6043500D01*
X29524000Y-7875000D02*
X29524000Y-8022000D01*
X29450500Y-7948500D02*
X29597500Y-7948500D01*
X29524000Y-11685000D02*
X29524000Y-11832000D01*
X29450500Y-11758500D02*
X29597500Y-11758500D01*
X29524000Y-13590000D02*
X29524000Y-13737000D01*
X29450500Y-13663500D02*
X29597500Y-13663500D01*
X30159000Y-5716000D02*
X30159000Y-5863000D01*
X30085500Y-5789500D02*
X30232500Y-5789500D01*
X30159000Y-7621000D02*
X30159000Y-7768000D01*
X30085500Y-7694500D02*
X30232500Y-7694500D01*
X30159000Y-11431000D02*
X30159000Y-11578000D01*
X30085500Y-11504500D02*
X30232500Y-11504500D01*
X30159000Y-13336000D02*
X30159000Y-13483000D01*
X30085500Y-13409500D02*
X30232500Y-13409500D01*
X31429000Y-5970000D02*
X31429000Y-6117000D01*
X31355500Y-6043500D02*
X31502500Y-6043500D01*
X31429000Y-7875000D02*
X31429000Y-8022000D01*
X31355500Y-7948500D02*
X31502500Y-7948500D01*
X31429000Y-13590000D02*
X31429000Y-13737000D01*
X31355500Y-13663500D02*
X31502500Y-13663500D01*
X32064000Y-5716000D02*
X32064000Y-5863000D01*
X31990500Y-5789500D02*
X32137500Y-5789500D01*
X32064000Y-7621000D02*
X32064000Y-7768000D01*
X31990500Y-7694500D02*
X32137500Y-7694500D01*
X32064000Y-13336000D02*
X32064000Y-13483000D01*
X31990500Y-13409500D02*
X32137500Y-13409500D01*
D15*
X28899033Y-9205534D02*
X28899033Y-9099467D01*
X28792966Y-9099467D01*
X28792966Y-9205534D01*
X28899033Y-9205534D01*
X29407033Y-9205534D02*
X29407033Y-9099467D01*
X29300966Y-9099467D01*
X29300966Y-9205534D01*
X29407033Y-9205534D01*
D11*
X-1767381Y-15173954D02*
X-1767381Y-14973954D01*
X-1719762Y-14973954D01*
X-1691190Y-14983478D01*
X-1672143Y-15002526D01*
X-1662619Y-15021573D01*
X-1653095Y-15059668D01*
X-1653095Y-15088240D01*
X-1662619Y-15126335D01*
X-1672143Y-15145383D01*
X-1691190Y-15164430D01*
X-1719762Y-15173954D01*
X-1767381Y-15173954D01*
X-1567381Y-15173954D02*
X-1567381Y-15040621D01*
X-1567381Y-15078716D02*
X-1557857Y-15059668D01*
X-1548333Y-15050145D01*
X-1529286Y-15040621D01*
X-1510238Y-15040621D01*
X-1443571Y-15173954D02*
X-1443571Y-15040621D01*
X-1443571Y-14973954D02*
X-1453095Y-14983478D01*
X-1443571Y-14993002D01*
X-1434048Y-14983478D01*
X-1443571Y-14973954D01*
X-1443571Y-14993002D01*
X-1319762Y-15173954D02*
X-1338810Y-15164430D01*
X-1348333Y-15145383D01*
X-1348333Y-14973954D01*
X-1215000Y-15173954D02*
X-1234048Y-15164430D01*
X-1243571Y-15145383D01*
X-1243571Y-14973954D01*
X-986428Y-15173954D02*
X-986428Y-14973954D01*
X-919762Y-15116811D01*
X-853095Y-14973954D01*
X-853095Y-15173954D01*
X-672143Y-15173954D02*
X-672143Y-15069192D01*
X-681667Y-15050145D01*
X-700714Y-15040621D01*
X-738809Y-15040621D01*
X-757857Y-15050145D01*
X-672143Y-15164430D02*
X-691190Y-15173954D01*
X-738809Y-15173954D01*
X-757857Y-15164430D01*
X-767381Y-15145383D01*
X-767381Y-15126335D01*
X-757857Y-15107288D01*
X-738809Y-15097764D01*
X-691190Y-15097764D01*
X-672143Y-15088240D01*
X-576905Y-15040621D02*
X-576905Y-15240621D01*
X-576905Y-15050145D02*
X-557857Y-15040621D01*
X-519762Y-15040621D01*
X-500714Y-15050145D01*
X-491190Y-15059668D01*
X-481667Y-15078716D01*
X-481667Y-15135859D01*
X-491190Y-15154907D01*
X-500714Y-15164430D01*
X-519762Y-15173954D01*
X-557857Y-15173954D01*
X-576905Y-15164430D01*
X-395952Y-15154907D02*
X-386428Y-15164430D01*
X-395952Y-15173954D01*
X-405476Y-15164430D01*
X-395952Y-15154907D01*
X-395952Y-15173954D01*
X-395952Y-15050145D02*
X-386428Y-15059668D01*
X-395952Y-15069192D01*
X-405476Y-15059668D01*
X-395952Y-15050145D01*
X-395952Y-15069192D01*
D12*
X-2065000Y-15483478D02*
X-2025000Y-15523478D01*
X-2025000Y-15483478D02*
X-2065000Y-15523478D01*
D11*
X-1729286Y-15393954D02*
X-1710238Y-15393954D01*
X-1691190Y-15403478D01*
X-1681667Y-15413002D01*
X-1672143Y-15432049D01*
X-1662619Y-15470145D01*
X-1662619Y-15517764D01*
X-1672143Y-15555859D01*
X-1681667Y-15574907D01*
X-1691190Y-15584430D01*
X-1710238Y-15593954D01*
X-1729286Y-15593954D01*
X-1748333Y-15584430D01*
X-1757857Y-15574907D01*
X-1767381Y-15555859D01*
X-1776905Y-15517764D01*
X-1776905Y-15470145D01*
X-1767381Y-15432049D01*
X-1757857Y-15413002D01*
X-1748333Y-15403478D01*
X-1729286Y-15393954D01*
X-1576905Y-15574907D02*
X-1567381Y-15584430D01*
X-1576905Y-15593954D01*
X-1586428Y-15584430D01*
X-1576905Y-15574907D01*
X-1576905Y-15593954D01*
X-1395952Y-15460621D02*
X-1395952Y-15593954D01*
X-1443571Y-15384430D02*
X-1491190Y-15527288D01*
X-1367381Y-15527288D01*
X-1253095Y-15393954D02*
X-1234048Y-15393954D01*
X-1215000Y-15403478D01*
X-1205476Y-15413002D01*
X-1195952Y-15432049D01*
X-1186429Y-15470145D01*
X-1186429Y-15517764D01*
X-1195952Y-15555859D01*
X-1205476Y-15574907D01*
X-1215000Y-15584430D01*
X-1234048Y-15593954D01*
X-1253095Y-15593954D01*
X-1272143Y-15584430D01*
X-1281667Y-15574907D01*
X-1291190Y-15555859D01*
X-1300714Y-15517764D01*
X-1300714Y-15470145D01*
X-1291190Y-15432049D01*
X-1281667Y-15413002D01*
X-1272143Y-15403478D01*
X-1253095Y-15393954D01*
X-1062619Y-15393954D02*
X-1043571Y-15393954D01*
X-1024524Y-15403478D01*
X-1015000Y-15413002D01*
X-1005476Y-15432049D01*
X-995952Y-15470145D01*
X-995952Y-15517764D01*
X-1005476Y-15555859D01*
X-1015000Y-15574907D01*
X-1024524Y-15584430D01*
X-1043571Y-15593954D01*
X-1062619Y-15593954D01*
X-1081667Y-15584430D01*
X-1091190Y-15574907D01*
X-1100714Y-15555859D01*
X-1110238Y-15517764D01*
X-1110238Y-15470145D01*
X-1100714Y-15432049D01*
X-1091190Y-15413002D01*
X-1081667Y-15403478D01*
X-1062619Y-15393954D01*
X-910238Y-15593954D02*
X-910238Y-15460621D01*
X-910238Y-15479668D02*
X-900714Y-15470145D01*
X-881667Y-15460621D01*
X-853095Y-15460621D01*
X-834048Y-15470145D01*
X-824524Y-15489192D01*
X-824524Y-15593954D01*
X-824524Y-15489192D02*
X-815000Y-15470145D01*
X-795952Y-15460621D01*
X-767381Y-15460621D01*
X-748333Y-15470145D01*
X-738809Y-15489192D01*
X-738809Y-15593954D01*
X-643571Y-15593954D02*
X-643571Y-15460621D01*
X-643571Y-15479668D02*
X-634048Y-15470145D01*
X-615000Y-15460621D01*
X-586429Y-15460621D01*
X-567381Y-15470145D01*
X-557857Y-15489192D01*
X-557857Y-15593954D01*
X-557857Y-15489192D02*
X-548333Y-15470145D01*
X-529286Y-15460621D01*
X-500714Y-15460621D01*
X-481667Y-15470145D01*
X-472143Y-15489192D01*
X-472143Y-15593954D01*
X-81667Y-15384430D02*
X-253095Y-15641573D01*
X175476Y-15393954D02*
X194524Y-15393954D01*
X213571Y-15403478D01*
X223095Y-15413002D01*
X232619Y-15432049D01*
X242143Y-15470145D01*
X242143Y-15517764D01*
X232619Y-15555859D01*
X223095Y-15574907D01*
X213571Y-15584430D01*
X194524Y-15593954D01*
X175476Y-15593954D01*
X156429Y-15584430D01*
X146905Y-15574907D01*
X137381Y-15555859D01*
X127857Y-15517764D01*
X127857Y-15470145D01*
X137381Y-15432049D01*
X146905Y-15413002D01*
X156429Y-15403478D01*
X175476Y-15393954D01*
X327857Y-15574907D02*
X337381Y-15584430D01*
X327857Y-15593954D01*
X318333Y-15584430D01*
X327857Y-15574907D01*
X327857Y-15593954D01*
X461190Y-15393954D02*
X480238Y-15393954D01*
X499286Y-15403478D01*
X508809Y-15413002D01*
X518333Y-15432049D01*
X527857Y-15470145D01*
X527857Y-15517764D01*
X518333Y-15555859D01*
X508809Y-15574907D01*
X499286Y-15584430D01*
X480238Y-15593954D01*
X461190Y-15593954D01*
X442143Y-15584430D01*
X432619Y-15574907D01*
X423095Y-15555859D01*
X413571Y-15517764D01*
X413571Y-15470145D01*
X423095Y-15432049D01*
X432619Y-15413002D01*
X442143Y-15403478D01*
X461190Y-15393954D01*
X718333Y-15593954D02*
X604048Y-15593954D01*
X661190Y-15593954D02*
X661190Y-15393954D01*
X642143Y-15422526D01*
X623095Y-15441573D01*
X604048Y-15451097D01*
X899286Y-15393954D02*
X804048Y-15393954D01*
X794524Y-15489192D01*
X804048Y-15479668D01*
X823095Y-15470145D01*
X870714Y-15470145D01*
X889762Y-15479668D01*
X899286Y-15489192D01*
X908809Y-15508240D01*
X908809Y-15555859D01*
X899286Y-15574907D01*
X889762Y-15584430D01*
X870714Y-15593954D01*
X823095Y-15593954D01*
X804048Y-15584430D01*
X794524Y-15574907D01*
X975476Y-15393954D02*
X1108810Y-15393954D01*
X1023095Y-15593954D01*
X1175476Y-15393954D02*
X1175476Y-15432049D01*
X1251667Y-15393954D02*
X1251667Y-15432049D01*
X1546905Y-15670145D02*
X1537381Y-15660621D01*
X1518333Y-15632049D01*
X1508809Y-15613002D01*
X1499286Y-15584430D01*
X1489762Y-15536811D01*
X1489762Y-15498716D01*
X1499286Y-15451097D01*
X1508809Y-15422526D01*
X1518333Y-15403478D01*
X1537381Y-15374907D01*
X1546905Y-15365383D01*
X1613571Y-15413002D02*
X1623095Y-15403478D01*
X1642143Y-15393954D01*
X1689762Y-15393954D01*
X1708809Y-15403478D01*
X1718333Y-15413002D01*
X1727857Y-15432049D01*
X1727857Y-15451097D01*
X1718333Y-15479668D01*
X1604048Y-15593954D01*
X1727857Y-15593954D01*
X1918333Y-15593954D02*
X1804048Y-15593954D01*
X1861190Y-15593954D02*
X1861190Y-15393954D01*
X1842143Y-15422526D01*
X1823095Y-15441573D01*
X1804048Y-15451097D01*
X2156429Y-15593954D02*
X2156429Y-15393954D01*
X2242143Y-15593954D02*
X2242143Y-15489192D01*
X2232619Y-15470145D01*
X2213571Y-15460621D01*
X2185000Y-15460621D01*
X2165952Y-15470145D01*
X2156429Y-15479668D01*
X2365952Y-15593954D02*
X2346905Y-15584430D01*
X2337381Y-15574907D01*
X2327857Y-15555859D01*
X2327857Y-15498716D01*
X2337381Y-15479668D01*
X2346905Y-15470145D01*
X2365952Y-15460621D01*
X2394524Y-15460621D01*
X2413571Y-15470145D01*
X2423095Y-15479668D01*
X2432619Y-15498716D01*
X2432619Y-15555859D01*
X2423095Y-15574907D01*
X2413571Y-15584430D01*
X2394524Y-15593954D01*
X2365952Y-15593954D01*
X2546905Y-15593954D02*
X2527857Y-15584430D01*
X2518333Y-15565383D01*
X2518333Y-15393954D01*
X2699286Y-15584430D02*
X2680238Y-15593954D01*
X2642143Y-15593954D01*
X2623095Y-15584430D01*
X2613571Y-15565383D01*
X2613571Y-15489192D01*
X2623095Y-15470145D01*
X2642143Y-15460621D01*
X2680238Y-15460621D01*
X2699286Y-15470145D01*
X2708810Y-15489192D01*
X2708810Y-15508240D01*
X2613571Y-15527288D01*
X2785000Y-15584430D02*
X2804048Y-15593954D01*
X2842143Y-15593954D01*
X2861190Y-15584430D01*
X2870714Y-15565383D01*
X2870714Y-15555859D01*
X2861190Y-15536811D01*
X2842143Y-15527288D01*
X2813571Y-15527288D01*
X2794524Y-15517764D01*
X2785000Y-15498716D01*
X2785000Y-15489192D01*
X2794524Y-15470145D01*
X2813571Y-15460621D01*
X2842143Y-15460621D01*
X2861190Y-15470145D01*
X2937381Y-15670145D02*
X2946905Y-15660621D01*
X2965952Y-15632049D01*
X2975476Y-15613002D01*
X2985000Y-15584430D01*
X2994524Y-15536811D01*
X2994524Y-15498716D01*
X2985000Y-15451097D01*
X2975476Y-15422526D01*
X2965952Y-15403478D01*
X2946905Y-15374907D01*
X2937381Y-15365383D01*
D13*
X-2025000Y-15767478D02*
G75*
G03*
X-2025000Y-15767478I-52000J0D01*
G01*
D11*
X-1662619Y-15857954D02*
X-1776905Y-15857954D01*
X-1719762Y-15857954D02*
X-1719762Y-15657954D01*
X-1738809Y-15686526D01*
X-1757857Y-15705573D01*
X-1776905Y-15715097D01*
X-1576905Y-15838907D02*
X-1567381Y-15848430D01*
X-1576905Y-15857954D01*
X-1586428Y-15848430D01*
X-1576905Y-15838907D01*
X-1576905Y-15857954D01*
X-1443571Y-15657954D02*
X-1424524Y-15657954D01*
X-1405476Y-15667478D01*
X-1395952Y-15677002D01*
X-1386429Y-15696049D01*
X-1376905Y-15734145D01*
X-1376905Y-15781764D01*
X-1386429Y-15819859D01*
X-1395952Y-15838907D01*
X-1405476Y-15848430D01*
X-1424524Y-15857954D01*
X-1443571Y-15857954D01*
X-1462619Y-15848430D01*
X-1472143Y-15838907D01*
X-1481667Y-15819859D01*
X-1491190Y-15781764D01*
X-1491190Y-15734145D01*
X-1481667Y-15696049D01*
X-1472143Y-15677002D01*
X-1462619Y-15667478D01*
X-1443571Y-15657954D01*
X-1205476Y-15724621D02*
X-1205476Y-15857954D01*
X-1253095Y-15648430D02*
X-1300714Y-15791288D01*
X-1176905Y-15791288D01*
X-1062619Y-15657954D02*
X-1043571Y-15657954D01*
X-1024524Y-15667478D01*
X-1015000Y-15677002D01*
X-1005476Y-15696049D01*
X-995952Y-15734145D01*
X-995952Y-15781764D01*
X-1005476Y-15819859D01*
X-1015000Y-15838907D01*
X-1024524Y-15848430D01*
X-1043571Y-15857954D01*
X-1062619Y-15857954D01*
X-1081667Y-15848430D01*
X-1091190Y-15838907D01*
X-1100714Y-15819859D01*
X-1110238Y-15781764D01*
X-1110238Y-15734145D01*
X-1100714Y-15696049D01*
X-1091190Y-15677002D01*
X-1081667Y-15667478D01*
X-1062619Y-15657954D01*
X-910238Y-15857954D02*
X-910238Y-15724621D01*
X-910238Y-15743668D02*
X-900714Y-15734145D01*
X-881667Y-15724621D01*
X-853095Y-15724621D01*
X-834048Y-15734145D01*
X-824524Y-15753192D01*
X-824524Y-15857954D01*
X-824524Y-15753192D02*
X-815000Y-15734145D01*
X-795952Y-15724621D01*
X-767381Y-15724621D01*
X-748333Y-15734145D01*
X-738809Y-15753192D01*
X-738809Y-15857954D01*
X-643571Y-15857954D02*
X-643571Y-15724621D01*
X-643571Y-15743668D02*
X-634048Y-15734145D01*
X-615000Y-15724621D01*
X-586429Y-15724621D01*
X-567381Y-15734145D01*
X-557857Y-15753192D01*
X-557857Y-15857954D01*
X-557857Y-15753192D02*
X-548333Y-15734145D01*
X-529286Y-15724621D01*
X-500714Y-15724621D01*
X-481667Y-15734145D01*
X-472143Y-15753192D01*
X-472143Y-15857954D01*
X-81667Y-15648430D02*
X-253095Y-15905573D01*
X175476Y-15657954D02*
X194524Y-15657954D01*
X213571Y-15667478D01*
X223095Y-15677002D01*
X232619Y-15696049D01*
X242143Y-15734145D01*
X242143Y-15781764D01*
X232619Y-15819859D01*
X223095Y-15838907D01*
X213571Y-15848430D01*
X194524Y-15857954D01*
X175476Y-15857954D01*
X156429Y-15848430D01*
X146905Y-15838907D01*
X137381Y-15819859D01*
X127857Y-15781764D01*
X127857Y-15734145D01*
X137381Y-15696049D01*
X146905Y-15677002D01*
X156429Y-15667478D01*
X175476Y-15657954D01*
X327857Y-15838907D02*
X337381Y-15848430D01*
X327857Y-15857954D01*
X318333Y-15848430D01*
X327857Y-15838907D01*
X327857Y-15857954D01*
X461190Y-15657954D02*
X480238Y-15657954D01*
X499286Y-15667478D01*
X508809Y-15677002D01*
X518333Y-15696049D01*
X527857Y-15734145D01*
X527857Y-15781764D01*
X518333Y-15819859D01*
X508809Y-15838907D01*
X499286Y-15848430D01*
X480238Y-15857954D01*
X461190Y-15857954D01*
X442143Y-15848430D01*
X432619Y-15838907D01*
X423095Y-15819859D01*
X413571Y-15781764D01*
X413571Y-15734145D01*
X423095Y-15696049D01*
X432619Y-15677002D01*
X442143Y-15667478D01*
X461190Y-15657954D01*
X699286Y-15724621D02*
X699286Y-15857954D01*
X651667Y-15648430D02*
X604048Y-15791288D01*
X727857Y-15791288D01*
X842143Y-15657954D02*
X861190Y-15657954D01*
X880238Y-15667478D01*
X889762Y-15677002D01*
X899286Y-15696049D01*
X908809Y-15734145D01*
X908809Y-15781764D01*
X899286Y-15819859D01*
X889762Y-15838907D01*
X880238Y-15848430D01*
X861190Y-15857954D01*
X842143Y-15857954D01*
X823095Y-15848430D01*
X813571Y-15838907D01*
X804048Y-15819859D01*
X794524Y-15781764D01*
X794524Y-15734145D01*
X804048Y-15696049D01*
X813571Y-15677002D01*
X823095Y-15667478D01*
X842143Y-15657954D01*
X1004048Y-15857954D02*
X1042143Y-15857954D01*
X1061190Y-15848430D01*
X1070714Y-15838907D01*
X1089762Y-15810335D01*
X1099286Y-15772240D01*
X1099286Y-15696049D01*
X1089762Y-15677002D01*
X1080238Y-15667478D01*
X1061190Y-15657954D01*
X1023095Y-15657954D01*
X1004048Y-15667478D01*
X994524Y-15677002D01*
X985000Y-15696049D01*
X985000Y-15743668D01*
X994524Y-15762716D01*
X1004048Y-15772240D01*
X1023095Y-15781764D01*
X1061190Y-15781764D01*
X1080238Y-15772240D01*
X1089762Y-15762716D01*
X1099286Y-15743668D01*
X1175476Y-15657954D02*
X1175476Y-15696049D01*
X1251667Y-15657954D02*
X1251667Y-15696049D01*
X1546905Y-15934145D02*
X1537381Y-15924621D01*
X1518333Y-15896049D01*
X1508809Y-15877002D01*
X1499286Y-15848430D01*
X1489762Y-15800811D01*
X1489762Y-15762716D01*
X1499286Y-15715097D01*
X1508809Y-15686526D01*
X1518333Y-15667478D01*
X1537381Y-15638907D01*
X1546905Y-15629383D01*
X1708809Y-15724621D02*
X1708809Y-15857954D01*
X1661190Y-15648430D02*
X1613571Y-15791288D01*
X1737381Y-15791288D01*
X1965952Y-15857954D02*
X1965952Y-15657954D01*
X2051667Y-15857954D02*
X2051667Y-15753192D01*
X2042143Y-15734145D01*
X2023095Y-15724621D01*
X1994524Y-15724621D01*
X1975476Y-15734145D01*
X1965952Y-15743668D01*
X2175476Y-15857954D02*
X2156429Y-15848430D01*
X2146905Y-15838907D01*
X2137381Y-15819859D01*
X2137381Y-15762716D01*
X2146905Y-15743668D01*
X2156429Y-15734145D01*
X2175476Y-15724621D01*
X2204048Y-15724621D01*
X2223095Y-15734145D01*
X2232619Y-15743668D01*
X2242143Y-15762716D01*
X2242143Y-15819859D01*
X2232619Y-15838907D01*
X2223095Y-15848430D01*
X2204048Y-15857954D01*
X2175476Y-15857954D01*
X2356429Y-15857954D02*
X2337381Y-15848430D01*
X2327857Y-15829383D01*
X2327857Y-15657954D01*
X2508810Y-15848430D02*
X2489762Y-15857954D01*
X2451667Y-15857954D01*
X2432619Y-15848430D01*
X2423095Y-15829383D01*
X2423095Y-15753192D01*
X2432619Y-15734145D01*
X2451667Y-15724621D01*
X2489762Y-15724621D01*
X2508810Y-15734145D01*
X2518333Y-15753192D01*
X2518333Y-15772240D01*
X2423095Y-15791288D01*
X2594524Y-15848430D02*
X2613571Y-15857954D01*
X2651667Y-15857954D01*
X2670714Y-15848430D01*
X2680238Y-15829383D01*
X2680238Y-15819859D01*
X2670714Y-15800811D01*
X2651667Y-15791288D01*
X2623095Y-15791288D01*
X2604048Y-15781764D01*
X2594524Y-15762716D01*
X2594524Y-15753192D01*
X2604048Y-15734145D01*
X2623095Y-15724621D01*
X2651667Y-15724621D01*
X2670714Y-15734145D01*
X2746905Y-15934145D02*
X2756429Y-15924621D01*
X2775476Y-15896049D01*
X2785000Y-15877002D01*
X2794524Y-15848430D01*
X2804048Y-15800811D01*
X2804048Y-15762716D01*
X2794524Y-15715097D01*
X2785000Y-15686526D01*
X2775476Y-15667478D01*
X2756429Y-15638907D01*
X2746905Y-15629383D01*
D14*
X-2098500Y-15957978D02*
X-2098500Y-16104978D01*
X-2172000Y-16031478D02*
X-2025000Y-16031478D01*
D11*
X-1662619Y-16121954D02*
X-1776905Y-16121954D01*
X-1719762Y-16121954D02*
X-1719762Y-15921954D01*
X-1738809Y-15950526D01*
X-1757857Y-15969573D01*
X-1776905Y-15979097D01*
X-1576905Y-16102907D02*
X-1567381Y-16112430D01*
X-1576905Y-16121954D01*
X-1586428Y-16112430D01*
X-1576905Y-16102907D01*
X-1576905Y-16121954D01*
X-1395952Y-15988621D02*
X-1395952Y-16121954D01*
X-1443571Y-15912430D02*
X-1491190Y-16055288D01*
X-1367381Y-16055288D01*
X-1310238Y-15921954D02*
X-1176905Y-15921954D01*
X-1262619Y-16121954D01*
X-1062619Y-15921954D02*
X-1043571Y-15921954D01*
X-1024524Y-15931478D01*
X-1015000Y-15941002D01*
X-1005476Y-15960049D01*
X-995952Y-15998145D01*
X-995952Y-16045764D01*
X-1005476Y-16083859D01*
X-1015000Y-16102907D01*
X-1024524Y-16112430D01*
X-1043571Y-16121954D01*
X-1062619Y-16121954D01*
X-1081667Y-16112430D01*
X-1091190Y-16102907D01*
X-1100714Y-16083859D01*
X-1110238Y-16045764D01*
X-1110238Y-15998145D01*
X-1100714Y-15960049D01*
X-1091190Y-15941002D01*
X-1081667Y-15931478D01*
X-1062619Y-15921954D01*
X-910238Y-16121954D02*
X-910238Y-15988621D01*
X-910238Y-16007668D02*
X-900714Y-15998145D01*
X-881667Y-15988621D01*
X-853095Y-15988621D01*
X-834048Y-15998145D01*
X-824524Y-16017192D01*
X-824524Y-16121954D01*
X-824524Y-16017192D02*
X-815000Y-15998145D01*
X-795952Y-15988621D01*
X-767381Y-15988621D01*
X-748333Y-15998145D01*
X-738809Y-16017192D01*
X-738809Y-16121954D01*
X-643571Y-16121954D02*
X-643571Y-15988621D01*
X-643571Y-16007668D02*
X-634048Y-15998145D01*
X-615000Y-15988621D01*
X-586429Y-15988621D01*
X-567381Y-15998145D01*
X-557857Y-16017192D01*
X-557857Y-16121954D01*
X-557857Y-16017192D02*
X-548333Y-15998145D01*
X-529286Y-15988621D01*
X-500714Y-15988621D01*
X-481667Y-15998145D01*
X-472143Y-16017192D01*
X-472143Y-16121954D01*
X-81667Y-15912430D02*
X-253095Y-16169573D01*
X175476Y-15921954D02*
X194524Y-15921954D01*
X213571Y-15931478D01*
X223095Y-15941002D01*
X232619Y-15960049D01*
X242143Y-15998145D01*
X242143Y-16045764D01*
X232619Y-16083859D01*
X223095Y-16102907D01*
X213571Y-16112430D01*
X194524Y-16121954D01*
X175476Y-16121954D01*
X156429Y-16112430D01*
X146905Y-16102907D01*
X137381Y-16083859D01*
X127857Y-16045764D01*
X127857Y-15998145D01*
X137381Y-15960049D01*
X146905Y-15941002D01*
X156429Y-15931478D01*
X175476Y-15921954D01*
X327857Y-16102907D02*
X337381Y-16112430D01*
X327857Y-16121954D01*
X318333Y-16112430D01*
X327857Y-16102907D01*
X327857Y-16121954D01*
X461190Y-15921954D02*
X480238Y-15921954D01*
X499286Y-15931478D01*
X508809Y-15941002D01*
X518333Y-15960049D01*
X527857Y-15998145D01*
X527857Y-16045764D01*
X518333Y-16083859D01*
X508809Y-16102907D01*
X499286Y-16112430D01*
X480238Y-16121954D01*
X461190Y-16121954D01*
X442143Y-16112430D01*
X432619Y-16102907D01*
X423095Y-16083859D01*
X413571Y-16045764D01*
X413571Y-15998145D01*
X423095Y-15960049D01*
X432619Y-15941002D01*
X442143Y-15931478D01*
X461190Y-15921954D01*
X708809Y-15921954D02*
X613571Y-15921954D01*
X604048Y-16017192D01*
X613571Y-16007668D01*
X632619Y-15998145D01*
X680238Y-15998145D01*
X699286Y-16007668D01*
X708809Y-16017192D01*
X718333Y-16036240D01*
X718333Y-16083859D01*
X708809Y-16102907D01*
X699286Y-16112430D01*
X680238Y-16121954D01*
X632619Y-16121954D01*
X613571Y-16112430D01*
X604048Y-16102907D01*
X785000Y-15921954D02*
X918333Y-15921954D01*
X832619Y-16121954D01*
X1004048Y-16121954D02*
X1042143Y-16121954D01*
X1061190Y-16112430D01*
X1070714Y-16102907D01*
X1089762Y-16074335D01*
X1099286Y-16036240D01*
X1099286Y-15960049D01*
X1089762Y-15941002D01*
X1080238Y-15931478D01*
X1061190Y-15921954D01*
X1023095Y-15921954D01*
X1004048Y-15931478D01*
X994524Y-15941002D01*
X985000Y-15960049D01*
X985000Y-16007668D01*
X994524Y-16026716D01*
X1004048Y-16036240D01*
X1023095Y-16045764D01*
X1061190Y-16045764D01*
X1080238Y-16036240D01*
X1089762Y-16026716D01*
X1099286Y-16007668D01*
X1175476Y-15921954D02*
X1175476Y-15960049D01*
X1251667Y-15921954D02*
X1251667Y-15960049D01*
X1546905Y-16198145D02*
X1537381Y-16188621D01*
X1518333Y-16160049D01*
X1508809Y-16141002D01*
X1499286Y-16112430D01*
X1489762Y-16064811D01*
X1489762Y-16026716D01*
X1499286Y-15979097D01*
X1508809Y-15950526D01*
X1518333Y-15931478D01*
X1537381Y-15902907D01*
X1546905Y-15893383D01*
X1727857Y-16121954D02*
X1613571Y-16121954D01*
X1670714Y-16121954D02*
X1670714Y-15921954D01*
X1651667Y-15950526D01*
X1632619Y-15969573D01*
X1613571Y-15979097D01*
X1899286Y-15988621D02*
X1899286Y-16121954D01*
X1851667Y-15912430D02*
X1804048Y-16055288D01*
X1927857Y-16055288D01*
X2089762Y-15921954D02*
X2051667Y-15921954D01*
X2032619Y-15931478D01*
X2023095Y-15941002D01*
X2004048Y-15969573D01*
X1994524Y-16007668D01*
X1994524Y-16083859D01*
X2004048Y-16102907D01*
X2013571Y-16112430D01*
X2032619Y-16121954D01*
X2070714Y-16121954D01*
X2089762Y-16112430D01*
X2099286Y-16102907D01*
X2108810Y-16083859D01*
X2108810Y-16036240D01*
X2099286Y-16017192D01*
X2089762Y-16007668D01*
X2070714Y-15998145D01*
X2032619Y-15998145D01*
X2013571Y-16007668D01*
X2004048Y-16017192D01*
X1994524Y-16036240D01*
X2346905Y-16121954D02*
X2346905Y-15921954D01*
X2432619Y-16121954D02*
X2432619Y-16017192D01*
X2423095Y-15998145D01*
X2404048Y-15988621D01*
X2375476Y-15988621D01*
X2356429Y-15998145D01*
X2346905Y-16007668D01*
X2556429Y-16121954D02*
X2537381Y-16112430D01*
X2527857Y-16102907D01*
X2518333Y-16083859D01*
X2518333Y-16026716D01*
X2527857Y-16007668D01*
X2537381Y-15998145D01*
X2556429Y-15988621D01*
X2585000Y-15988621D01*
X2604048Y-15998145D01*
X2613571Y-16007668D01*
X2623095Y-16026716D01*
X2623095Y-16083859D01*
X2613571Y-16102907D01*
X2604048Y-16112430D01*
X2585000Y-16121954D01*
X2556429Y-16121954D01*
X2737381Y-16121954D02*
X2718333Y-16112430D01*
X2708810Y-16093383D01*
X2708810Y-15921954D01*
X2889762Y-16112430D02*
X2870714Y-16121954D01*
X2832619Y-16121954D01*
X2813571Y-16112430D01*
X2804048Y-16093383D01*
X2804048Y-16017192D01*
X2813571Y-15998145D01*
X2832619Y-15988621D01*
X2870714Y-15988621D01*
X2889762Y-15998145D01*
X2899286Y-16017192D01*
X2899286Y-16036240D01*
X2804048Y-16055288D01*
X2975476Y-16112430D02*
X2994524Y-16121954D01*
X3032619Y-16121954D01*
X3051667Y-16112430D01*
X3061190Y-16093383D01*
X3061190Y-16083859D01*
X3051667Y-16064811D01*
X3032619Y-16055288D01*
X3004048Y-16055288D01*
X2985000Y-16045764D01*
X2975476Y-16026716D01*
X2975476Y-16017192D01*
X2985000Y-15998145D01*
X3004048Y-15988621D01*
X3032619Y-15988621D01*
X3051667Y-15998145D01*
X3127857Y-16198145D02*
X3137381Y-16188621D01*
X3156428Y-16160049D01*
X3165952Y-16141002D01*
X3175476Y-16112430D01*
X3185000Y-16064811D01*
X3185000Y-16026716D01*
X3175476Y-15979097D01*
X3165952Y-15950526D01*
X3156428Y-15931478D01*
X3137381Y-15902907D01*
X3127857Y-15893383D01*
D15*
X-2046966Y-16351512D02*
X-2046966Y-16245445D01*
X-2153034Y-16245445D01*
X-2153034Y-16351512D01*
X-2046966Y-16351512D01*
D11*
X-1662619Y-16388954D02*
X-1776905Y-16388954D01*
X-1719762Y-16388954D02*
X-1719762Y-16188954D01*
X-1738809Y-16217526D01*
X-1757857Y-16236573D01*
X-1776905Y-16246097D01*
X-1576905Y-16369907D02*
X-1567381Y-16379430D01*
X-1576905Y-16388954D01*
X-1586428Y-16379430D01*
X-1576905Y-16369907D01*
X-1576905Y-16388954D01*
X-1386429Y-16188954D02*
X-1481667Y-16188954D01*
X-1491190Y-16284192D01*
X-1481667Y-16274668D01*
X-1462619Y-16265145D01*
X-1415000Y-16265145D01*
X-1395952Y-16274668D01*
X-1386429Y-16284192D01*
X-1376905Y-16303240D01*
X-1376905Y-16350859D01*
X-1386429Y-16369907D01*
X-1395952Y-16379430D01*
X-1415000Y-16388954D01*
X-1462619Y-16388954D01*
X-1481667Y-16379430D01*
X-1491190Y-16369907D01*
X-1253095Y-16188954D02*
X-1234048Y-16188954D01*
X-1215000Y-16198478D01*
X-1205476Y-16208002D01*
X-1195952Y-16227049D01*
X-1186429Y-16265145D01*
X-1186429Y-16312764D01*
X-1195952Y-16350859D01*
X-1205476Y-16369907D01*
X-1215000Y-16379430D01*
X-1234048Y-16388954D01*
X-1253095Y-16388954D01*
X-1272143Y-16379430D01*
X-1281667Y-16369907D01*
X-1291190Y-16350859D01*
X-1300714Y-16312764D01*
X-1300714Y-16265145D01*
X-1291190Y-16227049D01*
X-1281667Y-16208002D01*
X-1272143Y-16198478D01*
X-1253095Y-16188954D01*
X-1062619Y-16188954D02*
X-1043571Y-16188954D01*
X-1024524Y-16198478D01*
X-1015000Y-16208002D01*
X-1005476Y-16227049D01*
X-995952Y-16265145D01*
X-995952Y-16312764D01*
X-1005476Y-16350859D01*
X-1015000Y-16369907D01*
X-1024524Y-16379430D01*
X-1043571Y-16388954D01*
X-1062619Y-16388954D01*
X-1081667Y-16379430D01*
X-1091190Y-16369907D01*
X-1100714Y-16350859D01*
X-1110238Y-16312764D01*
X-1110238Y-16265145D01*
X-1100714Y-16227049D01*
X-1091190Y-16208002D01*
X-1081667Y-16198478D01*
X-1062619Y-16188954D01*
X-910238Y-16388954D02*
X-910238Y-16255621D01*
X-910238Y-16274668D02*
X-900714Y-16265145D01*
X-881667Y-16255621D01*
X-853095Y-16255621D01*
X-834048Y-16265145D01*
X-824524Y-16284192D01*
X-824524Y-16388954D01*
X-824524Y-16284192D02*
X-815000Y-16265145D01*
X-795952Y-16255621D01*
X-767381Y-16255621D01*
X-748333Y-16265145D01*
X-738809Y-16284192D01*
X-738809Y-16388954D01*
X-643571Y-16388954D02*
X-643571Y-16255621D01*
X-643571Y-16274668D02*
X-634048Y-16265145D01*
X-615000Y-16255621D01*
X-586429Y-16255621D01*
X-567381Y-16265145D01*
X-557857Y-16284192D01*
X-557857Y-16388954D01*
X-557857Y-16284192D02*
X-548333Y-16265145D01*
X-529286Y-16255621D01*
X-500714Y-16255621D01*
X-481667Y-16265145D01*
X-472143Y-16284192D01*
X-472143Y-16388954D01*
X-81667Y-16179430D02*
X-253095Y-16436573D01*
X175476Y-16188954D02*
X194524Y-16188954D01*
X213571Y-16198478D01*
X223095Y-16208002D01*
X232619Y-16227049D01*
X242143Y-16265145D01*
X242143Y-16312764D01*
X232619Y-16350859D01*
X223095Y-16369907D01*
X213571Y-16379430D01*
X194524Y-16388954D01*
X175476Y-16388954D01*
X156429Y-16379430D01*
X146905Y-16369907D01*
X137381Y-16350859D01*
X127857Y-16312764D01*
X127857Y-16265145D01*
X137381Y-16227049D01*
X146905Y-16208002D01*
X156429Y-16198478D01*
X175476Y-16188954D01*
X327857Y-16369907D02*
X337381Y-16379430D01*
X327857Y-16388954D01*
X318333Y-16379430D01*
X327857Y-16369907D01*
X327857Y-16388954D01*
X461190Y-16188954D02*
X480238Y-16188954D01*
X499286Y-16198478D01*
X508809Y-16208002D01*
X518333Y-16227049D01*
X527857Y-16265145D01*
X527857Y-16312764D01*
X518333Y-16350859D01*
X508809Y-16369907D01*
X499286Y-16379430D01*
X480238Y-16388954D01*
X461190Y-16388954D01*
X442143Y-16379430D01*
X432619Y-16369907D01*
X423095Y-16350859D01*
X413571Y-16312764D01*
X413571Y-16265145D01*
X423095Y-16227049D01*
X432619Y-16208002D01*
X442143Y-16198478D01*
X461190Y-16188954D01*
X708809Y-16188954D02*
X613571Y-16188954D01*
X604048Y-16284192D01*
X613571Y-16274668D01*
X632619Y-16265145D01*
X680238Y-16265145D01*
X699286Y-16274668D01*
X708809Y-16284192D01*
X718333Y-16303240D01*
X718333Y-16350859D01*
X708809Y-16369907D01*
X699286Y-16379430D01*
X680238Y-16388954D01*
X632619Y-16388954D01*
X613571Y-16379430D01*
X604048Y-16369907D01*
X813571Y-16388954D02*
X851667Y-16388954D01*
X870714Y-16379430D01*
X880238Y-16369907D01*
X899286Y-16341335D01*
X908809Y-16303240D01*
X908809Y-16227049D01*
X899286Y-16208002D01*
X889762Y-16198478D01*
X870714Y-16188954D01*
X832619Y-16188954D01*
X813571Y-16198478D01*
X804048Y-16208002D01*
X794524Y-16227049D01*
X794524Y-16274668D01*
X804048Y-16293716D01*
X813571Y-16303240D01*
X832619Y-16312764D01*
X870714Y-16312764D01*
X889762Y-16303240D01*
X899286Y-16293716D01*
X908809Y-16274668D01*
X1099286Y-16388954D02*
X985000Y-16388954D01*
X1042143Y-16388954D02*
X1042143Y-16188954D01*
X1023095Y-16217526D01*
X1004048Y-16236573D01*
X985000Y-16246097D01*
X1175476Y-16188954D02*
X1175476Y-16227049D01*
X1251667Y-16188954D02*
X1251667Y-16227049D01*
X1546905Y-16465145D02*
X1537381Y-16455621D01*
X1518333Y-16427049D01*
X1508809Y-16408002D01*
X1499286Y-16379430D01*
X1489762Y-16331811D01*
X1489762Y-16293716D01*
X1499286Y-16246097D01*
X1508809Y-16217526D01*
X1518333Y-16198478D01*
X1537381Y-16169907D01*
X1546905Y-16160383D01*
X1613571Y-16208002D02*
X1623095Y-16198478D01*
X1642143Y-16188954D01*
X1689762Y-16188954D01*
X1708809Y-16198478D01*
X1718333Y-16208002D01*
X1727857Y-16227049D01*
X1727857Y-16246097D01*
X1718333Y-16274668D01*
X1604048Y-16388954D01*
X1727857Y-16388954D01*
X1965952Y-16388954D02*
X1965952Y-16188954D01*
X2051667Y-16388954D02*
X2051667Y-16284192D01*
X2042143Y-16265145D01*
X2023095Y-16255621D01*
X1994524Y-16255621D01*
X1975476Y-16265145D01*
X1965952Y-16274668D01*
X2175476Y-16388954D02*
X2156429Y-16379430D01*
X2146905Y-16369907D01*
X2137381Y-16350859D01*
X2137381Y-16293716D01*
X2146905Y-16274668D01*
X2156429Y-16265145D01*
X2175476Y-16255621D01*
X2204048Y-16255621D01*
X2223095Y-16265145D01*
X2232619Y-16274668D01*
X2242143Y-16293716D01*
X2242143Y-16350859D01*
X2232619Y-16369907D01*
X2223095Y-16379430D01*
X2204048Y-16388954D01*
X2175476Y-16388954D01*
X2356429Y-16388954D02*
X2337381Y-16379430D01*
X2327857Y-16360383D01*
X2327857Y-16188954D01*
X2508810Y-16379430D02*
X2489762Y-16388954D01*
X2451667Y-16388954D01*
X2432619Y-16379430D01*
X2423095Y-16360383D01*
X2423095Y-16284192D01*
X2432619Y-16265145D01*
X2451667Y-16255621D01*
X2489762Y-16255621D01*
X2508810Y-16265145D01*
X2518333Y-16284192D01*
X2518333Y-16303240D01*
X2423095Y-16322288D01*
X2594524Y-16379430D02*
X2613571Y-16388954D01*
X2651667Y-16388954D01*
X2670714Y-16379430D01*
X2680238Y-16360383D01*
X2680238Y-16350859D01*
X2670714Y-16331811D01*
X2651667Y-16322288D01*
X2623095Y-16322288D01*
X2604048Y-16312764D01*
X2594524Y-16293716D01*
X2594524Y-16284192D01*
X2604048Y-16265145D01*
X2623095Y-16255621D01*
X2651667Y-16255621D01*
X2670714Y-16265145D01*
X2746905Y-16465145D02*
X2756429Y-16455621D01*
X2775476Y-16427049D01*
X2785000Y-16408002D01*
X2794524Y-16379430D01*
X2804048Y-16331811D01*
X2804048Y-16293716D01*
X2794524Y-16246097D01*
X2785000Y-16217526D01*
X2775476Y-16198478D01*
X2756429Y-16169907D01*
X2746905Y-16160383D01*
M02*
