%TF.GenerationSoftware,KiCad,Pcbnew,(5.99.0-12118-g897269f33f)*%
%TF.CreationDate,2021-10-27T19:42:23-04:00*%
%TF.ProjectId,latte,6c617474-652e-46b6-9963-61645f706362,rev?*%
%TF.SameCoordinates,Original*%
%TF.FileFunction,Soldermask,Top*%
%TF.FilePolarity,Negative*%
%FSLAX46Y46*%
G04 Gerber Fmt 4.6, Leading zero omitted, Abs format (unit mm)*
G04 Created by KiCad (PCBNEW (5.99.0-12118-g897269f33f)) date 2021-10-27 19:42:23*
%MOMM*%
%LPD*%
G01*
G04 APERTURE LIST*
%ADD10C,0.010000*%
%ADD11C,1.750000*%
%ADD12C,3.987800*%
%ADD13C,3.048000*%
%ADD14C,2.200000*%
G04 APERTURE END LIST*
D10*
%TO.C,G\u002A\u002A\u002A*%
X324856756Y-123566115D02*
X324810834Y-123783866D01*
X324810834Y-123783866D02*
X324731281Y-123983043D01*
X324731281Y-123983043D02*
X324619973Y-124161387D01*
X324619973Y-124161387D02*
X324478786Y-124316644D01*
X324478786Y-124316644D02*
X324309596Y-124446555D01*
X324309596Y-124446555D02*
X324114277Y-124548863D01*
X324114277Y-124548863D02*
X324006307Y-124589324D01*
X324006307Y-124589324D02*
X323981247Y-124596734D01*
X323981247Y-124596734D02*
X323952380Y-124603086D01*
X323952380Y-124603086D02*
X323916538Y-124608481D01*
X323916538Y-124608481D02*
X323870556Y-124613023D01*
X323870556Y-124613023D02*
X323811265Y-124616816D01*
X323811265Y-124616816D02*
X323735499Y-124619963D01*
X323735499Y-124619963D02*
X323640092Y-124622567D01*
X323640092Y-124622567D02*
X323521875Y-124624732D01*
X323521875Y-124624732D02*
X323377683Y-124626561D01*
X323377683Y-124626561D02*
X323204348Y-124628158D01*
X323204348Y-124628158D02*
X322998704Y-124629625D01*
X322998704Y-124629625D02*
X322757583Y-124631068D01*
X322757583Y-124631068D02*
X322721654Y-124631269D01*
X322721654Y-124631269D02*
X321544461Y-124637817D01*
X321544461Y-124637817D02*
X321544461Y-124546844D01*
X321544461Y-124546844D02*
X321562659Y-124383030D01*
X321562659Y-124383030D02*
X321614325Y-124216226D01*
X321614325Y-124216226D02*
X321695065Y-124053118D01*
X321695065Y-124053118D02*
X321800488Y-123900390D01*
X321800488Y-123900390D02*
X321926201Y-123764727D01*
X321926201Y-123764727D02*
X322067812Y-123652817D01*
X322067812Y-123652817D02*
X322170597Y-123593866D01*
X322170597Y-123593866D02*
X322224055Y-123567871D01*
X322224055Y-123567871D02*
X322272240Y-123545584D01*
X322272240Y-123545584D02*
X322318520Y-123526721D01*
X322318520Y-123526721D02*
X322366266Y-123510995D01*
X322366266Y-123510995D02*
X322418846Y-123498122D01*
X322418846Y-123498122D02*
X322479631Y-123487816D01*
X322479631Y-123487816D02*
X322551989Y-123479792D01*
X322551989Y-123479792D02*
X322639290Y-123473764D01*
X322639290Y-123473764D02*
X322744904Y-123469447D01*
X322744904Y-123469447D02*
X322872199Y-123466555D01*
X322872199Y-123466555D02*
X323024546Y-123464804D01*
X323024546Y-123464804D02*
X323205314Y-123463908D01*
X323205314Y-123463908D02*
X323417873Y-123463581D01*
X323417873Y-123463581D02*
X323665591Y-123463538D01*
X323665591Y-123463538D02*
X324869667Y-123463538D01*
X324869667Y-123463538D02*
X324856756Y-123566115D01*
X324856756Y-123566115D02*
X324856756Y-123566115D01*
G36*
X324856756Y-123566115D02*
G01*
X324810834Y-123783866D01*
X324731281Y-123983043D01*
X324619973Y-124161387D01*
X324478786Y-124316644D01*
X324309596Y-124446555D01*
X324114277Y-124548863D01*
X324006307Y-124589324D01*
X323981247Y-124596734D01*
X323952380Y-124603086D01*
X323916538Y-124608481D01*
X323870556Y-124613023D01*
X323811265Y-124616816D01*
X323735499Y-124619963D01*
X323640092Y-124622567D01*
X323521875Y-124624732D01*
X323377683Y-124626561D01*
X323204348Y-124628158D01*
X322998704Y-124629625D01*
X322757583Y-124631068D01*
X322721654Y-124631269D01*
X321544461Y-124637817D01*
X321544461Y-124546844D01*
X321562659Y-124383030D01*
X321614325Y-124216226D01*
X321695065Y-124053118D01*
X321800488Y-123900390D01*
X321926201Y-123764727D01*
X322067812Y-123652817D01*
X322170597Y-123593866D01*
X322224055Y-123567871D01*
X322272240Y-123545584D01*
X322318520Y-123526721D01*
X322366266Y-123510995D01*
X322418846Y-123498122D01*
X322479631Y-123487816D01*
X322551989Y-123479792D01*
X322639290Y-123473764D01*
X322744904Y-123469447D01*
X322872199Y-123466555D01*
X323024546Y-123464804D01*
X323205314Y-123463908D01*
X323417873Y-123463581D01*
X323665591Y-123463538D01*
X324869667Y-123463538D01*
X324856756Y-123566115D01*
G37*
X324856756Y-123566115D02*
X324810834Y-123783866D01*
X324731281Y-123983043D01*
X324619973Y-124161387D01*
X324478786Y-124316644D01*
X324309596Y-124446555D01*
X324114277Y-124548863D01*
X324006307Y-124589324D01*
X323981247Y-124596734D01*
X323952380Y-124603086D01*
X323916538Y-124608481D01*
X323870556Y-124613023D01*
X323811265Y-124616816D01*
X323735499Y-124619963D01*
X323640092Y-124622567D01*
X323521875Y-124624732D01*
X323377683Y-124626561D01*
X323204348Y-124628158D01*
X322998704Y-124629625D01*
X322757583Y-124631068D01*
X322721654Y-124631269D01*
X321544461Y-124637817D01*
X321544461Y-124546844D01*
X321562659Y-124383030D01*
X321614325Y-124216226D01*
X321695065Y-124053118D01*
X321800488Y-123900390D01*
X321926201Y-123764727D01*
X322067812Y-123652817D01*
X322170597Y-123593866D01*
X322224055Y-123567871D01*
X322272240Y-123545584D01*
X322318520Y-123526721D01*
X322366266Y-123510995D01*
X322418846Y-123498122D01*
X322479631Y-123487816D01*
X322551989Y-123479792D01*
X322639290Y-123473764D01*
X322744904Y-123469447D01*
X322872199Y-123466555D01*
X323024546Y-123464804D01*
X323205314Y-123463908D01*
X323417873Y-123463581D01*
X323665591Y-123463538D01*
X324869667Y-123463538D01*
X324856756Y-123566115D01*
X318398769Y-121099384D02*
X318887230Y-121099384D01*
X318887230Y-121099384D02*
X318887230Y-122271692D01*
X318887230Y-122271692D02*
X317226577Y-122271692D01*
X317226577Y-122271692D02*
X317221634Y-119042961D01*
X317221634Y-119042961D02*
X317216692Y-115814230D01*
X317216692Y-115814230D02*
X316738000Y-115803258D01*
X316738000Y-115803258D02*
X316738000Y-114632154D01*
X316738000Y-114632154D02*
X318398769Y-114632154D01*
X318398769Y-114632154D02*
X318398769Y-121099384D01*
X318398769Y-121099384D02*
X318398769Y-121099384D01*
G36*
X318398769Y-121099384D02*
G01*
X318887230Y-121099384D01*
X318887230Y-122271692D01*
X317226577Y-122271692D01*
X317221634Y-119042961D01*
X317216692Y-115814230D01*
X316738000Y-115803258D01*
X316738000Y-114632154D01*
X318398769Y-114632154D01*
X318398769Y-121099384D01*
G37*
X318398769Y-121099384D02*
X318887230Y-121099384D01*
X318887230Y-122271692D01*
X317226577Y-122271692D01*
X317221634Y-119042961D01*
X317216692Y-115814230D01*
X316738000Y-115803258D01*
X316738000Y-114632154D01*
X318398769Y-114632154D01*
X318398769Y-121099384D01*
X322283030Y-116793728D02*
X322466176Y-116806345D01*
X322466176Y-116806345D02*
X322628837Y-116828150D01*
X322628837Y-116828150D02*
X322676845Y-116837533D01*
X322676845Y-116837533D02*
X322991173Y-116922754D01*
X322991173Y-116922754D02*
X323283351Y-117039147D01*
X323283351Y-117039147D02*
X323556387Y-117188357D01*
X323556387Y-117188357D02*
X323813292Y-117372028D01*
X323813292Y-117372028D02*
X324056328Y-117591056D01*
X324056328Y-117591056D02*
X324275685Y-117835053D01*
X324275685Y-117835053D02*
X324459277Y-118093355D01*
X324459277Y-118093355D02*
X324608446Y-118368494D01*
X324608446Y-118368494D02*
X324724533Y-118662998D01*
X324724533Y-118662998D02*
X324808881Y-118979398D01*
X324808881Y-118979398D02*
X324818763Y-119028307D01*
X324818763Y-119028307D02*
X324840672Y-119182859D01*
X324840672Y-119182859D02*
X324852919Y-119362196D01*
X324852919Y-119362196D02*
X324855609Y-119553506D01*
X324855609Y-119553506D02*
X324848846Y-119743981D01*
X324848846Y-119743981D02*
X324832737Y-119920809D01*
X324832737Y-119920809D02*
X324810322Y-120057758D01*
X324810322Y-120057758D02*
X324722777Y-120379274D01*
X324722777Y-120379274D02*
X324601109Y-120683279D01*
X324601109Y-120683279D02*
X324446836Y-120967758D01*
X324446836Y-120967758D02*
X324261475Y-121230698D01*
X324261475Y-121230698D02*
X324046543Y-121470083D01*
X324046543Y-121470083D02*
X323803557Y-121683901D01*
X323803557Y-121683901D02*
X323534035Y-121870136D01*
X323534035Y-121870136D02*
X323378576Y-121958220D01*
X323378576Y-121958220D02*
X323189549Y-122046470D01*
X323189549Y-122046470D02*
X322980656Y-122124797D01*
X322980656Y-122124797D02*
X322769212Y-122187267D01*
X322769212Y-122187267D02*
X322609307Y-122221931D01*
X322609307Y-122221931D02*
X322472697Y-122240803D01*
X322472697Y-122240803D02*
X322317024Y-122254152D01*
X322317024Y-122254152D02*
X322155274Y-122261492D01*
X322155274Y-122261492D02*
X322000434Y-122262340D01*
X322000434Y-122262340D02*
X321865488Y-122256211D01*
X321865488Y-122256211D02*
X321818000Y-122251456D01*
X321818000Y-122251456D02*
X321490812Y-122192595D01*
X321490812Y-122192595D02*
X321179754Y-122099106D01*
X321179754Y-122099106D02*
X320886710Y-121972746D01*
X320886710Y-121972746D02*
X320613565Y-121815275D01*
X320613565Y-121815275D02*
X320362201Y-121628451D01*
X320362201Y-121628451D02*
X320134502Y-121414034D01*
X320134502Y-121414034D02*
X319932353Y-121173780D01*
X319932353Y-121173780D02*
X319757635Y-120909450D01*
X319757635Y-120909450D02*
X319612235Y-120622802D01*
X319612235Y-120622802D02*
X319498034Y-120315593D01*
X319498034Y-120315593D02*
X319421740Y-120014291D01*
X319421740Y-120014291D02*
X319400627Y-119868525D01*
X319400627Y-119868525D02*
X319388608Y-119697181D01*
X319388608Y-119697181D02*
X319385570Y-119512656D01*
X319385570Y-119512656D02*
X319385747Y-119507000D01*
X319385747Y-119507000D02*
X320560871Y-119507000D01*
X320560871Y-119507000D02*
X320576869Y-119761527D01*
X320576869Y-119761527D02*
X320628434Y-120000305D01*
X320628434Y-120000305D02*
X320715284Y-120222666D01*
X320715284Y-120222666D02*
X320837136Y-120427941D01*
X320837136Y-120427941D02*
X320993706Y-120615464D01*
X320993706Y-120615464D02*
X321056110Y-120676274D01*
X321056110Y-120676274D02*
X321245129Y-120825236D01*
X321245129Y-120825236D02*
X321453621Y-120942057D01*
X321453621Y-120942057D02*
X321677281Y-121025606D01*
X321677281Y-121025606D02*
X321911805Y-121074752D01*
X321911805Y-121074752D02*
X322152890Y-121088366D01*
X322152890Y-121088366D02*
X322396232Y-121065316D01*
X322396232Y-121065316D02*
X322476715Y-121049378D01*
X322476715Y-121049378D02*
X322705327Y-120978545D01*
X322705327Y-120978545D02*
X322917741Y-120873794D01*
X322917741Y-120873794D02*
X323110938Y-120737992D01*
X323110938Y-120737992D02*
X323281900Y-120574009D01*
X323281900Y-120574009D02*
X323427607Y-120384713D01*
X323427607Y-120384713D02*
X323545042Y-120172972D01*
X323545042Y-120172972D02*
X323626851Y-119956384D01*
X323626851Y-119956384D02*
X323650069Y-119873111D01*
X323650069Y-119873111D02*
X323665481Y-119799581D01*
X323665481Y-119799581D02*
X323674649Y-119723266D01*
X323674649Y-119723266D02*
X323679136Y-119631639D01*
X323679136Y-119631639D02*
X323680459Y-119526538D01*
X323680459Y-119526538D02*
X323670325Y-119305303D01*
X323670325Y-119305303D02*
X323636406Y-119107809D01*
X323636406Y-119107809D02*
X323576095Y-118924959D01*
X323576095Y-118924959D02*
X323486785Y-118747652D01*
X323486785Y-118747652D02*
X323432589Y-118661452D01*
X323432589Y-118661452D02*
X323283045Y-118469488D01*
X323283045Y-118469488D02*
X323113402Y-118308466D01*
X323113402Y-118308466D02*
X322927152Y-118178172D01*
X322927152Y-118178172D02*
X322727785Y-118078393D01*
X322727785Y-118078393D02*
X322518792Y-118008918D01*
X322518792Y-118008918D02*
X322303664Y-117969532D01*
X322303664Y-117969532D02*
X322085891Y-117960024D01*
X322085891Y-117960024D02*
X321868965Y-117980180D01*
X321868965Y-117980180D02*
X321656377Y-118029789D01*
X321656377Y-118029789D02*
X321451616Y-118108637D01*
X321451616Y-118108637D02*
X321258175Y-118216512D01*
X321258175Y-118216512D02*
X321079544Y-118353200D01*
X321079544Y-118353200D02*
X320919213Y-118518490D01*
X320919213Y-118518490D02*
X320780675Y-118712168D01*
X320780675Y-118712168D02*
X320716945Y-118826915D01*
X320716945Y-118826915D02*
X320632234Y-119032785D01*
X320632234Y-119032785D02*
X320580722Y-119251249D01*
X320580722Y-119251249D02*
X320561096Y-119488021D01*
X320561096Y-119488021D02*
X320560871Y-119507000D01*
X320560871Y-119507000D02*
X319385747Y-119507000D01*
X319385747Y-119507000D02*
X319391399Y-119327348D01*
X319391399Y-119327348D02*
X319405983Y-119153656D01*
X319405983Y-119153656D02*
X319429208Y-119003977D01*
X319429208Y-119003977D02*
X319431026Y-118995318D01*
X319431026Y-118995318D02*
X319519609Y-118670498D01*
X319519609Y-118670498D02*
X319641244Y-118365293D01*
X319641244Y-118365293D02*
X319794273Y-118081372D01*
X319794273Y-118081372D02*
X319977035Y-117820403D01*
X319977035Y-117820403D02*
X320187873Y-117584052D01*
X320187873Y-117584052D02*
X320425127Y-117373989D01*
X320425127Y-117373989D02*
X320687137Y-117191882D01*
X320687137Y-117191882D02*
X320972246Y-117039397D01*
X320972246Y-117039397D02*
X321278793Y-116918203D01*
X321278793Y-116918203D02*
X321579363Y-116835546D01*
X321579363Y-116835546D02*
X321727566Y-116811205D01*
X321727566Y-116811205D02*
X321902037Y-116796136D01*
X321902037Y-116796136D02*
X322091087Y-116790317D01*
X322091087Y-116790317D02*
X322283030Y-116793728D01*
X322283030Y-116793728D02*
X322283030Y-116793728D01*
G36*
X319405983Y-119153656D02*
G01*
X319429208Y-119003977D01*
X319431026Y-118995318D01*
X319519609Y-118670498D01*
X319641244Y-118365293D01*
X319794273Y-118081372D01*
X319977035Y-117820403D01*
X320187873Y-117584052D01*
X320425127Y-117373989D01*
X320687137Y-117191882D01*
X320972246Y-117039397D01*
X321278793Y-116918203D01*
X321579363Y-116835546D01*
X321727566Y-116811205D01*
X321902037Y-116796136D01*
X322091087Y-116790317D01*
X322283030Y-116793728D01*
X322466176Y-116806345D01*
X322628837Y-116828150D01*
X322676845Y-116837533D01*
X322991173Y-116922754D01*
X323283351Y-117039147D01*
X323556387Y-117188357D01*
X323813292Y-117372028D01*
X324056328Y-117591056D01*
X324275685Y-117835053D01*
X324459277Y-118093355D01*
X324608446Y-118368494D01*
X324724533Y-118662998D01*
X324808881Y-118979398D01*
X324818763Y-119028307D01*
X324840672Y-119182859D01*
X324852919Y-119362196D01*
X324855609Y-119553506D01*
X324848846Y-119743981D01*
X324832737Y-119920809D01*
X324810322Y-120057758D01*
X324722777Y-120379274D01*
X324601109Y-120683279D01*
X324446836Y-120967758D01*
X324261475Y-121230698D01*
X324046543Y-121470083D01*
X323803557Y-121683901D01*
X323534035Y-121870136D01*
X323378576Y-121958220D01*
X323189549Y-122046470D01*
X322980656Y-122124797D01*
X322769212Y-122187267D01*
X322609307Y-122221931D01*
X322472697Y-122240803D01*
X322317024Y-122254152D01*
X322155274Y-122261492D01*
X322000434Y-122262340D01*
X321865488Y-122256211D01*
X321818000Y-122251456D01*
X321490812Y-122192595D01*
X321179754Y-122099106D01*
X320886710Y-121972746D01*
X320613565Y-121815275D01*
X320362201Y-121628451D01*
X320134502Y-121414034D01*
X319932353Y-121173780D01*
X319757635Y-120909450D01*
X319612235Y-120622802D01*
X319498034Y-120315593D01*
X319421740Y-120014291D01*
X319400627Y-119868525D01*
X319388608Y-119697181D01*
X319385570Y-119512656D01*
X319385747Y-119507000D01*
X320560871Y-119507000D01*
X320576869Y-119761527D01*
X320628434Y-120000305D01*
X320715284Y-120222666D01*
X320837136Y-120427941D01*
X320993706Y-120615464D01*
X321056110Y-120676274D01*
X321245129Y-120825236D01*
X321453621Y-120942057D01*
X321677281Y-121025606D01*
X321911805Y-121074752D01*
X322152890Y-121088366D01*
X322396232Y-121065316D01*
X322476715Y-121049378D01*
X322705327Y-120978545D01*
X322917741Y-120873794D01*
X323110938Y-120737992D01*
X323281900Y-120574009D01*
X323427607Y-120384713D01*
X323545042Y-120172972D01*
X323626851Y-119956384D01*
X323650069Y-119873111D01*
X323665481Y-119799581D01*
X323674649Y-119723266D01*
X323679136Y-119631639D01*
X323680459Y-119526538D01*
X323670325Y-119305303D01*
X323636406Y-119107809D01*
X323576095Y-118924959D01*
X323486785Y-118747652D01*
X323432589Y-118661452D01*
X323283045Y-118469488D01*
X323113402Y-118308466D01*
X322927152Y-118178172D01*
X322727785Y-118078393D01*
X322518792Y-118008918D01*
X322303664Y-117969532D01*
X322085891Y-117960024D01*
X321868965Y-117980180D01*
X321656377Y-118029789D01*
X321451616Y-118108637D01*
X321258175Y-118216512D01*
X321079544Y-118353200D01*
X320919213Y-118518490D01*
X320780675Y-118712168D01*
X320716945Y-118826915D01*
X320632234Y-119032785D01*
X320580722Y-119251249D01*
X320561096Y-119488021D01*
X320560871Y-119507000D01*
X319385747Y-119507000D01*
X319391399Y-119327348D01*
X319405983Y-119153656D01*
G37*
X319405983Y-119153656D02*
X319429208Y-119003977D01*
X319431026Y-118995318D01*
X319519609Y-118670498D01*
X319641244Y-118365293D01*
X319794273Y-118081372D01*
X319977035Y-117820403D01*
X320187873Y-117584052D01*
X320425127Y-117373989D01*
X320687137Y-117191882D01*
X320972246Y-117039397D01*
X321278793Y-116918203D01*
X321579363Y-116835546D01*
X321727566Y-116811205D01*
X321902037Y-116796136D01*
X322091087Y-116790317D01*
X322283030Y-116793728D01*
X322466176Y-116806345D01*
X322628837Y-116828150D01*
X322676845Y-116837533D01*
X322991173Y-116922754D01*
X323283351Y-117039147D01*
X323556387Y-117188357D01*
X323813292Y-117372028D01*
X324056328Y-117591056D01*
X324275685Y-117835053D01*
X324459277Y-118093355D01*
X324608446Y-118368494D01*
X324724533Y-118662998D01*
X324808881Y-118979398D01*
X324818763Y-119028307D01*
X324840672Y-119182859D01*
X324852919Y-119362196D01*
X324855609Y-119553506D01*
X324848846Y-119743981D01*
X324832737Y-119920809D01*
X324810322Y-120057758D01*
X324722777Y-120379274D01*
X324601109Y-120683279D01*
X324446836Y-120967758D01*
X324261475Y-121230698D01*
X324046543Y-121470083D01*
X323803557Y-121683901D01*
X323534035Y-121870136D01*
X323378576Y-121958220D01*
X323189549Y-122046470D01*
X322980656Y-122124797D01*
X322769212Y-122187267D01*
X322609307Y-122221931D01*
X322472697Y-122240803D01*
X322317024Y-122254152D01*
X322155274Y-122261492D01*
X322000434Y-122262340D01*
X321865488Y-122256211D01*
X321818000Y-122251456D01*
X321490812Y-122192595D01*
X321179754Y-122099106D01*
X320886710Y-121972746D01*
X320613565Y-121815275D01*
X320362201Y-121628451D01*
X320134502Y-121414034D01*
X319932353Y-121173780D01*
X319757635Y-120909450D01*
X319612235Y-120622802D01*
X319498034Y-120315593D01*
X319421740Y-120014291D01*
X319400627Y-119868525D01*
X319388608Y-119697181D01*
X319385570Y-119512656D01*
X319385747Y-119507000D01*
X320560871Y-119507000D01*
X320576869Y-119761527D01*
X320628434Y-120000305D01*
X320715284Y-120222666D01*
X320837136Y-120427941D01*
X320993706Y-120615464D01*
X321056110Y-120676274D01*
X321245129Y-120825236D01*
X321453621Y-120942057D01*
X321677281Y-121025606D01*
X321911805Y-121074752D01*
X322152890Y-121088366D01*
X322396232Y-121065316D01*
X322476715Y-121049378D01*
X322705327Y-120978545D01*
X322917741Y-120873794D01*
X323110938Y-120737992D01*
X323281900Y-120574009D01*
X323427607Y-120384713D01*
X323545042Y-120172972D01*
X323626851Y-119956384D01*
X323650069Y-119873111D01*
X323665481Y-119799581D01*
X323674649Y-119723266D01*
X323679136Y-119631639D01*
X323680459Y-119526538D01*
X323670325Y-119305303D01*
X323636406Y-119107809D01*
X323576095Y-118924959D01*
X323486785Y-118747652D01*
X323432589Y-118661452D01*
X323283045Y-118469488D01*
X323113402Y-118308466D01*
X322927152Y-118178172D01*
X322727785Y-118078393D01*
X322518792Y-118008918D01*
X322303664Y-117969532D01*
X322085891Y-117960024D01*
X321868965Y-117980180D01*
X321656377Y-118029789D01*
X321451616Y-118108637D01*
X321258175Y-118216512D01*
X321079544Y-118353200D01*
X320919213Y-118518490D01*
X320780675Y-118712168D01*
X320716945Y-118826915D01*
X320632234Y-119032785D01*
X320580722Y-119251249D01*
X320561096Y-119488021D01*
X320560871Y-119507000D01*
X319385747Y-119507000D01*
X319391399Y-119327348D01*
X319405983Y-119153656D01*
%TD*%
D11*
%TO.C,MX19*%
X23155000Y-82075000D03*
X12995000Y-82075000D03*
D12*
X18075000Y-82075000D03*
%TD*%
D11*
%TO.C,MX46*%
X56455000Y-120175000D03*
X46295000Y-120175000D03*
D12*
X51375000Y-120175000D03*
%TD*%
D11*
%TO.C,MX56*%
X304130000Y-120125000D03*
X293970000Y-120125000D03*
D12*
X299050000Y-120125000D03*
%TD*%
D11*
%TO.C,MX23*%
X99355000Y-82075000D03*
X89195000Y-82075000D03*
D12*
X94275000Y-82075000D03*
%TD*%
D11*
%TO.C,MX55*%
X261255000Y-120150000D03*
X251095000Y-120150000D03*
D12*
X256175000Y-120150000D03*
%TD*%
D11*
%TO.C,MX18*%
X323180000Y-62975000D03*
X313020000Y-62975000D03*
D12*
X318100000Y-62975000D03*
%TD*%
%TO.C,2.25u1*%
X256206250Y-109355000D03*
X232393750Y-109355000D03*
D13*
X256206250Y-94115000D03*
X232393750Y-94115000D03*
D11*
X249380000Y-101100000D03*
X239220000Y-101100000D03*
D12*
X244300000Y-101100000D03*
%TD*%
D11*
%TO.C,MX25*%
X137455000Y-82075000D03*
X127295000Y-82075000D03*
D12*
X132375000Y-82075000D03*
%TD*%
D11*
%TO.C,MX37*%
X85055000Y-101125000D03*
X74895000Y-101125000D03*
D12*
X79975000Y-101125000D03*
%TD*%
D11*
%TO.C,1.5u4*%
X46930000Y-139225000D03*
X36770000Y-139225000D03*
D12*
X41850000Y-139225000D03*
%TD*%
%TO.C,2.75u1*%
X251406250Y-128405000D03*
X227593750Y-128405000D03*
D13*
X251406250Y-113165000D03*
X227593750Y-113165000D03*
D11*
X244580000Y-120150000D03*
X234420000Y-120150000D03*
D12*
X239500000Y-120150000D03*
%TD*%
D11*
%TO.C,MX41*%
X161280000Y-101125000D03*
X151120000Y-101125000D03*
D12*
X156200000Y-101125000D03*
%TD*%
D11*
%TO.C,MX51*%
X151705000Y-120175000D03*
X141545000Y-120175000D03*
D12*
X146625000Y-120175000D03*
%TD*%
D11*
%TO.C,MX49*%
X113605000Y-120175000D03*
X103445000Y-120175000D03*
D12*
X108525000Y-120175000D03*
%TD*%
D11*
%TO.C,MX1*%
X-5420000Y-63025000D03*
X-15580000Y-63025000D03*
D12*
X-10500000Y-63025000D03*
%TD*%
D11*
%TO.C,MX2*%
X13630000Y-63025000D03*
X3470000Y-63025000D03*
D12*
X8550000Y-63025000D03*
%TD*%
D11*
%TO.C,MX3*%
X32680000Y-63025000D03*
X22520000Y-63025000D03*
D12*
X27600000Y-63025000D03*
%TD*%
D11*
%TO.C,1.5u1*%
X-670000Y-82075000D03*
X-10830000Y-82075000D03*
D12*
X-5750000Y-82075000D03*
%TD*%
D11*
%TO.C,MX33*%
X323180000Y-82025000D03*
X313020000Y-82025000D03*
D12*
X318100000Y-82025000D03*
%TD*%
D11*
%TO.C,MX54*%
X208855000Y-120175000D03*
X198695000Y-120175000D03*
D12*
X203775000Y-120175000D03*
%TD*%
D11*
%TO.C,MX8*%
X127930000Y-63025000D03*
X117770000Y-63025000D03*
D12*
X122850000Y-63025000D03*
%TD*%
%TO.C,10u1*%
X56137500Y-130970000D03*
D13*
X189487500Y-146210000D03*
D12*
X189487500Y-130970000D03*
D13*
X56137500Y-146210000D03*
%TD*%
D11*
%TO.C,MX9*%
X146980000Y-63025000D03*
X136820000Y-63025000D03*
D12*
X141900000Y-63025000D03*
%TD*%
D11*
%TO.C,MX11*%
X185080000Y-63025000D03*
X174920000Y-63025000D03*
D12*
X180000000Y-63025000D03*
%TD*%
D11*
%TO.C,MX35*%
X46955000Y-101125000D03*
X36795000Y-101125000D03*
D12*
X41875000Y-101125000D03*
%TD*%
D11*
%TO.C,MX14*%
X242230000Y-63000000D03*
X232070000Y-63000000D03*
D12*
X237150000Y-63000000D03*
%TD*%
D11*
%TO.C,1.75u2*%
X235055000Y-120150000D03*
X224895000Y-120150000D03*
D12*
X229975000Y-120150000D03*
%TD*%
D11*
%TO.C,MX38*%
X104105000Y-101125000D03*
X93945000Y-101125000D03*
D12*
X99025000Y-101125000D03*
%TD*%
D11*
%TO.C,MX30*%
X232705000Y-82050000D03*
X222545000Y-82050000D03*
D12*
X227625000Y-82050000D03*
%TD*%
%TO.C,1.75u1*%
X-3375000Y-101125000D03*
D11*
X-8455000Y-101125000D03*
X1705000Y-101125000D03*
%TD*%
%TO.C,MX48*%
X94555000Y-120175000D03*
X84395000Y-120175000D03*
D12*
X89475000Y-120175000D03*
%TD*%
D11*
%TO.C,MX40*%
X142230000Y-101125000D03*
X132070000Y-101125000D03*
D12*
X137150000Y-101125000D03*
%TD*%
D11*
%TO.C,MX57*%
X285080000Y-139175000D03*
X274920000Y-139175000D03*
D12*
X280000000Y-139175000D03*
%TD*%
D11*
%TO.C,MX20*%
X42205000Y-82075000D03*
X32045000Y-82075000D03*
D12*
X37125000Y-82075000D03*
%TD*%
D11*
%TO.C,MX59*%
X323180000Y-139175000D03*
X313020000Y-139175000D03*
D12*
X318100000Y-139175000D03*
%TD*%
%TO.C,2.25u2*%
X13281250Y-128430000D03*
X-10531250Y-128430000D03*
D13*
X13281250Y-113190000D03*
X-10531250Y-113190000D03*
D11*
X6455000Y-120175000D03*
X-3705000Y-120175000D03*
D12*
X1375000Y-120175000D03*
%TD*%
D11*
%TO.C,MX24*%
X118405000Y-82075000D03*
X108245000Y-82075000D03*
D12*
X113325000Y-82075000D03*
%TD*%
D11*
%TO.C,MX15*%
X261280000Y-62975000D03*
X251120000Y-62975000D03*
D12*
X256200000Y-62975000D03*
%TD*%
D11*
%TO.C,1.5u6*%
X256492125Y-139200000D03*
X246332125Y-139200000D03*
D12*
X251412125Y-139200000D03*
%TD*%
D11*
%TO.C,MX16*%
X285080000Y-62975000D03*
X274920000Y-62975000D03*
D12*
X280000000Y-62975000D03*
%TD*%
D11*
%TO.C,MX21*%
X61255000Y-82075000D03*
X51095000Y-82075000D03*
D12*
X56175000Y-82075000D03*
%TD*%
D11*
%TO.C,MX45*%
X37405000Y-120175000D03*
X27245000Y-120175000D03*
D12*
X32325000Y-120175000D03*
%TD*%
D11*
%TO.C,MX39*%
X123155000Y-101125000D03*
X112995000Y-101125000D03*
D12*
X118075000Y-101125000D03*
%TD*%
D11*
%TO.C,MX10*%
X166030000Y-63025000D03*
X155870000Y-63025000D03*
D12*
X160950000Y-63025000D03*
%TD*%
%TO.C,7u1*%
X179962500Y-130970000D03*
X65662500Y-130970000D03*
D13*
X179962500Y-146210000D03*
X65662500Y-146210000D03*
D11*
X127892500Y-139225000D03*
X117732500Y-139225000D03*
D12*
X122812500Y-139225000D03*
%TD*%
D11*
%TO.C,MX27*%
X175555000Y-82075000D03*
X165395000Y-82075000D03*
D12*
X170475000Y-82075000D03*
%TD*%
D11*
%TO.C,MX13*%
X223180000Y-63000000D03*
X213020000Y-63000000D03*
D12*
X218100000Y-63000000D03*
%TD*%
D11*
%TO.C,1.5u3*%
X-695000Y-139225000D03*
X-10855000Y-139225000D03*
D12*
X-5775000Y-139225000D03*
%TD*%
D11*
%TO.C,MX52*%
X170755000Y-120175000D03*
X160595000Y-120175000D03*
D12*
X165675000Y-120175000D03*
%TD*%
D11*
%TO.C,1.5u5*%
X208867125Y-139200000D03*
X198707125Y-139200000D03*
D12*
X203787125Y-139200000D03*
%TD*%
D11*
%TO.C,MX53*%
X189805000Y-120175000D03*
X179645000Y-120175000D03*
D12*
X184725000Y-120175000D03*
%TD*%
D11*
%TO.C,MX42*%
X180330000Y-101125000D03*
X170170000Y-101125000D03*
D12*
X175250000Y-101125000D03*
%TD*%
D11*
%TO.C,MX4*%
X51730000Y-63025000D03*
X41570000Y-63025000D03*
D12*
X46650000Y-63025000D03*
%TD*%
D11*
%TO.C,MX17*%
X304130000Y-62975000D03*
X293970000Y-62975000D03*
D12*
X299050000Y-62975000D03*
%TD*%
D11*
%TO.C,MX47*%
X75505000Y-120175000D03*
X65345000Y-120175000D03*
D12*
X70425000Y-120175000D03*
%TD*%
D11*
%TO.C,MX31*%
X285080000Y-82025000D03*
X274920000Y-82025000D03*
D12*
X280000000Y-82025000D03*
%TD*%
D11*
%TO.C,MX43*%
X199380000Y-101125000D03*
X189220000Y-101125000D03*
D12*
X194300000Y-101125000D03*
%TD*%
D11*
%TO.C,1.5u2*%
X256505000Y-82050000D03*
X246345000Y-82050000D03*
D12*
X251425000Y-82050000D03*
%TD*%
%TO.C,1.25u1*%
X-8150000Y-101125000D03*
D11*
X-13230000Y-101125000D03*
X-3070000Y-101125000D03*
%TD*%
%TO.C,MX12*%
X204130000Y-63000000D03*
X193970000Y-63000000D03*
D12*
X199050000Y-63000000D03*
%TD*%
D11*
%TO.C,MX34*%
X27905000Y-101125000D03*
X17745000Y-101125000D03*
D12*
X22825000Y-101125000D03*
%TD*%
D11*
%TO.C,MX44*%
X218430000Y-101100000D03*
X208270000Y-101100000D03*
D12*
X213350000Y-101100000D03*
%TD*%
D11*
%TO.C,MX22*%
X80305000Y-82075000D03*
X70145000Y-82075000D03*
D12*
X75225000Y-82075000D03*
%TD*%
D11*
%TO.C,MX50*%
X132655000Y-120175000D03*
X122495000Y-120175000D03*
D12*
X127575000Y-120175000D03*
%TD*%
D11*
%TO.C,MX32*%
X304130000Y-82025000D03*
X293970000Y-82025000D03*
D12*
X299050000Y-82025000D03*
%TD*%
D11*
%TO.C,MX26*%
X156505000Y-82075000D03*
X146345000Y-82075000D03*
D12*
X151425000Y-82075000D03*
%TD*%
D11*
%TO.C,MX5*%
X70780000Y-63025000D03*
X60620000Y-63025000D03*
D12*
X65700000Y-63025000D03*
%TD*%
%TO.C,2u1*%
X258581250Y-71230000D03*
X234768750Y-71230000D03*
D13*
X258581250Y-55990000D03*
X234768750Y-55990000D03*
D11*
X251755000Y-62975000D03*
X241595000Y-62975000D03*
D12*
X246675000Y-62975000D03*
%TD*%
D11*
%TO.C,MX29*%
X213655000Y-82050000D03*
X203495000Y-82050000D03*
D12*
X208575000Y-82050000D03*
%TD*%
D11*
%TO.C,MX58*%
X304130000Y-139175000D03*
X293970000Y-139175000D03*
D12*
X299050000Y-139175000D03*
%TD*%
D11*
%TO.C,MX28*%
X194605000Y-82075000D03*
X184445000Y-82075000D03*
D12*
X189525000Y-82075000D03*
%TD*%
D11*
%TO.C,MX6*%
X89830000Y-63025000D03*
X79670000Y-63025000D03*
D12*
X84750000Y-63025000D03*
%TD*%
D11*
%TO.C,MX36*%
X66005000Y-101125000D03*
X55845000Y-101125000D03*
D12*
X60925000Y-101125000D03*
%TD*%
D11*
%TO.C,MX7*%
X108880000Y-63025000D03*
X98720000Y-63025000D03*
D12*
X103800000Y-63025000D03*
%TD*%
D14*
%TO.C,JP1*%
X288460000Y-91525000D03*
X293540000Y-91525000D03*
%TD*%
M02*
