%TF.GenerationSoftware,KiCad,Pcbnew,(5.99.0-12118-g897269f33f)*%
%TF.CreationDate,2021-10-27T19:42:23-04:00*%
%TF.ProjectId,latte,6c617474-652e-46b6-9963-61645f706362,rev?*%
%TF.SameCoordinates,Original*%
%TF.FileFunction,Soldermask,Bot*%
%TF.FilePolarity,Negative*%
%FSLAX46Y46*%
G04 Gerber Fmt 4.6, Leading zero omitted, Abs format (unit mm)*
G04 Created by KiCad (PCBNEW (5.99.0-12118-g897269f33f)) date 2021-10-27 19:42:23*
%MOMM*%
%LPD*%
G01*
G04 APERTURE LIST*
G04 Aperture macros list*
%AMRoundRect*
0 Rectangle with rounded corners*
0 $1 Rounding radius*
0 $2 $3 $4 $5 $6 $7 $8 $9 X,Y pos of 4 corners*
0 Add a 4 corners polygon primitive as box body*
4,1,4,$2,$3,$4,$5,$6,$7,$8,$9,$2,$3,0*
0 Add four circle primitives for the rounded corners*
1,1,$1+$1,$2,$3*
1,1,$1+$1,$4,$5*
1,1,$1+$1,$6,$7*
1,1,$1+$1,$8,$9*
0 Add four rect primitives between the rounded corners*
20,1,$1+$1,$2,$3,$4,$5,0*
20,1,$1+$1,$4,$5,$6,$7,0*
20,1,$1+$1,$6,$7,$8,$9,0*
20,1,$1+$1,$8,$9,$2,$3,0*%
%AMRotRect*
0 Rectangle, with rotation*
0 The origin of the aperture is its center*
0 $1 length*
0 $2 width*
0 $3 Rotation angle, in degrees counterclockwise*
0 Add horizontal line*
21,1,$1,$2,0,0,$3*%
G04 Aperture macros list end*
%ADD10C,0.010000*%
%ADD11C,1.750000*%
%ADD12C,2.250000*%
%ADD13C,3.987800*%
%ADD14C,3.048000*%
%ADD15C,1.905000*%
%ADD16R,1.905000X1.905000*%
%ADD17R,1.200000X0.900000*%
%ADD18RoundRect,0.243750X0.494975X0.150260X0.150260X0.494975X-0.494975X-0.150260X-0.150260X-0.494975X0*%
%ADD19RoundRect,0.243750X-0.456250X0.243750X-0.456250X-0.243750X0.456250X-0.243750X0.456250X0.243750X0*%
%ADD20RoundRect,0.243750X0.456250X-0.243750X0.456250X0.243750X-0.456250X0.243750X-0.456250X-0.243750X0*%
%ADD21R,1.550000X0.600000*%
%ADD22R,1.800000X1.200000*%
%ADD23RotRect,2.100000X1.800000X315.000000*%
%ADD24RoundRect,0.243750X0.243750X0.456250X-0.243750X0.456250X-0.243750X-0.456250X0.243750X-0.456250X0*%
%ADD25RoundRect,0.062500X-0.380070X-0.291682X-0.291682X-0.380070X0.380070X0.291682X0.291682X0.380070X0*%
%ADD26RoundRect,0.062500X-0.380070X0.291682X0.291682X-0.380070X0.380070X-0.291682X-0.291682X0.380070X0*%
%ADD27RoundRect,0.250000X-3.323402X0.000000X0.000000X-3.323402X3.323402X0.000000X0.000000X3.323402X0*%
%ADD28RotRect,1.500000X0.550000X225.000000*%
%ADD29RotRect,1.500000X0.550000X315.000000*%
%ADD30RoundRect,0.243750X-0.243750X-0.456250X0.243750X-0.456250X0.243750X0.456250X-0.243750X0.456250X0*%
%ADD31RoundRect,0.243750X-0.150260X0.494975X-0.494975X0.150260X0.150260X-0.494975X0.494975X-0.150260X0*%
%ADD32RoundRect,0.243750X0.150260X-0.494975X0.494975X-0.150260X-0.150260X0.494975X-0.494975X0.150260X0*%
%ADD33C,2.200000*%
G04 APERTURE END LIST*
D10*
%TO.C,G\u002A\u002A\u002A*%
X316747244Y-123566115D02*
X316793166Y-123783866D01*
X316793166Y-123783866D02*
X316872719Y-123983043D01*
X316872719Y-123983043D02*
X316984027Y-124161387D01*
X316984027Y-124161387D02*
X317125214Y-124316644D01*
X317125214Y-124316644D02*
X317294404Y-124446555D01*
X317294404Y-124446555D02*
X317489723Y-124548863D01*
X317489723Y-124548863D02*
X317597693Y-124589324D01*
X317597693Y-124589324D02*
X317622753Y-124596734D01*
X317622753Y-124596734D02*
X317651620Y-124603086D01*
X317651620Y-124603086D02*
X317687462Y-124608481D01*
X317687462Y-124608481D02*
X317733444Y-124613023D01*
X317733444Y-124613023D02*
X317792735Y-124616816D01*
X317792735Y-124616816D02*
X317868501Y-124619963D01*
X317868501Y-124619963D02*
X317963908Y-124622567D01*
X317963908Y-124622567D02*
X318082125Y-124624732D01*
X318082125Y-124624732D02*
X318226317Y-124626561D01*
X318226317Y-124626561D02*
X318399652Y-124628158D01*
X318399652Y-124628158D02*
X318605296Y-124629625D01*
X318605296Y-124629625D02*
X318846417Y-124631068D01*
X318846417Y-124631068D02*
X318882346Y-124631269D01*
X318882346Y-124631269D02*
X320059539Y-124637817D01*
X320059539Y-124637817D02*
X320059539Y-124546844D01*
X320059539Y-124546844D02*
X320041341Y-124383030D01*
X320041341Y-124383030D02*
X319989675Y-124216226D01*
X319989675Y-124216226D02*
X319908935Y-124053118D01*
X319908935Y-124053118D02*
X319803512Y-123900390D01*
X319803512Y-123900390D02*
X319677799Y-123764727D01*
X319677799Y-123764727D02*
X319536188Y-123652817D01*
X319536188Y-123652817D02*
X319433403Y-123593866D01*
X319433403Y-123593866D02*
X319379945Y-123567871D01*
X319379945Y-123567871D02*
X319331760Y-123545584D01*
X319331760Y-123545584D02*
X319285480Y-123526721D01*
X319285480Y-123526721D02*
X319237734Y-123510995D01*
X319237734Y-123510995D02*
X319185154Y-123498122D01*
X319185154Y-123498122D02*
X319124369Y-123487816D01*
X319124369Y-123487816D02*
X319052011Y-123479792D01*
X319052011Y-123479792D02*
X318964710Y-123473764D01*
X318964710Y-123473764D02*
X318859096Y-123469447D01*
X318859096Y-123469447D02*
X318731801Y-123466555D01*
X318731801Y-123466555D02*
X318579454Y-123464804D01*
X318579454Y-123464804D02*
X318398686Y-123463908D01*
X318398686Y-123463908D02*
X318186127Y-123463581D01*
X318186127Y-123463581D02*
X317938409Y-123463538D01*
X317938409Y-123463538D02*
X316734333Y-123463538D01*
X316734333Y-123463538D02*
X316747244Y-123566115D01*
X316747244Y-123566115D02*
X316747244Y-123566115D01*
G36*
X318186127Y-123463581D02*
G01*
X318398686Y-123463908D01*
X318579454Y-123464804D01*
X318731801Y-123466555D01*
X318859096Y-123469447D01*
X318964710Y-123473764D01*
X319052011Y-123479792D01*
X319124369Y-123487816D01*
X319185154Y-123498122D01*
X319237734Y-123510995D01*
X319285480Y-123526721D01*
X319331760Y-123545584D01*
X319379945Y-123567871D01*
X319433403Y-123593866D01*
X319536188Y-123652817D01*
X319677799Y-123764727D01*
X319803512Y-123900390D01*
X319908935Y-124053118D01*
X319989675Y-124216226D01*
X320041341Y-124383030D01*
X320059539Y-124546844D01*
X320059539Y-124637817D01*
X318882346Y-124631269D01*
X318846417Y-124631068D01*
X318605296Y-124629625D01*
X318399652Y-124628158D01*
X318226317Y-124626561D01*
X318082125Y-124624732D01*
X317963908Y-124622567D01*
X317868501Y-124619963D01*
X317792735Y-124616816D01*
X317733444Y-124613023D01*
X317687462Y-124608481D01*
X317651620Y-124603086D01*
X317622753Y-124596734D01*
X317597693Y-124589324D01*
X317489723Y-124548863D01*
X317294404Y-124446555D01*
X317125214Y-124316644D01*
X316984027Y-124161387D01*
X316872719Y-123983043D01*
X316793166Y-123783866D01*
X316747244Y-123566115D01*
X316734333Y-123463538D01*
X317938409Y-123463538D01*
X318186127Y-123463581D01*
G37*
X318186127Y-123463581D02*
X318398686Y-123463908D01*
X318579454Y-123464804D01*
X318731801Y-123466555D01*
X318859096Y-123469447D01*
X318964710Y-123473764D01*
X319052011Y-123479792D01*
X319124369Y-123487816D01*
X319185154Y-123498122D01*
X319237734Y-123510995D01*
X319285480Y-123526721D01*
X319331760Y-123545584D01*
X319379945Y-123567871D01*
X319433403Y-123593866D01*
X319536188Y-123652817D01*
X319677799Y-123764727D01*
X319803512Y-123900390D01*
X319908935Y-124053118D01*
X319989675Y-124216226D01*
X320041341Y-124383030D01*
X320059539Y-124546844D01*
X320059539Y-124637817D01*
X318882346Y-124631269D01*
X318846417Y-124631068D01*
X318605296Y-124629625D01*
X318399652Y-124628158D01*
X318226317Y-124626561D01*
X318082125Y-124624732D01*
X317963908Y-124622567D01*
X317868501Y-124619963D01*
X317792735Y-124616816D01*
X317733444Y-124613023D01*
X317687462Y-124608481D01*
X317651620Y-124603086D01*
X317622753Y-124596734D01*
X317597693Y-124589324D01*
X317489723Y-124548863D01*
X317294404Y-124446555D01*
X317125214Y-124316644D01*
X316984027Y-124161387D01*
X316872719Y-123983043D01*
X316793166Y-123783866D01*
X316747244Y-123566115D01*
X316734333Y-123463538D01*
X317938409Y-123463538D01*
X318186127Y-123463581D01*
X323205231Y-121099384D02*
X322716770Y-121099384D01*
X322716770Y-121099384D02*
X322716770Y-122271692D01*
X322716770Y-122271692D02*
X324377423Y-122271692D01*
X324377423Y-122271692D02*
X324382366Y-119042961D01*
X324382366Y-119042961D02*
X324387308Y-115814230D01*
X324387308Y-115814230D02*
X324866000Y-115803258D01*
X324866000Y-115803258D02*
X324866000Y-114632154D01*
X324866000Y-114632154D02*
X323205231Y-114632154D01*
X323205231Y-114632154D02*
X323205231Y-121099384D01*
X323205231Y-121099384D02*
X323205231Y-121099384D01*
G36*
X324866000Y-115803258D02*
G01*
X324387308Y-115814230D01*
X324382366Y-119042961D01*
X324377423Y-122271692D01*
X322716770Y-122271692D01*
X322716770Y-121099384D01*
X323205231Y-121099384D01*
X323205231Y-114632154D01*
X324866000Y-114632154D01*
X324866000Y-115803258D01*
G37*
X324866000Y-115803258D02*
X324387308Y-115814230D01*
X324382366Y-119042961D01*
X324377423Y-122271692D01*
X322716770Y-122271692D01*
X322716770Y-121099384D01*
X323205231Y-121099384D01*
X323205231Y-114632154D01*
X324866000Y-114632154D01*
X324866000Y-115803258D01*
X319320970Y-116793728D02*
X319137824Y-116806345D01*
X319137824Y-116806345D02*
X318975163Y-116828150D01*
X318975163Y-116828150D02*
X318927155Y-116837533D01*
X318927155Y-116837533D02*
X318612827Y-116922754D01*
X318612827Y-116922754D02*
X318320649Y-117039147D01*
X318320649Y-117039147D02*
X318047613Y-117188357D01*
X318047613Y-117188357D02*
X317790708Y-117372028D01*
X317790708Y-117372028D02*
X317547672Y-117591056D01*
X317547672Y-117591056D02*
X317328315Y-117835053D01*
X317328315Y-117835053D02*
X317144723Y-118093355D01*
X317144723Y-118093355D02*
X316995554Y-118368494D01*
X316995554Y-118368494D02*
X316879467Y-118662998D01*
X316879467Y-118662998D02*
X316795119Y-118979398D01*
X316795119Y-118979398D02*
X316785237Y-119028307D01*
X316785237Y-119028307D02*
X316763328Y-119182859D01*
X316763328Y-119182859D02*
X316751081Y-119362196D01*
X316751081Y-119362196D02*
X316748391Y-119553506D01*
X316748391Y-119553506D02*
X316755154Y-119743981D01*
X316755154Y-119743981D02*
X316771263Y-119920809D01*
X316771263Y-119920809D02*
X316793678Y-120057758D01*
X316793678Y-120057758D02*
X316881223Y-120379274D01*
X316881223Y-120379274D02*
X317002891Y-120683279D01*
X317002891Y-120683279D02*
X317157164Y-120967758D01*
X317157164Y-120967758D02*
X317342525Y-121230698D01*
X317342525Y-121230698D02*
X317557457Y-121470083D01*
X317557457Y-121470083D02*
X317800443Y-121683901D01*
X317800443Y-121683901D02*
X318069965Y-121870136D01*
X318069965Y-121870136D02*
X318225424Y-121958220D01*
X318225424Y-121958220D02*
X318414451Y-122046470D01*
X318414451Y-122046470D02*
X318623344Y-122124797D01*
X318623344Y-122124797D02*
X318834788Y-122187267D01*
X318834788Y-122187267D02*
X318994693Y-122221931D01*
X318994693Y-122221931D02*
X319131303Y-122240803D01*
X319131303Y-122240803D02*
X319286976Y-122254152D01*
X319286976Y-122254152D02*
X319448726Y-122261492D01*
X319448726Y-122261492D02*
X319603566Y-122262340D01*
X319603566Y-122262340D02*
X319738512Y-122256211D01*
X319738512Y-122256211D02*
X319786000Y-122251456D01*
X319786000Y-122251456D02*
X320113188Y-122192595D01*
X320113188Y-122192595D02*
X320424246Y-122099106D01*
X320424246Y-122099106D02*
X320717290Y-121972746D01*
X320717290Y-121972746D02*
X320990435Y-121815275D01*
X320990435Y-121815275D02*
X321241799Y-121628451D01*
X321241799Y-121628451D02*
X321469498Y-121414034D01*
X321469498Y-121414034D02*
X321671647Y-121173780D01*
X321671647Y-121173780D02*
X321846365Y-120909450D01*
X321846365Y-120909450D02*
X321991765Y-120622802D01*
X321991765Y-120622802D02*
X322105966Y-120315593D01*
X322105966Y-120315593D02*
X322182260Y-120014291D01*
X322182260Y-120014291D02*
X322203373Y-119868525D01*
X322203373Y-119868525D02*
X322215392Y-119697181D01*
X322215392Y-119697181D02*
X322218430Y-119512656D01*
X322218430Y-119512656D02*
X322218253Y-119507000D01*
X322218253Y-119507000D02*
X321043129Y-119507000D01*
X321043129Y-119507000D02*
X321027131Y-119761527D01*
X321027131Y-119761527D02*
X320975566Y-120000305D01*
X320975566Y-120000305D02*
X320888716Y-120222666D01*
X320888716Y-120222666D02*
X320766864Y-120427941D01*
X320766864Y-120427941D02*
X320610294Y-120615464D01*
X320610294Y-120615464D02*
X320547890Y-120676274D01*
X320547890Y-120676274D02*
X320358871Y-120825236D01*
X320358871Y-120825236D02*
X320150379Y-120942057D01*
X320150379Y-120942057D02*
X319926719Y-121025606D01*
X319926719Y-121025606D02*
X319692195Y-121074752D01*
X319692195Y-121074752D02*
X319451110Y-121088366D01*
X319451110Y-121088366D02*
X319207768Y-121065316D01*
X319207768Y-121065316D02*
X319127285Y-121049378D01*
X319127285Y-121049378D02*
X318898673Y-120978545D01*
X318898673Y-120978545D02*
X318686259Y-120873794D01*
X318686259Y-120873794D02*
X318493062Y-120737992D01*
X318493062Y-120737992D02*
X318322100Y-120574009D01*
X318322100Y-120574009D02*
X318176393Y-120384713D01*
X318176393Y-120384713D02*
X318058958Y-120172972D01*
X318058958Y-120172972D02*
X317977149Y-119956384D01*
X317977149Y-119956384D02*
X317953931Y-119873111D01*
X317953931Y-119873111D02*
X317938519Y-119799581D01*
X317938519Y-119799581D02*
X317929351Y-119723266D01*
X317929351Y-119723266D02*
X317924864Y-119631639D01*
X317924864Y-119631639D02*
X317923541Y-119526538D01*
X317923541Y-119526538D02*
X317933675Y-119305303D01*
X317933675Y-119305303D02*
X317967594Y-119107809D01*
X317967594Y-119107809D02*
X318027905Y-118924959D01*
X318027905Y-118924959D02*
X318117215Y-118747652D01*
X318117215Y-118747652D02*
X318171411Y-118661452D01*
X318171411Y-118661452D02*
X318320955Y-118469488D01*
X318320955Y-118469488D02*
X318490598Y-118308466D01*
X318490598Y-118308466D02*
X318676848Y-118178172D01*
X318676848Y-118178172D02*
X318876215Y-118078393D01*
X318876215Y-118078393D02*
X319085208Y-118008918D01*
X319085208Y-118008918D02*
X319300336Y-117969532D01*
X319300336Y-117969532D02*
X319518109Y-117960024D01*
X319518109Y-117960024D02*
X319735035Y-117980180D01*
X319735035Y-117980180D02*
X319947623Y-118029789D01*
X319947623Y-118029789D02*
X320152384Y-118108637D01*
X320152384Y-118108637D02*
X320345825Y-118216512D01*
X320345825Y-118216512D02*
X320524456Y-118353200D01*
X320524456Y-118353200D02*
X320684787Y-118518490D01*
X320684787Y-118518490D02*
X320823325Y-118712168D01*
X320823325Y-118712168D02*
X320887055Y-118826915D01*
X320887055Y-118826915D02*
X320971766Y-119032785D01*
X320971766Y-119032785D02*
X321023278Y-119251249D01*
X321023278Y-119251249D02*
X321042904Y-119488021D01*
X321042904Y-119488021D02*
X321043129Y-119507000D01*
X321043129Y-119507000D02*
X322218253Y-119507000D01*
X322218253Y-119507000D02*
X322212601Y-119327348D01*
X322212601Y-119327348D02*
X322198017Y-119153656D01*
X322198017Y-119153656D02*
X322174792Y-119003977D01*
X322174792Y-119003977D02*
X322172974Y-118995318D01*
X322172974Y-118995318D02*
X322084391Y-118670498D01*
X322084391Y-118670498D02*
X321962756Y-118365293D01*
X321962756Y-118365293D02*
X321809727Y-118081372D01*
X321809727Y-118081372D02*
X321626965Y-117820403D01*
X321626965Y-117820403D02*
X321416127Y-117584052D01*
X321416127Y-117584052D02*
X321178873Y-117373989D01*
X321178873Y-117373989D02*
X320916863Y-117191882D01*
X320916863Y-117191882D02*
X320631754Y-117039397D01*
X320631754Y-117039397D02*
X320325207Y-116918203D01*
X320325207Y-116918203D02*
X320024637Y-116835546D01*
X320024637Y-116835546D02*
X319876434Y-116811205D01*
X319876434Y-116811205D02*
X319701963Y-116796136D01*
X319701963Y-116796136D02*
X319512913Y-116790317D01*
X319512913Y-116790317D02*
X319320970Y-116793728D01*
X319320970Y-116793728D02*
X319320970Y-116793728D01*
G36*
X322215392Y-119697181D02*
G01*
X322203373Y-119868525D01*
X322182260Y-120014291D01*
X322105966Y-120315593D01*
X321991765Y-120622802D01*
X321846365Y-120909450D01*
X321671647Y-121173780D01*
X321469498Y-121414034D01*
X321241799Y-121628451D01*
X320990435Y-121815275D01*
X320717290Y-121972746D01*
X320424246Y-122099106D01*
X320113188Y-122192595D01*
X319786000Y-122251456D01*
X319738512Y-122256211D01*
X319603566Y-122262340D01*
X319448726Y-122261492D01*
X319286976Y-122254152D01*
X319131303Y-122240803D01*
X318994693Y-122221931D01*
X318834788Y-122187267D01*
X318623344Y-122124797D01*
X318414451Y-122046470D01*
X318225424Y-121958220D01*
X318069965Y-121870136D01*
X317800443Y-121683901D01*
X317557457Y-121470083D01*
X317342525Y-121230698D01*
X317157164Y-120967758D01*
X317002891Y-120683279D01*
X316881223Y-120379274D01*
X316793678Y-120057758D01*
X316771263Y-119920809D01*
X316755154Y-119743981D01*
X316748391Y-119553506D01*
X316748770Y-119526538D01*
X317923541Y-119526538D01*
X317924864Y-119631639D01*
X317929351Y-119723266D01*
X317938519Y-119799581D01*
X317953931Y-119873111D01*
X317977149Y-119956384D01*
X318058958Y-120172972D01*
X318176393Y-120384713D01*
X318322100Y-120574009D01*
X318493062Y-120737992D01*
X318686259Y-120873794D01*
X318898673Y-120978545D01*
X319127285Y-121049378D01*
X319207768Y-121065316D01*
X319451110Y-121088366D01*
X319692195Y-121074752D01*
X319926719Y-121025606D01*
X320150379Y-120942057D01*
X320358871Y-120825236D01*
X320547890Y-120676274D01*
X320610294Y-120615464D01*
X320766864Y-120427941D01*
X320888716Y-120222666D01*
X320975566Y-120000305D01*
X321027131Y-119761527D01*
X321043129Y-119507000D01*
X321042904Y-119488021D01*
X321023278Y-119251249D01*
X320971766Y-119032785D01*
X320887055Y-118826915D01*
X320823325Y-118712168D01*
X320684787Y-118518490D01*
X320524456Y-118353200D01*
X320345825Y-118216512D01*
X320152384Y-118108637D01*
X319947623Y-118029789D01*
X319735035Y-117980180D01*
X319518109Y-117960024D01*
X319300336Y-117969532D01*
X319085208Y-118008918D01*
X318876215Y-118078393D01*
X318676848Y-118178172D01*
X318490598Y-118308466D01*
X318320955Y-118469488D01*
X318171411Y-118661452D01*
X318117215Y-118747652D01*
X318027905Y-118924959D01*
X317967594Y-119107809D01*
X317933675Y-119305303D01*
X317923541Y-119526538D01*
X316748770Y-119526538D01*
X316751081Y-119362196D01*
X316763328Y-119182859D01*
X316785237Y-119028307D01*
X316795119Y-118979398D01*
X316879467Y-118662998D01*
X316995554Y-118368494D01*
X317144723Y-118093355D01*
X317328315Y-117835053D01*
X317547672Y-117591056D01*
X317790708Y-117372028D01*
X318047613Y-117188357D01*
X318320649Y-117039147D01*
X318612827Y-116922754D01*
X318927155Y-116837533D01*
X318975163Y-116828150D01*
X319137824Y-116806345D01*
X319320970Y-116793728D01*
X319512913Y-116790317D01*
X319701963Y-116796136D01*
X319876434Y-116811205D01*
X320024637Y-116835546D01*
X320325207Y-116918203D01*
X320631754Y-117039397D01*
X320916863Y-117191882D01*
X321178873Y-117373989D01*
X321416127Y-117584052D01*
X321626965Y-117820403D01*
X321809727Y-118081372D01*
X321962756Y-118365293D01*
X322084391Y-118670498D01*
X322172974Y-118995318D01*
X322174792Y-119003977D01*
X322198017Y-119153656D01*
X322212601Y-119327348D01*
X322218253Y-119507000D01*
X322218430Y-119512656D01*
X322215392Y-119697181D01*
G37*
X322215392Y-119697181D02*
X322203373Y-119868525D01*
X322182260Y-120014291D01*
X322105966Y-120315593D01*
X321991765Y-120622802D01*
X321846365Y-120909450D01*
X321671647Y-121173780D01*
X321469498Y-121414034D01*
X321241799Y-121628451D01*
X320990435Y-121815275D01*
X320717290Y-121972746D01*
X320424246Y-122099106D01*
X320113188Y-122192595D01*
X319786000Y-122251456D01*
X319738512Y-122256211D01*
X319603566Y-122262340D01*
X319448726Y-122261492D01*
X319286976Y-122254152D01*
X319131303Y-122240803D01*
X318994693Y-122221931D01*
X318834788Y-122187267D01*
X318623344Y-122124797D01*
X318414451Y-122046470D01*
X318225424Y-121958220D01*
X318069965Y-121870136D01*
X317800443Y-121683901D01*
X317557457Y-121470083D01*
X317342525Y-121230698D01*
X317157164Y-120967758D01*
X317002891Y-120683279D01*
X316881223Y-120379274D01*
X316793678Y-120057758D01*
X316771263Y-119920809D01*
X316755154Y-119743981D01*
X316748391Y-119553506D01*
X316748770Y-119526538D01*
X317923541Y-119526538D01*
X317924864Y-119631639D01*
X317929351Y-119723266D01*
X317938519Y-119799581D01*
X317953931Y-119873111D01*
X317977149Y-119956384D01*
X318058958Y-120172972D01*
X318176393Y-120384713D01*
X318322100Y-120574009D01*
X318493062Y-120737992D01*
X318686259Y-120873794D01*
X318898673Y-120978545D01*
X319127285Y-121049378D01*
X319207768Y-121065316D01*
X319451110Y-121088366D01*
X319692195Y-121074752D01*
X319926719Y-121025606D01*
X320150379Y-120942057D01*
X320358871Y-120825236D01*
X320547890Y-120676274D01*
X320610294Y-120615464D01*
X320766864Y-120427941D01*
X320888716Y-120222666D01*
X320975566Y-120000305D01*
X321027131Y-119761527D01*
X321043129Y-119507000D01*
X321042904Y-119488021D01*
X321023278Y-119251249D01*
X320971766Y-119032785D01*
X320887055Y-118826915D01*
X320823325Y-118712168D01*
X320684787Y-118518490D01*
X320524456Y-118353200D01*
X320345825Y-118216512D01*
X320152384Y-118108637D01*
X319947623Y-118029789D01*
X319735035Y-117980180D01*
X319518109Y-117960024D01*
X319300336Y-117969532D01*
X319085208Y-118008918D01*
X318876215Y-118078393D01*
X318676848Y-118178172D01*
X318490598Y-118308466D01*
X318320955Y-118469488D01*
X318171411Y-118661452D01*
X318117215Y-118747652D01*
X318027905Y-118924959D01*
X317967594Y-119107809D01*
X317933675Y-119305303D01*
X317923541Y-119526538D01*
X316748770Y-119526538D01*
X316751081Y-119362196D01*
X316763328Y-119182859D01*
X316785237Y-119028307D01*
X316795119Y-118979398D01*
X316879467Y-118662998D01*
X316995554Y-118368494D01*
X317144723Y-118093355D01*
X317328315Y-117835053D01*
X317547672Y-117591056D01*
X317790708Y-117372028D01*
X318047613Y-117188357D01*
X318320649Y-117039147D01*
X318612827Y-116922754D01*
X318927155Y-116837533D01*
X318975163Y-116828150D01*
X319137824Y-116806345D01*
X319320970Y-116793728D01*
X319512913Y-116790317D01*
X319701963Y-116796136D01*
X319876434Y-116811205D01*
X320024637Y-116835546D01*
X320325207Y-116918203D01*
X320631754Y-117039397D01*
X320916863Y-117191882D01*
X321178873Y-117373989D01*
X321416127Y-117584052D01*
X321626965Y-117820403D01*
X321809727Y-118081372D01*
X321962756Y-118365293D01*
X322084391Y-118670498D01*
X322172974Y-118995318D01*
X322174792Y-119003977D01*
X322198017Y-119153656D01*
X322212601Y-119327348D01*
X322218253Y-119507000D01*
X322218430Y-119512656D01*
X322215392Y-119697181D01*
%TD*%
D11*
%TO.C,MX19*%
X23155000Y-82075000D03*
X12995000Y-82075000D03*
D12*
X14265000Y-79535000D03*
D13*
X18075000Y-82075000D03*
D12*
X20615000Y-76995000D03*
%TD*%
D11*
%TO.C,MX46*%
X56455000Y-120175000D03*
X46295000Y-120175000D03*
D12*
X47565000Y-117635000D03*
D13*
X51375000Y-120175000D03*
D12*
X53915000Y-115095000D03*
%TD*%
D11*
%TO.C,MX56*%
X304130000Y-120125000D03*
X293970000Y-120125000D03*
D12*
X295240000Y-117585000D03*
D13*
X299050000Y-120125000D03*
D12*
X301590000Y-115045000D03*
%TD*%
D11*
%TO.C,MX23*%
X99355000Y-82075000D03*
X89195000Y-82075000D03*
D12*
X90465000Y-79535000D03*
D13*
X94275000Y-82075000D03*
D12*
X96815000Y-76995000D03*
%TD*%
D11*
%TO.C,MX55*%
X261255000Y-120150000D03*
X251095000Y-120150000D03*
D12*
X252365000Y-117610000D03*
D13*
X256175000Y-120150000D03*
D12*
X258715000Y-115070000D03*
%TD*%
D11*
%TO.C,MX18*%
X323180000Y-62975000D03*
X313020000Y-62975000D03*
D12*
X314290000Y-60435000D03*
D13*
X318100000Y-62975000D03*
D12*
X320640000Y-57895000D03*
%TD*%
D13*
%TO.C,2.25u1*%
X256206250Y-109355000D03*
X232393750Y-109355000D03*
D14*
X256206250Y-94115000D03*
X232393750Y-94115000D03*
D11*
X249380000Y-101100000D03*
X239220000Y-101100000D03*
D12*
X240490000Y-98560000D03*
D13*
X244300000Y-101100000D03*
D12*
X246840000Y-96020000D03*
%TD*%
D11*
%TO.C,MX25*%
X137455000Y-82075000D03*
X127295000Y-82075000D03*
D12*
X128565000Y-79535000D03*
D13*
X132375000Y-82075000D03*
D12*
X134915000Y-76995000D03*
%TD*%
D11*
%TO.C,MX37*%
X85055000Y-101125000D03*
X74895000Y-101125000D03*
D12*
X76165000Y-98585000D03*
D13*
X79975000Y-101125000D03*
D12*
X82515000Y-96045000D03*
%TD*%
D11*
%TO.C,1.5u4*%
X46930000Y-139225000D03*
X36770000Y-139225000D03*
D12*
X38040000Y-136685000D03*
D13*
X41850000Y-139225000D03*
D12*
X44390000Y-134145000D03*
%TD*%
D13*
%TO.C,2.75u1*%
X251406250Y-128405000D03*
X227593750Y-128405000D03*
D14*
X251406250Y-113165000D03*
X227593750Y-113165000D03*
D11*
X244580000Y-120150000D03*
X234420000Y-120150000D03*
D12*
X235690000Y-117610000D03*
D13*
X239500000Y-120150000D03*
D12*
X242040000Y-115070000D03*
%TD*%
D11*
%TO.C,MX41*%
X161280000Y-101125000D03*
X151120000Y-101125000D03*
D12*
X152390000Y-98585000D03*
D13*
X156200000Y-101125000D03*
D12*
X158740000Y-96045000D03*
%TD*%
D11*
%TO.C,MX51*%
X151705000Y-120175000D03*
X141545000Y-120175000D03*
D12*
X142815000Y-117635000D03*
D13*
X146625000Y-120175000D03*
D12*
X149165000Y-115095000D03*
%TD*%
D11*
%TO.C,MX49*%
X113605000Y-120175000D03*
X103445000Y-120175000D03*
D12*
X104715000Y-117635000D03*
D13*
X108525000Y-120175000D03*
D12*
X111065000Y-115095000D03*
%TD*%
D11*
%TO.C,MX1*%
X-5420000Y-63025000D03*
X-15580000Y-63025000D03*
D12*
X-14310000Y-60485000D03*
D13*
X-10500000Y-63025000D03*
D12*
X-7960000Y-57945000D03*
%TD*%
D11*
%TO.C,MX2*%
X13630000Y-63025000D03*
X3470000Y-63025000D03*
D12*
X4740000Y-60485000D03*
D13*
X8550000Y-63025000D03*
D12*
X11090000Y-57945000D03*
%TD*%
D11*
%TO.C,MX3*%
X32680000Y-63025000D03*
X22520000Y-63025000D03*
D12*
X23790000Y-60485000D03*
D13*
X27600000Y-63025000D03*
D12*
X30140000Y-57945000D03*
%TD*%
D11*
%TO.C,1.5u1*%
X-670000Y-82075000D03*
X-10830000Y-82075000D03*
D12*
X-9560000Y-79535000D03*
D13*
X-5750000Y-82075000D03*
D12*
X-3210000Y-76995000D03*
%TD*%
D11*
%TO.C,MX33*%
X323180000Y-82025000D03*
X313020000Y-82025000D03*
D12*
X314290000Y-79485000D03*
D13*
X318100000Y-82025000D03*
D12*
X320640000Y-76945000D03*
%TD*%
D11*
%TO.C,MX54*%
X208855000Y-120175000D03*
X198695000Y-120175000D03*
D12*
X199965000Y-117635000D03*
D13*
X203775000Y-120175000D03*
D12*
X206315000Y-115095000D03*
%TD*%
D11*
%TO.C,MX8*%
X127930000Y-63025000D03*
X117770000Y-63025000D03*
D12*
X119040000Y-60485000D03*
D13*
X122850000Y-63025000D03*
D12*
X125390000Y-57945000D03*
%TD*%
D13*
%TO.C,10u1*%
X56137500Y-130970000D03*
D14*
X189487500Y-146210000D03*
D13*
X189487500Y-130970000D03*
D14*
X56137500Y-146210000D03*
%TD*%
D11*
%TO.C,MX9*%
X146980000Y-63025000D03*
X136820000Y-63025000D03*
D12*
X138090000Y-60485000D03*
D13*
X141900000Y-63025000D03*
D12*
X144440000Y-57945000D03*
%TD*%
D11*
%TO.C,MX11*%
X185080000Y-63025000D03*
X174920000Y-63025000D03*
D12*
X176190000Y-60485000D03*
D13*
X180000000Y-63025000D03*
D12*
X182540000Y-57945000D03*
%TD*%
D11*
%TO.C,MX35*%
X46955000Y-101125000D03*
X36795000Y-101125000D03*
D12*
X38065000Y-98585000D03*
D13*
X41875000Y-101125000D03*
D12*
X44415000Y-96045000D03*
%TD*%
D11*
%TO.C,MX14*%
X242230000Y-63000000D03*
X232070000Y-63000000D03*
D12*
X233340000Y-60460000D03*
D13*
X237150000Y-63000000D03*
D12*
X239690000Y-57920000D03*
%TD*%
D11*
%TO.C,1.75u2*%
X235055000Y-120150000D03*
X224895000Y-120150000D03*
D12*
X226165000Y-117610000D03*
D13*
X229975000Y-120150000D03*
D12*
X232515000Y-115070000D03*
%TD*%
D11*
%TO.C,MX38*%
X104105000Y-101125000D03*
X93945000Y-101125000D03*
D12*
X95215000Y-98585000D03*
D13*
X99025000Y-101125000D03*
D12*
X101565000Y-96045000D03*
%TD*%
D11*
%TO.C,MX30*%
X232705000Y-82050000D03*
X222545000Y-82050000D03*
D12*
X223815000Y-79510000D03*
D13*
X227625000Y-82050000D03*
D12*
X230165000Y-76970000D03*
%TD*%
%TO.C,1.75u1*%
X-835000Y-96045000D03*
D13*
X-3375000Y-101125000D03*
D12*
X-7185000Y-98585000D03*
D15*
X-4645000Y-106205000D03*
D16*
X-2105000Y-106205000D03*
D11*
X-8455000Y-101125000D03*
X1705000Y-101125000D03*
%TD*%
%TO.C,MX48*%
X94555000Y-120175000D03*
X84395000Y-120175000D03*
D12*
X85665000Y-117635000D03*
D13*
X89475000Y-120175000D03*
D12*
X92015000Y-115095000D03*
%TD*%
D11*
%TO.C,MX40*%
X142230000Y-101125000D03*
X132070000Y-101125000D03*
D12*
X133340000Y-98585000D03*
D13*
X137150000Y-101125000D03*
D12*
X139690000Y-96045000D03*
%TD*%
D11*
%TO.C,MX57*%
X285080000Y-139175000D03*
X274920000Y-139175000D03*
D12*
X276190000Y-136635000D03*
D13*
X280000000Y-139175000D03*
D12*
X282540000Y-134095000D03*
%TD*%
D11*
%TO.C,MX20*%
X42205000Y-82075000D03*
X32045000Y-82075000D03*
D12*
X33315000Y-79535000D03*
D13*
X37125000Y-82075000D03*
D12*
X39665000Y-76995000D03*
%TD*%
D11*
%TO.C,MX59*%
X323180000Y-139175000D03*
X313020000Y-139175000D03*
D12*
X314290000Y-136635000D03*
D13*
X318100000Y-139175000D03*
D12*
X320640000Y-134095000D03*
%TD*%
D13*
%TO.C,2.25u2*%
X13281250Y-128430000D03*
X-10531250Y-128430000D03*
D14*
X13281250Y-113190000D03*
X-10531250Y-113190000D03*
D11*
X6455000Y-120175000D03*
X-3705000Y-120175000D03*
D12*
X-2435000Y-117635000D03*
D13*
X1375000Y-120175000D03*
D12*
X3915000Y-115095000D03*
%TD*%
D11*
%TO.C,MX24*%
X118405000Y-82075000D03*
X108245000Y-82075000D03*
D12*
X109515000Y-79535000D03*
D13*
X113325000Y-82075000D03*
D12*
X115865000Y-76995000D03*
%TD*%
D11*
%TO.C,MX15*%
X261280000Y-62975000D03*
X251120000Y-62975000D03*
D12*
X252390000Y-60435000D03*
D13*
X256200000Y-62975000D03*
D12*
X258740000Y-57895000D03*
%TD*%
D11*
%TO.C,1.5u6*%
X256492125Y-139200000D03*
X246332125Y-139200000D03*
D12*
X247602125Y-136660000D03*
D13*
X251412125Y-139200000D03*
D12*
X253952125Y-134120000D03*
%TD*%
D11*
%TO.C,MX16*%
X285080000Y-62975000D03*
X274920000Y-62975000D03*
D12*
X276190000Y-60435000D03*
D13*
X280000000Y-62975000D03*
D12*
X282540000Y-57895000D03*
%TD*%
D11*
%TO.C,MX21*%
X61255000Y-82075000D03*
X51095000Y-82075000D03*
D12*
X52365000Y-79535000D03*
D13*
X56175000Y-82075000D03*
D12*
X58715000Y-76995000D03*
%TD*%
D11*
%TO.C,MX45*%
X37405000Y-120175000D03*
X27245000Y-120175000D03*
D12*
X28515000Y-117635000D03*
D13*
X32325000Y-120175000D03*
D12*
X34865000Y-115095000D03*
%TD*%
D11*
%TO.C,MX39*%
X123155000Y-101125000D03*
X112995000Y-101125000D03*
D12*
X114265000Y-98585000D03*
D13*
X118075000Y-101125000D03*
D12*
X120615000Y-96045000D03*
%TD*%
D11*
%TO.C,MX10*%
X166030000Y-63025000D03*
X155870000Y-63025000D03*
D12*
X157140000Y-60485000D03*
D13*
X160950000Y-63025000D03*
D12*
X163490000Y-57945000D03*
%TD*%
D13*
%TO.C,7u1*%
X179962500Y-130970000D03*
X65662500Y-130970000D03*
D14*
X179962500Y-146210000D03*
X65662500Y-146210000D03*
D11*
X127892500Y-139225000D03*
X117732500Y-139225000D03*
D12*
X119002500Y-136685000D03*
D13*
X122812500Y-139225000D03*
D12*
X125352500Y-134145000D03*
%TD*%
D11*
%TO.C,MX27*%
X175555000Y-82075000D03*
X165395000Y-82075000D03*
D12*
X166665000Y-79535000D03*
D13*
X170475000Y-82075000D03*
D12*
X173015000Y-76995000D03*
%TD*%
D11*
%TO.C,MX13*%
X223180000Y-63000000D03*
X213020000Y-63000000D03*
D12*
X214290000Y-60460000D03*
D13*
X218100000Y-63000000D03*
D12*
X220640000Y-57920000D03*
%TD*%
D11*
%TO.C,1.5u3*%
X-695000Y-139225000D03*
X-10855000Y-139225000D03*
D12*
X-9585000Y-136685000D03*
D13*
X-5775000Y-139225000D03*
D12*
X-3235000Y-134145000D03*
%TD*%
D11*
%TO.C,MX52*%
X170755000Y-120175000D03*
X160595000Y-120175000D03*
D12*
X161865000Y-117635000D03*
D13*
X165675000Y-120175000D03*
D12*
X168215000Y-115095000D03*
%TD*%
D11*
%TO.C,1.5u5*%
X208867125Y-139200000D03*
X198707125Y-139200000D03*
D12*
X199977125Y-136660000D03*
D13*
X203787125Y-139200000D03*
D12*
X206327125Y-134120000D03*
%TD*%
D11*
%TO.C,MX53*%
X189805000Y-120175000D03*
X179645000Y-120175000D03*
D12*
X180915000Y-117635000D03*
D13*
X184725000Y-120175000D03*
D12*
X187265000Y-115095000D03*
%TD*%
D11*
%TO.C,MX42*%
X180330000Y-101125000D03*
X170170000Y-101125000D03*
D12*
X171440000Y-98585000D03*
D13*
X175250000Y-101125000D03*
D12*
X177790000Y-96045000D03*
%TD*%
D11*
%TO.C,MX4*%
X51730000Y-63025000D03*
X41570000Y-63025000D03*
D12*
X42840000Y-60485000D03*
D13*
X46650000Y-63025000D03*
D12*
X49190000Y-57945000D03*
%TD*%
D11*
%TO.C,MX17*%
X304130000Y-62975000D03*
X293970000Y-62975000D03*
D12*
X295240000Y-60435000D03*
D13*
X299050000Y-62975000D03*
D12*
X301590000Y-57895000D03*
%TD*%
D11*
%TO.C,MX47*%
X75505000Y-120175000D03*
X65345000Y-120175000D03*
D12*
X66615000Y-117635000D03*
D13*
X70425000Y-120175000D03*
D12*
X72965000Y-115095000D03*
%TD*%
D11*
%TO.C,MX31*%
X285080000Y-82025000D03*
X274920000Y-82025000D03*
D12*
X276190000Y-79485000D03*
D13*
X280000000Y-82025000D03*
D12*
X282540000Y-76945000D03*
%TD*%
D11*
%TO.C,MX43*%
X199380000Y-101125000D03*
X189220000Y-101125000D03*
D12*
X190490000Y-98585000D03*
D13*
X194300000Y-101125000D03*
D12*
X196840000Y-96045000D03*
%TD*%
D11*
%TO.C,1.5u2*%
X256505000Y-82050000D03*
X246345000Y-82050000D03*
D12*
X247615000Y-79510000D03*
D13*
X251425000Y-82050000D03*
D12*
X253965000Y-76970000D03*
%TD*%
%TO.C,1.25u1*%
X-5610000Y-96045000D03*
D13*
X-8150000Y-101125000D03*
D12*
X-11960000Y-98585000D03*
D15*
X-9420000Y-106205000D03*
D16*
X-6880000Y-106205000D03*
D11*
X-13230000Y-101125000D03*
X-3070000Y-101125000D03*
%TD*%
%TO.C,MX12*%
X204130000Y-63000000D03*
X193970000Y-63000000D03*
D12*
X195240000Y-60460000D03*
D13*
X199050000Y-63000000D03*
D12*
X201590000Y-57920000D03*
%TD*%
D11*
%TO.C,MX34*%
X27905000Y-101125000D03*
X17745000Y-101125000D03*
D12*
X19015000Y-98585000D03*
D13*
X22825000Y-101125000D03*
D12*
X25365000Y-96045000D03*
%TD*%
D11*
%TO.C,MX44*%
X218430000Y-101100000D03*
X208270000Y-101100000D03*
D12*
X209540000Y-98560000D03*
D13*
X213350000Y-101100000D03*
D12*
X215890000Y-96020000D03*
%TD*%
D11*
%TO.C,MX22*%
X80305000Y-82075000D03*
X70145000Y-82075000D03*
D12*
X71415000Y-79535000D03*
D13*
X75225000Y-82075000D03*
D12*
X77765000Y-76995000D03*
%TD*%
D11*
%TO.C,MX50*%
X132655000Y-120175000D03*
X122495000Y-120175000D03*
D12*
X123765000Y-117635000D03*
D13*
X127575000Y-120175000D03*
D12*
X130115000Y-115095000D03*
%TD*%
D11*
%TO.C,MX32*%
X304130000Y-82025000D03*
X293970000Y-82025000D03*
D12*
X295240000Y-79485000D03*
D13*
X299050000Y-82025000D03*
D12*
X301590000Y-76945000D03*
%TD*%
D11*
%TO.C,MX26*%
X156505000Y-82075000D03*
X146345000Y-82075000D03*
D12*
X147615000Y-79535000D03*
D13*
X151425000Y-82075000D03*
D12*
X153965000Y-76995000D03*
%TD*%
D11*
%TO.C,MX5*%
X70780000Y-63025000D03*
X60620000Y-63025000D03*
D12*
X61890000Y-60485000D03*
D13*
X65700000Y-63025000D03*
D12*
X68240000Y-57945000D03*
%TD*%
D13*
%TO.C,2u1*%
X258581250Y-71230000D03*
X234768750Y-71230000D03*
D14*
X258581250Y-55990000D03*
X234768750Y-55990000D03*
D11*
X251755000Y-62975000D03*
X241595000Y-62975000D03*
D12*
X242865000Y-60435000D03*
D13*
X246675000Y-62975000D03*
D12*
X249215000Y-57895000D03*
%TD*%
D11*
%TO.C,MX29*%
X213655000Y-82050000D03*
X203495000Y-82050000D03*
D12*
X204765000Y-79510000D03*
D13*
X208575000Y-82050000D03*
D12*
X211115000Y-76970000D03*
%TD*%
D11*
%TO.C,MX58*%
X304130000Y-139175000D03*
X293970000Y-139175000D03*
D12*
X295240000Y-136635000D03*
D13*
X299050000Y-139175000D03*
D12*
X301590000Y-134095000D03*
%TD*%
D11*
%TO.C,MX28*%
X194605000Y-82075000D03*
X184445000Y-82075000D03*
D12*
X185715000Y-79535000D03*
D13*
X189525000Y-82075000D03*
D12*
X192065000Y-76995000D03*
%TD*%
D11*
%TO.C,MX6*%
X89830000Y-63025000D03*
X79670000Y-63025000D03*
D12*
X80940000Y-60485000D03*
D13*
X84750000Y-63025000D03*
D12*
X87290000Y-57945000D03*
%TD*%
D11*
%TO.C,MX36*%
X66005000Y-101125000D03*
X55845000Y-101125000D03*
D12*
X57115000Y-98585000D03*
D13*
X60925000Y-101125000D03*
D12*
X63465000Y-96045000D03*
%TD*%
D11*
%TO.C,MX7*%
X108880000Y-63025000D03*
X98720000Y-63025000D03*
D12*
X99990000Y-60485000D03*
D13*
X103800000Y-63025000D03*
D12*
X106340000Y-57945000D03*
%TD*%
D17*
%TO.C,D47*%
X221350000Y-99450000D03*
X221350000Y-102750000D03*
%TD*%
%TO.C,D16*%
X287000000Y-66325000D03*
X287000000Y-69625000D03*
%TD*%
D18*
%TO.C,C1*%
X266887913Y-95412913D03*
X265562087Y-94087087D03*
%TD*%
D19*
%TO.C,R4*%
X263050000Y-83912500D03*
X263050000Y-85787500D03*
%TD*%
D17*
%TO.C,D2*%
X15550000Y-66375000D03*
X15550000Y-69675000D03*
%TD*%
D19*
%TO.C,C5*%
X263625000Y-101312500D03*
X263625000Y-103187500D03*
%TD*%
D17*
%TO.C,D56*%
X153625000Y-123525000D03*
X153625000Y-126825000D03*
%TD*%
%TO.C,D23*%
X82225000Y-85425000D03*
X82225000Y-88725000D03*
%TD*%
D20*
%TO.C,C3*%
X284675000Y-103187500D03*
X284675000Y-101312500D03*
%TD*%
D17*
%TO.C,D31*%
X234625000Y-85400000D03*
X234625000Y-88700000D03*
%TD*%
%TO.C,D20*%
X25075000Y-85425000D03*
X25075000Y-88725000D03*
%TD*%
%TO.C,D25*%
X120325000Y-85425000D03*
X120325000Y-88725000D03*
%TD*%
%TO.C,D67*%
X258412125Y-142550000D03*
X258412125Y-145850000D03*
%TD*%
%TO.C,D51*%
X58375000Y-123525000D03*
X58375000Y-126825000D03*
%TD*%
%TO.C,D27*%
X158425000Y-85425000D03*
X158425000Y-88725000D03*
%TD*%
%TO.C,D15*%
X264975000Y-66325000D03*
X264975000Y-69625000D03*
%TD*%
%TO.C,D19*%
X1250000Y-85425000D03*
X1250000Y-88725000D03*
%TD*%
D21*
%TO.C,J1*%
X268500000Y-58125000D03*
X268500000Y-59125000D03*
X268500000Y-57125000D03*
X268500000Y-56125000D03*
D22*
X272375000Y-54825000D03*
X272375000Y-60425000D03*
%TD*%
D17*
%TO.C,D9*%
X148900000Y-66375000D03*
X148900000Y-69675000D03*
%TD*%
%TO.C,D36*%
X3625000Y-104475000D03*
X3625000Y-107775000D03*
%TD*%
%TO.C,D8*%
X129850000Y-66375000D03*
X129850000Y-69675000D03*
%TD*%
D23*
%TO.C,Y1*%
X282182468Y-91731122D03*
X284233078Y-93781732D03*
X282606732Y-95408078D03*
X280556122Y-93357468D03*
%TD*%
D17*
%TO.C,D38*%
X48875000Y-104475000D03*
X48875000Y-107775000D03*
%TD*%
D24*
%TO.C,C4*%
X275087500Y-112750000D03*
X273212500Y-112750000D03*
%TD*%
D17*
%TO.C,D28*%
X177475000Y-85425000D03*
X177475000Y-88725000D03*
%TD*%
%TO.C,D21*%
X44125000Y-85425000D03*
X44125000Y-88725000D03*
%TD*%
%TO.C,D37*%
X29825000Y-104475000D03*
X29825000Y-107775000D03*
%TD*%
%TO.C,D33*%
X287000000Y-85375000D03*
X287000000Y-88675000D03*
%TD*%
%TO.C,D55*%
X134575000Y-123525000D03*
X134575000Y-126825000D03*
%TD*%
%TO.C,D13*%
X225100000Y-66350000D03*
X225100000Y-69650000D03*
%TD*%
%TO.C,D35*%
X325100000Y-85375000D03*
X325100000Y-88675000D03*
%TD*%
%TO.C,D6*%
X91750000Y-66375000D03*
X91750000Y-69675000D03*
%TD*%
%TO.C,D44*%
X163200000Y-104475000D03*
X163200000Y-107775000D03*
%TD*%
%TO.C,D26*%
X139375000Y-85425000D03*
X139375000Y-88725000D03*
%TD*%
%TO.C,D12*%
X206050000Y-66350000D03*
X206050000Y-69650000D03*
%TD*%
%TO.C,D49*%
X8375000Y-123525000D03*
X8375000Y-126825000D03*
%TD*%
%TO.C,D10*%
X167950000Y-66375000D03*
X167950000Y-69675000D03*
%TD*%
D25*
%TO.C,U1*%
X270028580Y-102835886D03*
X270382133Y-103189439D03*
X270735687Y-103542993D03*
X271089240Y-103896546D03*
X271442794Y-104250100D03*
X271796347Y-104603653D03*
X272149900Y-104957206D03*
X272503454Y-105310760D03*
X272882109Y-105639211D03*
X273210561Y-106017867D03*
X273564114Y-106371420D03*
D26*
X274748518Y-106371420D03*
X275102071Y-106017867D03*
X275455625Y-105664313D03*
X275809178Y-105310760D03*
X276162731Y-104957206D03*
X276516285Y-104603653D03*
X276869838Y-104250100D03*
X277223392Y-103896546D03*
X277576945Y-103542993D03*
X277930498Y-103189439D03*
X278284052Y-102835886D03*
D25*
X278284052Y-101651482D03*
X277930498Y-101297929D03*
X277576945Y-100944375D03*
X277223392Y-100590822D03*
X276869838Y-100237269D03*
X276516285Y-99883715D03*
X276162731Y-99530162D03*
X275809178Y-99176608D03*
X275455625Y-98823055D03*
X275102071Y-98469502D03*
X274748518Y-98115948D03*
D26*
X273564114Y-98115948D03*
X273210561Y-98469502D03*
X272857007Y-98823055D03*
X272503454Y-99176608D03*
X272149900Y-99530162D03*
X271796347Y-99883715D03*
X271442794Y-100237269D03*
X271089240Y-100590822D03*
X270735687Y-100944375D03*
X270382133Y-101297929D03*
X270028580Y-101651482D03*
D27*
X274156316Y-102243684D03*
D28*
X267297380Y-103445766D03*
X267863066Y-104011451D03*
X268428751Y-104577136D03*
X268994436Y-105142822D03*
X269560122Y-105708507D03*
X270125807Y-106274193D03*
X270691493Y-106839878D03*
X271257178Y-107405564D03*
X271822864Y-107971249D03*
X272388549Y-108536934D03*
X272954234Y-109102620D03*
D29*
X275358397Y-109102620D03*
X275924083Y-108536934D03*
X276489768Y-107971249D03*
X277055454Y-107405564D03*
X277621139Y-106839878D03*
X278186825Y-106274193D03*
X278752510Y-105708507D03*
X279318195Y-105142822D03*
X279883881Y-104577136D03*
X280449566Y-104011451D03*
X281015252Y-103445766D03*
D28*
X281015252Y-101041603D03*
X280449566Y-100475917D03*
X279883881Y-99910232D03*
X279318195Y-99344546D03*
X278752510Y-98778861D03*
X278186825Y-98213175D03*
X277621139Y-97647490D03*
X277055454Y-97081805D03*
X276489768Y-96516119D03*
X275924083Y-95950434D03*
X275358397Y-95384748D03*
D29*
X272954234Y-95384748D03*
X272388549Y-95950434D03*
X271822864Y-96516119D03*
X271257178Y-97081805D03*
X270691493Y-97647490D03*
X270125807Y-98213175D03*
X269560122Y-98778861D03*
X268994436Y-99344546D03*
X268428751Y-99910232D03*
X267863066Y-100475917D03*
X267297380Y-101041603D03*
%TD*%
D17*
%TO.C,D69*%
X306050000Y-142525000D03*
X306050000Y-145825000D03*
%TD*%
%TO.C,D61*%
X263175000Y-123500000D03*
X263175000Y-126800000D03*
%TD*%
%TO.C,D4*%
X53650000Y-66375000D03*
X53650000Y-69675000D03*
%TD*%
%TO.C,D66*%
X210787125Y-142550000D03*
X210787125Y-145850000D03*
%TD*%
%TO.C,D18*%
X325100000Y-66325000D03*
X325100000Y-69625000D03*
%TD*%
D19*
%TO.C,R3*%
X265025000Y-83912500D03*
X265025000Y-85787500D03*
%TD*%
D17*
%TO.C,D34*%
X306050000Y-85375000D03*
X306050000Y-88675000D03*
%TD*%
%TO.C,D24*%
X101275000Y-85425000D03*
X101275000Y-88725000D03*
%TD*%
%TO.C,D5*%
X72700000Y-66375000D03*
X72700000Y-69675000D03*
%TD*%
D24*
%TO.C,R2*%
X-2787500Y-109075000D03*
X-4662500Y-109075000D03*
%TD*%
D17*
%TO.C,D43*%
X144150000Y-104475000D03*
X144150000Y-107775000D03*
%TD*%
%TO.C,D59*%
X210775000Y-123525000D03*
X210775000Y-126825000D03*
%TD*%
%TO.C,D45*%
X182250000Y-104475000D03*
X182250000Y-107775000D03*
%TD*%
%TO.C,D70*%
X325100000Y-142525000D03*
X325100000Y-145825000D03*
%TD*%
D30*
%TO.C,C2*%
X273212500Y-91700000D03*
X275087500Y-91700000D03*
%TD*%
D17*
%TO.C,D46*%
X201300000Y-104475000D03*
X201300000Y-107775000D03*
%TD*%
D20*
%TO.C,R1*%
X288500000Y-95625000D03*
X288500000Y-93750000D03*
%TD*%
D17*
%TO.C,D22*%
X63175000Y-85425000D03*
X63175000Y-88725000D03*
%TD*%
%TO.C,D30*%
X215575000Y-85400000D03*
X215575000Y-88700000D03*
%TD*%
D18*
%TO.C,R5*%
X278687913Y-112412913D03*
X277362087Y-111087087D03*
%TD*%
D17*
%TO.C,D62*%
X306050000Y-123475000D03*
X306050000Y-126775000D03*
%TD*%
%TO.C,D42*%
X125075000Y-104475000D03*
X125075000Y-107775000D03*
%TD*%
%TO.C,D50*%
X39325000Y-123525000D03*
X39325000Y-126825000D03*
%TD*%
%TO.C,D53*%
X96475000Y-123525000D03*
X96475000Y-126825000D03*
%TD*%
%TO.C,D14*%
X262475000Y-66325000D03*
X262475000Y-69625000D03*
%TD*%
%TO.C,D64*%
X48850000Y-142575000D03*
X48850000Y-145875000D03*
%TD*%
%TO.C,D1*%
X-3500000Y-66375000D03*
X-3500000Y-69675000D03*
%TD*%
%TO.C,D52*%
X77425000Y-123525000D03*
X77425000Y-126825000D03*
%TD*%
D31*
%TO.C,C7*%
X285837913Y-95512087D03*
X284512087Y-96837913D03*
%TD*%
D17*
%TO.C,D7*%
X110800000Y-66375000D03*
X110800000Y-69675000D03*
%TD*%
D32*
%TO.C,C6*%
X279081687Y-91457513D03*
X280407513Y-90131687D03*
%TD*%
D17*
%TO.C,D32*%
X258425000Y-85400000D03*
X258425000Y-88700000D03*
%TD*%
%TO.C,D63*%
X2225000Y-138075000D03*
X2225000Y-141375000D03*
%TD*%
%TO.C,D58*%
X191725000Y-123525000D03*
X191725000Y-126825000D03*
%TD*%
%TO.C,D57*%
X172675000Y-123525000D03*
X172675000Y-126825000D03*
%TD*%
D33*
%TO.C,JP1*%
X288460000Y-91525000D03*
X293540000Y-91525000D03*
%TD*%
D17*
%TO.C,D65*%
X129812500Y-142575000D03*
X129812500Y-145875000D03*
%TD*%
%TO.C,D68*%
X288000000Y-138025000D03*
X288000000Y-141325000D03*
%TD*%
%TO.C,D60*%
X236975000Y-123500000D03*
X236975000Y-126800000D03*
%TD*%
%TO.C,D17*%
X306050000Y-66325000D03*
X306050000Y-69625000D03*
%TD*%
%TO.C,D39*%
X67925000Y-104475000D03*
X67925000Y-107775000D03*
%TD*%
%TO.C,D11*%
X187000000Y-66375000D03*
X187000000Y-69675000D03*
%TD*%
%TO.C,D3*%
X34600000Y-66375000D03*
X34600000Y-69675000D03*
%TD*%
%TO.C,D48*%
X252300000Y-99450000D03*
X252300000Y-102750000D03*
%TD*%
D18*
%TO.C,C8*%
X268287913Y-94012913D03*
X266962087Y-92687087D03*
%TD*%
D17*
%TO.C,D54*%
X115525000Y-123525000D03*
X115525000Y-126825000D03*
%TD*%
%TO.C,D41*%
X106025000Y-104475000D03*
X106025000Y-107775000D03*
%TD*%
%TO.C,D29*%
X196525000Y-85425000D03*
X196525000Y-88725000D03*
%TD*%
%TO.C,D40*%
X86975000Y-104475000D03*
X86975000Y-107775000D03*
%TD*%
M02*
